<?xml version="1.0" encoding="UTF-8" standalone="no"?>
<!-- Created with Inkscape (http://www.inkscape.org/) -->

<svg
   width="10.583333mm"
   height="7.5552402mm"
   viewBox="0 0 10.583333 7.5552402"
   version="1.1"
   id="svg1"
   xml:space="preserve"
   inkscape:export-filename="ビットマップ.svg"
   inkscape:export-xdpi="96"
   inkscape:export-ydpi="96"
   xmlns:inkscape="http://www.inkscape.org/namespaces/inkscape"
   xmlns:sodipodi="http://sodipodi.sourceforge.net/DTD/sodipodi-0.dtd"
   xmlns="http://www.w3.org/2000/svg"
   xmlns:svg="http://www.w3.org/2000/svg"><sodipodi:namedview
     id="namedview1"
     pagecolor="#ffffff"
     bordercolor="#111111"
     borderopacity="1"
     inkscape:showpageshadow="0"
     inkscape:pageopacity="0"
     inkscape:pagecheckerboard="1"
     inkscape:deskcolor="#d1d1d1"
     inkscape:document-units="mm"><inkscape:page
       x="0"
       y="0"
       width="10.583333"
       height="7.5552402"
       id="page2"
       margin="0"
       bleed="0" /></sodipodi:namedview><defs
     id="defs1" /><g
     inkscape:label="Layer 1"
     inkscape:groupmode="layer"
     id="layer1"
     transform="translate(-136.14093,123.4301)"><path
       style="fill:#000000;stroke:#000000;stroke-width:0.126521;stroke-dasharray:none;stroke-opacity:1"
       d="m 137.50441,-116.23248 c 3.5e-4,-0.50728 0.0513,-1.0183 0.15895,-1.61469 0.0513,-0.28976 0.19371,-0.88565 0.2427,-1.02559 0.0114,-0.0313 -0.006,-0.0296 -0.1561,0.0148 -0.23644,0.07 -0.37089,0.13417 -0.54921,0.26287 -0.29682,0.21438 -0.53496,0.51229 -0.51161,0.64116 0.0171,0.0921 0.14756,0.38763 0.23416,0.52818 0.0399,0.0701 0.0758,0.13434 0.0724,0.14277 -0.0114,0.0285 -0.46432,0.47806 -0.48198,0.47806 -0.0228,0 -0.1128,-0.14562 -0.17719,-0.28572 -0.12534,-0.27329 -0.1675,-0.7121 -0.0979,-1.02162 0.061,-0.27477 0.2108,-0.58636 0.38456,-0.80195 0.29854,-0.37055 0.8657,-0.64976 1.48065,-0.72902 l 0.10596,-0.0137 -0.0114,-0.15024 c -0.0114,-0.19114 0.0342,-0.41025 0.11395,-0.54197 0.0678,-0.11093 0.12591,-0.16163 0.22789,-0.2002 0.0689,-0.0262 0.0764,-0.0365 0.11451,-0.17285 0.0906,-0.31837 0.10824,-0.46626 0.10824,-0.90106 0,-0.52807 -0.0342,-0.74437 -0.22446,-1.41962 -0.0455,-0.16493 -0.0843,-0.30537 -0.0843,-0.31198 0,-0.007 0.0114,-0.012 0.0284,-0.012 0.0171,0 0.0342,0.0302 0.0455,0.0671 0.23132,0.82276 0.28031,1.08254 0.29626,1.5631 0.0171,0.47879 -0.0285,0.79108 -0.18573,1.25668 l -0.0787,0.23524 0.082,0.0801 c 0.14869,0.1459 0.49338,0.35499 0.83225,0.50483 0.0997,0.0444 0.15894,0.0518 0.5418,0.0715 0.56232,0.0285 1.37622,0.0279 1.68159,-10e-4 0.63557,-0.0607 1.23212,-0.22225 1.62529,-0.43988 0.25809,-0.14289 0.57012,-0.39504 0.57012,-0.46073 0,-0.0154 -0.0228,-0.0964 -0.0455,-0.18009 -0.13104,-0.44302 -0.17719,-1.05818 -0.11565,-1.5426 0.0455,-0.3563 0.24042,-1.13191 0.28999,-1.15001 0.0342,-0.0131 0.0228,0.0496 -0.0712,0.39231 -0.0399,0.15559 -0.0997,0.38775 -0.12533,0.51588 -0.11395,0.5675 -0.0576,1.63354 0.0917,1.67445 0.0849,0.0234 0.1977,0.15656 0.26949,0.31768 0.0672,0.15006 0.0712,0.16835 0.0741,0.3784 l 0.004,0.22071 0.10368,0.22841 c 0.13445,0.29579 0.2182,0.51952 0.33728,0.89979 l 0.0968,0.30862 0.18116,0.0575 c 0.24441,0.0776 0.59695,0.22686 0.82877,0.35089 0.19883,0.10637 0.6353,0.41362 0.75938,0.53451 l 0.0718,0.07 -0.16237,0.25791 c -0.22049,0.34924 -0.19941,0.33061 -0.28429,0.25176 -0.14129,-0.13155 -0.4102,-0.32069 -0.6296,-0.44187 -0.23758,-0.13155 -0.55149,-0.27199 -0.56801,-0.25404 -0.005,0.006 0.004,0.13844 0.0228,0.29449 0.0455,0.42427 0.0672,0.74772 0.0678,1.05242 3.5e-4,0.22943 -0.004,0.27341 -0.0284,0.27341 -0.0228,0 -0.0285,-0.0439 -0.0285,-0.27227 0,-0.45561 -0.0786,-1.32912 -0.1242,-1.37936 -0.0114,-0.01 -0.11964,-0.0507 -0.24726,-0.0913 l -0.2313,-0.0734 -0.16124,0.07 c -0.44494,0.19302 -1.03095,0.34177 -1.65292,0.41942 -0.40108,0.0501 -1.44429,0.0496 -1.89951,-4.5e-4 -1.16222,-0.12836 -2.23911,-0.40963 -2.82808,-0.73873 -0.0603,-0.0336 -0.11395,-0.0564 -0.12021,-0.0501 -0.0171,0.0211 -0.11452,0.59978 -0.15383,0.92965 -0.0228,0.19405 -0.0455,0.5152 -0.0513,0.77897 -0.0114,0.35681 -0.0171,0.44882 -0.0342,0.44882 -0.0171,0 -0.0228,-0.061 -0.0228,-0.29403 z m -0.7477,-0.88125 c 0.12591,-0.13098 0.17149,-0.19131 0.15724,-0.20692 -0.0114,-0.0154 -0.0787,0.0387 -0.21991,0.18675 -0.10939,0.11486 -0.19484,0.21724 -0.18914,0.22755 0.0171,0.0285 0.0576,-0.005 0.25067,-0.20744 z m 9.65925,-0.0416 c 0.077,-0.12392 0.14244,-0.23399 0.14586,-0.2447 0.003,-0.0108 -0.0285,-0.049 -0.0741,-0.0849 l -0.0803,-0.0655 -0.0513,0.0682 c -0.0758,0.0964 -0.23644,0.36758 -0.23644,0.39903 0,0.0233 0.12648,0.1524 0.14927,0.15291 0.005,7e-5 0.0724,-0.10118 0.14926,-0.22504 z m -0.12647,-0.0182 c -0.0342,-0.0262 -0.0342,-0.1279 7e-4,-0.1549 0.0724,-0.0524 0.14812,0.0887 0.078,0.14545 -0.0399,0.0313 -0.0455,0.0319 -0.0786,0.01 z m 0.0455,-0.10072 c -0.0171,-0.0211 -0.0342,0.0108 -0.0171,0.0382 0.0114,0.0211 0.0171,0.0211 0.0228,7e-5 0.004,-0.0142 0.003,-0.0319 -0.004,-0.0387 z m -9.67772,0.0953 c 0.10141,-0.1034 0.19143,-0.19507 0.19998,-0.20367 0.006,-0.009 -0.0114,-0.062 -0.0399,-0.11856 -0.15497,-0.27865 -0.24783,-0.62321 -0.25125,-0.93419 -0.001,-0.10779 0.004,-0.2239 0.0114,-0.25791 l 0.0114,-0.0619 -0.0455,0.0619 c -0.0455,0.0612 -0.19883,0.38729 -0.22447,0.48284 -0.0114,0.0461 -0.0114,0.0484 0.0455,0.0365 0.0786,-0.0171 0.0803,0.0393 0.002,0.0584 -0.0626,0.0154 -0.0826,0.0461 -0.10141,0.16266 -0.0114,0.0722 -0.0114,0.0786 0.0228,0.0644 0.12649,-0.0585 0.16237,-0.0154 0.0455,0.0513 -0.0684,0.0387 -0.0747,0.049 -0.0747,0.12665 0,0.0885 0.005,0.0911 0.098,0.049 0.0228,-0.0102 0.0342,-0.005 0.0342,0.0171 0,0.0177 -0.0171,0.0376 -0.0342,0.0444 -0.0581,0.0205 -0.0809,0.0655 -0.0672,0.13388 0.006,0.0348 0.0228,0.0627 0.0342,0.0627 0.0114,0 0.0684,-0.0325 0.12476,-0.0717 0.11225,-0.0791 0.12991,-0.0853 0.12991,-0.0461 0,0.0148 -0.0513,0.0633 -0.12136,0.10836 -0.12591,0.0847 -0.13844,0.11092 -0.10027,0.20373 l 0.0228,0.0518 0.0803,-0.061 c 0.0576,-0.0421 0.0843,-0.0536 0.0935,-0.037 0.006,0.0137 -0.006,0.0393 -0.0284,0.0606 -0.12078,0.0988 -0.11451,0.0887 -0.09,0.14881 0.0114,0.0308 0.0285,0.0558 0.0342,0.0558 0.006,0 0.0963,-0.0846 0.1977,-0.18801 z m 9.42351,0.0359 c 0,-0.0313 0.17034,-0.30941 0.237,-0.38752 l 0.0455,-0.0547 -0.0513,-0.0353 c -0.0284,-0.0194 -0.0513,-0.0319 -0.0576,-0.0279 -0.003,0.004 -0.0228,0.0473 -0.0513,0.0957 -0.0228,0.0484 -0.0513,0.0877 -0.0576,0.0877 -0.0342,0 -0.0284,-0.0348 0.0114,-0.11287 0.0228,-0.0478 0.0455,-0.0956 0.0455,-0.10631 0,-0.0211 -0.0968,-0.0904 -0.12647,-0.0904 -0.0113,0 -0.0455,0.0553 -0.0775,0.12312 -0.0342,0.0677 -0.0678,0.12898 -0.0786,0.13622 -0.0455,0.0308 -0.0342,-0.0182 0.0285,-0.14551 0.0342,-0.0747 0.0672,-0.14311 0.0672,-0.15194 0,-0.009 -0.0342,-0.0365 -0.0724,-0.0613 l -0.0724,-0.045 -0.0342,0.0929 c -0.0171,0.0513 -0.0455,0.093 -0.0581,0.093 -0.0342,8e-5 -0.0285,-0.0302 0.0114,-0.12403 l 0.0399,-0.0812 -0.0741,-0.0416 c -0.0399,-0.0228 -0.0814,-0.0416 -0.09,-0.0416 -0.0114,0 -0.0285,0.0467 -0.0513,0.10317 -0.0171,0.057 -0.0399,0.10318 -0.0455,0.10318 -0.0342,0 -0.0342,-0.0325 -5e-5,-0.12682 0.0171,-0.0558 0.0342,-0.105 0.0342,-0.10899 0,-0.01 -0.15269,-0.077 -0.15838,-0.0694 -0.003,0.003 -0.0171,0.0501 -0.0399,0.10403 -0.0171,0.0541 -0.0399,0.098 -0.0513,0.098 -0.0228,0 -0.0171,-0.0479 0.0114,-0.13092 0.0342,-0.0966 0.0399,-0.0907 -0.0399,-0.12671 -0.0883,-0.041 -0.0957,-0.0399 -0.11109,0.0154 -0.0455,0.15838 -0.0889,0.2631 -0.11224,0.2631 -0.0342,0 -0.0342,0.0177 0.0284,-0.17137 l 0.0513,-0.16106 -0.0455,-0.0194 c -0.12363,-0.0518 -0.13047,-0.0501 -0.1561,0.0518 -0.0228,0.0908 -0.0455,0.13041 -0.0678,0.10819 -0.005,-0.006 0.003,-0.057 0.0171,-0.11406 l 0.0285,-0.10374 -0.0576,-0.0222 c -0.10198,-0.0393 -0.11736,-0.0302 -0.14357,0.0811 -0.0228,0.0966 -0.0342,0.1189 -0.0616,0.0919 -0.006,-0.006 0.002,-0.0579 0.0171,-0.11497 0.0171,-0.057 0.0228,-0.10767 0.0171,-0.11252 -0.004,-0.005 -0.0455,-0.0142 -0.0912,-0.0216 l -0.0837,-0.0125 -0.0342,0.15684 c -0.0284,0.14665 -0.0576,0.19798 -0.0809,0.17024 -0.006,-0.006 0.006,-0.0864 0.0284,-0.1777 0.0228,-0.0913 0.0285,-0.17023 0.0228,-0.17536 -0.006,-0.005 -0.0455,-0.0154 -0.0906,-0.0228 l -0.0775,-0.0137 -0.0114,0.0822 c -0.006,0.045 -0.0171,0.0949 -0.0285,0.1103 -0.0284,0.053 -0.0399,-7e-4 -0.0228,-0.10415 l 0.0171,-0.10363 -0.0672,-0.0205 c -0.10255,-0.0313 -0.10654,-0.0291 -0.1316,0.0947 -0.0171,0.0807 -0.0285,0.10911 -0.0399,0.094 -0.0114,-0.0148 -0.0114,-0.0541 -0.001,-0.12408 l 0.0171,-0.10243 -0.0576,-0.012 c -0.12647,-0.0279 -0.12362,-0.0319 -0.17262,0.25085 -0.006,0.0399 -0.0228,0.0671 -0.0399,0.0671 -0.0171,0 -0.0228,-0.0131 -0.0171,-0.0359 0.0284,-0.11349 0.0513,-0.29859 0.0399,-0.3134 -0.0114,-0.009 -0.0455,-0.0228 -0.0854,-0.0302 l -0.0684,-0.0137 -0.0228,0.11412 c -0.0285,0.15587 -0.0644,0.1508 -0.0455,-0.007 l 0.0114,-0.12107 -0.078,-0.0137 c -0.0399,-0.007 -0.0814,-0.01 -0.086,-0.005 -0.004,0.005 -0.0171,0.0536 -0.0285,0.10898 -0.0114,0.0553 -0.0284,0.0976 -0.0399,0.0941 -0.0228,-0.007 -0.0228,-0.0165 -0.001,-0.14066 l 0.0114,-0.0852 -0.0872,-0.0142 c -0.0455,-0.008 -0.09,-0.0114 -0.0935,-0.007 -0.004,0.004 -0.0171,0.0834 -0.0284,0.17695 -0.0171,0.11047 -0.0342,0.17012 -0.0455,0.17012 -0.0285,0 -0.0285,-0.0171 0.002,-0.20265 0.0285,-0.16476 0.0342,-0.15656 -0.086,-0.17821 -0.0678,-0.0125 -0.0689,-0.0114 -0.0814,0.0655 -0.0171,0.12055 -0.0284,0.15035 -0.0513,0.15035 -0.0114,0 -0.0171,-0.0387 -0.006,-0.1115 0.006,-0.0613 0.006,-0.11611 -0.003,-0.12169 -0.006,-0.006 -0.0455,-0.0137 -0.0895,-0.0177 l -0.0747,-0.007 -0.0171,0.1083 c -0.0114,0.0745 -0.0228,0.10837 -0.0455,0.10837 -0.0171,0 -0.0228,-0.0137 -0.0171,-0.0359 0.005,-0.0199 0.0114,-0.0706 0.0228,-0.11292 0.0114,-0.0822 0.006,-0.0874 -0.12079,-0.10312 -0.0399,-0.005 -0.0455,0.003 -0.0632,0.10255 -0.0114,0.0705 -0.0228,0.10836 -0.0399,0.10836 -0.0228,0 -0.0228,-0.0719 0.006,-0.18817 0.006,-0.0239 -0.006,-0.037 -0.0513,-0.0461 -0.1225,-0.0273 -0.1242,-0.0251 -0.1487,0.13935 -0.0114,0.0838 -0.0285,0.16476 -0.0399,0.17998 -0.0342,0.0606 -0.0399,-0.009 -0.0114,-0.16733 0.0171,-0.0917 0.0228,-0.16995 0.0171,-0.17382 -0.006,-0.004 -0.0455,-0.0137 -0.0889,-0.0211 -0.0854,-0.0154 -0.0849,-0.0165 -0.10826,0.13838 -0.0228,0.13229 -0.0513,0.0928 -0.0399,-0.0467 l 0.0114,-0.1238 -0.0661,-0.003 c -0.0342,-0.002 -0.077,-0.004 -0.09,-0.005 -0.0114,-0.001 -0.0285,0.041 -0.0399,0.10625 -0.0114,0.0705 -0.0228,0.10836 -0.0399,0.10836 -0.0228,0 -0.0228,-0.0724 0.006,-0.18915 0.0114,-0.0433 -0.004,-0.053 -0.0951,-0.0615 l -0.0735,-0.007 -0.0285,0.17069 c -0.0285,0.17205 -0.0455,0.20834 -0.0666,0.18334 -0.0114,-0.0125 0.0228,-0.27775 0.0455,-0.33802 0.005,-0.0142 -0.0114,-0.0302 -0.0455,-0.0376 -0.14358,-0.0336 -0.1339,-0.0376 -0.14699,0.0589 -0.006,0.049 -0.0171,0.10238 -0.0284,0.1181 -0.0285,0.0547 -0.0455,-0.003 -0.0228,-0.10574 0.0114,-0.057 0.0114,-0.10745 0.006,-0.11223 -0.006,-0.005 -0.0455,-0.0148 -0.0872,-0.0216 l -0.0741,-0.0131 -0.0228,0.11667 c -0.0114,0.0642 -0.0342,0.11361 -0.0399,0.10985 -0.0228,-0.009 -0.0228,-0.004 -0.006,-0.1254 0.006,-0.0547 0.0113,-0.10266 0.006,-0.10722 -0.004,-0.005 -0.0399,-0.0171 -0.0849,-0.0273 l -0.0774,-0.0194 -0.0284,0.15741 c -0.0399,0.21176 -0.0455,0.22042 -0.0678,0.19404 -0.0114,-0.0154 -0.0114,-0.0688 0.0114,-0.18054 0.0171,-0.0889 0.0228,-0.1659 0.0171,-0.17513 -0.0114,-0.009 -0.0455,-0.0228 -0.0854,-0.0302 -0.0684,-0.0137 -0.0689,-0.0131 -0.09,0.0749 -0.0342,0.14169 -0.0342,0.14933 -0.0581,0.12534 -0.0114,-0.0148 -0.0114,-0.0456 3.5e-4,-0.10147 0.0284,-0.11821 0.0284,-0.12756 -0.0513,-0.15097 -0.0974,-0.0296 -0.0946,-0.0313 -0.11679,0.066 -0.0342,0.13941 -0.0342,0.14841 -0.0576,0.1254 -0.0114,-0.0137 -0.0114,-0.0524 0.004,-0.1168 0.0284,-0.11064 0.0171,-0.12836 -0.0803,-0.14801 l -0.0672,-0.0137 -0.0455,0.17718 c -0.0284,0.10375 -0.0513,0.17718 -0.0678,0.17718 -0.0284,0 -0.0284,-0.005 0.0228,-0.19575 0.0228,-0.0906 0.0399,-0.17103 0.0342,-0.17866 -0.006,-0.007 -0.0455,-0.0234 -0.0826,-0.0342 l -0.0689,-0.0205 -0.0284,0.10636 c -0.0342,0.12443 -0.0342,0.12472 -0.061,0.10803 -0.0114,-0.008 -0.006,-0.0536 0.0171,-0.12529 l 0.0342,-0.11246 -0.0684,-0.0211 c -0.10197,-0.0313 -0.10425,-0.0302 -0.14014,0.0818 -0.0171,0.057 -0.0399,0.10318 -0.0513,0.10318 -0.0228,0 -0.0228,-0.0524 0.0114,-0.13731 0.0171,-0.041 0.0285,-0.0811 0.0285,-0.0897 0,-0.009 -0.0342,-0.029 -0.0826,-0.0456 l -0.0832,-0.0302 -0.0587,0.17206 c -0.0342,0.10477 -0.0689,0.17206 -0.0854,0.17206 -0.0342,0 -0.0342,0.009 0.0284,-0.16813 0.0285,-0.0835 0.0576,-0.16191 0.0576,-0.17439 6e-5,-0.0125 -0.0342,-0.0376 -0.0764,-0.0558 l -0.0764,-0.033 -0.0399,0.10215 c -0.0228,0.0564 -0.0513,0.10215 -0.0638,0.10215 -0.0342,0 -0.0342,-0.007 0.0114,-0.10318 0.0513,-0.10853 0.0455,-0.12106 -0.0284,-0.15581 -0.09,-0.0416 -0.0912,-0.041 -0.13673,0.063 -0.0228,0.0513 -0.0513,0.0929 -0.0599,0.0929 -0.0285,0 -0.0228,-0.0336 0.0171,-0.1238 0.0228,-0.0444 0.0342,-0.0858 0.0342,-0.0916 0,-0.006 -0.0342,-0.0296 -0.0741,-0.0524 l -0.0747,-0.0422 -0.0758,0.16533 c -0.0399,0.0909 -0.082,0.16533 -0.0906,0.16533 -0.0399,0 -0.0342,-0.0348 0.0342,-0.17199 0.0399,-0.0813 0.0735,-0.15742 0.0735,-0.16915 3.5e-4,-0.0217 -0.0952,-0.0921 -0.12534,-0.0921 -0.0114,0 -0.0342,0.0416 -0.0576,0.0929 -0.0228,0.0513 -0.0513,0.0929 -0.0599,0.0929 -0.0284,0 -0.0228,-0.0336 0.0171,-0.1238 0.0455,-0.10398 0.0455,-0.10768 -0.0171,-0.16072 l -0.0513,-0.0444 -0.0576,0.10272 c -0.0285,0.0564 -0.0655,0.10272 -0.0764,0.10272 -0.0285,0 -0.0228,-0.0165 0.0342,-0.13337 l 0.0576,-0.1074 -0.0513,-0.0572 -0.0513,-0.0573 -0.0513,0.09 c -0.0644,0.11434 -0.0615,0.11143 -0.0832,0.0878 -0.0114,-0.0131 0.004,-0.0564 0.0455,-0.12329 0.0587,-0.0967 0.0609,-0.10688 0.0342,-0.15918 -0.0171,-0.0308 -0.0284,-0.0558 -0.0342,-0.0558 -0.004,0 -0.0284,0.0416 -0.0576,0.0926 -0.0638,0.12067 -0.10141,0.27974 -0.10141,0.43259 -1.3e-4,0.12249 5e-5,0.12312 0.1071,0.23815 0.13445,0.14425 0.4102,0.34713 0.63057,0.46335 0.77111,0.40712 1.56017,0.62642 3.15755,0.87758 1.22564,0.19274 1.69419,0.28116 2.18597,0.41276 0.73516,0.19667 1.20985,0.40086 1.59748,0.68722 0.12079,0.0891 0.14927,0.0984 0.14927,0.0484 z m -3.66199,-0.20903 c 0.46204,-0.0427 0.76058,-0.096 1.16536,-0.20709 0.25125,-0.0689 0.72166,-0.23581 0.72166,-0.25597 0,-0.0405 -0.77652,-0.19428 -1.82162,-0.36069 -0.98145,-0.15628 -1.22336,-0.19855 -1.61612,-0.28253 -0.54863,-0.11725 -1.13858,-0.29779 -1.47774,-0.4523 l -0.13446,-0.0611 -0.45064,0.002 c -0.24783,8.7e-4 -0.5344,0.0125 -0.63666,0.0256 l -0.1863,0.0239 -0.0455,0.15474 c -0.0513,0.1765 -0.12362,0.45714 -0.14243,0.54271 -0.0114,0.0558 -0.006,0.0606 0.14243,0.13736 0.71552,0.36799 2.04951,0.68503 3.15345,0.74942 0.35095,0.0205 1.01918,0.0125 1.3266,-0.0159 z m -5.57704,-0.99714 c 0.28429,-0.33329 0.63307,-0.52654 1.13032,-0.62587 0.16465,-0.033 0.32418,-0.0456 0.68189,-0.0536 0.25695,-0.006 0.45465,-0.0154 0.43926,-0.0211 -0.0832,-0.0302 -0.3783,-0.20504 -0.48312,-0.28577 -0.0843,-0.0652 -0.1242,-0.0856 -0.13445,-0.0683 -0.0171,0.0353 -0.0576,0.005 -0.0576,-0.049 -0.001,-0.0501 -0.11794,-0.16892 -0.14642,-0.14938 -0.0114,0.007 -0.0114,0.0819 -0.006,0.18727 0.006,0.11873 0.005,0.17484 -0.0114,0.17484 -0.0171,0 -0.0284,-0.0779 -0.0455,-0.27859 -0.004,-0.0575 -0.0114,-0.0619 -0.0787,-0.0619 h -0.0735 l 0.005,0.10836 c 0.003,0.0596 -0.003,0.1083 -0.0114,0.1083 -0.0228,0 -0.0399,-0.0705 -0.0399,-0.15217 -1.3e-4,-0.0553 -0.004,-0.0585 -0.0587,-0.0461 -0.0342,0.007 -0.0701,0.0131 -0.0854,0.0131 -0.0228,0 -0.0228,0.0217 -0.0114,0.11349 0.006,0.0713 0.006,0.11349 -0.006,0.11349 -0.0228,0 -0.0399,-0.068 -0.0399,-0.13805 -3.5e-4,-0.0614 -0.0171,-0.0703 -0.10026,-0.0461 -0.0781,0.0239 -0.0809,0.0382 -0.0399,0.20458 0.0342,0.13281 0.0342,0.16511 0.0114,0.16511 -0.0171,0 -0.0513,-0.11679 -0.0843,-0.27461 -0.0114,-0.0607 -0.0171,-0.0612 -0.13617,-0.0125 -0.0399,0.0165 -0.0399,0.0199 -0.0114,0.10466 0.0285,0.0869 0.0228,0.15394 -0.006,0.13229 -0.0114,-0.006 -0.0284,-0.053 -0.0399,-0.10392 -0.0171,-0.0882 -0.0228,-0.0917 -0.0689,-0.0726 -0.12248,0.0513 -0.12248,0.0513 -0.0803,0.15644 0.0285,0.0677 0.0342,0.10136 0.0171,0.11714 -0.0114,0.016 -0.0285,-0.009 -0.0599,-0.084 -0.0399,-0.10534 -0.0399,-0.10597 -0.0894,-0.0767 -0.10825,0.0649 -0.10711,0.0564 -0.0285,0.22538 0.0655,0.14448 0.0764,0.19929 0.0342,0.16932 -0.0114,-0.006 -0.0455,-0.0724 -0.0758,-0.14653 -0.0342,-0.0741 -0.0661,-0.13468 -0.0764,-0.13468 -0.0114,0 -0.0455,0.0245 -0.0758,0.0541 l -0.0581,0.0541 0.0399,0.071 c 0.0672,0.12608 0.0342,0.16049 -0.0399,0.0365 l -0.0399,-0.0735 -0.0455,0.0456 c -0.0684,0.0712 -0.0724,0.11514 -0.0171,0.19513 0.0661,0.0964 0.0399,0.14158 -0.0285,0.0484 l -0.0513,-0.07 -0.0171,0.0617 c -0.0228,0.0807 -0.0171,0.38462 7e-4,0.51565 l 0.0171,0.10318 0.0399,-0.0615 c 0.0228,-0.0336 0.0906,-0.12067 0.15211,-0.19296 z m 7.87512,-0.12768 c 0,-0.0473 -0.14129,-0.49913 -0.21935,-0.69965 -0.0747,-0.19216 -0.25922,-0.61655 -0.27915,-0.63999 -0.004,-0.005 -0.0455,0.0336 -0.0958,0.0857 -0.17776,0.19045 -0.54238,0.40683 -0.91042,0.53958 -0.25239,0.0912 -0.37431,0.12539 -0.69745,0.19655 l -0.25239,0.0558 0.42844,0.0685 c 0.51331,0.082 1.01341,0.17302 1.26893,0.23062 0.30764,0.0693 0.68953,0.16488 0.69853,0.17485 0.0171,0.0177 0.0581,0.009 0.0581,-0.012 z m -2.38217,-0.54704 c 0.25352,-0.0404 0.68361,-0.15479 0.90164,-0.23968 0.37658,-0.14648 0.74251,-0.37664 0.90022,-0.56545 l 0.0803,-0.0961 -0.006,-0.18875 c -0.006,-0.19655 -0.0513,-0.35049 -0.14129,-0.46683 l -0.0399,-0.0513 -0.0285,0.0717 c -0.0171,0.0393 -0.0399,0.0872 -0.0513,0.1062 -0.0171,0.0285 -0.0114,0.0536 0.0455,0.14863 0.0399,0.0701 0.061,0.11936 0.0513,0.12751 -0.0114,0.007 -0.0228,0.0103 -0.0228,0.006 -0.003,-0.004 -0.0342,-0.0524 -0.0661,-0.10745 l -0.0609,-0.10027 -0.0576,0.0635 c -0.0643,0.0713 -0.0661,0.062 0.0576,0.29688 0.0455,0.0924 0.0513,0.13884 0.0114,0.10995 -0.0114,-0.007 -0.0513,-0.0776 -0.0895,-0.15684 -0.0399,-0.0792 -0.0792,-0.14363 -0.09,-0.14323 -0.0114,3.5e-4 -0.0455,0.0234 -0.0752,0.0507 l -0.0576,0.0501 0.0399,0.0811 c 0.0455,0.0878 0.0513,0.1271 0.0228,0.1271 -0.0114,0 -0.0342,-0.0393 -0.0581,-0.0877 -0.0228,-0.0484 -0.0399,-0.0909 -0.0455,-0.0949 -0.003,-0.004 -0.0399,0.0148 -0.0797,0.0416 l -0.0735,0.0484 0.0455,0.10169 c 0.0513,0.11942 0.0513,0.11468 0.0171,0.11468 -0.0114,0 -0.0399,-0.0376 -0.0593,-0.0835 -0.0171,-0.0461 -0.0399,-0.0877 -0.0455,-0.0927 -0.0171,-0.012 -0.14814,0.0484 -0.14814,0.0687 0,0.009 0.0228,0.088 0.0576,0.17644 0.0644,0.18539 0.0632,0.17878 0.0342,0.17878 -0.0228,0 -0.12591,-0.25637 -0.12591,-0.30913 0,-0.0273 -0.0342,-0.0268 -0.10938,0.002 -0.0661,0.0256 -0.0695,0.0416 -0.0342,0.15992 0.0171,0.0473 0.0171,0.0897 0.0114,0.0961 -0.0171,0.0131 -0.0399,-0.029 -0.0735,-0.1377 l -0.0228,-0.0758 -0.0831,0.0313 c -0.0455,0.0171 -0.0832,0.0342 -0.0832,0.0382 0,0.004 0.006,0.0285 0.0171,0.0547 0.0342,0.11041 0.0399,0.16129 0.0114,0.16129 -0.0171,0 -0.0342,-0.0399 -0.0513,-0.105 l -0.0228,-0.105 -0.0678,0.0137 c -0.0342,0.007 -0.0752,0.0222 -0.0849,0.0319 -0.0113,0.0114 -0.004,0.0836 0.0171,0.18419 0.0171,0.0912 0.0285,0.1724 0.0228,0.18055 -0.0228,0.0239 -0.0455,-0.0336 -0.0672,-0.16972 -0.0285,-0.17456 -0.0342,-0.18271 -0.1299,-0.16528 l -0.0787,0.0148 0.0114,0.0856 c 0.0171,0.12363 0.0171,0.1259 -0.001,0.13724 -0.0113,0.006 -0.0284,-0.0348 -0.0399,-0.0901 -0.0114,-0.0553 -0.0285,-0.10432 -0.0285,-0.10905 -0.004,-0.005 -0.0455,-0.002 -0.0866,0.005 l -0.0791,0.0137 0.0114,0.0951 c 0.006,0.0524 0.0114,0.10317 0.0171,0.11315 0.002,0.01 -0.006,0.0222 -0.0171,0.0273 -0.0171,0.006 -0.0285,-0.0273 -0.0342,-0.0972 -0.0114,-0.11845 -0.0342,-0.13452 -0.13103,-0.11412 -0.0632,0.0131 -0.0661,0.0177 -0.0576,0.0797 0.0342,0.21301 0.0342,0.30303 0.006,0.30303 -0.0228,0 -0.0284,-0.0405 -0.0399,-0.18573 -0.006,-0.1173 -0.0228,-0.18561 -0.0342,-0.1855 -0.0114,1.6e-4 -0.0513,0.006 -0.09,0.0125 l -0.0684,0.0125 0.0114,0.11383 c 0.006,0.0921 0.006,0.11201 -0.0171,0.10432 -0.0171,-0.006 -0.0285,-0.0461 -0.0342,-0.10706 -0.006,-0.10972 -0.0285,-0.12733 -0.12363,-0.10721 l -0.0638,0.0131 0.0114,0.11286 c 0.0114,0.0955 0.006,0.11286 -0.0171,0.11286 -0.0228,0 -0.0284,-0.0222 -0.0284,-0.11348 v -0.11349 h -0.0946 -0.0946 l 0.006,0.15992 c 0.006,0.21285 -0.0285,0.22219 -0.0399,0.0108 l -0.0113,-0.16015 -0.0889,-0.006 -0.0889,-0.006 v 0.11463 c 0,0.0631 -0.006,0.11462 -0.0171,0.11462 -0.0171,0 -0.0399,-0.0988 -0.0399,-0.17798 0,-0.0444 -0.006,-0.049 -0.0831,-0.049 h -0.0832 l -0.006,0.11703 c -0.006,0.16801 -0.0513,0.17518 -0.0513,0.009 v -0.12551 h -0.0843 -0.0843 v 0.11309 c 0,0.10654 0.003,0.11383 0.0513,0.12596 0.0285,0.007 0.0974,0.0251 0.15381,0.0404 0.13958,0.037 0.63935,0.14288 0.86871,0.18356 0.44496,0.0789 0.3652,0.0765 0.70999,0.0217 z m -1.84037,-0.37846 v -0.10045 l -0.0797,-0.012 c -0.0957,-0.0142 -0.11166,1.8e-4 -0.10425,0.0909 0.005,0.0608 0.0171,0.0721 0.0809,0.0939 0.0399,0.0137 0.0814,0.0256 0.0889,0.0262 0.006,8.7e-4 0.0114,-0.0439 0.0114,-0.0989 z m -0.23245,-0.0325 c 0.0171,-0.0742 -0.004,-0.094 -0.0958,-0.094 -0.0752,0 -0.0831,0.005 -0.0831,0.0484 0,0.0365 0.0171,0.0541 0.0604,0.0701 0.0923,0.0325 0.10598,0.0302 0.11794,-0.0245 z m -0.23529,-0.0501 c 0,-0.0296 -0.0171,-0.041 -0.0797,-0.0501 -0.0917,-0.0137 -0.14129,0.0182 -0.0587,0.0376 0.0284,0.007 0.0707,0.0211 0.0918,0.0308 0.0228,0.01 0.0399,0.0182 0.0399,0.0194 0.002,8.7e-4 0.005,-0.016 0.005,-0.037 z m -1.49472,-0.85655 c 0,-0.004 0.0114,-0.0416 0.0285,-0.0826 0.0284,-0.07 0.0284,-0.0748 -0.006,-0.0748 -0.0171,0 -0.0455,0.012 -0.0666,0.0268 -0.0285,0.0228 -0.0285,0.0348 -0.0114,0.0826 0.0171,0.0462 0.0513,0.0774 0.0513,0.0479 z m 5.43702,-0.31107 c 0,-0.0262 -0.0114,-0.0541 -0.0284,-0.0612 -0.0399,-0.0182 -0.0455,-0.007 -0.0228,0.0671 0.0228,0.0723 0.0513,0.0689 0.0513,-0.006 z m -2.69564,0.84276 c -0.006,-0.008 -0.0114,-0.093 -0.0114,-0.18858 0,-0.12767 0.006,-0.17143 0.0228,-0.16528 0.0285,0.0108 0.0455,0.0845 0.0513,0.2026 0.002,0.0924 -0.0342,0.1806 -0.0593,0.15126 z"
       id="path1-6"
       inkscape:export-filename="icon_shapeup_24.svg"
       inkscape:export-xdpi="96"
       inkscape:export-ydpi="96" /></g></svg>
