<?xml version="1.0" encoding="UTF-8" standalone="no"?>
<!-- Created with Inkscape (http://www.inkscape.org/) -->

<svg
   width="10.054199mm"
   height="10.659766mm"
   viewBox="0 0 10.054199 10.659766"
   version="1.1"
   id="svg1"
   xml:space="preserve"
   inkscape:export-filename="ビットマップ.svg"
   inkscape:export-xdpi="96"
   inkscape:export-ydpi="96"
   xmlns:inkscape="http://www.inkscape.org/namespaces/inkscape"
   xmlns:sodipodi="http://sodipodi.sourceforge.net/DTD/sodipodi-0.dtd"
   xmlns="http://www.w3.org/2000/svg"
   xmlns:svg="http://www.w3.org/2000/svg"><sodipodi:namedview
     id="namedview1"
     pagecolor="#ffffff"
     bordercolor="#111111"
     borderopacity="1"
     inkscape:showpageshadow="0"
     inkscape:pageopacity="0"
     inkscape:pagecheckerboard="1"
     inkscape:deskcolor="#d1d1d1"
     inkscape:document-units="mm"><inkscape:page
       x="0"
       y="0"
       width="10.054199"
       height="10.659766"
       id="page2"
       margin="0"
       bleed="0" /></sodipodi:namedview><defs
     id="defs1" /><g
     inkscape:label="Layer 1"
     inkscape:groupmode="layer"
     id="layer1"
     transform="translate(-102.14728,-58.868363)"><path
       style="fill:#000000;stroke:#000000;stroke-width:0.120952;stroke-dasharray:none;stroke-opacity:1"
       d="m 106.21334,69.455324 c -0.16869,-0.03297 -0.2446,-0.06747 -0.5122,-0.233861 -0.14338,-0.08917 -0.91259,-0.566635 -1.70949,-1.061102 -0.79666,-0.494408 -1.48774,-0.932602 -1.53551,-0.973724 -0.10121,-0.0868 -0.20242,-0.261311 -0.23309,-0.398639 -0.0153,-0.05904 -0.0153,-0.275879 -0.0153,-0.56211 0.006,-0.444644 0.008,-0.47125 0.0537,-0.576143 0.046,-0.09807 1.32182,-1.71564 3.65092,-4.618329 0.28294,-0.352862 0.72153,-0.903242 0.97318,-1.223119 0.25226,-0.319892 0.49839,-0.616091 0.54593,-0.658339 0.17942,-0.156343 0.45469,-0.224738 0.70312,-0.174055 0.13035,0.02684 0.30594,0.129889 1.92065,1.129345 1.11349,0.689239 1.8071,1.13192 1.85771,1.185547 0.046,0.04677 0.10428,0.143921 0.13265,0.215306 0.046,0.115014 0.0537,0.179345 0.0782,0.568782 0.0307,0.47102 0.023,0.604974 -0.046,0.770218 -0.023,0.05367 -0.49303,0.658032 -1.12576,1.443846 -0.59807,0.743603 -1.50875,1.881212 -2.02332,2.528082 -0.5145,0.646838 -1.16647,1.460868 -1.44848,1.808862 -0.45469,0.560423 -0.52753,0.640856 -0.63871,0.704115 -0.20013,0.113557 -0.44166,0.161785 -0.62798,0.125364 z m 0.39335,-0.122145 c 0.046,-0.01303 0.13725,-0.05597 0.20242,-0.09623 0.13418,-0.08258 0.37648,-0.374485 1.9159,-2.312984 0.48766,-0.614173 1.41574,-1.771819 2.06182,-2.572484 0.98083,-1.21536 1.18249,-1.476542 1.2216,-1.581625 0.046,-0.132573 0.0613,-0.223587 0.0537,-0.514803 l -0.004,-0.178194 -0.0537,0.08319 c -0.0307,0.04601 -0.50913,0.649982 -1.06687,1.342718 -0.55897,0.692766 -1.5622,1.949079 -2.23104,2.791832 -1.72122,2.169016 -1.79935,2.26434 -1.91759,2.337382 -0.12881,0.0799 -0.3113,0.132649 -0.46005,0.133108 -0.24383,7.05e-4 -0.092,0.08779 -3.00271,-1.730268 -0.72995,-0.45607 -0.87364,-0.55429 -0.95339,-0.652129 l -0.0935,-0.115167 0.007,0.259241 c 0.007,0.238692 0.0153,0.26829 0.0613,0.373489 0.0307,0.06287 0.0882,0.143996 0.12575,0.18034 0.069,0.06594 1.09271,0.712398 2.73304,1.7232 0.80533,0.496248 0.87909,0.536963 1.00438,0.553753 0.14568,0.01994 0.26069,0.01227 0.39334,-0.02454 z m -0.87427,-0.439276 c -0.0153,-0.04984 0.002,-0.08104 0.046,-0.08104 0.0383,0 0.069,0.05981 0.046,0.09715 -0.0153,0.03527 -0.0805,0.02454 -0.0935,-0.0161 z m -0.25149,-0.166923 c -0.0153,-0.05827 0.0153,-0.09815 0.0613,-0.06517 0.046,0.03604 0.0383,0.0904 -0.008,0.09914 -0.023,0.0044 -0.046,-0.0092 -0.0537,-0.03374 z m -0.2515,-0.142847 c -0.007,-0.023 -8.8e-4,-0.05521 0.0153,-0.07438 0.023,-0.02837 0.0307,-0.0276 0.0613,0.007 0.0153,0.02224 0.0307,0.05214 0.023,0.06671 -0.0153,0.04524 -0.0851,0.04524 -0.0989,1.76e-4 z m -0.24306,-0.139321 c -0.0307,-0.04217 -0.0153,-0.107192 0.023,-0.107192 0.0383,0 0.0774,0.06441 0.0613,0.106655 -0.0153,0.04601 -0.0613,0.04601 -0.0889,7.04e-4 z m -0.81139,-0.405693 c -0.28906,-0.184864 -0.36727,-0.259317 -0.36727,-0.352631 0,-0.06134 0.0537,-0.133033 0.10274,-0.133033 0.0537,0 0.60881,0.355777 0.65021,0.419493 0.046,0.06901 0.0537,0.173519 0.0153,0.2173 -0.046,0.05597 -0.12498,0.0253 -0.40178,-0.151129 z m 0.34428,0.03144 c -0.005,-0.04294 -0.069,-0.09132 -0.30287,-0.239997 -0.28523,-0.179421 -0.35041,-0.200584 -0.32051,-0.103589 0.0153,0.0414 0.53674,0.388747 0.59424,0.393885 0.023,0.0023 0.0307,-0.01074 0.0307,-0.05061 z m -1.15282,-0.653279 c -0.008,-0.02684 -0.0153,-0.05751 -0.002,-0.07867 0.023,-0.04601 0.0859,1.76e-4 0.0859,0.06287 0,0.05981 -0.0613,0.07131 -0.0844,0.01534 z m -0.25457,-0.16171 c -0.023,-0.03067 -0.0153,-0.0437 0.007,-0.07668 0.0307,-0.0368 0.0307,-0.0368 0.0613,-7.04e-4 0.0383,0.04294 0.023,0.113865 -0.0153,0.113865 -0.0153,0 -0.0383,-0.01687 -0.0537,-0.0368 z m -0.24766,-0.147141 c -0.0153,-0.02684 -0.0153,-0.05751 -0.002,-0.07867 0.023,-0.04601 0.0859,1.76e-4 0.0859,0.06287 0,0.05981 -0.0613,0.07131 -0.0843,0.01534 z m -0.24306,-0.138478 c -0.0383,-0.05214 -0.0307,-0.09331 0.0307,-0.09331 0.0383,0 0.046,0.01227 0.046,0.05751 0,0.07208 -0.0307,0.08772 -0.0774,0.03604 z m 7.50642,-2.105834 c -0.0153,-0.01534 -0.023,-0.06057 -0.023,-0.09891 0,-0.05827 0.0383,-0.12268 0.24537,-0.375251 0.13495,-0.16769 0.26146,-0.311151 0.28063,-0.318818 0.0537,-0.0207 0.13035,0.05137 0.13035,0.123448 0,0.046 -0.0613,0.135869 -0.23617,0.361834 -0.13034,0.165388 -0.24536,0.308543 -0.25609,0.318128 -0.0307,0.0276 -0.11578,0.02147 -0.14109,-0.01 z m 0.3297,-0.365591 c 0.19016,-0.241375 0.23617,-0.318665 0.19016,-0.318665 -0.0307,0 -0.46696,0.572308 -0.45545,0.595849 0.0153,0.03374 0.0383,0.01072 0.26529,-0.277107 z m 0.41329,-0.548386 c -0.007,-0.0084 -0.0153,-0.05444 -0.0153,-0.10129 0,-0.0779 0.023,-0.112482 0.24843,-0.389897 0.23079,-0.284008 0.25226,-0.303866 0.31437,-0.296658 0.0613,0.0072 0.069,0.01456 0.069,0.0986 0.006,0.08787 -0.002,0.10129 -0.2423,0.398026 -0.21009,0.260698 -0.25686,0.307086 -0.30747,0.307086 -0.0307,0 -0.0613,-0.0071 -0.069,-0.01609 z m 0.3205,-0.358767 c 0.20166,-0.248967 0.25763,-0.338217 0.21239,-0.338217 -0.008,0 -0.11654,0.125441 -0.24152,0.278794 -0.20243,0.248582 -0.25917,0.338984 -0.2124,0.338984 0.008,0 0.11732,-0.125825 0.24153,-0.279561 z m -4.65998,5.053327 c 0.17023,-0.04831 0.31438,-0.158029 0.48306,-0.366665 0.0889,-0.110029 0.15795,-0.204034 0.15259,-0.208942 -0.008,-0.01 -0.60497,-0.384913 -1.63105,-1.027603 -0.37188,-0.232865 -0.88461,-0.555286 -1.13964,-0.716536 -0.25533,-0.16125 -0.74912,-0.470177 -1.09884,-0.686479 l -0.63564,-0.393347 -0.14262,0.174207 c -0.0782,0.09584 -0.16179,0.220827 -0.18403,0.277872 -0.082,0.20833 -0.0383,0.485436 0.10889,0.640782 0.0613,0.07131 0.38721,0.278718 1.64255,1.061349 0.39335,0.245055 0.97969,0.611873 1.30372,0.815233 0.32434,0.203344 0.63718,0.388516 0.69545,0.411519 0.11961,0.04754 0.31437,0.05521 0.44472,0.0184 z m -2.11387,-1.22144 c -0.18863,-0.08258 -0.29444,-0.27864 -0.25457,-0.472248 0.0383,-0.17321 0.20396,-0.303559 0.39642,-0.306627 0.28063,-0.0044 0.46158,0.209557 0.41788,0.493946 -0.0383,0.232023 -0.33431,0.383995 -0.55973,0.284929 z m 0.3596,-0.133339 c 0.17789,-0.111563 0.16486,-0.388363 -0.023,-0.507902 -0.14492,-0.09193 -0.36115,-0.046 -0.46389,0.09861 -0.0537,0.07514 -0.0613,0.09953 -0.0537,0.180265 0.0307,0.254641 0.30823,0.373795 0.53903,0.228954 z m 2.57517,0.566788 c 0.18402,-0.246896 2.17537,-2.749791 3.47204,-4.36322 0.50836,-0.632271 0.91689,-1.157308 0.90822,-1.166671 -0.008,-0.0092 -0.47616,-0.303329 -1.0395,-0.653278 -0.56356,-0.349949 -1.24092,-0.772549 -1.50652,-0.939127 -0.2653,-0.166617 -0.80441,-0.504681 -1.19745,-0.751348 -0.39335,-0.246666 -0.72382,-0.451391 -0.73379,-0.454994 -0.023,-0.0074 -0.0935,0.08128 -2.24975,2.786533 -0.85402,1.071592 -1.71647,2.15204 -1.91644,2.400999 l -0.36421,0.452617 0.82603,0.515493 c 0.45469,0.283548 1.12162,0.701279 1.48276,0.928346 1.58221,0.994687 2.18404,1.368482 2.20405,1.368902 0.0153,1.77e-4 0.0613,-0.05597 0.11425,-0.124291 z m 4.54665,-5.694429 c 0.17098,-0.264839 0.16255,-0.562725 -0.023,-0.780063 -0.069,-0.07867 -0.17098,-0.144457 -2.41038,-1.527883 -1.07799,-0.6657 -1.24353,-0.761008 -1.36652,-0.78694 -0.25533,-0.05367 -0.51603,0.0391 -0.71309,0.253797 -0.0537,0.05597 -0.0889,0.106963 -0.0836,0.113557 0.0153,0.01457 1.15735,0.736089 2.482,1.562794 0.55206,0.344735 1.23042,0.768078 1.50653,0.940706 0.27603,0.172598 0.51296,0.314601 0.52522,0.315445 0.0153,7.04e-4 0.046,-0.04064 0.082,-0.0914 z m -2.09425,-1.55883 c -0.46772,-0.296352 -0.55897,-0.371188 -0.48843,-0.404082 0.0153,-0.0068 0.2584,0.132956 0.5421,0.310615 0.40638,0.254334 0.51603,0.332696 0.51603,0.36881 0,0.02837 -0.0153,0.04524 -0.0307,0.04447 -0.0153,-7.4e-4 -0.25993,-0.144688 -0.53596,-0.319662 z m -0.82925,-0.476464 c -0.0383,-0.04524 -0.0383,-0.06057 -0.005,-0.11463 0.0383,-0.05904 0.13034,-0.04294 0.15028,0.02684 0.0307,0.100982 -0.0805,0.167997 -0.14568,0.0881 z m 1.7788,-0.19238 c -0.0307,-0.03834 -0.005,-0.09377 0.11272,-0.243829 0.069,-0.08795 0.12574,-0.166617 0.12574,-0.174821 0,-0.0084 -0.0613,-0.01764 -0.13034,-0.02223 -0.10122,-0.0054 -0.13035,-0.01534 -0.13035,-0.04294 0,-0.02914 0.0383,-0.0368 0.18862,-0.04217 0.2446,-0.0092 0.2515,0.0092 0.0882,0.232711 -0.069,0.09247 -0.12575,0.178348 -0.12882,0.190923 -0.004,0.01303 0.0537,0.023 0.12728,0.023 0.14185,0 0.16332,0.0084 0.14645,0.06211 -0.008,0.0253 -0.0537,0.03297 -0.19859,0.03297 -0.10351,0 -0.19399,-0.0071 -0.20089,-0.0161 z m 0.58734,-0.456451 c -0.023,-0.0092 -0.046,-0.02684 -0.0537,-0.04064 -0.004,-0.01303 0.0537,-0.106579 0.13035,-0.207255 l 0.13725,-0.183025 -0.0935,-3.17e-4 c -0.11885,-4.23e-4 -0.18019,-0.0207 -0.18019,-0.05904 0,-0.04524 0.046,-0.05904 0.20243,-0.05904 0.24843,0 0.25993,0.0391 0.0774,0.261388 -0.069,0.08419 -0.12575,0.159946 -0.12575,0.168304 0,0.0084 0.0537,0.0207 0.12652,0.0276 0.13878,0.0138 0.15412,0.02223 0.13725,0.07591 -0.008,0.02914 -0.046,0.03604 -0.16179,0.0345 -0.0828,-0.0013 -0.17175,-0.01 -0.19706,-0.0184 z"
       id="path1-09" /></g></svg>
