<?xml version="1.0" encoding="UTF-8" standalone="no"?>
<!-- Created with Inkscape (http://www.inkscape.org/) -->

<svg
   width="10.054134mm"
   height="13.544378mm"
   viewBox="0 0 10.054134 13.544378"
   version="1.1"
   id="svg1"
   xml:space="preserve"
   inkscape:export-filename="ビットマップ.svg"
   inkscape:export-xdpi="96"
   inkscape:export-ydpi="96"
   xmlns:inkscape="http://www.inkscape.org/namespaces/inkscape"
   xmlns:sodipodi="http://sodipodi.sourceforge.net/DTD/sodipodi-0.dtd"
   xmlns="http://www.w3.org/2000/svg"
   xmlns:svg="http://www.w3.org/2000/svg"><sodipodi:namedview
     id="namedview1"
     pagecolor="#ffffff"
     bordercolor="#111111"
     borderopacity="1"
     inkscape:showpageshadow="0"
     inkscape:pageopacity="0"
     inkscape:pagecheckerboard="1"
     inkscape:deskcolor="#d1d1d1"
     inkscape:document-units="mm"><inkscape:page
       x="0"
       y="-3.1947266e-22"
       width="10.054134"
       height="13.544377"
       id="page2"
       margin="0"
       bleed="0" /></sodipodi:namedview><defs
     id="defs1" /><g
     inkscape:label="Layer 1"
     inkscape:groupmode="layer"
     id="layer1"
     transform="translate(-82.202174,-73.701443)"><path
       style="fill:#000000;stroke:#000000;stroke-width:0.153854;stroke-dasharray:none;stroke-opacity:1"
       d="m 84.095465,86.653362 c -0.499774,-0.282073 -1.109464,-0.627115 -1.355882,-0.76677 l -0.448096,-0.253871 -0.0061,-1.927982 -0.0061,-1.92799 0.61198,-0.189868 c 0.335887,-0.104458 0.717544,-0.222056 0.847469,-0.261328 0.129926,-0.03913 0.236228,-0.08032 0.236228,-0.09117 0,-0.02068 -0.323335,-0.657528 -1.007883,-1.985193 -0.217773,-0.422775 -0.396422,-0.779029 -0.396422,-0.79172 0,-0.01255 0.06644,-0.06126 0.144692,-0.108446 l 0.144689,-0.08534 -0.05906,-0.13118 -0.05905,-0.13118 0.10335,-0.06571 c 0.05906,-0.03616 0.132877,-0.08082 0.169789,-0.09893 0.07973,-0.03987 0.08046,-0.04945 0.01478,-0.189057 -0.02952,-0.05981 -0.04429,-0.118413 -0.02952,-0.129778 0.0074,-0.01106 0.26502,-0.149784 0.564735,-0.307466 0.299715,-0.157684 0.547756,-0.289677 0.551447,-0.293221 0.0037,-0.0036 -0.0037,-0.0369 -0.01478,-0.07442 -0.02952,-0.08555 -0.0022,-0.114124 0.235491,-0.24494 0.09744,-0.05389 0.182337,-0.114279 0.18972,-0.134798 0.0072,-0.02068 -0.0046,-0.07855 -0.02952,-0.128892 -0.02952,-0.06865 -0.05907,-0.09951 -0.135096,-0.123283 -0.05168,-0.01771 -0.113686,-0.06128 -0.134356,-0.0967 -0.0369,-0.0598 -0.0369,-0.07235 0.0061,-0.16558 0.09597,-0.214673 0.425209,-0.334929 0.547755,-0.199614 0.04429,0.05316 0.05168,0.06718 0.02213,0.178427 -0.0369,0.167206 -0.0369,0.202566 0.02952,0.290783 l 0.05168,0.07693 0.19415,-0.110356 c 0.18529,-0.105123 0.273877,-0.134356 0.276094,-0.09036 5.08e-4,0.01106 0.01478,0.04134 0.02952,0.06718 0.02952,0.04355 0.07455,0.02658 0.559567,-0.234531 0.29012,-0.154805 0.529299,-0.27816 0.53299,-0.274174 0.0033,0.004 0.04429,0.08771 0.08711,0.186031 l 0.08119,0.178721 0.15798,-0.115752 c 0.08638,-0.06349 0.209653,-0.135239 0.273878,-0.159158 0.06644,-0.02361 0.414876,-0.08518 0.777782,-0.1362 0.978802,-0.13753 1.188527,-0.193856 1.650575,-0.443225 0.297502,-0.160193 0.942405,-0.617 1.577269,-1.116256 0.333676,-0.262361 0.408234,-0.308205 0.386825,-0.240066 -0.01478,0.03765 -0.518225,0.436212 -1.095878,0.861576 -0.975257,0.718137 -1.260503,0.83172 -2.524994,1.005355 -0.315954,0.04355 -0.626743,0.0925 -0.691705,0.109328 -0.125497,0.03248 -0.476151,0.2741 -0.474672,0.326662 5.08e-4,0.01697 0.05906,0.181896 0.129187,0.36571 l 0.127712,0.334265 0.146166,0.008 c 0.112213,0.006 0.189722,0.03174 0.33072,0.110514 0.183077,0.101502 0.185292,0.101946 0.185292,0.04061 0,-0.08681 -0.04429,-0.202197 -0.100394,-0.26989 -0.04429,-0.0561 -0.02952,-0.11339 0.02952,-0.07612 0.05907,0.03913 0.129928,0.245826 0.129928,0.374055 0.0013,0.229068 -0.07529,0.357739 -0.476152,0.802138 -0.368367,0.407938 -0.452521,0.521105 -0.549967,0.735261 l -0.05168,0.120331 0.06644,-0.07309 c 0.101133,-0.104754 0.203009,-0.120698 0.309311,-0.04799 0.04429,0.03249 0.08563,0.06644 0.08638,0.07662 7.4e-5,0.0096 0.0074,0.03471 0.02214,0.05463 0.01478,0.02807 0.06644,-0.009 0.223679,-0.157462 0.492389,-0.471572 0.683586,-0.591754 1.293352,-0.814236 0.538158,-0.196145 0.685803,-0.287166 1.006262,-0.620838 0.401587,-0.418126 0.600906,-0.549454 1.299553,-0.861276 0.438501,-0.195331 1.214586,-0.510476 1.257623,-0.51055 0.06644,-2.2e-5 0.02215,0.04798 -0.07455,0.08837 -0.05906,0.02288 -0.337363,0.138266 -0.624528,0.255718 -1.033651,0.423588 -1.369317,0.617959 -1.740417,1.008047 -0.396422,0.416722 -0.499771,0.482054 -1.117511,0.707949 -0.396421,0.144909 -0.602383,0.239402 -0.642985,0.295284 -0.01478,0.02068 -0.05168,0.127417 -0.08119,0.237114 -0.02952,0.109632 -0.07973,0.265167 -0.112214,0.345634 l -0.05906,0.146315 0.190458,0.389628 c 0.14912,0.304664 0.508632,0.993573 0.653323,1.253462 0.0074,0.01919 0.372798,0.182781 0.804654,0.363496 0.431855,0.180716 0.877738,0.369549 0.990833,0.419601 l 0.205962,0.09102 0.0061,1.942901 0.0061,1.94291 -0.260587,0.0942 c -0.143217,0.05168 -0.745452,0.268415 -1.337721,0.481242 -0.592049,0.212901 -1.716128,0.616704 -2.496867,0.897353 -0.780809,0.280669 -1.429036,0.509444 -1.440404,0.508409 -0.01478,-0.0013 -0.429642,-0.23276 -0.928823,-0.514832 z M 87.29105,86.28706 c 0.992012,-0.355229 2.114026,-0.757734 2.493541,-0.89446 l 0.690232,-0.248555 0.0062,-1.889853 c 0.0058,-1.791781 0.0041,-1.889138 -0.0369,-1.876255 -1.406817,0.449573 -2.054526,0.658561 -2.947694,0.951124 -0.412661,0.135242 -1.120166,0.366081 -1.572175,0.51306 -0.451789,0.146977 -0.830492,0.273138 -0.841268,0.280521 -0.0074,0.0074 -0.02216,0.902128 -0.02216,1.98844 v 1.975127 l 0.211867,-0.07662 c 0.116643,-0.04207 1.023464,-0.367263 2.015478,-0.722493 z m -2.300575,-1.19579 -5.09e-4,-1.971914 -1.300585,-0.621946 c -0.715332,-0.342014 -1.30871,-0.621799 -1.31875,-0.62165 -0.0074,9.6e-5 -0.01475,0.83554 -0.01475,1.856448 v 1.85619 l 1.180184,0.668011 c 1.510979,0.855287 1.41929,0.804019 1.440403,0.805468 0.0074,6.78e-4 0.01477,-0.886118 0.01477,-1.970667 z m 0.836251,-2.29021 c 1.543386,-0.501173 1.863992,-0.608214 1.875878,-0.62608 0.0065,-0.01024 0.0074,-0.186621 0.005,-0.392509 l -0.0073,-0.374349 -0.634127,0.34792 c -1.434353,0.786812 -1.843178,0.997979 -1.884664,0.973449 -0.02952,-0.01697 -0.07899,0.0022 -0.180864,0.06939 -0.07678,0.05094 -0.147643,0.09316 -0.157238,0.09316 -0.0074,0 -0.05168,-0.06349 -0.08858,-0.140409 -0.0369,-0.07721 -0.208177,-0.411112 -0.375751,-0.741971 -0.167576,-0.330869 -0.318908,-0.622614 -0.335887,-0.648228 -0.03691,-0.05242 0.05168,-0.07383 -1.093741,0.279044 -0.505678,0.155985 -0.526346,0.165213 -0.465077,0.200942 0.03691,0.02068 0.37723,0.186325 0.759773,0.368371 0.382397,0.182042 0.934727,0.445734 1.227653,0.585993 0.293069,0.140263 0.544062,0.255424 0.557349,0.255866 0.01478,3.39e-4 0.372801,-0.112356 0.79897,-0.250623 z m -0.911106,-0.0251 c 0.02215,-0.02805 -1.49e-4,-0.0939 -0.09228,-0.28746 -0.219248,-0.459908 -1.913969,-4.101037 -1.922239,-4.128189 -0.0074,-0.02361 -0.258376,0.08645 -0.258376,0.113317 0,0.0058 0.19932,0.397823 0.442929,0.871102 0.243612,0.473268 0.547757,1.065023 0.67473,1.31502 0.126973,0.249958 0.372801,0.731276 0.54628,1.06951 0.173482,0.33825 0.367629,0.720276 0.431855,0.848925 0.06644,0.128672 0.124757,0.233941 0.133619,0.233941 0.0074,0 0.02952,-0.01624 0.04429,-0.03616 z m 0.192675,-0.138783 c 0.0041,-0.004 -0.128449,-0.312194 -0.294549,-0.684842 -0.332197,-0.745488 -0.618624,-1.431283 -1.217834,-2.918868 -0.355819,-0.88306 -0.459907,-1.13597 -0.482053,-1.162843 -0.0037,-0.0045 -0.07455,0.0288 -0.155024,0.07442 l -0.148384,0.0829 0.179387,0.380107 c 0.09893,0.209063 0.307835,0.656864 0.464337,0.995078 0.157239,0.33825 0.538157,1.156407 0.846956,1.818164 0.309312,0.661739 0.591308,1.266615 0.626743,1.344128 0.05907,0.130737 0.06644,0.138711 0.118115,0.109989 0.02952,-0.01697 0.05906,-0.03397 0.05906,-0.03839 z m 2.12067,-1.055567 c 0.784575,-0.426318 1.431473,-0.780538 1.437526,-0.787196 0.0059,-0.0065 -0.07529,-0.166025 -0.1816,-0.35412 -0.315218,-0.559495 -0.754531,-1.42813 -0.907638,-1.793886 -0.05905,-0.137234 -0.10335,-0.214969 -0.119589,-0.203823 -0.01478,0.01024 -0.136571,0.126088 -0.271663,0.258082 -0.353605,0.345114 -0.462122,0.397454 -0.585405,0.280373 -0.04429,-0.04503 -0.06644,-0.09471 -0.07752,-0.188096 -0.0074,-0.109117 -7.5e-5,-0.155543 0.07677,-0.32836 0.06644,-0.155763 0.146906,-0.265831 0.341794,-0.487 0.138046,-0.157165 0.251733,-0.294326 0.25247,-0.304882 1.48e-4,-0.01024 -0.01478,-0.05832 -0.03691,-0.10696 -0.02216,-0.04798 -0.14912,-0.394649 -0.287904,-0.769619 -0.138047,-0.375013 -0.286429,-0.767898 -0.329245,-0.873117 l -0.07752,-0.191271 -0.355083,0.186326 c -0.566949,0.2975 -0.65701,0.349248 -0.65701,0.374422 0,0.04355 0.174219,0.409341 0.222202,0.467881 0.02952,0.03174 0.04429,0.07987 0.0369,0.10696 -0.0074,0.04797 -0.248777,0.199835 -0.298977,0.188613 -0.01478,-0.0031 -0.05906,0.01994 -0.0967,0.05094 -0.146168,0.11428 -0.475411,0.279858 -0.521922,0.263249 -0.02952,-0.01106 -0.04429,-0.0037 -0.04429,0.0251 0,0.02361 -0.05907,0.07619 -0.146905,0.123577 -0.157239,0.08747 -0.215557,0.07825 -0.215557,-0.03397 0,-0.0502 -0.209654,-0.502208 -0.233279,-0.502208 -0.0074,0 -0.493866,0.249442 -0.95717,0.493349 l -0.136568,0.0716 0.193411,0.472752 c 0.107038,0.26 0.250992,0.617148 0.321126,0.793589 0.191195,0.481391 0.521178,1.292622 0.685062,1.684482 0.07973,0.191198 0.208178,0.497999 0.284212,0.681815 0.240659,0.578614 0.596479,1.352757 0.671775,1.462434 0.01478,0.02361 0.09597,-0.01024 0.304885,-0.12749 0.155764,-0.08771 0.924466,-0.508187 1.709115,-0.934514 z m 1.272905,0.347255 c 1.134414,-0.362758 1.827894,-0.593008 1.847899,-0.613677 0.02214,-0.02142 -0.05168,-0.05463 -0.915904,-0.41495 -0.293071,-0.122101 -0.589833,-0.247229 -0.66144,-0.278013 -0.06644,-0.031 -0.133618,-0.0561 -0.140999,-0.0561 -0.0074,0 0.02215,0.0502 0.05906,0.110949 0.03691,0.06128 0.06644,0.121658 0.05907,0.13465 -0.0074,0.01329 -0.230323,0.143658 -0.495344,0.290194 l -0.482793,0.266569 v 0.399521 0.399523 l 0.06644,-0.02436 c 0.0369,-0.01329 0.332936,-0.109922 0.659228,-0.214231 z m -1.582883,-3.083316 0.116644,-0.116417 -0.04429,-0.0716 c -0.09228,-0.156499 -0.251733,-0.132435 -0.35656,0.05389 -0.05906,0.101946 -0.05906,0.13886 -0.0065,0.201975 0.06644,0.08253 0.161668,0.06054 0.290118,-0.06718 z m 0.869398,-0.47925 c 0.0369,-0.11435 0.05906,-0.215042 0.05168,-0.223753 -0.01478,-0.01624 -0.231061,0.148307 -0.278308,0.211719 -0.02214,0.02584 -0.0074,0.07566 0.03691,0.18965 0.05906,0.149191 0.06644,0.152661 0.09228,0.09271 0.01478,-0.03397 0.05907,-0.15591 0.09597,-0.270261 z M 87.36539,77.525706 c 0.104827,-0.131403 0.216294,-0.328579 0.216294,-0.380477 -5.09e-4,-0.120623 -0.535206,-0.346222 -0.589096,-0.248778 -0.01478,0.02436 0.135094,0.434514 0.157979,0.434514 0.0074,0 0.0369,-0.04208 0.06644,-0.09361 0.02952,-0.05168 0.06644,-0.09361 0.08784,-0.09361 0.0369,0 0.0369,0.009 -0.06644,0.179015 -0.06644,0.110883 -0.06644,0.113246 -0.02952,0.207219 0.02215,0.05242 0.05168,0.09507 0.05906,0.09507 0.0074,0 0.05168,-0.04503 0.0967,-0.09936 z m -2.76654,-0.07752 c 0.07678,-0.04945 0.09893,-0.07619 0.07603,-0.09154 -0.0369,-0.02584 -0.215559,0.07915 -0.216296,0.128007 -7.4e-5,0.04725 0.01477,0.04281 0.139522,-0.03616 z m 0.02952,-0.256014 c 0,-0.0846 -0.06644,-0.615303 -0.08194,-0.629623 -0.0072,-0.008 -0.375014,0.196218 -0.397898,0.221169 -0.0074,0.0096 0.228847,0.50863 0.269448,0.567171 0.01478,0.02584 0.04429,0.02068 0.117379,-0.0251 0.07455,-0.04652 0.09449,-0.07396 0.09449,-0.133765 z m 0.448835,-0.01255 c 0.22368,-0.121436 0.318909,-0.208472 0.138045,-0.125055 -0.138783,0.06423 -0.417828,0.221835 -0.417828,0.236526 0,0.031 0.06644,0.0053 0.279783,-0.111464 z m -0.05906,-0.08608 c 0.166836,-0.09345 0.305621,-0.172889 0.30931,-0.176581 0.0036,-0.0037 -0.100394,-0.123135 -0.230322,-0.265462 l -0.236965,-0.258745 -0.116643,0.05981 c -0.06644,0.03323 -0.121066,0.06718 -0.126234,0.0767 -0.0052,0.009 0.0063,0.124094 0.02214,0.255275 0.02216,0.131256 0.03691,0.296761 0.03691,0.367779 7.2e-5,0.07087 0.0074,0.125053 0.01478,0.120034 0.0074,-0.0052 0.155024,-0.08564 0.321124,-0.179091 z m 0.544063,-0.169125 c 0.124762,-0.06718 0.144691,-0.116048 0.03691,-0.09228 -0.09081,0.01993 -0.197841,0.09568 -0.180125,0.127268 0.01478,0.03174 0.01478,0.03174 0.142476,-0.03471 z m -0.07455,-0.11996 c 0.04429,-0.0251 0.08564,-0.05462 0.08564,-0.06644 0,-0.05684 -0.256899,-0.583634 -0.284214,-0.583634 -0.04429,0 -0.313742,0.153031 -0.33441,0.190387 -0.0074,0.01919 0.06644,0.12365 0.200056,0.267972 0.120328,0.130294 0.225153,0.236818 0.233274,0.236818 0.0074,0 0.05168,-0.01993 0.100394,-0.04503 z m -0.785009,-0.409995 c 0.05168,-0.02952 0.09523,-0.06497 0.09523,-0.07869 0,-0.01329 -0.02214,-0.06865 -0.05168,-0.12247 -0.05168,-0.0939 -0.05168,-0.103054 -0.01478,-0.229217 0.03691,-0.11619 0.03691,-0.135978 0.0023,-0.171118 -0.07899,-0.08734 -0.313005,-0.01024 -0.419307,0.138491 -0.07455,0.103719 -0.05907,0.170674 0.05907,0.213639 0.126972,0.04871 0.154286,0.07789 0.187507,0.199612 0.01478,0.05684 0.02952,0.103793 0.03691,0.103793 0.0052,0 0.05168,-0.02436 0.105562,-0.05389 z"
       id="path1-89"
       inkscape:export-filename="icon_clean_24.svg"
       inkscape:export-xdpi="96"
       inkscape:export-ydpi="96" /></g></svg>
