<?xml version="1.0" encoding="UTF-8" standalone="no"?>
<!-- Created with Inkscape (http://www.inkscape.org/) -->

<svg
   width="16.668758mm"
   height="14.019208mm"
   viewBox="0 0 16.668758 14.019208"
   version="1.1"
   id="svg1"
   xml:space="preserve"
   inkscape:export-filename="ビットマップ.svg"
   inkscape:export-xdpi="96"
   inkscape:export-ydpi="96"
   xmlns:inkscape="http://www.inkscape.org/namespaces/inkscape"
   xmlns:sodipodi="http://sodipodi.sourceforge.net/DTD/sodipodi-0.dtd"
   xmlns="http://www.w3.org/2000/svg"
   xmlns:svg="http://www.w3.org/2000/svg"><sodipodi:namedview
     id="namedview1"
     pagecolor="#ffffff"
     bordercolor="#111111"
     borderopacity="1"
     inkscape:showpageshadow="0"
     inkscape:pageopacity="0"
     inkscape:pagecheckerboard="1"
     inkscape:deskcolor="#d1d1d1"
     inkscape:document-units="mm"><inkscape:page
       x="0"
       y="1.0016335e-23"
       width="16.668758"
       height="14.019209"
       id="page2"
       margin="0"
       bleed="0" /></sodipodi:namedview><defs
     id="defs1" /><g
     inkscape:label="Layer 1"
     inkscape:groupmode="layer"
     id="layer1"
     transform="translate(-76.705094,-23.520812)"><path
       style="fill:#000000;stroke:#000000;stroke-width:0.267116;stroke-linecap:round;stroke-linejoin:round;stroke-dasharray:none;stroke-opacity:1"
       d="m 92.094941,37.381401 c -0.217643,-0.06761 -0.45031,-0.231494 -0.784835,-0.555188 -0.276631,-0.26782 -0.493225,-0.413531 -1.325983,-0.892702 -1.123757,-0.646307 -1.633902,-1.008174 -1.884491,-1.336829 -0.181191,-0.237379 -0.484617,-0.786667 -1.064675,-1.924522 l -0.349549,-0.685984 -0.191912,0.433486 c -0.428869,0.971078 -0.535014,1.405128 -0.467464,1.905083 0.05353,0.376673 0.181191,0.665402 0.628293,1.397916 0.428885,0.700884 0.572561,0.979972 0.531821,1.027378 -0.05353,0.06417 -0.118947,0.02051 -0.179078,-0.120355 -0.03209,-0.08248 -0.236941,-0.433924 -0.448182,-0.781956 -0.212275,-0.348031 -0.436366,-0.75084 -0.496419,-0.895284 -0.325948,-0.765756 -0.261607,-1.329443 0.292721,-2.567749 0.245533,-0.548094 0.257333,-0.586268 0.194056,-0.665825 -0.05353,-0.06636 -0.05353,-0.09654 -0.02144,-0.140698 0.06417,-0.07498 0.09657,-0.01704 0.602564,0.972156 0.679754,1.337566 0.982116,1.865271 1.202357,2.093902 0.273407,0.282938 0.696924,0.566425 1.780269,1.191604 0.512493,0.295177 0.992822,0.606006 1.113882,0.719757 0.367768,0.345043 0.616525,0.549398 0.761265,0.624663 0.264831,0.138043 1.056114,0.05806 1.104585,-0.111121 0.0078,-0.03006 -0.111591,-0.126304 -0.269135,-0.215718 -0.35919,-0.203948 -0.633662,-0.440356 -0.634742,-0.547472 -0.0016,-0.07402 0.02144,-0.07935 0.238037,-0.05133 0.130842,0.01706 0.239084,0.01706 0.239084,1.57e-4 0,-0.01737 -0.153379,-0.11566 -0.340957,-0.219145 -0.275535,-0.152127 -0.403138,-0.194808 -0.670113,-0.222902 -0.203697,-0.02144 -0.392417,-0.0709 -0.49105,-0.129433 -0.18872,-0.110809 -0.58757,-0.473271 -1.145747,-1.039054 -0.218739,-0.222261 -0.55968,-0.552919 -0.756961,-0.734894 -0.197296,-0.181832 -0.389224,-0.370756 -0.427819,-0.419853 -0.108306,-0.13945 -0.550024,-1.234587 -0.90707,-2.243045 -0.518925,-1.46385 -0.615445,-1.610206 -1.309786,-1.982381 l -0.433156,-0.231613 -0.28092,0.257651 c -0.998221,0.915978 -1.884177,1.095913 -2.159933,0.438965 -0.07512,-0.17371 -0.08577,-0.264193 -0.06448,-0.500938 l 0.02144,-0.288832 -0.1844,0.05574 c -0.416019,0.126459 -0.621892,0.342655 -0.912454,0.960461 -0.108305,0.230088 -0.324868,0.691137 -0.480328,1.02458 -0.531806,1.134992 -0.81271,1.597092 -1.061468,1.745605 -0.06449,0.03975 -0.495369,0.360901 -0.956401,0.715036 -1.093535,0.841679 -1.165686,0.879414 -1.655578,0.865908 -0.34415,-0.0094 -0.41278,0.0032 -0.709773,0.133973 -0.180127,0.07935 -0.316307,0.157668 -0.302362,0.173804 0.01096,0.01644 0.115818,0.02895 0.228365,0.02895 0.121138,0 0.208017,0.02144 0.217673,0.05462 0.02144,0.07402 -0.269134,0.31147 -0.499658,0.409148 -0.446022,0.18872 -0.457822,0.196858 -0.405282,0.270418 0.06449,0.09328 0.528581,0.252717 0.731246,0.252389 0.251965,-3.3e-4 0.421356,-0.0709 0.786979,-0.325103 0.510364,-0.354887 0.595067,-0.398851 1.337566,-0.68877 0.992836,-0.387597 1.681183,-0.727802 1.976032,-0.976544 0.09657,-0.08248 0.745176,-0.962398 0.745176,-1.012572 0,-0.0074 -0.04289,-0.156515 -0.09657,-0.328311 -0.145868,-0.446357 -0.183352,-0.720404 -0.135069,-0.97591 0.05353,-0.284458 0.582202,-1.296523 0.658328,-1.262671 0.03209,0.01252 0.05353,0.03975 0.05353,0.059 0,0.01819 -0.09657,0.217984 -0.224092,0.442719 -0.443893,0.808857 -0.453535,0.901275 -0.196217,1.779667 0.32058,1.094905 0.331301,1.666589 0.06417,3.379059 -0.08561,0.567083 -0.160798,1.077728 -0.160798,1.134713 0,0.05901 -0.03209,0.126304 -0.08577,0.155884 -0.08577,0.05039 -0.08577,0.04617 -0.05353,-0.170596 0.01096,-0.122548 0.08577,-0.62316 0.166198,-1.112301 0.07513,-0.489234 0.155571,-1.082923 0.174759,-1.319379 0.04289,-0.535562 -0.03208,-1.533021 -0.115818,-1.533021 -0.01096,0 -0.152283,0.178936 -0.303425,0.397666 -0.173679,0.250683 -0.360255,0.460734 -0.502851,0.568257 -0.331316,0.248224 -0.954257,0.550352 -1.89338,0.917915 -0.650831,0.254955 -0.898509,0.375264 -1.164512,0.568585 -0.576833,0.418038 -0.574689,0.417194 -0.996046,0.415253 -0.573641,-0.0032 -0.969282,-0.212932 -0.897429,-0.475947 0.01096,-0.05258 0.158655,-0.148371 0.385985,-0.257741 l 0.363464,-0.173695 -0.130842,-0.05039 c -0.170487,-0.06542 -0.240165,-0.185057 -0.158655,-0.274706 0.03209,-0.03537 0.202649,-0.132251 0.377408,-0.214105 0.289498,-0.135539 0.354887,-0.148372 0.717302,-0.14399 0.342036,0.0047 0.427805,-0.01096 0.607916,-0.105016 0.209081,-0.110496 1.907231,-1.381337 2.150932,-1.609995 0.162943,-0.152761 0.640095,-1.053206 1.10543,-2.085126 0.495355,-1.100877 0.719446,-1.372673 1.24438,-1.515128 0.114722,-0.03113 0.209097,-0.06646 0.209097,-0.07824 0,-0.01094 -0.04289,-0.11222 -0.09657,-0.22281 -0.05353,-0.115344 -0.111591,-0.305144 -0.123173,-0.444644 -0.02144,-0.283469 0.03209,-0.467043 0.26804,-0.888834 0.08577,-0.153224 0.157652,-0.295174 0.157652,-0.315324 0,-0.02051 -0.05353,-0.109549 -0.123173,-0.19836 -0.111592,-0.147429 -0.120044,-0.180345 -0.09657,-0.372364 0.06449,-0.477886 0.347389,-1.092316 0.730165,-1.573504 0.114722,-0.14399 0.205874,-0.302788 0.205874,-0.357694 0,-0.15946 0.147902,-0.447525 0.296978,-0.578548 0.158654,-0.139605 0.408507,-0.193954 0.535029,-0.116133 0.04289,0.02892 0.234828,0.05805 0.414939,0.06415 0.297009,0.0095 0.35811,0.02892 0.662632,0.209077 0.739791,0.435651 1.146702,0.924979 1.338614,1.610868 0.05353,0.202335 0.07497,0.423306 0.07497,1.124865 0.0032,1.010214 0.02144,1.074343 0.407443,1.667867 0.367767,0.563542 0.433173,0.743014 0.433173,1.200319 0,0.32177 -0.02144,0.429416 -0.09657,0.598825 -0.125365,0.278116 -0.264831,0.442277 -0.513572,0.605039 l -0.206923,0.136155 0.08577,0.260639 c 0.216579,0.675814 0.764474,2.055884 0.878115,2.213786 0.03209,0.0385 0.220867,0.226658 0.429949,0.417303 0.208017,0.190629 0.629389,0.598933 0.936023,0.907304 0.809501,0.813571 0.894205,0.872105 1.374221,0.944037 0.302362,0.04492 0.46748,0.09876 0.705516,0.228927 0.50285,0.275223 0.581106,0.426506 0.283049,0.541353 l -0.167248,0.06417 0.34739,0.203729 c 0.258398,0.151188 0.353822,0.232135 0.37204,0.314037 0.03209,0.151971 -0.02144,0.23835 -0.208002,0.312974 -0.188704,0.07606 -0.747304,0.115817 -0.913502,0.06417 z m -3.965383,-6.753374 c 0.348453,-0.204996 0.597195,-0.747211 0.54467,-1.188583 -0.03209,-0.277254 -0.130842,-0.497489 -0.441734,-0.99381 -0.403138,-0.645243 -0.434253,-0.765224 -0.424596,-1.698743 0.0047,-0.461049 -0.01096,-0.874469 -0.03208,-1.01012 -0.122234,-0.611044 -0.556472,-1.180412 -1.185219,-1.554953 -0.416004,-0.247461 -0.604708,-0.30365 -0.866315,-0.257746 -0.140545,0.02471 -0.215514,0.01725 -0.273407,-0.02892 -0.151189,-0.121601 -0.335604,-0.0794 -0.503931,0.114881 -0.162943,0.187644 -0.21229,0.365181 -0.08577,0.302251 0.157652,-0.07729 0.473911,-0.160785 0.567192,-0.148838 0.137259,0.01725 0.198345,0.188495 0.269118,0.743782 0.06433,0.52033 0.15432,0.82603 0.328077,1.142048 0.08577,0.158661 0.144771,0.215849 0.213386,0.215849 0.292704,0 0.413859,0.433264 0.191912,0.688434 -0.121138,0.140236 -0.400994,0.251552 -0.522148,0.207478 -0.06449,-0.02366 -0.07513,0.01251 -0.122235,0.28777 -0.02144,0.173163 -0.04289,0.452047 -0.03209,0.619731 0.02144,0.483238 0.21013,0.688771 0.951034,1.064048 0.179047,0.09107 0.402058,0.225913 0.495338,0.300422 0.184432,0.146651 0.416004,0.534905 0.596146,0.99852 0.06417,0.15784 0.126461,0.286929 0.147903,0.286929 0.02144,0 0.108305,-0.0407 0.189768,-0.09013 z m -3.106145,-0.876068 c 0.322739,-0.177885 0.785931,-0.537703 0.930655,-0.723086 0.06449,-0.08466 0.06449,-0.09549 -0.08577,-0.268904 -0.280905,-0.323379 -0.358111,-0.961334 -0.174744,-1.437306 0.03209,-0.08886 0.05353,-0.204786 0.05353,-0.256148 -0.0063,-0.08466 0.01096,-0.09328 0.235876,-0.09223 0.218739,0.0011 0.254125,-0.01094 0.340973,-0.127238 0.127555,-0.171438 0.126459,-0.34213 -0.0032,-0.399076 -0.05353,-0.02345 -0.124425,-0.03208 -0.156509,-0.01819 -0.07513,0.03428 -0.310939,-0.340311 -0.437446,-0.699088 -0.05353,-0.154317 -0.125522,-0.507773 -0.159812,-0.785143 -0.03209,-0.27738 -0.07513,-0.53684 -0.08577,-0.576518 -0.03209,-0.08792 -0.233732,-0.0632 -0.482474,0.05994 -0.463191,0.228595 -1.089888,1.243689 -1.154011,1.867994 l -0.02144,0.229037 0.218738,0.201767 c 0.120043,0.110969 0.256238,0.263867 0.301282,0.339564 0.223011,0.369167 0.194073,1.134844 -0.05353,1.520417 -0.05353,0.07824 -0.171551,0.185919 -0.26804,0.238333 -0.166198,0.09013 -0.176919,0.108308 -0.202664,0.328006 -0.08577,0.794576 0.405298,1.040134 1.208037,0.596984 z m -0.89206,-1.214233 c 0.249837,-0.305364 0.293785,-1.031888 0.08577,-1.39645 -0.05353,-0.102955 -0.122235,-0.187854 -0.141485,-0.187854 -0.05353,0 -0.408507,0.722329 -0.443878,0.898278 -0.04289,0.238239 0.03209,0.557011 0.190832,0.765972 0.08592,0.11832 0.162942,0.0997 0.308794,-0.08045 z"
       id="path1-8"
       inkscape:export-filename="icon_breath_24.svg"
       inkscape:export-xdpi="96"
       inkscape:export-ydpi="96" /></g></svg>
