<?xml version="1.0" encoding="UTF-8" standalone="no"?>
<!-- Created with Inkscape (http://www.inkscape.org/) -->

<svg
   width="10.054199mm"
   height="8.444809mm"
   viewBox="0 0 10.054199 8.444809"
   version="1.1"
   id="svg1"
   xml:space="preserve"
   inkscape:export-filename="ビットマップ.svg"
   inkscape:export-xdpi="96"
   inkscape:export-ydpi="96"
   xmlns:inkscape="http://www.inkscape.org/namespaces/inkscape"
   xmlns:sodipodi="http://sodipodi.sourceforge.net/DTD/sodipodi-0.dtd"
   xmlns="http://www.w3.org/2000/svg"
   xmlns:svg="http://www.w3.org/2000/svg"><sodipodi:namedview
     id="namedview1"
     pagecolor="#ffffff"
     bordercolor="#111111"
     borderopacity="1"
     inkscape:showpageshadow="0"
     inkscape:pageopacity="0"
     inkscape:pagecheckerboard="1"
     inkscape:deskcolor="#d1d1d1"
     inkscape:document-units="mm"><inkscape:page
       x="0"
       y="0"
       width="10.054199"
       height="8.444809"
       id="page2"
       margin="0"
       bleed="0" /></sodipodi:namedview><defs
     id="defs1" /><g
     inkscape:label="Layer 1"
     inkscape:groupmode="layer"
     id="layer1"
     transform="translate(-101.43552,109.56277)"><path
       style="fill:#000000;stroke:#000000;stroke-width:0.0980986;stroke-opacity:1"
       d="m 110.74515,-101.18154 c -0.13211,-0.041 -0.27334,-0.14051 -0.47639,-0.33699 -0.16791,-0.16257 -0.29938,-0.25101 -0.80486,-0.54186 -0.68211,-0.39231 -0.99177,-0.61196 -1.14387,-0.81145 -0.10998,-0.14409 -0.29416,-0.4775 -0.64625,-1.16817 l -0.21217,-0.41639 -0.11649,0.26312 c -0.26032,0.58944 -0.32475,0.85291 -0.28375,1.15638 0.0325,0.22863 0.10998,0.40389 0.38137,0.84852 0.26033,0.42543 0.34754,0.59484 0.32281,0.62361 -0.0325,0.039 -0.0722,0.0124 -0.1087,-0.0731 -0.0195,-0.0501 -0.14382,-0.26339 -0.27204,-0.47464 -0.12885,-0.21125 -0.26487,-0.45576 -0.30132,-0.54343 -0.19785,-0.46481 -0.1588,-0.80696 0.17767,-1.55861 0.14904,-0.33269 0.1562,-0.35586 0.1178,-0.40415 -0.0325,-0.0403 -0.0325,-0.0586 -0.013,-0.0854 0.039,-0.0455 0.0586,-0.0104 0.36575,0.59009 0.41261,0.81189 0.59614,1.13221 0.72982,1.27098 0.16596,0.17175 0.42303,0.34382 1.08061,0.7233 0.31108,0.17917 0.60264,0.36784 0.67612,0.43689 0.22323,0.20943 0.37422,0.33348 0.46208,0.37916 0.16075,0.0838 0.64105,0.0352 0.67047,-0.0675 0.005,-0.0182 -0.0677,-0.0767 -0.16336,-0.13094 -0.21802,-0.12379 -0.38463,-0.26729 -0.38528,-0.33231 -0.001,-0.0449 0.013,-0.0482 0.14448,-0.0312 0.0794,0.0104 0.14513,0.0104 0.14513,9e-5 0,-0.0105 -0.0931,-0.0702 -0.20696,-0.13302 -0.16725,-0.0923 -0.2447,-0.11825 -0.40675,-0.1353 -0.12365,-0.013 -0.2382,-0.043 -0.29807,-0.0786 -0.11455,-0.0673 -0.35665,-0.28727 -0.69546,-0.6307 -0.13277,-0.13491 -0.33972,-0.33562 -0.45947,-0.44607 -0.11975,-0.11037 -0.23625,-0.22505 -0.25968,-0.25485 -0.0657,-0.0846 -0.33386,-0.74938 -0.55058,-1.36151 -0.31499,-0.88855 -0.37357,-0.97738 -0.79503,-1.20329 l -0.26293,-0.14058 -0.17051,0.15639 c -0.60591,0.55599 -1.14368,0.66521 -1.31106,0.26644 -0.0456,-0.10544 -0.0521,-0.16036 -0.0391,-0.30406 l 0.013,-0.17532 -0.11193,0.0338 c -0.25252,0.0768 -0.37748,0.208 -0.55385,0.583 -0.0657,0.13966 -0.19719,0.41951 -0.29156,0.62191 -0.3228,0.68894 -0.49331,0.96942 -0.6443,1.05957 -0.0391,0.0241 -0.30068,0.21906 -0.58053,0.43402 -0.66376,0.51089 -0.70756,0.5338 -1.00492,0.5256 -0.2089,-0.006 -0.25055,0.002 -0.43083,0.0813 -0.10933,0.0482 -0.19199,0.0957 -0.18353,0.1055 0.007,0.01 0.0703,0.0176 0.13862,0.0176 0.0735,0 0.12626,0.013 0.13212,0.0332 0.013,0.0449 -0.16336,0.18906 -0.30328,0.24835 -0.27074,0.11455 -0.2779,0.11949 -0.24601,0.16414 0.0391,0.0566 0.32085,0.1534 0.44386,0.1532 0.15294,-2e-4 0.25576,-0.043 0.47769,-0.19733 0.30979,-0.21542 0.3612,-0.2421 0.81189,-0.41808 0.60265,-0.23527 1.02047,-0.44177 1.19944,-0.59276 0.0586,-0.0501 0.45232,-0.58416 0.45232,-0.61462 0,-0.005 -0.026,-0.095 -0.0586,-0.19928 -0.0885,-0.27093 -0.11129,-0.43728 -0.082,-0.59237 0.0325,-0.17266 0.35339,-0.78698 0.3996,-0.76643 0.0195,0.008 0.0325,0.0241 0.0325,0.0358 0,0.011 -0.0586,0.13231 -0.13602,0.26872 -0.26944,0.49097 -0.27529,0.54707 -0.1191,1.08025 0.19459,0.6646 0.2011,1.0116 0.039,2.05106 -0.052,0.34421 -0.0976,0.65417 -0.0976,0.68876 0,0.0358 -0.0195,0.0767 -0.0521,0.0946 -0.0521,0.0306 -0.0521,0.028 -0.0325,-0.10355 0.007,-0.0744 0.0521,-0.37825 0.10088,-0.67516 0.0456,-0.29696 0.0944,-0.65732 0.10608,-0.80085 0.026,-0.32508 -0.0195,-0.93053 -0.0703,-0.93053 -0.007,0 -0.0924,0.10862 -0.18418,0.24138 -0.10542,0.15216 -0.21867,0.27966 -0.30523,0.34493 -0.2011,0.15067 -0.57922,0.33406 -1.14926,0.55716 -0.39505,0.15476 -0.54539,0.22779 -0.70685,0.34513 -0.35014,0.25375 -0.34884,0.25323 -0.6046,0.25206 -0.34819,-0.002 -0.58834,-0.12925 -0.54473,-0.2889 0.007,-0.0319 0.0963,-0.0901 0.23429,-0.15645 l 0.22062,-0.10543 -0.0794,-0.0306 c -0.10348,-0.0397 -0.14578,-0.11233 -0.0963,-0.16674 0.0195,-0.0215 0.123,-0.0803 0.22908,-0.12996 0.17572,-0.0823 0.21542,-0.0901 0.4354,-0.0874 0.20761,0.003 0.25967,-0.007 0.369,-0.0638 0.12691,-0.0671 1.15767,-0.83846 1.3056,-0.97725 0.0989,-0.0927 0.38853,-0.63929 0.67098,-1.26566 0.30068,-0.66822 0.4367,-0.8332 0.75533,-0.91967 0.0696,-0.0189 0.12692,-0.0404 0.12692,-0.0475 0,-0.007 -0.026,-0.0681 -0.0586,-0.13524 -0.0325,-0.07 -0.0677,-0.18522 -0.0748,-0.26989 -0.013,-0.17207 0.0195,-0.28349 0.1627,-0.53952 0.0521,-0.093 0.0957,-0.17917 0.0957,-0.1914 0,-0.0124 -0.0325,-0.0665 -0.0748,-0.1204 -0.0677,-0.0895 -0.0729,-0.10947 -0.0586,-0.22603 0.0391,-0.29007 0.21086,-0.66302 0.4432,-0.9551 0.0696,-0.0874 0.12496,-0.18379 0.12496,-0.21711 0,-0.0968 0.0898,-0.27165 0.18027,-0.35118 0.0963,-0.0847 0.24796,-0.11773 0.32476,-0.0705 0.026,0.0176 0.14253,0.0352 0.25186,0.039 0.18028,0.006 0.21737,0.0176 0.40221,0.12691 0.44905,0.26443 0.69604,0.56145 0.81253,0.97778 0.0325,0.12281 0.0455,0.25695 0.0455,0.68278 0.002,0.61319 0.013,0.65212 0.24731,1.01238 0.22323,0.34207 0.26293,0.45101 0.26293,0.72859 0,0.19531 -0.013,0.26065 -0.0586,0.36348 -0.0761,0.16882 -0.16075,0.26846 -0.31174,0.36725 l -0.1256,0.0827 0.0521,0.15821 c 0.13146,0.41021 0.46403,1.2479 0.53301,1.34375 0.0195,0.0234 0.13407,0.13758 0.26098,0.2533 0.12626,0.11571 0.38203,0.36354 0.56816,0.55072 0.49136,0.49383 0.54277,0.52936 0.83414,0.57303 0.18353,0.0273 0.28375,0.0599 0.42824,0.13895 0.30523,0.16706 0.35273,0.25889 0.17181,0.3286 l -0.10152,0.039 0.21086,0.12366 c 0.15685,0.0918 0.21477,0.1409 0.22583,0.19062 0.0195,0.0922 -0.013,0.14467 -0.12626,0.18997 -0.11454,0.0462 -0.45361,0.0703 -0.55449,0.039 z m -2.40696,-4.09924 c 0.21151,-0.12443 0.3625,-0.45355 0.33061,-0.72146 -0.0195,-0.1683 -0.0794,-0.30197 -0.26813,-0.60324 -0.2447,-0.39165 -0.26358,-0.46448 -0.25772,-1.03112 0.003,-0.27985 -0.007,-0.5308 -0.0195,-0.61313 -0.0742,-0.3709 -0.33777,-0.7165 -0.71941,-0.94385 -0.25252,-0.1502 -0.36706,-0.18431 -0.52585,-0.15645 -0.0853,0.015 -0.13082,0.0105 -0.16596,-0.0176 -0.0918,-0.0738 -0.20371,-0.0482 -0.30588,0.0697 -0.0989,0.1139 -0.12886,0.22167 -0.0521,0.18347 0.0957,-0.0469 0.28766,-0.0976 0.34428,-0.0903 0.0833,0.0105 0.1204,0.11442 0.16336,0.45147 0.039,0.31584 0.0937,0.50139 0.19914,0.69322 0.0521,0.0963 0.0879,0.13101 0.12952,0.13101 0.17767,0 0.25121,0.26299 0.11649,0.41788 -0.0735,0.0851 -0.2434,0.15268 -0.31694,0.12593 -0.0391,-0.0143 -0.0456,0.008 -0.0742,0.17468 -0.013,0.10511 -0.026,0.27439 -0.0195,0.37617 0.013,0.29332 0.12755,0.41808 0.57727,0.64587 0.10868,0.0553 0.24405,0.13712 0.30067,0.18235 0.11195,0.089 0.25251,0.32469 0.36185,0.6061 0.039,0.0958 0.0768,0.17416 0.0898,0.17416 0.013,0 0.0657,-0.0247 0.11519,-0.0547 z m -1.8854,-0.53177 c 0.1959,-0.10797 0.47705,-0.32638 0.5649,-0.43891 0.0391,-0.0514 0.0391,-0.0579 -0.0521,-0.16322 -0.17051,-0.19629 -0.21737,-0.58352 -0.10607,-0.87243 0.0195,-0.054 0.0325,-0.1243 0.0325,-0.15548 -0.004,-0.0514 0.007,-0.0566 0.14318,-0.056 0.13277,8.5e-4 0.15425,-0.007 0.20696,-0.0772 0.0774,-0.10406 0.0768,-0.20767 -0.002,-0.24223 -0.0325,-0.0143 -0.0755,-0.0195 -0.095,-0.011 -0.0456,0.0208 -0.18874,-0.20657 -0.26553,-0.42434 -0.0325,-0.0937 -0.0762,-0.30822 -0.097,-0.47658 -0.0195,-0.16837 -0.0456,-0.32586 -0.0521,-0.34994 -0.0195,-0.0534 -0.14187,-0.0384 -0.29286,0.0364 -0.28115,0.13876 -0.66155,0.75491 -0.70047,1.13386 l -0.013,0.13902 0.13277,0.12248 c 0.0729,0.0674 0.15554,0.16016 0.18288,0.20611 0.13537,0.22408 0.1178,0.68884 -0.0325,0.92288 -0.0325,0.0475 -0.10413,0.11285 -0.1627,0.14467 -0.10088,0.0547 -0.10739,0.0657 -0.12301,0.19909 -0.0521,0.48231 0.24601,0.63135 0.73327,0.36237 z m -0.54148,-0.73703 c 0.15165,-0.18535 0.17833,-0.62634 0.0521,-0.84763 -0.0325,-0.0625 -0.0742,-0.11403 -0.0859,-0.11403 -0.0325,0 -0.24796,0.43845 -0.26943,0.54525 -0.026,0.14461 0.0195,0.3381 0.11584,0.46494 0.0521,0.0718 0.0989,0.0605 0.18743,-0.0488 z"
       id="path1-8" /></g></svg>
