<?xml version="1.0" encoding="UTF-8" standalone="no"?>
<!-- Created with Inkscape (http://www.inkscape.org/) -->

<svg
   width="10.583688mm"
   height="7.5458655mm"
   viewBox="0 0 10.583688 7.5458655"
   version="1.1"
   id="svg1"
   xml:space="preserve"
   inkscape:export-filename="ビットマップ.svg"
   inkscape:export-xdpi="96"
   inkscape:export-ydpi="96"
   xmlns:inkscape="http://www.inkscape.org/namespaces/inkscape"
   xmlns:sodipodi="http://sodipodi.sourceforge.net/DTD/sodipodi-0.dtd"
   xmlns="http://www.w3.org/2000/svg"
   xmlns:svg="http://www.w3.org/2000/svg"><sodipodi:namedview
     id="namedview1"
     pagecolor="#ffffff"
     bordercolor="#111111"
     borderopacity="1"
     inkscape:showpageshadow="0"
     inkscape:pageopacity="0"
     inkscape:pagecheckerboard="1"
     inkscape:deskcolor="#d1d1d1"
     inkscape:document-units="mm"><inkscape:page
       x="0"
       y="0"
       width="10.583688"
       height="7.5458655"
       id="page2"
       margin="0"
       bleed="0" /></sodipodi:namedview><defs
     id="defs1" /><g
     inkscape:label="Layer 1"
     inkscape:groupmode="layer"
     id="layer1"
     transform="translate(-293.0179,58.619696)"><path
       style="fill:#000000;stroke:#000000;stroke-width:0.0746378;stroke-opacity:1"
       d="m 294.3625,-51.407185 c 4e-4,-0.510187 0.0516,-1.024133 0.15987,-1.623947 0.0516,-0.291421 0.19481,-0.890725 0.24409,-1.031474 0.0115,-0.03151 -0.006,-0.0298 -0.157,0.0149 -0.23779,0.07036 -0.37301,0.134938 -0.55236,0.264376 -0.29852,0.215615 -0.53803,0.515229 -0.51454,0.644833 0.0172,0.09259 0.1484,0.38986 0.2355,0.531216 0.0401,0.07048 0.0762,0.135111 0.0728,0.143591 -0.0115,0.02865 -0.46699,0.480793 -0.48475,0.480793 -0.0229,0 -0.11345,-0.146456 -0.1782,-0.287353 -0.12606,-0.274862 -0.16846,-0.716187 -0.0985,-1.02748 0.0613,-0.276351 0.212,-0.589723 0.38676,-0.806547 0.30025,-0.372671 0.87066,-0.653492 1.48914,-0.7332 l 0.10657,-0.01375 -0.0115,-0.151097 c -0.0115,-0.192237 0.0344,-0.412608 0.1146,-0.545082 0.0682,-0.111561 0.12663,-0.162557 0.2292,-0.201348 0.0693,-0.02636 0.0768,-0.03667 0.11516,-0.173844 0.0911,-0.320185 0.10887,-0.468932 0.10887,-0.906219 0,-0.531101 -0.0344,-0.748641 -0.22575,-1.427762 -0.0458,-0.16588 -0.0848,-0.307121 -0.0848,-0.313768 0,-0.0069 0.0115,-0.01203 0.0286,-0.01203 0.0172,0 0.0344,0.03037 0.0458,0.06744 0.23264,0.827484 0.28191,1.088749 0.29796,1.572063 0.0172,0.481538 -0.0287,0.795615 -0.1868,1.263889 l -0.0791,0.236586 0.0825,0.08056 c 0.14955,0.146742 0.49621,0.357028 0.83702,0.507723 0.10027,0.04469 0.15986,0.05214 0.54491,0.07191 0.56554,0.02865 1.38411,0.02808 1.69123,-0.0011 0.63922,-0.06108 1.23919,-0.223522 1.63461,-0.442403 0.25957,-0.143705 0.57339,-0.397308 0.57339,-0.463374 0,-0.01547 -0.0229,-0.09695 -0.0458,-0.181121 -0.13179,-0.445554 -0.1782,-1.064243 -0.11631,-1.551442 0.0458,-0.358346 0.2418,-1.138404 0.29165,-1.156602 0.0344,-0.01318 0.0229,0.04985 -0.0716,0.394559 -0.0401,0.156482 -0.10027,0.389974 -0.12605,0.518839 -0.1146,0.570752 -0.0579,1.642902 0.0922,1.684048 0.0854,0.02349 0.19883,0.157457 0.27103,0.319498 0.0676,0.150924 0.0716,0.169317 0.0745,0.380577 l 0.004,0.221975 0.10428,0.229711 c 0.13522,0.297494 0.21945,0.522506 0.33921,0.904958 l 0.0974,0.310387 0.18221,0.05787 c 0.24581,0.07804 0.60037,0.228164 0.83352,0.352903 0.19997,0.106976 0.63894,0.415988 0.76373,0.537576 l 0.0722,0.07042 -0.1633,0.259391 c -0.22175,0.351241 -0.20055,0.332504 -0.28592,0.253203 -0.1421,-0.132303 -0.41255,-0.322534 -0.63321,-0.444409 -0.23894,-0.132302 -0.55465,-0.273543 -0.57127,-0.255494 -0.005,0.0057 0.004,0.139235 0.0229,0.296176 0.0458,0.426704 0.0676,0.752005 0.0682,1.058456 3.9e-4,0.230742 -0.004,0.274976 -0.0286,0.274976 -0.0229,0 -0.0287,-0.04412 -0.0287,-0.27383 0,-0.458218 -0.0791,-1.336738 -0.12491,-1.387264 -0.0115,-0.0097 -0.12033,-0.051 -0.24868,-0.09179 l -0.23263,-0.07386 -0.16216,0.07042 c -0.4475,0.194128 -1.03687,0.343734 -1.6624,0.421832 -0.40338,0.05042 -1.45258,0.04985 -1.9104,-4.6e-4 -1.16889,-0.129094 -2.25195,-0.411978 -2.8443,-0.742963 -0.0607,-0.03381 -0.1146,-0.05673 -0.1209,-0.05042 -0.0172,0.0212 -0.11518,0.603223 -0.15471,0.934982 -0.0229,0.19516 -0.0458,0.518152 -0.0516,0.783434 -0.0115,0.358861 -0.0172,0.451399 -0.0344,0.451399 -0.0172,0 -0.0229,-0.06131 -0.0229,-0.295719 z m -0.75198,-0.886301 c 0.12663,-0.13173 0.17247,-0.192409 0.15814,-0.208109 -0.0115,-0.01547 -0.0791,0.03896 -0.22117,0.187825 -0.11002,0.115514 -0.19596,0.21848 -0.19023,0.228851 0.0172,0.02865 0.0579,-0.0053 0.25211,-0.208625 z m 9.71464,-0.04183 c 0.0774,-0.124625 0.14325,-0.235326 0.14669,-0.246098 0.003,-0.01089 -0.0287,-0.04928 -0.0745,-0.08537 l -0.0808,-0.06589 -0.0516,0.06859 c -0.0762,0.09695 -0.23779,0.369691 -0.23779,0.40132 0,0.02349 0.1272,0.153274 0.15012,0.153789 0.005,7.5e-5 0.0728,-0.101762 0.15012,-0.226329 z m -0.1272,-0.01834 c -0.0344,-0.02636 -0.0344,-0.128635 6.6e-4,-0.155795 0.0728,-0.05271 0.14897,0.08916 0.0785,0.146284 -0.0401,0.03151 -0.0458,0.03209 -0.0791,0.0097 z m 0.0458,-0.101304 c -0.0172,-0.0212 -0.0344,0.01089 -0.0172,0.03839 0.0115,0.0212 0.0172,0.0212 0.0229,7.5e-5 0.004,-0.01432 0.003,-0.03209 -0.004,-0.03896 z m -9.73321,0.09586 c 0.10199,-0.103997 0.19252,-0.196191 0.20112,-0.204843 0.006,-0.0086 -0.0115,-0.06234 -0.0401,-0.119239 -0.15586,-0.280247 -0.24925,-0.626778 -0.25269,-0.939543 -10e-4,-0.108409 0.004,-0.225184 0.0115,-0.259391 l 0.0115,-0.06228 -0.0458,0.06228 c -0.0458,0.0616 -0.19997,0.389516 -0.22576,0.485606 -0.0115,0.04641 -0.0115,0.0487 0.0458,0.03667 0.0791,-0.01719 0.0808,0.03954 0.002,0.05873 -0.063,0.01547 -0.0831,0.04641 -0.10199,0.163587 -0.0115,0.0726 -0.0115,0.07901 0.0229,0.0648 0.12721,-0.05879 0.1633,-0.01547 0.0458,0.05157 -0.0688,0.03896 -0.0751,0.04928 -0.0751,0.127375 0,0.08898 0.005,0.09162 0.0986,0.04928 0.0229,-0.01031 0.0344,-0.0053 0.0344,0.01719 0,0.01776 -0.0172,0.03782 -0.0344,0.04469 -0.0584,0.02063 -0.0814,0.06589 -0.0676,0.134652 0.006,0.03495 0.0229,0.06309 0.0344,0.06309 0.0115,0 0.0688,-0.03266 0.12548,-0.07208 0.11289,-0.07953 0.13065,-0.08583 0.13065,-0.04641 0,0.0149 -0.0516,0.06366 -0.12205,0.108982 -0.12663,0.0852 -0.13924,0.11156 -0.10085,0.2049 l 0.0229,0.05214 0.0808,-0.06137 c 0.0579,-0.0424 0.0848,-0.05386 0.094,-0.03724 0.006,0.01375 -0.006,0.03954 -0.0286,0.06091 -0.12148,0.09936 -0.11517,0.08921 -0.0905,0.149664 0.0115,0.03094 0.0287,0.05615 0.0344,0.05615 0.006,0 0.0968,-0.08509 0.19883,-0.189086 z m 9.47754,0.0361 c 0,-0.03151 0.17132,-0.311189 0.23836,-0.389746 l 0.0458,-0.05501 -0.0516,-0.03553 c -0.0286,-0.01948 -0.0516,-0.03209 -0.0579,-0.02808 -0.003,0.0044 -0.0229,0.04756 -0.0516,0.09621 -0.0229,0.0487 -0.0516,0.08818 -0.0579,0.08818 -0.0344,0 -0.0286,-0.03495 0.0115,-0.113508 0.0229,-0.04813 0.0458,-0.09615 0.0458,-0.10692 0,-0.0212 -0.0974,-0.09087 -0.1272,-0.09087 -0.0114,0 -0.0458,0.05558 -0.0779,0.123822 -0.0344,0.06807 -0.0682,0.129724 -0.0791,0.137001 -0.0458,0.03094 -0.0344,-0.01834 0.0287,-0.146341 0.0344,-0.07512 0.0676,-0.143934 0.0676,-0.152815 0,-0.0092 -0.0344,-0.03667 -0.0728,-0.06165 l -0.0728,-0.04527 -0.0344,0.09345 c -0.0172,0.05157 -0.0458,0.09351 -0.0584,0.09351 -0.0344,8e-5 -0.0287,-0.03037 0.0115,-0.124739 l 0.0401,-0.08165 -0.0745,-0.04183 c -0.0401,-0.02292 -0.0819,-0.04183 -0.0905,-0.04183 -0.0115,0 -0.0287,0.04698 -0.0516,0.103768 -0.0172,0.0573 -0.0401,0.103768 -0.0458,0.103768 -0.0344,0 -0.0344,-0.03266 -5e-5,-0.127547 0.0172,-0.05615 0.0344,-0.105601 0.0344,-0.109612 0,-0.0097 -0.15356,-0.07741 -0.15929,-0.06979 -0.003,0.0033 -0.0172,0.05042 -0.0401,0.104627 -0.0172,0.05443 -0.0401,0.09855 -0.0516,0.09855 -0.0229,0 -0.0172,-0.04813 0.0115,-0.131672 0.0344,-0.09712 0.0401,-0.09122 -0.0401,-0.127433 -0.0888,-0.04125 -0.0963,-0.04011 -0.11173,0.01547 -0.0458,0.15929 -0.0894,0.264605 -0.11288,0.264605 -0.0344,0 -0.0344,0.01776 0.0286,-0.172354 l 0.0516,-0.161983 -0.0458,-0.01948 c -0.12434,-0.05214 -0.13122,-0.05042 -0.157,0.05214 -0.0229,0.09128 -0.0458,0.131157 -0.0682,0.10881 -0.005,-0.0057 0.003,-0.05736 0.0172,-0.114712 l 0.0287,-0.104341 -0.0579,-0.02235 c -0.10256,-0.03954 -0.11803,-0.03037 -0.14439,0.08154 -0.0229,0.09718 -0.0344,0.119582 -0.0619,0.09248 -0.006,-0.0063 0.002,-0.05822 0.0172,-0.115629 0.0172,-0.05736 0.0229,-0.108294 0.0172,-0.113165 -0.004,-0.0048 -0.0458,-0.01432 -0.0917,-0.02177 l -0.0842,-0.01261 -0.0344,0.157743 c -0.0286,0.147487 -0.0579,0.199113 -0.0814,0.171208 -0.006,-0.0063 0.006,-0.08686 0.0286,-0.178714 0.0229,-0.09185 0.0287,-0.171209 0.0229,-0.176366 -0.006,-0.0052 -0.0458,-0.01547 -0.0911,-0.02292 l -0.0779,-0.01375 -0.0115,0.08268 c -0.006,0.04527 -0.0172,0.0954 -0.0287,0.11093 -0.0286,0.05329 -0.0401,-7.1e-4 -0.0229,-0.104742 l 0.0172,-0.104226 -0.0676,-0.02063 c -0.10314,-0.03151 -0.10715,-0.02922 -0.13236,0.09529 -0.0172,0.08114 -0.0287,0.109727 -0.0401,0.09454 -0.0115,-0.0149 -0.0115,-0.05443 -10e-4,-0.124796 l 0.0172,-0.103023 -0.0579,-0.01203 c -0.1272,-0.02808 -0.12433,-0.03209 -0.17361,0.252286 -0.006,0.04011 -0.0229,0.06744 -0.0401,0.06744 -0.0172,0 -0.0229,-0.01318 -0.0172,-0.0361 0.0286,-0.114139 0.0516,-0.300302 0.0401,-0.3152 -0.0115,-0.0092 -0.0458,-0.02292 -0.0859,-0.03037 l -0.0688,-0.01375 -0.0229,0.114769 c -0.0287,0.156769 -0.0648,0.15167 -0.0458,-0.0069 l 0.0115,-0.12176 -0.0785,-0.01375 c -0.0401,-0.0074 -0.0819,-0.0097 -0.0865,-0.0052 -0.004,0.0047 -0.0172,0.05386 -0.0287,0.109612 -0.0115,0.05558 -0.0286,0.09815 -0.0401,0.0946 -0.0229,-0.0069 -0.0229,-0.01662 -10e-4,-0.14147 l 0.0115,-0.08566 -0.0877,-0.01432 c -0.0458,-0.008 -0.0905,-0.01146 -0.094,-0.0074 -0.004,0.0038 -0.0172,0.08389 -0.0286,0.17797 -0.0172,0.111102 -0.0344,0.171094 -0.0458,0.171094 -0.0287,0 -0.0287,-0.01719 0.002,-0.203812 0.0287,-0.165707 0.0344,-0.157456 -0.0865,-0.17923 -0.0682,-0.01261 -0.0693,-0.01146 -0.0819,0.06584 -0.0172,0.121244 -0.0286,0.151212 -0.0516,0.151212 -0.0115,0 -0.0172,-0.03896 -0.006,-0.112134 0.006,-0.06165 0.006,-0.116775 -0.003,-0.12239 -0.006,-0.0056 -0.0458,-0.01375 -0.09,-0.01776 l -0.0751,-0.0074 -0.0172,0.108925 c -0.0115,0.07489 -0.0229,0.108982 -0.0458,0.108982 -0.0172,0 -0.0229,-0.01375 -0.0172,-0.0361 0.005,-0.02005 0.0115,-0.07105 0.0229,-0.113566 0.0115,-0.08268 0.006,-0.0879 -0.12148,-0.103711 -0.0401,-0.0053 -0.0458,0.0033 -0.0636,0.103138 -0.0115,0.07094 -0.0229,0.108982 -0.0401,0.108982 -0.0229,0 -0.0229,-0.07231 0.006,-0.189258 0.006,-0.02407 -0.006,-0.03724 -0.0516,-0.04641 -0.1232,-0.0275 -0.12491,-0.02521 -0.14955,0.140152 -0.0115,0.08429 -0.0287,0.165708 -0.0401,0.181006 -0.0344,0.06097 -0.0401,-0.0092 -0.0114,-0.168286 0.0172,-0.09225 0.0229,-0.170922 0.0172,-0.174818 -0.006,-0.0039 -0.0458,-0.01375 -0.0894,-0.0212 -0.0859,-0.01547 -0.0854,-0.01662 -0.10887,0.139178 -0.0229,0.133047 -0.0516,0.09334 -0.0401,-0.04698 l 0.0115,-0.12451 -0.0665,-0.0031 c -0.0344,-0.0017 -0.0774,-0.004 -0.0905,-0.0052 -0.0115,-0.0013 -0.0287,0.04126 -0.0401,0.106862 -0.0115,0.07093 -0.0229,0.108982 -0.0401,0.108982 -0.0229,0 -0.0229,-0.07283 0.006,-0.190232 0.0115,-0.04355 -0.004,-0.05329 -0.0957,-0.06182 l -0.0739,-0.0069 -0.0287,0.171666 c -0.0287,0.173042 -0.0458,0.209542 -0.067,0.184388 -0.0115,-0.01261 0.0229,-0.279332 0.0458,-0.339953 0.005,-0.01432 -0.0115,-0.03037 -0.0458,-0.03782 -0.1444,-0.03381 -0.13466,-0.03782 -0.14783,0.05919 -0.006,0.04928 -0.0172,0.102966 -0.0286,0.11878 -0.0287,0.05501 -0.0458,-0.0027 -0.0229,-0.106346 0.0115,-0.0573 0.0115,-0.108066 0.006,-0.112879 -0.006,-0.0048 -0.0458,-0.0149 -0.0877,-0.02177 l -0.0745,-0.01318 -0.0229,0.117347 c -0.0115,0.06452 -0.0344,0.114254 -0.0401,0.110472 -0.0229,-0.0086 -0.0229,-0.0043 -0.006,-0.126114 0.006,-0.05501 0.0114,-0.103253 0.006,-0.107836 -0.004,-0.0046 -0.0401,-0.01719 -0.0854,-0.0275 l -0.0779,-0.01948 -0.0286,0.158316 c -0.0401,0.212979 -0.0458,0.221689 -0.0682,0.195159 -0.0115,-0.01547 -0.0115,-0.06922 0.0115,-0.181579 0.0172,-0.08939 0.0229,-0.166854 0.0172,-0.176136 -0.0115,-0.0092 -0.0458,-0.02292 -0.0859,-0.03037 -0.0688,-0.01375 -0.0693,-0.01318 -0.0905,0.07529 -0.0344,0.142501 -0.0344,0.150179 -0.0584,0.126057 -0.0115,-0.0149 -0.0115,-0.04584 3.9e-4,-0.102049 0.0286,-0.118895 0.0286,-0.128292 -0.0516,-0.151841 -0.098,-0.0298 -0.0951,-0.03152 -0.11746,0.06635 -0.0344,0.14021 -0.0344,0.149263 -0.0579,0.126115 -0.0115,-0.01375 -0.0115,-0.05271 0.004,-0.117462 0.0286,-0.111275 0.0172,-0.129095 -0.0808,-0.148863 l -0.0676,-0.01375 -0.0458,0.178199 c -0.0286,0.10434 -0.0516,0.178198 -0.0682,0.178198 -0.0286,0 -0.0286,-0.0051 0.0229,-0.196878 0.0229,-0.09116 0.0401,-0.17201 0.0344,-0.179688 -0.006,-0.0075 -0.0458,-0.02349 -0.0831,-0.03438 l -0.0693,-0.02063 -0.0286,0.106976 c -0.0344,0.125141 -0.0344,0.125427 -0.0613,0.108639 -0.0115,-0.008 -0.006,-0.05386 0.0172,-0.126 l 0.0344,-0.113108 -0.0688,-0.0212 c -0.10256,-0.03151 -0.10485,-0.03037 -0.14095,0.08228 -0.0172,0.0573 -0.0401,0.103768 -0.0516,0.103768 -0.0229,0 -0.0229,-0.05271 0.0115,-0.13809 0.0172,-0.04125 0.0287,-0.08159 0.0287,-0.09025 0,-0.0086 -0.0344,-0.02922 -0.0831,-0.04584 l -0.0837,-0.03037 -0.059,0.173042 c -0.0344,0.105372 -0.0693,0.173042 -0.0859,0.173042 -0.0344,0 -0.0344,0.0086 0.0286,-0.169088 0.0287,-0.08394 0.0579,-0.162843 0.0579,-0.175391 6e-5,-0.01261 -0.0344,-0.03782 -0.0768,-0.05615 l -0.0768,-0.03323 -0.0401,0.102736 c -0.0229,0.05673 -0.0516,0.102737 -0.0642,0.102737 -0.0344,0 -0.0344,-0.0074 0.0115,-0.103768 0.0516,-0.109154 0.0458,-0.12176 -0.0286,-0.156712 -0.0905,-0.04183 -0.0917,-0.04125 -0.13751,0.06331 -0.0229,0.05157 -0.0516,0.0934 -0.0602,0.0934 -0.0287,0 -0.0229,-0.03381 0.0172,-0.12451 0.0229,-0.04469 0.0344,-0.08624 0.0344,-0.09214 0,-0.0057 -0.0344,-0.0298 -0.0745,-0.05271 l -0.0751,-0.0424 -0.0762,0.16628 c -0.0401,0.09145 -0.0825,0.166281 -0.0911,0.166281 -0.0401,0 -0.0344,-0.03495 0.0344,-0.172984 0.0401,-0.08177 0.0739,-0.158317 0.0739,-0.17012 3.9e-4,-0.02177 -0.0957,-0.09265 -0.12606,-0.09265 -0.0115,0 -0.0344,0.04183 -0.0579,0.0934 -0.0229,0.05157 -0.0516,0.0934 -0.0602,0.0934 -0.0286,0 -0.0229,-0.03381 0.0172,-0.124511 0.0458,-0.10457 0.0458,-0.108294 -0.0172,-0.161639 l -0.0516,-0.04469 -0.0579,0.10331 c -0.0287,0.05673 -0.0659,0.103309 -0.0768,0.103309 -0.0287,0 -0.0229,-0.01662 0.0344,-0.134136 l 0.0579,-0.108008 -0.0516,-0.05758 -0.0516,-0.05759 -0.0516,0.09047 c -0.0648,0.114999 -0.0619,0.112076 -0.0837,0.08835 -0.0115,-0.01318 0.004,-0.05673 0.0458,-0.123995 0.059,-0.09729 0.0613,-0.107492 0.0344,-0.160092 -0.0172,-0.03094 -0.0286,-0.05615 -0.0344,-0.05615 -0.004,0 -0.0286,0.04183 -0.0579,0.09311 -0.0642,0.121359 -0.10199,0.281337 -0.10199,0.435069 -1.3e-4,0.123192 5e-5,0.123823 0.10772,0.239509 0.13522,0.14508 0.41255,0.349121 0.63418,0.46601 0.77554,0.409456 1.56912,0.630016 3.17566,0.882617 1.23267,0.193841 1.7039,0.282769 2.1985,0.415129 0.73938,0.197795 1.21679,0.403153 1.60665,0.691154 0.12148,0.08956 0.15012,0.09895 0.15012,0.0487 z m -3.68299,-0.210229 c 0.4647,-0.04297 0.76494,-0.09655 1.17205,-0.208281 0.25269,-0.06933 0.7258,-0.237159 0.7258,-0.257442 0,-0.04068 -0.78098,-0.195389 -1.83207,-0.362758 -0.98708,-0.157171 -1.23037,-0.199686 -1.62539,-0.284145 -0.55178,-0.11792 -1.14511,-0.2995 -1.48621,-0.454894 l -0.13523,-0.06148 -0.45323,0.0018 c -0.24925,9.87e-4 -0.53746,0.01261 -0.64031,0.02578 l -0.18737,0.02407 -0.0458,0.155623 c -0.0516,0.177512 -0.12433,0.459765 -0.14324,0.545828 -0.0115,0.05615 -0.006,0.06097 0.14324,0.138147 0.71962,0.370092 2.06127,0.688959 3.17154,0.753718 0.35296,0.02063 1.02502,0.01261 1.3342,-0.01604 z m -5.60902,-1.002864 c 0.28592,-0.335197 0.6367,-0.529554 1.13681,-0.629455 0.16559,-0.03323 0.32603,-0.04584 0.6858,-0.05386 0.25842,-0.0057 0.45725,-0.01547 0.44178,-0.0212 -0.0837,-0.03037 -0.38047,-0.206218 -0.4859,-0.28741 -0.0848,-0.06555 -0.12491,-0.08612 -0.13522,-0.0687 -0.0172,0.03552 -0.0579,0.0047 -0.0579,-0.04928 -0.001,-0.05042 -0.11861,-0.169891 -0.14726,-0.150237 -0.0115,0.0074 -0.0115,0.08234 -0.006,0.188341 0.006,0.11941 0.005,0.175849 -0.0115,0.175849 -0.0172,0 -0.0286,-0.07838 -0.0458,-0.28019 -0.004,-0.05781 -0.0115,-0.06228 -0.0791,-0.06228 h -0.0739 l 0.005,0.108982 c 0.003,0.05993 -0.003,0.108925 -0.0115,0.108925 -0.0229,0 -0.0401,-0.07094 -0.0401,-0.153045 -1.3e-4,-0.05558 -0.004,-0.05879 -0.059,-0.04641 -0.0344,0.0069 -0.0705,0.01318 -0.0859,0.01318 -0.0229,0 -0.0229,0.02177 -0.0115,0.114139 0.006,0.07168 0.006,0.114139 -0.006,0.114139 -0.0229,0 -0.0401,-0.06841 -0.0401,-0.138834 -3.9e-4,-0.06177 -0.0172,-0.07076 -0.10084,-0.04641 -0.0785,0.02407 -0.0814,0.03839 -0.0401,0.205759 0.0344,0.133563 0.0344,0.166052 0.0115,0.166052 -0.0172,0 -0.0516,-0.117463 -0.0848,-0.27618 -0.0115,-0.06102 -0.0172,-0.06154 -0.13695,-0.01261 -0.0401,0.01662 -0.0401,0.02005 -0.0115,0.105257 0.0287,0.08738 0.0229,0.154821 -0.006,0.133048 -0.0115,-0.0063 -0.0286,-0.05329 -0.0401,-0.104513 -0.0172,-0.0887 -0.0229,-0.09219 -0.0693,-0.073 -0.12319,0.05157 -0.12319,0.05157 -0.0808,0.157342 0.0287,0.06807 0.0344,0.101934 0.0172,0.117806 -0.0115,0.01604 -0.0287,-0.0086 -0.0602,-0.08446 -0.0401,-0.105946 -0.0401,-0.106576 -0.0899,-0.07712 -0.10887,0.06532 -0.10773,0.05673 -0.0287,0.226673 0.0659,0.14531 0.0768,0.200431 0.0344,0.170292 -0.0115,-0.0063 -0.0458,-0.07283 -0.0762,-0.147372 -0.0344,-0.07449 -0.0665,-0.135455 -0.0768,-0.135455 -0.0115,0 -0.0458,0.02464 -0.0762,0.05443 l -0.0584,0.05443 0.0401,0.07145 c 0.0676,0.126801 0.0344,0.16141 -0.0401,0.03667 l -0.0401,-0.07392 -0.0458,0.04584 c -0.0688,0.07162 -0.0728,0.115801 -0.0172,0.196248 0.0665,0.09695 0.0401,0.142387 -0.0287,0.0487 l -0.0516,-0.07036 -0.0172,0.06206 c -0.0229,0.08119 -0.0172,0.386823 6.5e-4,0.51861 l 0.0172,0.103768 0.0401,-0.06182 c 0.0229,-0.03381 0.0911,-0.121359 0.15298,-0.194071 z m 7.92028,-0.128406 c 0,-0.04756 -0.1421,-0.501994 -0.2206,-0.703663 -0.0751,-0.193268 -0.26071,-0.620086 -0.28076,-0.643664 -0.004,-0.005 -0.0458,0.03381 -0.0963,0.08623 -0.17878,0.19155 -0.54549,0.40917 -0.91564,0.542676 -0.25383,0.09168 -0.37645,0.126114 -0.70145,0.197681 l -0.25383,0.05615 0.43089,0.06893 c 0.51626,0.08251 1.01922,0.174016 1.27621,0.231944 0.30941,0.06973 0.69348,0.165823 0.70254,0.17585 0.0172,0.01776 0.0584,0.0092 0.0584,-0.01203 z m -2.39583,-0.550182 c 0.25498,-0.04068 0.68753,-0.155681 0.90681,-0.241056 0.37874,-0.147315 0.74677,-0.378801 0.90538,-0.568689 l 0.0808,-0.09666 -0.006,-0.18983 c -0.006,-0.197681 -0.0516,-0.352502 -0.1421,-0.469506 l -0.0401,-0.05157 -0.0287,0.07214 c -0.0172,0.03954 -0.0401,0.08772 -0.0516,0.106805 -0.0172,0.02865 -0.0115,0.05386 0.0458,0.149492 0.0401,0.07053 0.0613,0.120041 0.0516,0.128235 -0.0115,0.0074 -0.0229,0.01031 -0.0229,0.0063 -0.003,-0.004 -0.0344,-0.05271 -0.0665,-0.108065 l -0.0613,-0.100846 -0.0579,0.06389 c -0.0647,0.07174 -0.0665,0.06234 0.0579,0.298583 0.0458,0.09288 0.0516,0.139637 0.0115,0.110587 -0.0115,-0.0069 -0.0516,-0.0781 -0.09,-0.157744 -0.0401,-0.07964 -0.0797,-0.14445 -0.0905,-0.144049 -0.0115,3.95e-4 -0.0458,0.02349 -0.0756,0.051 l -0.0579,0.05042 0.0401,0.08159 c 0.0458,0.0883 0.0516,0.127834 0.0229,0.127834 -0.0115,0 -0.0344,-0.03954 -0.0584,-0.08818 -0.0229,-0.0487 -0.0401,-0.09145 -0.0458,-0.0954 -0.003,-0.004 -0.0401,0.0149 -0.0802,0.04183 l -0.0739,0.0487 0.0458,0.102278 c 0.0516,0.120098 0.0516,0.115342 0.0172,0.115342 -0.0115,0 -0.0401,-0.03782 -0.0596,-0.084 -0.0172,-0.04641 -0.0401,-0.08818 -0.0458,-0.09322 -0.0172,-0.01203 -0.14898,0.0487 -0.14898,0.06905 0,0.0086 0.0229,0.08853 0.0579,0.177454 0.0648,0.18645 0.0636,0.179803 0.0344,0.179803 -0.0229,0 -0.12663,-0.257844 -0.12663,-0.310902 0,-0.0275 -0.0344,-0.02693 -0.11001,0.0016 -0.0665,0.02578 -0.0699,0.04183 -0.0344,0.160837 0.0172,0.04756 0.0172,0.09019 0.0115,0.09661 -0.0172,0.01318 -0.0401,-0.02922 -0.0739,-0.138491 l -0.0229,-0.07621 -0.0836,0.03151 c -0.0458,0.01719 -0.0837,0.03438 -0.0837,0.03839 0,0.0039 0.006,0.02865 0.0172,0.05501 0.0344,0.111045 0.0401,0.162213 0.0115,0.162213 -0.0172,0 -0.0344,-0.04011 -0.0516,-0.105602 l -0.0229,-0.105601 -0.0682,0.01375 c -0.0344,0.0074 -0.0756,0.02235 -0.0854,0.03209 -0.0114,0.01146 -0.004,0.08406 0.0172,0.185247 0.0172,0.09168 0.0287,0.173386 0.0229,0.18158 -0.0229,0.02407 -0.0458,-0.03381 -0.0676,-0.170693 -0.0287,-0.175563 -0.0344,-0.183757 -0.13064,-0.166224 l -0.0791,0.0149 0.0115,0.08612 c 0.0172,0.124338 0.0172,0.12663 -10e-4,0.138032 -0.0114,0.0057 -0.0286,-0.03495 -0.0401,-0.09065 -0.0115,-0.05558 -0.0287,-0.104914 -0.0287,-0.10967 -0.004,-0.0047 -0.0458,-0.0023 -0.0871,0.0054 l -0.0796,0.01375 0.0115,0.09563 c 0.006,0.05271 0.0115,0.103768 0.0172,0.113795 0.002,0.0097 -0.006,0.02235 -0.0172,0.0275 -0.0172,0.0063 -0.0287,-0.0275 -0.0344,-0.09775 -0.0115,-0.119124 -0.0344,-0.135282 -0.13178,-0.114769 -0.0636,0.01318 -0.0665,0.01776 -0.0579,0.0801 0.0344,0.21424 0.0344,0.304772 0.006,0.304772 -0.0229,0 -0.0286,-0.04068 -0.0401,-0.186794 -0.006,-0.117978 -0.0229,-0.186678 -0.0344,-0.186564 -0.0115,1.58e-4 -0.0516,0.0057 -0.0905,0.01261 l -0.0688,0.01261 0.0115,0.114482 c 0.006,0.09259 0.006,0.112649 -0.0172,0.104914 -0.0172,-0.0057 -0.0287,-0.04641 -0.0344,-0.107664 -0.006,-0.110357 -0.0287,-0.128063 -0.12434,-0.107836 l -0.0642,0.01318 0.0115,0.113509 c 0.0115,0.09609 0.006,0.113509 -0.0172,0.113509 -0.0229,0 -0.0286,-0.02235 -0.0286,-0.11414 v -0.114139 h -0.0951 -0.0951 l 0.006,0.160838 c 0.006,0.214068 -0.0287,0.223465 -0.0401,0.01089 l -0.0114,-0.161067 -0.0894,-0.0063 -0.0894,-0.0063 v 0.115285 c 0,0.06343 -0.006,0.115285 -0.0172,0.115285 -0.0172,0 -0.0401,-0.09936 -0.0401,-0.179001 0,-0.04469 -0.006,-0.04928 -0.0836,-0.04928 h -0.0837 l -0.006,0.117692 c -0.006,0.168973 -0.0516,0.176193 -0.0516,0.0086 v -0.126229 h -0.0848 -0.0848 v 0.113738 c 0,0.107149 0.003,0.114483 0.0516,0.126687 0.0287,0.0069 0.098,0.02521 0.1547,0.04068 0.14038,0.03724 0.64301,0.143706 0.87369,0.184617 0.44751,0.07936 0.36729,0.07695 0.71406,0.02177 z m -1.85092,-0.380635 v -0.101018 l -0.0802,-0.01203 c -0.0963,-0.01432 -0.1123,3.16e-4 -0.10485,0.09145 0.005,0.06114 0.0172,0.07254 0.0814,0.09443 0.0401,0.01375 0.0819,0.02578 0.0894,0.02636 0.006,8.82e-4 0.0115,-0.04412 0.0115,-0.09947 z m -0.23378,-0.03266 c 0.0172,-0.0746 -0.004,-0.09454 -0.0963,-0.09454 -0.0756,0 -0.0836,0.0049 -0.0836,0.0487 0,0.03667 0.0172,0.05443 0.0607,0.07053 0.0928,0.03266 0.10658,0.03037 0.11861,-0.02464 z m -0.23664,-0.05042 c 0,-0.0298 -0.0172,-0.04125 -0.0802,-0.05042 -0.0922,-0.01375 -0.1421,0.01834 -0.059,0.03782 0.0286,0.0069 0.0711,0.0212 0.0923,0.03094 0.0229,0.0097 0.0401,0.01834 0.0401,0.01948 0.002,7.76e-4 0.005,-0.01604 0.005,-0.03724 z m -1.50329,-0.861463 c 0,-0.0043 0.0115,-0.04183 0.0287,-0.08303 0.0286,-0.07036 0.0286,-0.07518 -0.006,-0.07518 -0.0172,0 -0.0458,0.01203 -0.067,0.02693 -0.0287,0.02292 -0.0287,0.03495 -0.0115,0.08303 0.0172,0.04641 0.0516,0.07787 0.0516,0.04813 z m 5.46819,-0.312851 c 0,-0.02636 -0.0115,-0.05443 -0.0286,-0.06154 -0.0401,-0.01833 -0.0458,-0.0074 -0.0229,0.0675 0.0229,0.07271 0.0516,0.06927 0.0516,-0.0057 z m -2.71109,0.847591 c -0.006,-0.008 -0.0115,-0.09357 -0.0115,-0.189659 0,-0.128406 0.006,-0.172412 0.0229,-0.166223 0.0287,0.01089 0.0458,0.08503 0.0516,0.203754 0.002,0.09288 -0.0344,0.181636 -0.0596,0.152128 z"
       id="path1-6" /></g></svg>
