<?xml version="1.0" encoding="UTF-8" standalone="no"?>
<!-- Created with Inkscape (http://www.inkscape.org/) -->

<svg
   width="13.758313mm"
   height="18.535585mm"
   viewBox="0 0 13.758313 18.535585"
   version="1.1"
   id="svg1"
   xml:space="preserve"
   inkscape:export-filename="ビットマップ.svg"
   inkscape:export-xdpi="96"
   inkscape:export-ydpi="96"
   xmlns:inkscape="http://www.inkscape.org/namespaces/inkscape"
   xmlns:sodipodi="http://sodipodi.sourceforge.net/DTD/sodipodi-0.dtd"
   xmlns="http://www.w3.org/2000/svg"
   xmlns:svg="http://www.w3.org/2000/svg"><sodipodi:namedview
     id="namedview1"
     pagecolor="#ffffff"
     bordercolor="#111111"
     borderopacity="1"
     inkscape:showpageshadow="0"
     inkscape:pageopacity="0"
     inkscape:pagecheckerboard="1"
     inkscape:deskcolor="#d1d1d1"
     inkscape:document-units="mm"><inkscape:page
       x="0"
       y="0"
       width="13.758313"
       height="18.535585"
       id="page2"
       margin="0"
       bleed="0" /></sodipodi:namedview><defs
     id="defs1" /><g
     inkscape:label="Layer 1"
     inkscape:groupmode="layer"
     id="layer1"
     transform="translate(-54.682995,131.14745)"><path
       style="fill:#000000;stroke:#000000;stroke-width:0.210548;stroke-dasharray:none;stroke-opacity:1"
       d="m 57.273768,-113.42249 c -0.683945,-0.38603 -1.518313,-0.85822 -1.855533,-1.04934 l -0.613225,-0.34742 -0.0083,-2.63845 -0.0082,-2.63848 0.837498,-0.25983 c 0.459661,-0.14295 0.981963,-0.30389 1.159767,-0.35762 0.177801,-0.0536 0.323277,-0.10991 0.323277,-0.12477 0,-0.0283 -0.442486,-0.89984 -1.379293,-2.71675 -0.298025,-0.57857 -0.542508,-1.06611 -0.542508,-1.08348 0,-0.0172 0.09092,-0.0838 0.19801,-0.14841 l 0.198012,-0.11679 -0.08084,-0.17953 -0.08084,-0.17951 0.141434,-0.0899 c 0.08084,-0.0495 0.181844,-0.11058 0.232354,-0.13538 0.109115,-0.0546 0.110099,-0.0677 0.02024,-0.25872 -0.04042,-0.0819 -0.06064,-0.16205 -0.04042,-0.1776 0.01,-0.0151 0.362682,-0.20499 0.772843,-0.42078 0.410163,-0.21578 0.749607,-0.39642 0.75466,-0.40127 0.005,-0.005 -0.005,-0.0505 -0.02024,-0.10192 -0.04042,-0.11708 -0.0029,-0.15618 0.322269,-0.3352 0.133348,-0.0737 0.249533,-0.15639 0.259635,-0.18447 0.0097,-0.0283 -0.0061,-0.10753 -0.04042,-0.1764 -0.04041,-0.0939 -0.08083,-0.13617 -0.184881,-0.16871 -0.07075,-0.0242 -0.155581,-0.0838 -0.183868,-0.13234 -0.05051,-0.0818 -0.05051,-0.099 0.0083,-0.2266 0.131309,-0.29378 0.5819,-0.45835 0.749606,-0.27318 0.06064,0.0728 0.07076,0.0919 0.03028,0.24418 -0.05051,0.22884 -0.05051,0.27723 0.04042,0.39795 l 0.07075,0.10525 0.265696,-0.15102 c 0.25357,-0.14386 0.374804,-0.18386 0.377839,-0.12368 6.56e-4,0.0152 0.02024,0.0566 0.04041,0.0919 0.04042,0.0596 0.102045,0.0364 0.765771,-0.32096 0.397032,-0.21185 0.724349,-0.38067 0.729401,-0.37522 0.0045,0.005 0.06064,0.12003 0.119213,0.2546 l 0.111083,0.24457 0.2162,-0.1584 c 0.118225,-0.0869 0.286909,-0.18508 0.374801,-0.21781 0.09094,-0.0322 0.56776,-0.11654 1.064399,-0.1864 1.339498,-0.1882 1.62651,-0.26529 2.258825,-0.60654 0.407137,-0.21923 1.28969,-0.84438 2.158505,-1.52761 0.456638,-0.35904 0.558669,-0.42178 0.529372,-0.32854 -0.02024,0.0516 -0.709196,0.59696 -1.499717,1.17908 -1.334646,0.98277 -1.725009,1.13821 -3.455472,1.37583 -0.432386,0.0596 -0.857701,0.12656 -0.9466,0.14963 -0.171748,0.0444 -0.65162,0.3751 -0.649596,0.44703 6.57e-4,0.0232 0.08083,0.24892 0.176798,0.50048 l 0.17477,0.45744 0.200031,0.0108 c 0.153566,0.008 0.259637,0.0434 0.452592,0.15124 0.250543,0.1389 0.253574,0.13952 0.253574,0.0556 0,-0.11882 -0.06064,-0.2767 -0.137388,-0.36934 -0.06064,-0.0768 -0.04043,-0.15518 0.04041,-0.10417 0.08083,0.0536 0.177808,0.33642 0.177808,0.5119 0.0017,0.31348 -0.103053,0.48956 -0.651616,1.09773 -0.504117,0.55826 -0.619278,0.71314 -0.752632,1.00621 l -0.07076,0.16467 0.09092,-0.0999 c 0.138398,-0.14336 0.277815,-0.16518 0.423294,-0.0657 0.06064,0.0445 0.117163,0.091 0.118226,0.10486 9.9e-5,0.013 0.01,0.0475 0.03032,0.0748 0.02024,0.0384 0.09097,-0.0121 0.306109,-0.21549 0.673836,-0.64536 0.935491,-0.80982 1.769961,-1.11429 0.736474,-0.26842 0.938525,-0.39298 1.377075,-0.84962 0.549575,-0.57221 0.822342,-0.75193 1.778449,-1.17866 0.600089,-0.26732 1.662168,-0.69859 1.721064,-0.6987 0.09092,-2e-5 0.03032,0.0657 -0.102044,0.12092 -0.08085,0.0313 -0.461686,0.18922 -0.854676,0.34996 -1.414556,0.57969 -1.873915,0.84568 -2.381772,1.37952 -0.542505,0.57029 -0.683938,0.6597 -1.529321,0.96883 -0.542504,0.19831 -0.824365,0.32763 -0.879928,0.4041 -0.02024,0.0283 -0.07075,0.17437 -0.111083,0.3245 -0.04041,0.15003 -0.109112,0.36287 -0.153566,0.47299 l -0.08083,0.20024 0.260644,0.53321 c 0.20407,0.41693 0.696064,1.35971 0.894075,1.71537 0.01,0.0262 0.510176,0.25014 1.101176,0.49744 0.590995,0.24732 1.201188,0.50573 1.355958,0.57423 l 0.281863,0.12457 0.0083,2.65888 0.0082,2.65888 -0.356613,0.12893 c -0.195996,0.0707 -1.020158,0.36732 -1.830681,0.65858 -0.810226,0.29136 -2.348535,0.84396 -3.416982,1.22803 -1.068543,0.38411 -1.955646,0.69719 -1.971204,0.69577 -0.02024,-0.002 -0.587969,-0.31854 -1.2711,-0.70455 z m 4.373178,-0.50129 c 1.357578,-0.48614 2.89306,-1.03696 3.412428,-1.22408 l 0.944589,-0.34015 0.0084,-2.58628 c 0.0079,-2.45206 0.0055,-2.58529 -0.05051,-2.56765 -1.925243,0.61524 -2.811635,0.90124 -4.03394,1.3016 -0.564732,0.18509 -1.532956,0.50099 -2.151535,0.70214 -0.618277,0.20113 -1.136533,0.37378 -1.151284,0.38389 -0.01,0.0104 -0.03035,1.23457 -0.03035,2.72119 v 2.70298 l 0.289942,-0.10484 c 0.159625,-0.0576 1.400615,-0.50261 2.758197,-0.98874 z m -3.148352,-1.63645 -6.57e-4,-2.69857 -1.779856,-0.85115 c -0.978942,-0.46805 -1.790981,-0.85093 -1.80472,-0.85072 -0.01,1.2e-4 -0.02021,1.14344 -0.02021,2.54055 v 2.54022 l 1.615092,0.91417 c 2.067784,1.17047 1.942307,1.10031 1.9712,1.10229 0.01,9.2e-4 0.02021,-1.21266 0.02021,-2.69687 z m 1.144416,-3.13416 c 2.112136,-0.68586 2.550886,-0.83236 2.567152,-0.85681 0.0088,-0.014 0.01,-0.25539 0.0067,-0.53714 l -0.0099,-0.51231 -0.867809,0.47613 c -1.962927,1.07677 -2.522406,1.36575 -2.579176,1.33218 -0.04043,-0.0232 -0.108118,0.003 -0.247517,0.0949 -0.105057,0.0697 -0.20205,0.1275 -0.21518,0.1275 -0.01,0 -0.07076,-0.0869 -0.121195,-0.19215 -0.05052,-0.10563 -0.284891,-0.56261 -0.514217,-1.01539 -0.229328,-0.4528 -0.436427,-0.85206 -0.459665,-0.8871 -0.05053,-0.0718 0.07076,-0.10099 -1.496792,0.38186 -0.692022,0.21347 -0.720308,0.2261 -0.636458,0.275 0.05053,0.0283 0.516238,0.25498 1.039754,0.50412 0.523312,0.24912 1.279177,0.60999 1.680048,0.80193 0.401071,0.19195 0.744554,0.34955 0.762736,0.35015 0.02024,4.6e-4 0.510182,-0.15376 1.093395,-0.34298 z m -1.246858,-0.0344 c 0.03032,-0.0384 -2.04e-4,-0.12852 -0.126264,-0.39339 -0.300042,-0.62938 -2.619276,-5.6123 -2.630596,-5.64946 -0.01,-0.0322 -0.35359,0.11834 -0.35359,0.15507 0,0.008 0.272772,0.54443 0.606151,1.19212 0.333385,0.64767 0.74961,1.4575 0.923375,1.79961 0.173759,0.34207 0.510179,1.00076 0.747586,1.46363 0.237412,0.46291 0.503102,0.9857 0.590997,1.16176 0.09096,0.17609 0.170731,0.32015 0.182857,0.32015 0.01,0 0.04042,-0.0222 0.06064,-0.0495 z m 0.263678,-0.18992 c 0.0055,-0.005 -0.175781,-0.42724 -0.403092,-0.93722 -0.454613,-1.0202 -0.846592,-1.95872 -1.666613,-3.99449 -0.486942,-1.20847 -0.629386,-1.55458 -0.659694,-1.59135 -0.005,-0.006 -0.102044,0.0394 -0.212154,0.10192 l -0.203062,0.11345 0.245493,0.52019 c 0.135384,0.2861 0.421277,0.89892 0.635448,1.36177 0.215182,0.46289 0.736473,1.58255 1.159066,2.48816 0.423294,0.9056 0.809208,1.73337 0.857701,1.83945 0.08086,0.17891 0.09094,0.18983 0.16164,0.15052 0.04042,-0.0232 0.08083,-0.0465 0.08083,-0.0525 z m 2.902154,-1.44455 c 1.073697,-0.58342 1.958983,-1.06817 1.967263,-1.07728 0.008,-0.008 -0.103043,-0.22721 -0.248522,-0.48462 -0.431378,-0.76567 -1.032578,-1.9544 -1.242107,-2.45494 -0.0808,-0.18781 -0.141438,-0.2942 -0.163659,-0.27894 -0.02024,0.014 -0.186898,0.17256 -0.371769,0.35318 -0.483914,0.4723 -0.632421,0.54392 -0.801135,0.3837 -0.06064,-0.0617 -0.09091,-0.12961 -0.106054,-0.25741 -0.01,-0.14932 -9.8e-5,-0.21287 0.105044,-0.44936 0.09093,-0.21317 0.201042,-0.36379 0.467746,-0.66646 0.18892,-0.21508 0.344497,-0.40279 0.345504,-0.41724 2.07e-4,-0.014 -0.02024,-0.0798 -0.05053,-0.14638 -0.03035,-0.0657 -0.204073,-0.54007 -0.394001,-1.05322 -0.188916,-0.51321 -0.391979,-1.05088 -0.450573,-1.19487 l -0.106055,-0.26175 -0.485933,0.25498 c -0.775872,0.40713 -0.899127,0.47795 -0.899127,0.5124 0,0.0596 0.238422,0.56019 0.304087,0.6403 0.04042,0.0434 0.06064,0.1093 0.05051,0.14637 -0.01,0.0656 -0.340451,0.27348 -0.409151,0.25813 -0.02024,-0.004 -0.08084,0.0273 -0.13233,0.0697 -0.200032,0.1564 -0.650602,0.38299 -0.714256,0.36027 -0.04041,-0.0151 -0.06064,-0.005 -0.06064,0.0344 0,0.0322 -0.08086,0.10426 -0.201039,0.16911 -0.215186,0.11971 -0.294994,0.10712 -0.294994,-0.0465 0,-0.0686 -0.286912,-0.68728 -0.319245,-0.68728 -0.01,0 -0.675861,0.34136 -1.309893,0.67515 l -0.186891,0.098 0.264682,0.64696 c 0.146479,0.3558 0.343483,0.84457 0.439459,1.08603 0.261654,0.65879 0.713238,1.76896 0.937516,2.30522 0.109111,0.26165 0.284891,0.68152 0.388944,0.93308 0.329343,0.79183 0.816284,1.85125 0.91933,2.00135 0.02024,0.0322 0.131326,-0.014 0.417236,-0.17447 0.213164,-0.12004 1.265138,-0.69547 2.338941,-1.2789 z m 1.741979,0.47522 c 1.552454,-0.49643 2.501484,-0.81153 2.528862,-0.83982 0.03032,-0.0293 -0.07075,-0.0748 -1.253421,-0.56786 -0.40107,-0.1671 -0.807189,-0.33833 -0.905186,-0.38046 -0.09096,-0.0424 -0.182857,-0.0768 -0.192958,-0.0768 -0.01,0 0.03032,0.0686 0.08083,0.15184 0.05053,0.0838 0.09093,0.16648 0.08087,0.18426 -0.01,0.0182 -0.3152,0.1966 -0.677878,0.39714 l -0.660708,0.3648 v 0.54674 0.54675 l 0.09093,-0.0333 c 0.05052,-0.0182 0.455626,-0.15042 0.902158,-0.29317 z m -2.166186,-4.21954 0.159629,-0.15932 -0.06064,-0.098 c -0.126264,-0.21416 -0.344498,-0.18124 -0.487955,0.0737 -0.08084,0.13952 -0.08084,0.19003 -0.0088,0.2764 0.09097,0.11297 0.221246,0.0829 0.397032,-0.0919 z m 1.189778,-0.65585 c 0.05051,-0.15649 0.08083,-0.29429 0.07075,-0.30621 -0.02024,-0.0223 -0.316207,0.20296 -0.380865,0.28973 -0.03032,0.0354 -0.01,0.10359 0.05053,0.25954 0.08083,0.20417 0.09097,0.20892 0.126264,0.12684 0.02024,-0.0465 0.08087,-0.21335 0.131325,-0.36984 z m -0.578875,-1.15036 c 0.143461,-0.17983 0.296004,-0.44967 0.296004,-0.52069 -6.56e-4,-0.16507 -0.732436,-0.4738 -0.806187,-0.34045 -0.02024,0.0333 0.184878,0.59464 0.216197,0.59464 0.01,0 0.05052,-0.0576 0.09097,-0.12813 0.04042,-0.0707 0.09093,-0.12813 0.120198,-0.12813 0.05051,0 0.05051,0.0121 -0.09097,0.24498 -0.09095,0.15175 -0.09095,0.15498 -0.04041,0.28358 0.03032,0.0718 0.07075,0.1301 0.08085,0.1301 0.01,0 0.07076,-0.0617 0.132307,-0.13598 z m -3.786026,-0.10606 c 0.105053,-0.0677 0.135384,-0.10425 0.104042,-0.12526 -0.05051,-0.0354 -0.294993,0.10833 -0.296,0.17518 -1.01e-4,0.0646 0.02021,0.0585 0.190938,-0.0495 z m 0.04041,-0.35035 c 0,-0.11576 -0.09094,-0.84205 -0.112172,-0.86165 -0.0097,-0.0108 -0.513207,0.26853 -0.544529,0.30267 -0.01,0.013 0.313179,0.69606 0.368742,0.77619 0.02024,0.0354 0.06064,0.0283 0.160637,-0.0344 0.102044,-0.0636 0.12932,-0.10119 0.12932,-0.18306 z m 0.614236,-0.0172 c 0.306105,-0.16619 0.436428,-0.2853 0.188917,-0.17114 -0.189928,0.0879 -0.571802,0.30358 -0.571802,0.32369 0,0.0424 0.09097,0.007 0.382885,-0.15254 z m -0.08084,-0.11784 c 0.228319,-0.12791 0.418246,-0.2366 0.423296,-0.24164 0.0049,-0.005 -0.137389,-0.16851 -0.315198,-0.36329 l -0.32429,-0.35409 -0.159626,0.0819 c -0.09097,0.0456 -0.165679,0.0919 -0.172752,0.10495 -0.007,0.0121 0.0085,0.16982 0.03032,0.34935 0.03035,0.17962 0.05053,0.40612 0.05053,0.5033 1.01e-4,0.097 0.01,0.17114 0.02024,0.16427 0.01,-0.007 0.212154,-0.11722 0.439462,-0.24508 z m 0.744558,-0.23144 c 0.170737,-0.0919 0.198007,-0.15882 0.05053,-0.12627 -0.124281,0.0272 -0.270745,0.13093 -0.246504,0.17417 0.02024,0.0434 0.02024,0.0434 0.19498,-0.0475 z m -0.102034,-0.16417 c 0.06064,-0.0344 0.117228,-0.0747 0.117228,-0.091 0,-0.0778 -0.351571,-0.79871 -0.388948,-0.79871 -0.06064,0 -0.429358,0.20942 -0.457648,0.26054 -0.01,0.0262 0.09093,0.16922 0.27378,0.36672 0.164668,0.17831 0.308123,0.3241 0.319239,0.3241 0.01,0 0.07075,-0.0272 0.137389,-0.0617 z m -1.074291,-0.56108 c 0.07074,-0.0405 0.130322,-0.0889 0.130322,-0.1077 0,-0.0182 -0.03032,-0.0939 -0.07076,-0.16761 -0.07075,-0.12852 -0.07075,-0.14103 -0.02024,-0.31368 0.05053,-0.15901 0.05053,-0.18609 0.0033,-0.23418 -0.108115,-0.11953 -0.428348,-0.014 -0.573823,0.18952 -0.102045,0.14195 -0.08084,0.23357 0.08086,0.29237 0.17376,0.0667 0.211142,0.10658 0.256603,0.27317 0.02024,0.0778 0.04042,0.14204 0.05053,0.14204 0.007,0 0.07075,-0.0333 0.144462,-0.0737 z"
       id="path1-89"
       inkscape:export-filename="icon_clean_24.svg"
       inkscape:export-xdpi="96"
       inkscape:export-ydpi="96" /></g></svg>
