<?xml version="1.0" encoding="UTF-8" standalone="no"?>
<!-- Created with Inkscape (http://www.inkscape.org/) -->

<svg
   width="15.610093mm"
   height="11.144964mm"
   viewBox="0 0 15.610093 11.144964"
   version="1.1"
   id="svg1"
   xml:space="preserve"
   inkscape:export-filename="ビットマップ.svg"
   inkscape:export-xdpi="96"
   inkscape:export-ydpi="96"
   xmlns:inkscape="http://www.inkscape.org/namespaces/inkscape"
   xmlns:sodipodi="http://sodipodi.sourceforge.net/DTD/sodipodi-0.dtd"
   xmlns="http://www.w3.org/2000/svg"
   xmlns:svg="http://www.w3.org/2000/svg"><sodipodi:namedview
     id="namedview1"
     pagecolor="#ffffff"
     bordercolor="#111111"
     borderopacity="1"
     inkscape:showpageshadow="0"
     inkscape:pageopacity="0"
     inkscape:pagecheckerboard="1"
     inkscape:deskcolor="#d1d1d1"
     inkscape:document-units="mm"><inkscape:page
       x="0"
       y="0"
       width="15.610093"
       height="11.144964"
       id="page2"
       margin="0"
       bleed="0" /></sodipodi:namedview><defs
     id="defs1" /><g
     inkscape:label="Layer 1"
     inkscape:groupmode="layer"
     id="layer1"
     transform="translate(-168.86366,-44.578492)"><path
       style="fill:#000000;stroke:#000000;stroke-width:0.186628;stroke-dasharray:none;stroke-opacity:1"
       d="m 170.87494,55.195551 c 5.4e-4,-0.748278 0.0757,-1.502069 0.23445,-2.38179 0.0758,-0.427422 0.28574,-1.306407 0.358,-1.512827 0.0169,-0.04617 -0.008,-0.04368 -0.23024,0.02184 -0.34878,0.103252 -0.54711,0.197912 -0.81015,0.387752 -0.43782,0.316227 -0.78912,0.755668 -0.75466,0.945763 0.0254,0.135855 0.21767,0.571785 0.34542,0.779108 0.0589,0.103399 0.11176,0.19816 0.10675,0.210594 -0.0169,0.04206 -0.68492,0.705192 -0.71097,0.705192 -0.0336,0 -0.16638,-0.2148 -0.26136,-0.421459 -0.18491,-0.403122 -0.24707,-1.050416 -0.14441,-1.506987 0.0899,-0.405305 0.31095,-0.864926 0.56725,-1.182934 0.44038,-0.546591 1.27698,-0.958452 2.18408,-1.075363 l 0.1563,-0.02022 -0.0169,-0.221615 c -0.0169,-0.281947 0.0505,-0.605151 0.16808,-0.799449 0.1,-0.16363 0.18575,-0.238417 0.33616,-0.295312 0.10157,-0.03865 0.11267,-0.05384 0.16894,-0.254965 0.13364,-0.469624 0.15966,-0.687769 0.15966,-1.329134 0,-0.778946 -0.0505,-1.098003 -0.33112,-2.09405 -0.0672,-0.243283 -0.12434,-0.450446 -0.12434,-0.460194 0,-0.01043 0.0169,-0.0177 0.0418,-0.0177 0.0254,0 0.0505,0.04455 0.0672,0.09898 0.34119,1.213637 0.41346,1.596828 0.43698,2.305694 0.0251,0.706249 -0.042,1.166901 -0.27395,1.853698 l -0.11609,0.346999 0.12098,0.118153 c 0.21931,0.215216 0.72776,0.523637 1.22763,0.744663 0.14706,0.06549 0.23444,0.07641 0.79919,0.10547 0.82948,0.04205 2.03005,0.04116 2.48047,-0.0013 0.93753,-0.08953 1.81748,-0.327834 2.39744,-0.648855 0.38071,-0.210774 0.84098,-0.582716 0.84098,-0.679616 0,-0.02273 -0.0336,-0.142196 -0.0671,-0.265647 -0.1933,-0.653487 -0.26136,-1.560891 -0.17059,-2.275453 0.0671,-0.525582 0.35461,-1.66967 0.42774,-1.696368 0.0505,-0.01933 0.0337,0.07316 -0.10514,0.578686 -0.0589,0.229525 -0.14706,0.571976 -0.18488,0.76098 -0.16807,0.837105 -0.085,2.409597 0.13527,2.469943 0.12522,0.03453 0.29163,0.230939 0.39751,0.468602 0.0992,0.221352 0.10515,0.248333 0.10927,0.558171 l 0.005,0.325564 0.15294,0.336923 c 0.19833,0.436312 0.32187,0.766332 0.4975,1.327261 l 0.1428,0.455235 0.26723,0.08481 c 0.36052,0.114462 0.88055,0.334632 1.22249,0.517587 0.2933,0.156903 0.93713,0.610121 1.12015,0.788446 l 0.10588,0.103252 -0.23952,0.380436 c -0.32523,0.515156 -0.29414,0.487677 -0.41935,0.371367 -0.2084,-0.194047 -0.60507,-0.473045 -0.92872,-0.651793 -0.35042,-0.194045 -0.81348,-0.401207 -0.83785,-0.374731 -0.007,0.0089 0.005,0.204213 0.0336,0.434395 0.0671,0.625834 0.0993,1.102948 0.1,1.552405 5.4e-4,0.338427 -0.005,0.4033 -0.0418,0.4033 -0.0336,0 -0.042,-0.06475 -0.042,-0.40162 0,-0.672059 -0.11594,-1.960553 -0.18321,-2.034663 -0.0169,-0.01477 -0.17647,-0.07479 -0.36473,-0.134676 l -0.34117,-0.108267 -0.23784,0.103252 c -0.65633,0.284719 -1.52074,0.504139 -2.43819,0.618677 -0.59162,0.07391 -2.13045,0.07316 -2.80193,-4.29e-4 -1.71438,-0.18934 -3.30286,-0.604236 -4.17164,-1.089682 -0.0889,-0.04956 -0.16808,-0.08319 -0.17732,-0.0739 -0.0253,0.03112 -0.16894,0.884721 -0.22692,1.371303 -0.0336,0.28624 -0.0672,0.75996 -0.0757,1.149042 -0.0169,0.526321 -0.0253,0.662044 -0.0505,0.662044 -0.0254,0 -0.0336,-0.08998 -0.0336,-0.433717 z m -1.10292,-1.299912 c 0.18574,-0.193207 0.25296,-0.282197 0.23194,-0.30522 -0.0169,-0.02273 -0.11609,0.05709 -0.32438,0.275468 -0.16136,0.169429 -0.2874,0.320445 -0.279,0.335654 0.0252,0.04204 0.085,-0.0073 0.36976,-0.30599 z m 14.24814,-0.06136 c 0.11359,-0.18279 0.21014,-0.345153 0.21517,-0.360952 0.004,-0.01592 -0.042,-0.07228 -0.10928,-0.125234 l -0.11843,-0.09661 -0.0757,0.100596 c -0.11178,0.142194 -0.34878,0.542208 -0.34878,0.588599 0,0.03437 0.18657,0.224803 0.22018,0.225555 0.007,1.03e-4 0.10674,-0.149249 0.22017,-0.331952 z m -0.18654,-0.02684 c -0.0505,-0.03865 -0.0505,-0.188664 0.001,-0.228488 0.10674,-0.07729 0.2185,0.130841 0.11507,0.214547 -0.0589,0.04618 -0.0672,0.04706 -0.11595,0.01475 z m 0.0672,-0.148567 c -0.0253,-0.03112 -0.0505,0.01592 -0.0253,0.05635 0.0169,0.03112 0.0253,0.03112 0.0336,1.05e-4 0.005,-0.02096 0.004,-0.04704 -0.005,-0.05707 z m -14.2754,0.140572 c 0.14959,-0.152519 0.28239,-0.287743 0.29499,-0.300429 0.008,-0.01326 -0.0169,-0.09145 -0.0589,-0.174884 -0.22862,-0.411032 -0.36558,-0.919283 -0.37063,-1.378001 -0.001,-0.158999 0.005,-0.330271 0.0169,-0.380438 l 0.0169,-0.09132 -0.0671,0.09132 c -0.0671,0.09027 -0.29328,0.57128 -0.33109,0.712225 -0.0169,0.06801 -0.0169,0.07139 0.0671,0.05385 0.11594,-0.02526 0.11845,0.05798 0.003,0.08614 -0.0923,0.02273 -0.12186,0.06801 -0.1496,0.239936 -0.0169,0.106497 -0.0169,0.11594 0.0336,0.09499 0.18658,-0.08629 0.23953,-0.02273 0.0672,0.07567 -0.10083,0.0571 -0.11018,0.07228 -0.11018,0.18682 0,0.130544 0.007,0.134378 0.14456,0.07228 0.0336,-0.01504 0.0505,-0.0073 0.0505,0.0252 0,0.02608 -0.0252,0.05546 -0.0505,0.06549 -0.0857,0.03026 -0.11934,0.09663 -0.0992,0.197485 0.008,0.05133 0.0336,0.09249 0.0505,0.09249 0.0169,0 0.10083,-0.04794 0.18404,-0.105765 0.16557,-0.116678 0.19164,-0.125827 0.19164,-0.06801 0,0.02184 -0.0757,0.09338 -0.17902,0.159838 -0.18573,0.124938 -0.20421,0.163614 -0.14791,0.300516 l 0.0335,0.07641 0.11846,-0.08998 c 0.085,-0.06211 0.12433,-0.07906 0.1379,-0.05458 0.008,0.02022 -0.008,0.05798 -0.0418,0.08939 -0.17817,0.145738 -0.16891,0.13084 -0.13276,0.219506 0.0169,0.04543 0.042,0.08231 0.0505,0.08231 0.008,0 0.14206,-0.124791 0.29162,-0.27733 z m 13.90044,0.05295 c 0,-0.04617 0.25125,-0.456404 0.34958,-0.571623 l 0.0671,-0.08069 -0.0757,-0.05206 c -0.0418,-0.0286 -0.0758,-0.04706 -0.085,-0.04117 -0.004,0.0059 -0.0336,0.06978 -0.0757,0.141161 -0.0336,0.07139 -0.0757,0.129367 -0.085,0.129367 -0.0505,0 -0.0418,-0.05133 0.0169,-0.166493 0.0336,-0.07051 0.0671,-0.141019 0.0671,-0.156818 0,-0.03112 -0.1428,-0.133348 -0.18657,-0.133348 -0.0168,0 -0.0671,0.08157 -0.11431,0.181616 -0.0505,0.09986 -0.1,0.190254 -0.11596,0.200932 -0.0671,0.04543 -0.0505,-0.02683 0.042,-0.214635 0.0505,-0.110189 0.0993,-0.211099 0.0993,-0.224124 0,-0.01326 -0.0505,-0.05384 -0.10675,-0.09042 l -0.10675,-0.06638 -0.0505,0.137037 c -0.0253,0.07567 -0.0671,0.137179 -0.0856,0.137179 -0.0505,1.16e-4 -0.0419,-0.04454 0.0168,-0.182954 l 0.0589,-0.119776 -0.10927,-0.06136 c -0.0589,-0.03365 -0.12007,-0.06136 -0.13275,-0.06136 -0.0169,0 -0.042,0.06888 -0.0757,0.152184 -0.0254,0.08408 -0.0589,0.152198 -0.0671,0.152198 -0.0505,0 -0.0505,-0.04794 -9e-5,-0.187066 0.0253,-0.08231 0.0505,-0.154887 0.0505,-0.160772 0,-0.01476 -0.22523,-0.113578 -0.23362,-0.102367 -0.004,0.0043 -0.0254,0.07391 -0.0589,0.153455 -0.0254,0.07981 -0.0589,0.144555 -0.0758,0.144555 -0.0336,0 -0.0254,-0.07065 0.0169,-0.193115 0.0505,-0.142493 0.0589,-0.133792 -0.0589,-0.186908 -0.13025,-0.06048 -0.14117,-0.05885 -0.16386,0.02273 -0.0671,0.233627 -0.13114,0.388097 -0.16557,0.388097 -0.0505,0 -0.0505,0.02608 0.0418,-0.252786 l 0.0758,-0.237574 -0.0672,-0.0286 c -0.18236,-0.07641 -0.19246,-0.0739 -0.23025,0.07641 -0.0336,0.13394 -0.0672,0.192368 -0.1,0.159592 -0.007,-0.0089 0.004,-0.08408 0.0253,-0.168249 l 0.042,-0.153025 -0.085,-0.03277 c -0.15044,-0.05798 -0.17312,-0.04454 -0.21177,0.119627 -0.0337,0.142491 -0.0505,0.175371 -0.0909,0.135563 -0.008,-0.0089 0.003,-0.08541 0.0254,-0.169578 0.0253,-0.08408 0.0336,-0.158835 0.0253,-0.165975 -0.005,-0.0075 -0.0671,-0.02096 -0.13453,-0.03188 l -0.12346,-0.01844 -0.0505,0.231341 c -0.0418,0.216333 -0.085,0.29205 -0.11932,0.251113 -0.008,-0.0089 0.008,-0.127443 0.0418,-0.262118 0.0336,-0.134674 0.042,-0.251087 0.0336,-0.25867 -0.008,-0.0075 -0.0672,-0.02273 -0.13365,-0.03364 l -0.11432,-0.02022 -0.0169,0.12125 c -0.008,0.06638 -0.0254,0.139983 -0.042,0.162698 -0.0418,0.07818 -0.0589,-0.0013 -0.0336,-0.153631 l 0.0254,-0.15286 -0.0993,-0.03024 c -0.15127,-0.04617 -0.15716,-0.04294 -0.19412,0.139688 -0.0253,0.119039 -0.042,0.160948 -0.0589,0.138658 -0.0169,-0.02184 -0.0169,-0.0798 -0.001,-0.183024 l 0.0251,-0.151093 -0.085,-0.01769 c -0.18655,-0.04117 -0.18234,-0.04706 -0.25462,0.370027 -0.008,0.05885 -0.0335,0.09897 -0.0589,0.09897 -0.0252,0 -0.0336,-0.01933 -0.0252,-0.05296 0.0418,-0.167404 0.0758,-0.44044 0.0589,-0.462287 -0.0169,-0.01327 -0.0672,-0.03365 -0.12597,-0.04455 l -0.10083,-0.02022 -0.0336,0.168336 c -0.042,0.229903 -0.0949,0.22244 -0.0672,-0.01043 l 0.0169,-0.178583 -0.11505,-0.02022 c -0.0589,-0.01043 -0.12007,-0.01476 -0.12685,-0.0075 -0.005,0.0075 -0.0254,0.07906 -0.042,0.160757 -0.0169,0.08158 -0.0418,0.143964 -0.0589,0.138803 -0.0336,-0.01022 -0.0336,-0.02431 -0.001,-0.207486 l 0.0169,-0.125675 -0.12863,-0.02096 c -0.0672,-0.0118 -0.13277,-0.0168 -0.13793,-0.01043 -0.005,0.0059 -0.0253,0.12302 -0.0418,0.260997 -0.0252,0.162969 -0.0505,0.250954 -0.0671,0.250954 -0.042,0 -0.042,-0.02519 0.003,-0.298938 0.042,-0.243018 0.0505,-0.230938 -0.12686,-0.262856 -0.1,-0.01844 -0.10156,-0.01681 -0.12006,0.09661 -0.0253,0.177821 -0.0418,0.221763 -0.0758,0.221763 -0.0169,0 -0.0252,-0.05709 -0.008,-0.164454 0.008,-0.09043 0.008,-0.171273 -0.004,-0.179518 -0.008,-0.0088 -0.0672,-0.02022 -0.13202,-0.02609 l -0.11018,-0.01043 -0.0253,0.159749 c -0.0169,0.109894 -0.0336,0.159857 -0.0671,0.159857 -0.0254,0 -0.0336,-0.02022 -0.0254,-0.05295 0.007,-0.02936 0.0169,-0.104137 0.0337,-0.166567 0.0169,-0.121252 0.008,-0.128923 -0.17818,-0.152109 -0.0589,-0.0073 -0.0671,0.0043 -0.0934,0.151268 -0.0168,0.104 -0.0336,0.159839 -0.0589,0.159839 -0.0336,0 -0.0336,-0.10606 0.008,-0.277566 0.008,-0.03523 -0.008,-0.05458 -0.0758,-0.06801 -0.1807,-0.04029 -0.1832,-0.03701 -0.21933,0.205555 -0.0169,0.123609 -0.042,0.24303 -0.0589,0.265482 -0.0505,0.08939 -0.0589,-0.01326 -0.0169,-0.246825 0.0253,-0.135267 0.0336,-0.250689 0.0253,-0.256397 -0.008,-0.0059 -0.0671,-0.02021 -0.13114,-0.03113 -0.12598,-0.02273 -0.12524,-0.02437 -0.15969,0.20412 -0.0336,0.195137 -0.0758,0.136886 -0.0589,-0.06889 l 0.0169,-0.182614 -0.0975,-0.0043 c -0.0505,-0.0031 -0.11357,-0.0059 -0.13274,-0.0073 -0.0169,-0.0013 -0.042,0.06048 -0.0589,0.156729 -0.0169,0.10399 -0.0336,0.159839 -0.0589,0.159839 -0.0337,0 -0.0337,-0.106792 0.008,-0.27901 0.0169,-0.06388 -0.005,-0.07818 -0.14029,-0.09072 l -0.1085,-0.01043 -0.042,0.251781 c -0.042,0.253785 -0.0671,0.307318 -0.0982,0.270443 -0.0169,-0.01844 0.0336,-0.409706 0.0672,-0.498608 0.007,-0.02096 -0.0169,-0.04455 -0.0672,-0.05546 -0.21178,-0.04956 -0.19752,-0.05546 -0.2168,0.08688 -0.008,0.07228 -0.0253,0.151016 -0.0418,0.174204 -0.042,0.08069 -0.0672,-0.0045 -0.0336,-0.155974 0.0169,-0.08408 0.0169,-0.158498 0.008,-0.165546 -0.008,-0.0075 -0.0671,-0.02184 -0.12862,-0.03188 l -0.10927,-0.01932 -0.0336,0.172094 c -0.0169,0.0947 -0.0505,0.167585 -0.0589,0.162041 -0.0337,-0.01327 -0.0337,-0.0059 -0.008,-0.184975 0.008,-0.08068 0.0168,-0.151433 0.008,-0.158158 -0.005,-0.0073 -0.0589,-0.02525 -0.12523,-0.04029 l -0.11417,-0.0286 -0.0418,0.23219 c -0.0589,0.312361 -0.0671,0.325137 -0.1,0.286226 -0.0169,-0.02273 -0.0169,-0.101482 0.0169,-0.266312 0.0251,-0.131136 0.0336,-0.244715 0.0251,-0.25833 -0.0169,-0.01327 -0.0672,-0.03365 -0.12597,-0.04455 -0.10083,-0.0202 -0.10167,-0.01933 -0.13275,0.110485 -0.0505,0.209001 -0.0505,0.220271 -0.0857,0.184886 -0.0169,-0.02184 -0.0169,-0.06726 5.5e-4,-0.149678 0.0418,-0.174367 0.0418,-0.188162 -0.0757,-0.222691 -0.14368,-0.04364 -0.13955,-0.04618 -0.17228,0.09735 -0.0505,0.205639 -0.0505,0.218916 -0.085,0.184977 -0.0169,-0.02022 -0.0169,-0.07729 0.005,-0.172291 0.0418,-0.163202 0.0252,-0.189343 -0.11845,-0.218326 l -0.0992,-0.02022 -0.0671,0.261351 c -0.0418,0.153042 -0.0757,0.261354 -0.1,0.261354 -0.0418,0 -0.0418,-0.0073 0.0336,-0.288747 0.0336,-0.133639 0.0589,-0.252282 0.0505,-0.263533 -0.008,-0.01043 -0.0671,-0.03454 -0.12186,-0.05045 l -0.10167,-0.03026 -0.0418,0.156889 c -0.0505,0.183542 -0.0505,0.183972 -0.09,0.159353 -0.0169,-0.0118 -0.008,-0.07906 0.0254,-0.184812 l 0.0505,-0.165887 -0.10082,-0.03112 c -0.15041,-0.04617 -0.15377,-0.04455 -0.20671,0.120657 -0.0252,0.08408 -0.0589,0.152202 -0.0757,0.152202 -0.0336,0 -0.0336,-0.07729 0.0169,-0.202547 0.0253,-0.06048 0.042,-0.119627 0.042,-0.132313 0,-0.01326 -0.0505,-0.04275 -0.12184,-0.06726 l -0.12273,-0.04455 -0.0865,0.253803 c -0.0505,0.154545 -0.10156,0.253801 -0.12597,0.253801 -0.0505,0 -0.0505,0.01326 0.0418,-0.248005 0.042,-0.123168 0.085,-0.238829 0.085,-0.257238 7e-5,-0.01843 -0.0505,-0.05546 -0.11267,-0.08231 l -0.11269,-0.04868 -0.0589,0.150677 c -0.0337,0.08319 -0.0757,0.150679 -0.0941,0.150679 -0.0505,0 -0.0505,-0.01022 0.0169,-0.152197 0.0757,-0.16009 0.0672,-0.178573 -0.0418,-0.229832 -0.13275,-0.06136 -0.13452,-0.06048 -0.20168,0.09293 -0.0336,0.07568 -0.0758,0.137034 -0.0884,0.137034 -0.042,0 -0.0336,-0.04956 0.0252,-0.182613 0.0336,-0.06549 0.0505,-0.126565 0.0505,-0.135115 0,-0.0089 -0.0505,-0.04364 -0.10927,-0.07729 l -0.11019,-0.06225 -0.11175,0.243873 c -0.0589,0.134084 -0.12097,0.243874 -0.13366,0.243874 -0.0589,0 -0.0505,-0.05133 0.0505,-0.253697 0.0589,-0.119924 0.10849,-0.232207 0.10849,-0.249513 5.4e-4,-0.032 -0.14043,-0.135849 -0.18488,-0.135849 -0.0169,0 -0.0505,0.06136 -0.085,0.137031 -0.0336,0.07568 -0.0758,0.137035 -0.0884,0.137035 -0.0418,0 -0.0336,-0.04956 0.0253,-0.182616 0.0671,-0.153375 0.0671,-0.158832 -0.0253,-0.237072 l -0.0757,-0.06549 -0.085,0.151521 c -0.042,0.08319 -0.0966,0.151521 -0.11267,0.151521 -0.042,0 -0.0337,-0.02433 0.0505,-0.196732 l 0.085,-0.158422 -0.0757,-0.08437 -0.0757,-0.08453 -0.0758,0.13276 c -0.0949,0.16866 -0.0907,0.164367 -0.12272,0.129511 -0.0169,-0.01932 0.005,-0.08319 0.0672,-0.181862 0.0865,-0.142638 0.0899,-0.157657 0.0505,-0.234802 -0.0254,-0.04543 -0.0418,-0.08231 -0.0505,-0.08231 -0.005,0 -0.0418,0.06136 -0.085,0.136593 -0.0941,0.177999 -0.1496,0.412638 -0.1496,0.638102 -1.9e-4,0.180683 8e-5,0.181616 0.15798,0.351291 0.19832,0.212778 0.60509,0.512043 0.93013,0.683474 1.13745,0.600533 2.30139,0.924023 4.65765,1.294502 1.80791,0.284304 2.49905,0.414734 3.22447,0.608852 1.08441,0.290105 1.78461,0.591299 2.3564,1.0137 0.17819,0.131431 0.22019,0.145148 0.22019,0.07139 z m -5.40174,-0.308335 c 0.68155,-0.063 1.12191,-0.141609 1.71899,-0.305474 0.37062,-0.10163 1.06451,-0.347838 1.06451,-0.377574 0,-0.05975 -1.14543,-0.28658 -2.68703,-0.532047 -1.44771,-0.230523 -1.80456,-0.292877 -2.38391,-0.416754 -0.80927,-0.172953 -1.6795,-0.439265 -2.17977,-0.667178 l -0.19834,-0.09013 -0.66473,0.0031 c -0.36557,0.0013 -0.78828,0.01844 -0.93912,0.03776 l -0.2748,0.03523 -0.0672,0.228249 c -0.0757,0.260353 -0.18236,0.674319 -0.2101,0.800544 -0.0168,0.08231 -0.008,0.08939 0.2101,0.202612 1.05545,0.542815 3.02319,1.010475 4.65159,1.105457 0.51767,0.03024 1.50336,0.01843 1.95682,-0.02342 z m -8.22658,-1.470863 c 0.41934,-0.491629 0.9338,-0.776688 1.6673,-0.923208 0.24288,-0.04868 0.47818,-0.06726 1.00585,-0.07906 0.37901,-0.0089 0.67064,-0.02273 0.64793,-0.03112 -0.12273,-0.04455 -0.55801,-0.302449 -0.71264,-0.421533 -0.12434,-0.09617 -0.18321,-0.126269 -0.19832,-0.100745 -0.0254,0.05207 -0.085,0.0075 -0.085,-0.07228 -10e-4,-0.0739 -0.17395,-0.249167 -0.21596,-0.220348 -0.0169,0.01043 -0.0169,0.120812 -0.008,0.276238 0.008,0.175137 0.007,0.257905 -0.0169,0.257905 -0.0253,0 -0.0418,-0.114907 -0.0671,-0.410941 -0.005,-0.08483 -0.0169,-0.09131 -0.11609,-0.09131 h -0.10839 l 0.007,0.15984 c 0.004,0.08791 -0.004,0.159749 -0.0169,0.159749 -0.0336,0 -0.0589,-0.103989 -0.0589,-0.22446 -1.8e-4,-0.08157 -0.005,-0.08629 -0.0865,-0.06801 -0.0505,0.01022 -0.10336,0.01933 -0.12599,0.01933 -0.0336,0 -0.0336,0.032 -0.0169,0.167407 0.008,0.10517 0.008,0.167405 -0.008,0.167405 -0.0337,0 -0.0589,-0.100302 -0.0589,-0.203635 -5.5e-4,-0.09057 -0.0253,-0.103695 -0.1479,-0.06801 -0.11519,0.03523 -0.11932,0.05635 -0.0589,0.301772 0.0505,0.195906 0.0505,0.243549 0.0169,0.243549 -0.0253,0 -0.0758,-0.172271 -0.12435,-0.405072 -0.0169,-0.08955 -0.0254,-0.09027 -0.20086,-0.01844 -0.0589,0.02431 -0.0589,0.02937 -0.0169,0.154382 0.042,0.128183 0.0336,0.227074 -0.008,0.19514 -0.0169,-0.0088 -0.0418,-0.07818 -0.0589,-0.153289 -0.0253,-0.130102 -0.0337,-0.135268 -0.10177,-0.107087 -0.18066,0.07567 -0.18066,0.07567 -0.11845,0.23076 0.042,0.09986 0.0505,0.149512 0.0252,0.172788 -0.0169,0.02361 -0.042,-0.01326 -0.0884,-0.123902 -0.0589,-0.155385 -0.0589,-0.156314 -0.13186,-0.113139 -0.1597,0.09574 -0.15801,0.08319 -0.042,0.332455 0.0966,0.213118 0.11268,0.293969 0.0505,0.249761 -0.0169,-0.0089 -0.0672,-0.106792 -0.11178,-0.216143 -0.0505,-0.109304 -0.0975,-0.198665 -0.11267,-0.198665 -0.0169,0 -0.0671,0.03614 -0.11175,0.0798 l -0.0857,0.07981 0.0589,0.104727 c 0.0992,0.18598 0.0505,0.236736 -0.0589,0.05384 l -0.0589,-0.10842 -0.0672,0.06726 c -0.10082,0.105022 -0.10675,0.16984 -0.0253,0.287834 0.0975,0.142194 0.0589,0.208836 -0.0419,0.07139 l -0.0758,-0.103252 -0.0254,0.09101 c -0.0336,0.119041 -0.0254,0.567346 0.001,0.760626 l 0.0254,0.152197 0.0589,-0.09072 c 0.0336,-0.04956 0.13365,-0.177998 0.22437,-0.28463 z m 11.61641,-0.188339 c 0,-0.06977 -0.20842,-0.736257 -0.32357,-1.032038 -0.11017,-0.283449 -0.38236,-0.909457 -0.41176,-0.944036 -0.005,-0.0075 -0.0672,0.04956 -0.14131,0.126416 -0.26222,0.280928 -0.80007,0.600106 -1.34294,0.795922 -0.37229,0.134531 -0.55215,0.184958 -1.02879,0.289928 l -0.37231,0.08231 0.632,0.101049 c 0.75716,0.120955 1.49485,0.255217 1.87177,0.340179 0.45378,0.102219 1.01709,0.243212 1.03037,0.257919 0.0253,0.02608 0.0857,0.01326 0.0857,-0.01769 z m -3.5139,-0.806927 c 0.37397,-0.05959 1.00839,-0.228326 1.32999,-0.353548 0.5555,-0.216068 1.09526,-0.55557 1.32791,-0.83408 l 0.11845,-0.141755 -0.008,-0.27842 c -0.008,-0.289927 -0.0757,-0.517013 -0.20842,-0.68861 l -0.0589,-0.07567 -0.042,0.105765 c -0.0254,0.05798 -0.0589,0.128627 -0.0757,0.156667 -0.0254,0.04206 -0.0169,0.07906 0.0671,0.219227 0.0589,0.10341 0.09,0.176083 0.0757,0.188105 -0.0168,0.01043 -0.0336,0.01523 -0.0336,0.0089 -0.004,-0.0059 -0.0505,-0.07729 -0.0975,-0.158498 l -0.0898,-0.147905 -0.085,0.09368 c -0.0948,0.10518 -0.0974,0.09145 0.085,0.43792 0.0671,0.136295 0.0757,0.204799 0.0169,0.162185 -0.0169,-0.01043 -0.0758,-0.114468 -0.13202,-0.231354 -0.0589,-0.116825 -0.11681,-0.211863 -0.13275,-0.211275 -0.0169,4.29e-4 -0.0671,0.03454 -0.11098,0.07479 l -0.085,0.0739 0.0589,0.119628 c 0.0671,0.129511 0.0757,0.187482 0.0336,0.187482 -0.0169,0 -0.0505,-0.05798 -0.0857,-0.129362 -0.0337,-0.07139 -0.0589,-0.134087 -0.0671,-0.139985 -0.004,-0.0059 -0.0589,0.02184 -0.11757,0.06136 l -0.10848,0.07139 0.0672,0.150002 c 0.0757,0.176152 0.0757,0.169162 0.0254,0.169162 -0.0169,0 -0.0589,-0.05546 -0.0876,-0.123168 -0.0254,-0.06801 -0.0589,-0.129364 -0.0672,-0.136739 -0.0254,-0.0177 -0.21852,0.07139 -0.21852,0.101334 0,0.01326 0.0336,0.129806 0.085,0.260264 0.0949,0.273465 0.0934,0.263715 0.0505,0.263715 -0.0335,0 -0.18573,-0.37817 -0.18573,-0.455991 0,-0.04029 -0.0505,-0.03953 -0.16134,0.0031 -0.0975,0.03776 -0.10252,0.06136 -0.0505,0.235895 0.0253,0.06978 0.0253,0.132313 0.0169,0.141752 -0.0254,0.01932 -0.0589,-0.04275 -0.1084,-0.203115 l -0.0336,-0.111812 -0.12257,0.04618 c -0.0672,0.02526 -0.12274,0.05045 -0.12274,0.05635 0,0.0059 0.008,0.04206 0.0254,0.08069 0.0505,0.162862 0.0589,0.237916 0.0169,0.237916 -0.0253,0 -0.0505,-0.05886 -0.0757,-0.154884 l -0.0336,-0.154885 -0.1,0.02022 c -0.0505,0.01043 -0.11097,0.03276 -0.12523,0.04706 -0.0168,0.0168 -0.005,0.123314 0.0252,0.271689 0.0254,0.13453 0.042,0.254304 0.0336,0.266326 -0.0336,0.03523 -0.0672,-0.04956 -0.0993,-0.250348 -0.042,-0.257491 -0.0505,-0.269513 -0.19163,-0.243804 l -0.11608,0.02184 0.0168,0.126269 c 0.0253,0.182363 0.0253,0.185715 -0.001,0.202441 -0.0168,0.0089 -0.0418,-0.05133 -0.0589,-0.132906 -0.0169,-0.08157 -0.042,-0.15388 -0.042,-0.160859 -0.005,-0.0073 -0.0672,-0.0031 -0.12774,0.0075 l -0.11669,0.02023 0.0169,0.140281 c 0.008,0.07729 0.0169,0.152184 0.0253,0.166903 0.003,0.01477 -0.008,0.03276 -0.0253,0.04029 -0.0254,0.0089 -0.042,-0.04029 -0.0505,-0.143375 -0.0168,-0.174725 -0.0505,-0.198427 -0.19327,-0.168338 -0.0934,0.01932 -0.0975,0.02609 -0.085,0.117564 0.0505,0.314206 0.0505,0.446993 0.008,0.446993 -0.0336,0 -0.0418,-0.05975 -0.0589,-0.273967 -0.008,-0.173026 -0.0336,-0.273787 -0.0505,-0.273624 -0.0169,2.17e-4 -0.0757,0.0089 -0.13275,0.01843 l -0.10083,0.01844 0.0169,0.167905 c 0.008,0.135857 0.008,0.165224 -0.0252,0.153878 -0.0254,-0.0088 -0.042,-0.06801 -0.0505,-0.157918 -0.008,-0.161844 -0.0419,-0.187823 -0.18235,-0.158143 l -0.0941,0.01933 0.0169,0.166479 c 0.0169,0.140868 0.008,0.166475 -0.0253,0.166475 -0.0336,0 -0.0419,-0.03277 -0.0419,-0.167391 v -0.167407 h -0.13955 -0.13954 l 0.008,0.235893 c 0.008,0.313972 -0.042,0.327751 -0.0589,0.01592 l -0.0168,-0.236237 -0.13112,-0.0089 -0.13114,-0.0089 v 0.169077 c 0,0.09307 -0.008,0.169075 -0.0254,0.169075 -0.0254,0 -0.0589,-0.145743 -0.0589,-0.262537 0,-0.06549 -0.008,-0.07228 -0.12259,-0.07228 h -0.12273 l -0.008,0.172631 c -0.008,0.247829 -0.0757,0.258407 -0.0757,0.01326 v -0.185134 h -0.12435 -0.12434 v 0.166815 c 0,0.157154 0.004,0.167908 0.0757,0.185801 0.0419,0.01043 0.14369,0.03701 0.2269,0.05959 0.20589,0.05458 0.94307,0.210762 1.28139,0.270769 0.65637,0.116382 0.53872,0.112843 1.04731,0.032 z m -2.71474,-0.558258 v -0.148173 l -0.11758,-0.0177 c -0.14114,-0.02096 -0.16468,2.17e-4 -0.15376,0.134085 0.007,0.08968 0.0254,0.106355 0.11934,0.138509 0.0589,0.02022 0.12007,0.03776 0.13112,0.03865 0.008,0.0013 0.0169,-0.06477 0.0169,-0.145884 z m -0.34288,-0.04794 c 0.0254,-0.109451 -0.005,-0.138659 -0.14131,-0.138659 -0.11097,0 -0.12259,0.0073 -0.12259,0.07139 0,0.05384 0.0254,0.0798 0.089,0.10341 0.13616,0.04794 0.15633,0.04455 0.17397,-0.03614 z m -0.34708,-0.0739 c 0,-0.04364 -0.0251,-0.06048 -0.11755,-0.07391 -0.13527,-0.02023 -0.20841,0.02683 -0.0865,0.05546 0.0418,0.01043 0.1042,0.03111 0.13542,0.04543 0.0336,0.01477 0.0589,0.02684 0.0589,0.0286 0.003,0.0013 0.007,-0.02361 0.007,-0.05458 z m -2.20482,-1.263475 c 0,-0.0059 0.0169,-0.06136 0.042,-0.121843 0.0418,-0.103252 0.0418,-0.110336 -0.008,-0.110336 -0.0253,0 -0.0672,0.0177 -0.0982,0.03953 -0.042,0.03365 -0.042,0.05133 -0.0169,0.121842 0.0254,0.06815 0.0757,0.114173 0.0757,0.07065 z m 8.02002,-0.458852 c 0,-0.03865 -0.0169,-0.0798 -0.0418,-0.09027 -0.0589,-0.02683 -0.0671,-0.01043 -0.0336,0.09898 0.0336,0.10665 0.0757,0.10163 0.0757,-0.0088 z m -3.97627,1.243136 c -0.008,-0.0118 -0.0169,-0.137186 -0.0169,-0.278169 0,-0.188328 0.008,-0.252875 0.0336,-0.243805 0.042,0.01592 0.0672,0.124646 0.0757,0.298854 0.003,0.136297 -0.0505,0.266396 -0.0876,0.22312 z"
       id="path1-6"
       inkscape:export-filename="icon_shapeup_24.svg"
       inkscape:export-xdpi="96"
       inkscape:export-ydpi="96" /></g></svg>
