<?xml version="1.0" encoding="UTF-8" standalone="no"?>
<!-- Created with Inkscape (http://www.inkscape.org/) -->

<svg
   width="10.054183mm"
   height="12.305355mm"
   viewBox="0 0 10.054183 12.305355"
   version="1.1"
   id="svg1"
   xml:space="preserve"
   inkscape:export-filename="ビットマップ.svg"
   inkscape:export-xdpi="96"
   inkscape:export-ydpi="96"
   xmlns:inkscape="http://www.inkscape.org/namespaces/inkscape"
   xmlns:sodipodi="http://sodipodi.sourceforge.net/DTD/sodipodi-0.dtd"
   xmlns="http://www.w3.org/2000/svg"
   xmlns:svg="http://www.w3.org/2000/svg"><sodipodi:namedview
     id="namedview1"
     pagecolor="#ffffff"
     bordercolor="#111111"
     borderopacity="1"
     inkscape:showpageshadow="0"
     inkscape:pageopacity="0"
     inkscape:pagecheckerboard="1"
     inkscape:deskcolor="#d1d1d1"
     inkscape:document-units="mm"><inkscape:page
       x="0"
       y="-8.363984e-22"
       width="10.054183"
       height="12.305354"
       id="page2"
       margin="0"
       bleed="0" /></sodipodi:namedview><defs
     id="defs1" /><g
     inkscape:label="Layer 1"
     inkscape:groupmode="layer"
     id="layer1"
     transform="translate(-226.72387,-183.72956)"><path
       style="fill:#000000;stroke:#000000;stroke-width:0.165407;stroke-linecap:round;stroke-linejoin:round;stroke-dasharray:none;stroke-opacity:1"
       d="m 233.22866,195.93055 c -0.40634,-0.049 -1.08824,-0.19474 -1.3706,-0.29252 -0.42449,-0.14703 -0.62221,-0.31247 -0.62221,-0.5209 0,-0.0345 -0.0181,-0.078 -0.0363,-0.0968 -0.0544,-0.0526 -0.40091,-0.16064 -0.80182,-0.25316 -0.67391,-0.15555 -0.89342,-0.27519 -1.14439,-0.61976 -0.1034,-0.14241 -0.156,-0.17805 -0.51519,-0.34749 l -0.39999,-0.18884 -0.76735,-1.21119 c -0.68118,-1.07546 -0.80907,-1.29638 -0.75193,-1.29638 0.009,0 0.37733,0.19202 0.81995,0.42685 0.44263,0.23474 0.84082,0.43628 0.88436,0.4478 l 0.0816,0.0209 -0.1034,-0.12263 c -0.22041,-0.25987 -0.63311,-0.51482 -1.01133,-0.62476 -0.27484,-0.0798 -0.27302,-0.0789 -0.25397,-0.11256 0.0181,-0.0363 0.37098,0.0671 0.62493,0.18467 0.26577,0.12263 0.48799,0.28961 0.67484,0.5063 l 0.16688,0.19456 0.14513,-0.14104 c 0.44717,-0.43374 0.94421,-0.66358 1.51347,-0.69878 0.28117,-0.0172 0.195,0.0227 -0.17868,0.0825 -0.44173,0.0717 -0.81179,0.24263 -1.18613,0.54847 -0.2322,0.19021 -0.20771,0.18386 0.67846,-0.16971 0.37823,-0.15092 0.79818,-0.31636 0.9346,-0.36761 l 0.24762,-0.0932 0.0726,0.0986 c 0.13243,0.18223 1.41088,2.24537 1.41088,2.27682 0,0.0172 -0.0816,0.059 -0.19319,0.0922 -0.10613,0.0336 -0.1932,0.0708 -0.1932,0.0816 0,0.0109 0.21769,0.0336 0.48344,0.0499 1.16254,0.0698 1.43437,0.003 1.58431,-0.39356 0.0544,-0.14439 0.10158,-0.6936 0.1043,-1.20345 0.001,-0.26839 0.009,-0.33107 0.0363,-0.28236 0.0454,0.0853 0.005,1.14645 -0.0544,1.39378 -0.0454,0.21568 -0.11156,0.32108 -0.24943,0.42449 -0.21315,0.16 -0.51338,0.18458 -1.54802,0.12625 -0.61769,-0.0345 -0.72291,-0.0127 -0.79093,0.16499 -0.0544,0.15738 -0.2195,0.8927 -0.22495,1.03254 -0.002,0.0644 0.0181,0.15709 0.0453,0.20743 0.18957,0.32054 1.39048,0.61923 2.51347,0.62549 0.52335,0.003 0.60408,-0.004 0.81633,-0.0726 0.32743,-0.10485 0.49613,-0.2146 0.70203,-0.45778 0.43175,-0.50929 0.60589,-1.25798 0.60499,-2.60376 -2.1e-4,-1.36888 -0.19954,-2.32245 -0.60045,-2.87881 -0.17506,-0.24271 -0.51519,-0.48145 -0.85623,-0.60226 -0.15511,-0.0553 -0.30749,-0.0998 -0.33742,-0.0998 -0.0272,0 -0.0916,0.0572 -0.13606,0.13461 -0.21949,0.36535 -0.70294,0.78475 -1.0594,0.91743 -0.47075,0.17542 -0.93106,-0.0508 -1.07192,-0.52636 -0.0181,-0.0635 -0.0454,-0.1277 -0.0544,-0.1433 -0.0363,-0.0417 -0.31655,0.11211 -0.49614,0.26993 -0.17414,0.1531 -0.40816,0.50123 -0.56145,0.83428 -0.0544,0.122 -0.1161,0.22177 -0.13152,0.22177 -0.0726,0 0.22313,-0.58703 0.44536,-0.88172 0.17233,-0.22948 0.38729,-0.39256 0.72108,-0.54866 0.32653,-0.15274 0.36282,-0.20209 0.34286,-0.46984 -0.008,-0.11456 -0.0272,-0.22321 -0.0454,-0.24127 -0.0181,-0.0218 -0.0816,-0.0199 -0.1932,0.007 -0.20953,0.0517 -0.38731,0.0218 -0.61497,-0.10386 -0.59501,-0.32844 -1.1823,-1.49172 -1.20053,-2.37773 -0.006,-0.27119 0.0272,-0.5092 0.0635,-0.5092 0.009,0 0.097,0.0798 0.18774,0.1776 0.52971,0.56652 1.45361,0.85106 2.17869,0.67074 0.10612,-0.0263 0.17596,-0.0708 0.25578,-0.16318 0.0816,-0.0991 0.13152,-0.12671 0.21134,-0.12671 0.2721,0 0.41088,0.3883 0.25668,0.72208 -0.0635,0.14386 -0.21314,0.29415 -0.24761,0.25506 -0.009,-0.0109 0.0363,-0.0771 0.10067,-0.14594 0.18322,-0.19247 0.2068,-0.51401 0.0453,-0.68707 -0.1052,-0.11674 -0.21224,-0.10168 -0.34013,0.0481 -0.0816,0.0926 -0.15238,0.13896 -0.2712,0.17225 -0.21406,0.0608 -0.76009,0.0544 -1.02821,-0.0118 -0.43627,-0.10703 -0.90865,-0.3728 -1.2116,-0.68091 l -0.1297,-0.13224 -0.0181,0.15628 c -0.0544,0.54376 0.20317,1.41808 0.58866,1.98519 0.40272,0.59176 0.87619,0.82594 1.29442,0.63983 0.17777,-0.0789 0.41541,-0.27964 0.50703,-0.42731 0.0726,-0.12054 0.11882,-0.15093 0.11882,-0.0816 0,0.0708 -0.20953,0.31973 -0.3601,0.42712 -0.12153,0.0871 -0.14693,0.11991 -0.1306,0.17442 0.0363,0.13315 0.0454,0.43038 0.0181,0.52018 -0.0181,0.0508 -0.0726,0.11701 -0.12425,0.14785 -0.19592,0.12036 -0.1932,0.10957 -0.11066,0.30575 0.2848,0.68735 0.90703,0.69307 1.64117,0.0154 0.14422,-0.13315 0.43628,-0.51129 0.43628,-0.56571 0,-0.0154 -0.0635,-0.0544 -0.14784,-0.0862 -0.32744,-0.12862 -0.59502,-0.47437 -0.72926,-0.94645 -0.0816,-0.27845 -0.0916,-0.35808 -0.0454,-0.35808 0.0181,0 0.0363,0.0789 0.0635,0.17622 0.0454,0.24418 0.21497,0.61207 0.3474,0.77506 0.15964,0.19528 0.30839,0.27963 0.69659,0.39474 0.64672,0.19193 1.01615,0.44372 1.27266,0.8673 0.23038,0.38059 0.37006,0.85777 0.47255,1.62148 0.0816,0.5815 0.0726,1.85884 -0.0181,2.37484 -0.18685,1.13451 -0.54603,1.6799 -1.25559,1.90525 -0.1796,0.0571 -0.3211,0.0735 -0.72834,0.0825 -0.27847,0.006 -0.61951,-0.002 -0.7592,-0.0191 z m -1.9813,-1.04082 c 0.0181,-0.0517 0.16689,-0.79564 0.16689,-0.81233 0,-0.004 -0.0544,-0.0245 -0.11882,-0.0463 -0.0952,-0.0317 -0.14966,-0.0853 -0.27845,-0.27674 -0.19139,-0.2869 -0.77551,-0.8858 -0.84717,-0.87056 -0.0816,0.0181 -0.0726,0.15138 0.0363,0.36925 0.16961,0.33523 0.13514,0.44562 -0.1415,0.44562 -0.30295,0 -0.66122,-0.19012 -1.0448,-0.55465 -0.28754,-0.27256 -0.3211,-0.22104 -0.13878,0.21008 0.23764,0.55999 0.52789,0.96075 0.80997,1.11886 0.13515,0.0753 0.29297,0.12236 1.0371,0.30848 0.1551,0.039 0.3229,0.0908 0.37188,0.11547 0.11882,0.0599 0.12789,0.0599 0.14603,-0.007 z m 0.23855,-0.94815 c 0.009,-0.039 0.006,-0.0472 -0.0272,-0.0327 -0.0272,0.0109 -0.0635,0.02 -0.0916,0.02 -0.0272,0 -0.0453,0.0145 -0.0453,0.0327 0,0.0544 0.1415,0.0372 0.16054,-0.02 z m -2.52108,-0.26332 c -0.11701,-0.22032 -0.25669,-0.57714 -0.25669,-0.65242 0,-0.0281 0.0181,-0.0789 0.0363,-0.1132 0.0272,-0.0535 0.006,-0.11056 -0.17959,-0.4146 -0.19682,-0.32172 -0.23764,-0.4175 -0.15691,-0.36253 0.0181,0.0109 0.14965,0.21587 0.29749,0.45495 0.21134,0.3425 0.31021,0.47221 0.47076,0.61135 0.19954,0.17287 0.62131,0.42421 0.65215,0.38883 0.0272,-0.0254 -0.0182,-0.0977 -0.40907,-0.78113 -0.1941,-0.33542 -0.35283,-0.63056 -0.35283,-0.65586 0,-0.0381 0.007,-0.0381 0.0363,0.002 0.0272,0.0372 0.58049,0.98526 0.81269,1.40326 0.0272,0.0562 0.0635,0.0735 0.15601,0.0735 0.1932,0 0.20953,-0.0635 0.0816,-0.3385 -0.14966,-0.32254 -0.14059,-0.48282 0.0272,-0.48282 0.0816,0 0.70566,0.62703 0.878,0.88889 0.0726,0.10739 0.14966,0.1952 0.17415,0.1952 0.0544,0 0.95918,-0.32835 0.99191,-0.36128 0.0181,-0.0199 -1.24588,-2.09207 -1.36089,-2.22699 -0.0363,-0.0454 -0.29388,0.0463 -1.52897,0.54783 -0.31656,0.12844 -0.61225,0.23356 -0.65761,0.23356 -0.12517,0 -0.25396,-0.059 -0.93831,-0.42666 -0.78367,-0.42095 -0.83084,-0.44372 -0.80091,-0.38812 0.009,0.0236 0.34014,0.5454 0.72834,1.15973 l 0.70568,1.11696 0.33741,0.16635 c 0.18503,0.0914 0.34104,0.16354 0.34648,0.16018 0.005,-0.003 -0.0363,-0.093 -0.0934,-0.19918 z m -0.0816,-1.97065 c -0.009,-0.0127 -0.0181,-0.0553 -0.0181,-0.0939 0,-0.0508 -0.0363,-0.0898 -0.13515,-0.14257 -0.0925,-0.0499 -0.16054,-0.11882 -0.21586,-0.21905 -0.0916,-0.16726 -0.12517,-0.18459 -0.12517,-0.0653 0,0.13442 0.10794,0.33107 0.22765,0.41233 0.13152,0.0898 0.0816,0.12807 -0.0544,0.0408 -0.25124,-0.16281 -0.29205,-0.43138 -0.12697,-0.85696 0.0181,-0.059 0.0544,-0.10676 0.0635,-0.10676 0.0181,0 0.0363,-0.0617 0.0453,-0.13623 0.0181,-0.1727 0.0816,-0.24408 0.27302,-0.29596 0.0816,-0.0227 0.15238,-0.0435 0.15691,-0.0463 0.004,-0.002 0.0363,-0.18776 0.0635,-0.41143 0.0726,-0.49905 0.14603,-0.64245 0.25941,-0.51637 0.0544,0.059 0.0272,0.57587 -0.0363,0.93502 -0.009,0.0599 0.0181,0.0917 0.20226,0.20245 0.11791,0.0726 0.26485,0.18821 0.32562,0.2575 0.14966,0.17161 0.25942,0.47102 0.17234,0.47102 -0.0181,0 -0.0272,-0.0227 -0.0272,-0.0508 0,-0.0844 -0.0916,-0.2537 -0.20318,-0.3844 -0.1415,-0.16299 -0.23129,-0.16136 -0.46711,0.009 -0.20953,0.15075 -0.2839,0.26395 -0.22314,0.34349 0.0544,0.0689 0.10794,0.0635 0.29389,-0.0317 0.14602,-0.0744 0.21314,-0.0816 0.21314,-0.0227 0,0.0127 -0.0998,0.059 -0.22312,0.10304 -0.12336,0.0444 -0.22313,0.099 -0.22313,0.12199 0,0.0608 -0.11247,0.38312 -0.15692,0.45034 -0.0181,0.0317 -0.0453,0.0463 -0.0544,0.0336 z m 0.11882,-0.34621 c 0.0635,-0.18884 0.0635,-0.20471 0.0181,-0.2429 -0.0453,-0.0336 -0.0544,-0.0308 -0.0916,0.0127 -0.0363,0.058 -0.0544,0.43183 -0.0181,0.43183 0.009,-2e-5 0.0544,-0.0909 0.0916,-0.20199 z m -0.17052,-0.0308 c 0,-0.068 -0.0272,-0.13243 -0.0816,-0.19583 -0.0454,-0.0517 -0.11066,-0.16182 -0.1415,-0.24372 -0.0635,-0.16726 -0.0816,-0.17987 -0.13242,-0.0798 -0.0635,0.14141 0.0544,0.443 0.22222,0.55774 0.12426,0.0834 0.13696,0.0798 0.13696,-0.039 z m 0.0635,-0.29361 c 0.0181,-0.0454 0.0272,-0.12073 0.004,-0.2381 -0.0181,-0.11474 -0.0181,-0.17878 0.002,-0.19265 0.0544,-0.0354 0.0816,-0.29405 0.0363,-0.31346 -0.0635,-0.029 -0.25034,0.0571 -0.30204,0.1434 -0.0453,0.0698 -0.0453,0.10911 -0.0181,0.25242 0.0363,0.19619 0.14512,0.41469 0.20408,0.41469 0.0181,0 0.0544,-0.0299 0.0726,-0.0662 z m 0.16598,-0.23828 c 0.0454,-0.0499 0.0816,-0.1698 0.11338,-0.38049 0.0816,-0.49706 0.12789,-0.97539 0.0998,-1.05815 -0.0544,-0.16073 -0.10976,0.0118 -0.20318,0.62639 -0.14694,0.96952 -0.14694,0.97178 -0.009,0.81233 z m 0.30386,-0.23274 0.12879,-0.0744 -0.1043,-0.0626 c -0.0544,-0.0345 -0.11338,-0.0535 -0.12426,-0.0417 -0.0272,0.0308 -0.0726,0.25595 -0.0454,0.25423 0.009,-8.3e-4 0.0726,-0.0345 0.14785,-0.0762 z m 6.908,0.82658 c 0.15329,-0.21434 0.25397,-0.43221 0.31111,-0.67357 0.0635,-0.26421 0.0544,-0.73442 -0.009,-1.03143 -0.14422,-0.62105 -0.37461,-0.99671 -1.13406,-1.85319 -0.32109,-0.36136 -0.65305,-0.76789 -0.73922,-0.90339 -0.0816,-0.13551 -0.29025,-0.53787 -0.45261,-0.89407 -0.16236,-0.35618 -0.36462,-0.76118 -0.44897,-0.89995 -0.59865,-0.98766 -1.44118,-1.41836 -2.36753,-1.20955 -0.34376,0.078 -0.62675,0.24127 -0.88616,0.51401 -0.23038,0.24136 -0.33288,0.28499 -0.15783,0.0662 0.25216,-0.31365 0.5796,-0.52689 0.97759,-0.63664 0.20953,-0.058 0.31021,-0.0671 0.59502,-0.0535 0.5941,0.0281 1.04036,0.24843 1.47645,0.72843 0.30477,0.3356 0.53787,0.72743 0.87438,1.47286 0.14694,0.32398 0.32925,0.69496 0.40726,0.8244 0.0816,0.13659 0.39727,0.52452 0.75192,0.9251 0.62675,0.70766 0.80816,0.96406 0.99564,1.39967 0.34739,0.81161 0.29116,1.73492 -0.13877,2.24988 -0.16599,0.19945 -0.20137,0.18239 -0.0544,-0.0254 z m -8.7245,-0.96264 c -0.17415,-0.18141 -0.19501,-0.21379 -0.13968,-0.21379 0.0363,0 0.35554,0.32663 0.35554,0.36617 0,0.0562 -0.0454,0.0227 -0.21586,-0.15238 z m 0.39183,-0.1024 c -0.11701,-0.33298 -0.14059,-0.43983 -0.0925,-0.43983 0.0363,0 0.16962,0.48617 0.14513,0.51357 -0.009,0.0118 -0.0363,-0.0218 -0.0544,-0.0735 z m 2.91999,-0.3386 c -0.0544,-0.0526 -0.1288,-0.18186 -0.17234,-0.2869 -0.0726,-0.17015 -0.0816,-0.24852 -0.10249,-0.71664 -0.0181,-0.51219 -0.0272,-0.53151 -0.12789,-0.75618 -0.0635,-0.1483 -0.20136,-0.34776 -0.3746,-0.55909 -0.49071,-0.59738 -0.62403,-0.88744 -0.6458,-1.41769 -0.009,-0.27564 -0.003,-0.37269 0.0453,-0.55918 0.0726,-0.25388 0.23311,-0.53107 0.3991,-0.67863 0.1551,-0.13796 0.18322,-0.0762 0.0363,0.0708 -0.28481,0.27718 -0.42721,0.64063 -0.42721,1.08962 0,0.46567 0.16145,0.86294 0.53696,1.32206 0.54875,0.66983 0.58956,0.76806 0.6204,1.50322 0.0272,0.58749 0.0635,0.72979 0.27121,0.94963 0.14331,0.15383 0.0916,0.1902 -0.0544,0.039 z"
       id="path1-31" /></g></svg>
