<?xml version="1.0" encoding="UTF-8" standalone="no"?>
<!-- Created with Inkscape (http://www.inkscape.org/) -->

<svg
   width="11.112419mm"
   height="10.123551mm"
   viewBox="0 0 11.112419 10.123551"
   version="1.1"
   id="svg1"
   xml:space="preserve"
   inkscape:export-filename="ビットマップ.svg"
   inkscape:export-xdpi="96"
   inkscape:export-ydpi="96"
   xmlns:inkscape="http://www.inkscape.org/namespaces/inkscape"
   xmlns:sodipodi="http://sodipodi.sourceforge.net/DTD/sodipodi-0.dtd"
   xmlns="http://www.w3.org/2000/svg"
   xmlns:svg="http://www.w3.org/2000/svg"><sodipodi:namedview
     id="namedview1"
     pagecolor="#ffffff"
     bordercolor="#111111"
     borderopacity="1"
     inkscape:showpageshadow="0"
     inkscape:pageopacity="0"
     inkscape:pagecheckerboard="1"
     inkscape:deskcolor="#d1d1d1"
     inkscape:document-units="mm"><inkscape:page
       x="0"
       y="0"
       width="11.112419"
       height="10.123551"
       id="page2"
       margin="0"
       bleed="0" /></sodipodi:namedview><defs
     id="defs1" /><g
     inkscape:label="Layer 1"
     inkscape:groupmode="layer"
     id="layer1"
     transform="translate(-166.48137,118.06608)"><path
       style="fill:#000000;stroke:#000000;stroke-width:0.261635;stroke-dasharray:none;stroke-opacity:1"
       d="m 166.61926,-108.1145 c 0,-0.0368 0.13382,-0.0421 1.05266,-0.0421 0.9104,0 1.06048,-0.006 1.11067,-0.0435 0.0543,-0.0435 0.0543,-0.047 0.0543,-0.89782 0,-0.86973 0.006,-0.93168 0.1026,-1.01065 0.0339,-0.0252 0.29889,-0.0347 1.05271,-0.0353 l 1.01123,-7.8e-4 0.0408,-0.0625 c 0.0339,-0.0523 0.0408,-0.17295 0.0408,-0.75109 0,-0.68387 4.1e-4,-0.68931 0.0612,-0.74974 0.0611,-0.0605 0.07,-0.0612 1.04355,-0.0612 0.85885,0 0.98826,-0.005 1.02406,-0.0441 0.0339,-0.0374 0.0408,-0.13933 0.0408,-0.6822 0,-0.60323 0.003,-0.64223 0.0543,-0.71199 l 0.0543,-0.0737 0.84091,-0.003 c 0.46261,-0.002 0.91742,-0.0116 1.01089,-0.021 l 0.16982,-0.0176 0.0136,-0.6955 c 0.0135,-0.68934 0.0135,-0.69598 0.0747,-0.74897 0.0543,-0.0502 0.11617,-0.0537 1.02576,-0.0537 0.83962,0 0.96406,0.005 0.96406,0.0421 0,0.0368 -0.12295,0.0421 -0.95238,0.0421 h -0.95246 l -0.0408,0.0625 c -0.0339,0.0516 -0.0408,0.16901 -0.0408,0.70964 0,0.62251 -0.002,0.64948 -0.0543,0.70074 -0.0543,0.0502 -0.11346,0.0537 -1.0388,0.0611 -0.88332,0.007 -0.98718,0.0123 -1.01646,0.0543 -0.0204,0.0339 -0.0339,0.22043 -0.0339,0.69734 v 0.65058 l -0.0686,0.0578 c -0.0686,0.0564 -0.0971,0.0578 -1.05319,0.0578 -0.73073,0 -0.99241,0.008 -1.01571,0.0333 -0.0204,0.0245 -0.0339,0.22241 -0.0339,0.71536 0,0.71135 -0.0136,0.81465 -0.11886,0.85759 -0.0204,0.009 -0.4891,0.0176 -1.03331,0.0176 -0.95612,0 -0.99281,0.002 -1.04328,0.0557 -0.0476,0.0537 -0.0543,0.0934 -0.0543,0.89466 0,0.88781 -0.007,0.95047 -0.12159,1.0062 -0.0408,0.021 -0.40217,0.0312 -1.12087,0.0312 -0.92237,0 -1.05727,-0.005 -1.05727,-0.0421 z m 3.10777,-2.55728 c -0.0951,-0.0266 -0.20311,-0.0701 -0.24115,-0.0968 -0.0842,-0.0591 -0.15692,-0.20685 -0.20039,-0.41186 -0.0476,-0.21656 -0.11549,-0.3493 -0.28464,-0.55167 -0.17934,-0.21459 -0.23843,-0.32715 -0.23843,-0.45581 -6e-5,-0.0872 0.0272,-0.12391 0.22145,-0.3224 0.16032,-0.16189 0.23911,-0.26671 0.28599,-0.37797 0.0795,-0.18906 0.13043,-0.55344 0.18545,-1.32247 0.0611,-0.86847 0.13586,-1.11984 0.48095,-1.62302 0.24456,-0.35652 0.26833,-0.41357 0.28395,-0.68646 0.0135,-0.26444 0.0476,-0.322 0.0727,-0.1345 0.0408,0.28898 -0.0339,0.50956 -0.28531,0.86498 -0.33898,0.47573 -0.41233,0.71926 -0.47348,1.56485 -0.0476,0.71582 -0.10596,1.13025 -0.17458,1.33212 -0.0408,0.12927 -0.0971,0.20298 -0.28667,0.39991 -0.15215,0.15814 -0.23232,0.26241 -0.23232,0.30236 0,0.0927 0.0611,0.20733 0.22553,0.40032 0.17594,0.21093 0.22689,0.3131 0.29686,0.59392 0.0611,0.24991 0.089,0.30155 0.18409,0.36206 0.14197,0.09 0.59032,0.16976 0.56927,0.10126 -0.005,-0.0156 -0.0686,-0.0755 -0.13655,-0.13301 -0.2459,-0.20066 -0.23776,-0.16527 -0.23709,-0.96751 l 4.2e-4,-0.70495 0.0855,-0.28911 c 0.2724,-0.92186 0.90021,-2.52739 1.16957,-2.99037 0.1671,-0.287 0.17729,-0.32205 0.29957,-1.00441 0.0964,-0.53626 0.15081,-0.73081 0.19225,-0.68433 0.007,0.0104 -0.12092,0.76847 -0.2201,1.27722 -0.0135,0.0832 -0.0842,0.24428 -0.16032,0.37797 -0.0727,0.12818 -0.1773,0.3298 -0.233,0.44807 -0.23369,0.49745 -0.69921,1.72851 -0.91584,2.42125 l -0.13858,0.44366 -0.007,0.62999 c -0.0137,0.77674 -0.005,0.80249 0.22214,0.97962 0.12702,0.0989 0.16235,0.14245 0.16371,0.20033 4.1e-4,0.0428 -0.0137,0.0813 -0.0408,0.0911 -0.072,0.0298 -0.25338,0.0156 -0.43068,-0.0347 z m 2.71133,-1.33408 c -0.22282,-0.0523 -0.26629,-0.0867 -0.36683,-0.29149 -0.14469,-0.294 -0.2364,-0.41044 -0.44426,-0.56043 -0.37227,-0.26914 -0.41913,-0.44386 -0.1902,-0.7056 0.34101,-0.38932 0.35187,-0.43531 0.43543,-1.85886 0.0136,-0.24639 0.0476,-0.52362 0.0686,-0.616 0.0476,-0.19734 0.2072,-0.52585 0.35664,-0.73928 l 0.10666,-0.15128 -0.1542,-0.15733 c -0.0842,-0.0866 -0.23573,-0.23537 -0.33626,-0.33076 -0.16983,-0.16241 -0.21194,-0.24482 -0.0943,-0.18667 0.0829,0.0414 0.65485,0.62802 0.65485,0.67239 0,0.0224 -0.0611,0.13803 -0.14061,0.25684 -0.28395,0.43632 -0.34645,0.63625 -0.38381,1.22407 -0.0964,1.53247 -0.0958,1.52987 -0.40894,1.8958 -0.0754,0.0879 -0.1447,0.19108 -0.15353,0.22927 -0.0272,0.1074 0.0611,0.22764 0.26426,0.38047 0.23571,0.17439 0.34236,0.30203 0.45377,0.54156 0.10261,0.22158 0.15827,0.26839 0.37838,0.31764 0.28599,0.0639 0.45106,0.0367 0.29753,-0.0496 -0.13314,-0.0748 -0.26561,-0.211 -0.30977,-0.31975 -0.0272,-0.0639 -0.089,-0.29679 -0.13993,-0.51798 -0.14333,-0.62652 -0.1277,-0.82449 0.12839,-1.63838 0.17187,-0.54474 0.39197,-1.14131 0.6664,-1.80466 0.11141,-0.26948 0.21126,-0.53707 0.22079,-0.59453 0.0272,-0.15014 -0.0204,-0.30556 -0.18478,-0.61899 -0.0992,-0.1879 -0.13586,-0.2847 -0.11821,-0.3042 0.0543,-0.0557 0.35937,0.55214 0.38653,0.76214 0.0204,0.15672 -0.0272,0.31221 -0.3376,1.06566 -0.49998,1.22248 -0.77518,2.11896 -0.77558,2.52436 -1.3e-4,0.22749 0.161,0.96496 0.24456,1.121 0.0339,0.0578 0.12023,0.15258 0.19698,0.20999 0.17256,0.12852 0.20856,0.18137 0.16101,0.2421 -0.0408,0.0543 -0.2561,0.0557 -0.48095,0.003 z"
       id="path1"
       inkscape:export-filename="icon_stairs_24.svg"
       inkscape:export-xdpi="96"
       inkscape:export-ydpi="96" /></g></svg>
