<?xml version="1.0" encoding="UTF-8" standalone="no"?>
<!-- Created with Inkscape (http://www.inkscape.org/) -->

<svg
   width="10.35644mm"
   height="13.229187mm"
   viewBox="0 0 10.35644 13.229187"
   version="1.1"
   id="svg1"
   xml:space="preserve"
   inkscape:export-filename="ビットマップ.svg"
   inkscape:export-xdpi="96"
   inkscape:export-ydpi="96"
   xmlns:inkscape="http://www.inkscape.org/namespaces/inkscape"
   xmlns:sodipodi="http://sodipodi.sourceforge.net/DTD/sodipodi-0.dtd"
   xmlns="http://www.w3.org/2000/svg"
   xmlns:svg="http://www.w3.org/2000/svg"><sodipodi:namedview
     id="namedview1"
     pagecolor="#ffffff"
     bordercolor="#111111"
     borderopacity="1"
     inkscape:showpageshadow="0"
     inkscape:pageopacity="0"
     inkscape:pagecheckerboard="1"
     inkscape:deskcolor="#d1d1d1"
     inkscape:document-units="mm"><inkscape:page
       x="9.4772452e-22"
       y="0"
       width="10.356441"
       height="13.229187"
       id="page2"
       margin="0"
       bleed="0" /></sodipodi:namedview><defs
     id="defs1" /><g
     inkscape:label="Layer 1"
     inkscape:groupmode="layer"
     id="layer1"
     transform="translate(-149.49061,-40.718639)"><path
       style="fill:#000000;stroke:#000000;stroke-width:0.187735;stroke-linecap:round;stroke-linejoin:round;stroke-dasharray:none;stroke-opacity:1"
       d="m 153.6216,53.812283 c -0.0169,-0.03455 0.0168,-0.285263 0.0674,-0.556873 0.0506,-0.271527 0.0893,-0.512125 0.0893,-0.53471 -9e-5,-0.02275 -0.0674,-0.06573 -0.16012,-0.0954 -0.26462,-0.08992 -0.86001,-0.230991 -0.97571,-0.230991 -0.12304,-5.1e-5 -0.091,-0.08006 -0.31265,0.798567 -0.12641,0.500158 -0.17276,0.61064 -0.2326,0.546508 -0.0337,-0.03287 0.26462,-1.305947 0.32698,-1.415139 0.0169,-0.02865 0.0759,-0.06068 0.12641,-0.06995 0.13315,-0.02444 0.1104,-0.08259 -0.0421,-0.110566 -0.53428,-0.09649 -1.09326,-0.497883 -1.32543,-0.952542 -0.0421,-0.08874 -0.0994,-0.161382 -0.12051,-0.161382 -0.14917,0 -0.82166,0.331107 -0.97664,0.480944 -0.32445,0.312651 -0.38344,0.555019 -0.38344,1.558057 0,0.70966 -0.004,0.764016 -0.059,0.752976 -0.0506,-0.01096 -0.059,-0.08006 -0.059,-0.868446 0.002,-0.808764 0.006,-0.867848 0.0758,-1.058919 0.10534,-0.277763 0.37923,-0.578195 0.6548,-0.718761 0.11883,-0.06068 0.43232,-0.187928 0.69778,-0.283409 0.60845,-0.218772 0.76604,-0.303213 0.89573,-0.481028 0.13315,-0.180681 0.17697,-0.41538 0.18962,-1.012831 l 0.008,-0.45937 -0.17529,-0.144359 c -0.19298,-0.158516 -0.47446,-0.548361 -0.57053,-0.792331 -0.0421,-0.102475 -0.0851,-0.155988 -0.12219,-0.156073 -0.17529,-3.48e-4 -0.4812,-0.265964 -0.57474,-0.499989 -0.1972,-0.490045 0.0337,-0.926434 0.39777,-0.753987 0.0506,0.02191 0.0859,0.06995 0.0859,0.104919 0,0.07585 -0.008,0.07753 -0.1559,0.02275 -0.0944,-0.03539 -0.12051,-0.03287 -0.17697,0.02107 -0.26293,0.246666 0.0758,0.965031 0.46097,0.965031 0.0952,0 0.11292,0.02107 0.23765,0.288633 0.0758,0.15877 0.20647,0.371474 0.29242,0.47277 0.27726,0.325292 0.73149,0.617044 1.13456,0.727357 0.16771,0.04635 0.17024,0.04551 0.33457,-0.07163 0.0902,-0.06489 0.2899,-0.166775 0.44243,-0.226441 0.15253,-0.05983 0.31012,-0.122869 0.35142,-0.140482 0.10702,-0.04635 0.34299,-0.368524 0.45001,-0.61283 0.10366,-0.236385 0.15338,-0.468809 0.18709,-0.867621 0.0169,-0.22644 0.0337,-0.270852 0.0758,-0.261076 0.0421,0.0093 0.0506,0.04803 0.0421,0.176635 -0.005,0.09068 0.006,0.164837 0.0253,0.164837 0.059,0 0.20309,-0.235879 0.24102,-0.408132 0.0506,-0.221215 0.0169,-0.414116 -0.0902,-0.52426 -0.0674,-0.06995 -0.0935,-0.07837 -0.15001,-0.04719 -0.0944,0.05225 -0.13484,0.01601 -0.13484,-0.122532 0,-0.212704 -0.0506,-0.276583 -0.34214,-0.453471 -0.40114,-0.241188 -0.61604,-0.421953 -0.98473,-0.828315 -0.17866,-0.196271 -0.3295,-0.350322 -0.33625,-0.342316 -0.007,0.008 -0.0337,0.09329 -0.0506,0.189445 -0.0994,0.42583 -0.45929,1.012426 -0.78626,1.280228 -0.21827,0.179332 -0.50817,0.332118 -0.75761,0.399452 -0.25956,0.06995 -0.35479,0.06826 -0.34131,-0.0065 0.008,-0.04129 0.0851,-0.07753 0.25788,-0.121521 0.30253,-0.07753 0.60002,-0.238492 0.81997,-0.443696 0.34636,-0.323101 0.63036,-0.851566 0.71547,-1.33015 0.0253,-0.159191 0.059,-0.235711 0.0935,-0.242874 0.0337,-0.0063 0.12135,0.07837 0.22079,0.209839 0.39692,0.52013 0.77615,0.862471 1.24302,1.123076 0.26124,0.145791 0.32613,0.220288 0.3649,0.415127 0.0169,0.06826 0.0421,0.09953 0.11882,0.11638 0.39524,0.09009 0.39356,0.95041 -0.002,1.237215 -0.11125,0.08006 -0.134,0.122279 -0.17782,0.321921 -0.0674,0.296555 -0.18371,0.568756 -0.33456,0.77278 -0.10534,0.143179 -0.11798,0.180091 -0.10113,0.307511 0.0169,0.120173 0.005,0.159949 -0.059,0.234193 -0.0421,0.04888 -0.12219,0.111915 -0.17276,0.139472 -0.0851,0.04635 -0.0927,0.06658 -0.0927,0.257537 0,0.223828 0.0759,0.389255 0.25113,0.530327 0.0506,0.03877 0.086,0.0986 0.086,0.13332 0,0.03455 0.0253,0.08343 0.0506,0.10829 0.0758,0.06405 0.12556,0.171916 0.14832,0.312989 l 0.0168,0.12211 0.52586,0.197283 c 0.62868,0.235626 0.89734,0.378552 1.09193,0.580722 0.31349,0.325798 0.39355,0.696513 0.37754,1.741536 -0.008,0.501001 -0.0169,0.594712 -0.059,0.594712 -0.0421,0 -0.0506,-0.124387 -0.0674,-0.822164 -0.0169,-0.730138 -0.0253,-0.844706 -0.0952,-1.023718 -0.0935,-0.255346 -0.32782,-0.508333 -0.60086,-0.652017 -0.19636,-0.102897 -0.62868,-0.283409 -0.6784,-0.283409 -0.0169,0 -0.059,0.08259 -0.10281,0.183714 -0.12472,0.289224 -0.4399,0.587296 -0.82503,0.779016 -0.17613,0.0879 -0.32023,0.163067 -0.32108,0.167028 -1.9e-4,0.004 -0.0253,0.08175 -0.0506,0.173434 l -0.0506,0.166185 0.0994,0.05309 c 0.12472,0.06658 0.12472,0.09599 0.003,0.743874 -0.0935,0.499821 -0.14748,0.641315 -0.19383,0.515833 z m -5.8e-4,-1.461691 c 0.008,-0.06236 0.0851,-0.242453 0.16096,-0.399705 0.12809,-0.260403 0.14411,-0.324534 0.18203,-0.715981 0.0337,-0.370883 0.0506,-0.438554 0.11714,-0.492404 0.0851,-0.07163 0.12135,-0.07753 0.15253,-0.02444 0.008,0.02107 -0.008,0.06826 -0.0506,0.106352 -0.0759,0.07669 -0.0952,0.205878 -0.0253,0.205878 0.1045,0 0.25872,-0.251217 0.25872,-0.419846 0,-0.254841 -0.10113,-0.29605 -0.42305,-0.171158 -0.12894,0.04972 -0.20141,0.06236 -0.22417,0.03792 -0.059,-0.05899 -0.003,-0.10256 0.22586,-0.181861 0.20731,-0.07163 0.27557,-0.14478 0.17191,-0.185737 -0.0253,-0.01011 -0.19382,0.0295 -0.37248,0.08722 -0.18035,0.05815 -0.33541,0.09683 -0.34552,0.08613 -0.0506,-0.05393 0.0421,-0.120847 0.27473,-0.196861 0.28147,-0.0916 0.31433,-0.117392 0.25282,-0.194501 -0.059,-0.07837 -0.15844,-0.0632 -0.47952,0.07585 -0.29411,0.127589 -0.37922,0.133151 -0.30085,0.02023 0.0253,-0.03287 0.0759,-0.138292 0.12051,-0.234446 0.12051,-0.266723 0.22332,-0.369367 0.56042,-0.558054 0.16938,-0.09531 0.32529,-0.203855 0.34467,-0.241272 0.0337,-0.06321 0.0253,-0.06658 -0.0952,-0.04635 -0.1618,0.02697 -0.51238,0.168377 -0.69862,0.281218 -0.10534,0.06405 -0.1913,0.171073 -0.35226,0.439734 -0.38344,0.639882 -0.40029,0.728621 -0.2722,1.532144 0.0674,0.429537 0.0674,0.661961 0.008,1.015316 -0.0169,0.101464 -0.008,0.114021 0.059,0.116633 0.0421,0.0016 0.209,0.03961 0.36574,0.08343 0.37333,0.105088 0.35901,0.106099 0.3826,-0.02528 z m -0.90939,-0.384789 c 0.0506,-0.190372 0.0169,-0.524092 -0.16939,-1.670528 -0.0253,-0.182787 -0.0902,-0.434594 -0.13568,-0.559654 -0.10281,-0.288128 -0.0758,-0.384958 0.11124,-0.384958 0.0969,0 0.14664,0.02613 0.23597,0.124977 0.059,0.0691 0.11377,0.140482 0.11377,0.159528 0,0.06405 0.0674,-0.0082 0.13315,-0.141747 l 0.0674,-0.132392 -0.17444,-0.04129 c -0.0961,-0.02275 -0.2781,-0.09278 -0.40367,-0.156241 -0.12556,-0.06321 -0.23512,-0.107616 -0.24354,-0.09826 -0.008,0.0093 -0.0169,0.183546 -0.0169,0.387233 -5.8e-4,0.900065 -0.15674,1.190595 -0.76604,1.423238 l -0.24355,0.0932 0.0902,0.172759 c 0.22248,0.423807 0.83345,0.827473 1.36201,0.899695 0.008,0.0016 0.0337,-0.03287 0.0421,-0.07585 z m 1.47545,-0.151607 c 0.0944,-0.04972 0.24692,-0.163826 0.34046,-0.25366 0.15675,-0.152365 0.36068,-0.463753 0.36153,-0.551902 8e-5,-0.02107 -0.0759,-0.06995 -0.18035,-0.107616 l -0.1795,-0.0691 -0.11208,0.13787 c -0.059,0.07585 -0.1618,0.159949 -0.22416,0.186832 -0.10197,0.04467 -0.11293,0.06236 -0.11377,0.197114 -5.8e-4,0.141831 -0.0253,0.302454 -0.0759,0.471842 -0.0337,0.09902 -0.0169,0.09843 0.18877,-0.0118 z m -1.43592,-2.110776 c -0.059,-0.123628 -0.22164,-0.260402 -0.25956,-0.221468 -0.0169,0.01517 0.008,0.138038 0.059,0.272116 0.0421,0.134078 0.0851,0.275319 0.0851,0.313831 0.002,0.04635 0.0337,0.01433 0.086,-0.09641 0.0758,-0.155061 0.0758,-0.173348 0.0337,-0.268071 z m 0.96677,0.0354 0.15928,-0.05562 5.8e-4,-0.167366 c 5.8e-4,-0.162309 -0.002,-0.166185 -0.0759,-0.126914 -0.11123,0.05899 -0.2604,0.210513 -0.31433,0.318803 -0.059,0.123628 -0.059,0.146129 0.008,0.113515 0.0337,-0.01517 0.13062,-0.05225 0.21826,-0.08259 z m -3.4331,0.806067 c -0.27472,-0.206552 -0.48709,-0.574739 -0.57221,-0.992942 -0.0674,-0.340546 -0.0253,-0.673844 0.17445,-1.28852 0.21573,-0.664827 0.25197,-0.921251 0.25197,-1.794594 9e-5,-0.814326 0.0421,-1.220874 0.18877,-1.663027 0.34805,-1.081664 1.22946,-1.799161 2.04007,-1.659943 0.18119,0.03118 0.2326,0.02697 0.38007,-0.03202 0.23007,-0.09152 0.72475,-0.06995 0.99526,0.04298 0.44581,0.186243 0.92085,0.626062 1.20249,1.114177 0.41631,0.722048 0.58148,1.434607 0.58401,2.526038 0.002,0.57415 0.0421,0.784241 0.29411,1.539332 0.19214,0.574571 0.19298,0.579121 0.19214,0.979585 -9.7e-4,0.33077 -0.0169,0.436532 -0.0758,0.594712 -0.13484,0.350237 -0.42979,0.693311 -0.51744,0.602128 -0.0253,-0.02697 0.008,-0.09464 0.13652,-0.239756 0.25114,-0.29192 0.32108,-0.502433 0.32108,-0.957126 9e-5,-0.356389 -0.006,-0.38462 -0.19298,-0.944595 -0.25366,-0.76056 -0.29159,-0.964702 -0.29243,-1.549462 -9.7e-4,-1.062365 -0.15,-1.734111 -0.53513,-2.41757 -0.51743,-0.917914 -1.41822,-1.410185 -2.09299,-1.143984 -0.14748,0.05815 -0.1972,0.06152 -0.38513,0.02865 -0.64468,-0.11461 -1.33066,0.329506 -1.74714,1.131099 -0.27051,0.520552 -0.36069,1.024907 -0.36069,2.023251 -1.9e-4,0.884685 -0.0506,1.230742 -0.25197,1.853458 -0.19467,0.593195 -0.23933,0.876562 -0.18793,1.186289 0.059,0.337175 0.18624,0.585442 0.44665,0.860103 0.12556,0.131887 0.22753,0.253913 0.22753,0.271105 0,0.05899 -0.091,0.03118 -0.22416,-0.0691 z m 5.50806,-5.585606 c -0.18708,-0.105425 -0.19635,-0.429032 -0.0169,-0.56016 0.10956,-0.08006 0.30591,-0.06405 0.41547,0.03371 0.0759,0.06995 0.0944,0.112167 0.0944,0.24793 0,0.135764 -0.0169,0.177816 -0.0944,0.24793 -0.10787,0.09641 -0.26293,0.108375 -0.4003,0.03118 z m 0.31434,-0.144359 c 0.0337,-0.03202 0.059,-0.08967 0.059,-0.128431 0,-0.183377 -0.25113,-0.269673 -0.35226,-0.120763 -0.0674,0.102729 -0.0674,0.152871 0.0168,0.237143 0.0851,0.08503 0.19298,0.08992 0.27557,0.0118 z m 0.25197,-0.38521 c -0.008,-0.01264 -0.0253,-0.129611 -0.0253,-0.259559 0,-0.229728 -0.003,-0.238155 -0.11209,-0.307933 -0.20056,-0.128852 -0.49215,-0.480016 -0.60339,-0.727947 -0.1441,-0.320151 -0.16854,-0.729379 -0.059,-1.042721 0.20141,-0.593617 0.77194,-1.060074 1.49812,-1.22551 0.40113,-0.09135 1.02062,-0.05899 1.399,0.07248 1.32578,0.461729 1.72195,1.85495 0.78206,2.749419 -0.24945,0.237649 -0.63289,0.445887 -0.98279,0.534204 -0.25788,0.06489 -0.84273,0.07416 -1.11408,0.0177 -0.1795,-0.03708 -0.1913,-0.03455 -0.41294,0.08748 -0.22248,0.122448 -0.32277,0.150426 -0.36912,0.102559 z m 0.37249,-0.263183 c 0.209,-0.111156 0.21068,-0.111408 0.42979,-0.06573 0.76351,0.157506 1.53561,-0.06068 2.02414,-0.570947 0.46772,-0.489118 0.56547,-1.002414 0.2958,-1.561521 -0.21742,-0.450521 -0.67502,-0.794353 -1.26325,-0.948926 -0.39018,-0.102392 -1.00865,-0.07837 -1.36985,0.05309 -0.51827,0.188771 -0.91722,0.520805 -1.10557,0.920021 -0.0851,0.181271 -0.0961,0.2422 -0.0961,0.536817 -9e-5,0.287791 0.008,0.359254 0.0902,0.533024 0.12641,0.280291 0.24776,0.434679 0.48288,0.613505 0.2149,0.163657 0.24355,0.217508 0.24861,0.454061 0.002,0.08174 0.0168,0.148741 0.0253,0.148741 0.0169,8e-6 0.11967,-0.05056 0.23428,-0.111577 z m 0.64216,-0.897563 c -0.58907,-0.486 -0.81492,-0.950704 -0.64384,-1.324959 0.0758,-0.165174 0.22416,-0.254503 0.42557,-0.254672 0.16517,-1.26e-4 0.41041,0.10138 0.43569,0.180597 0.008,0.02781 0.059,0.0082 0.14158,-0.05815 0.1677,-0.13315 0.45507,-0.160623 0.61266,-0.05815 0.15422,0.100959 0.22838,0.289814 0.20731,0.530833 -0.0169,0.235458 -0.0674,0.340799 -0.27136,0.5846 -0.15506,0.187001 -0.50058,0.516422 -0.6017,0.573138 -0.0421,0.02444 -0.11462,-0.01517 -0.30423,-0.172675 z m 0.67081,-0.343663 c 0.37838,-0.392289 0.48878,-0.779943 0.28231,-0.993878 -0.0759,-0.07753 -0.12978,-0.102223 -0.22754,-0.102138 -0.1441,1.26e-4 -0.32445,0.09868 -0.38007,0.2079 -0.0506,0.09708 -0.12303,0.09042 -0.1913,-0.0177 -0.11629,-0.183125 -0.42557,-0.25265 -0.57305,-0.1286 -0.30675,0.258127 -0.13315,0.717918 0.46772,1.23751 l 0.19803,0.171073 0.10788,-0.07922 c 0.059,-0.04382 0.2014,-0.176383 0.31517,-0.29546 z"
       id="path1-52" /></g></svg>
