<?xml version="1.0" encoding="UTF-8" standalone="no"?>
<!-- Created with Inkscape (http://www.inkscape.org/) -->

<svg
   width="13.330097mm"
   height="14.127973mm"
   viewBox="0 0 13.330097 14.127973"
   version="1.1"
   id="svg1"
   xml:space="preserve"
   inkscape:export-filename="ビットマップ.svg"
   inkscape:export-xdpi="96"
   inkscape:export-ydpi="96"
   xmlns:inkscape="http://www.inkscape.org/namespaces/inkscape"
   xmlns:sodipodi="http://sodipodi.sourceforge.net/DTD/sodipodi-0.dtd"
   xmlns="http://www.w3.org/2000/svg"
   xmlns:svg="http://www.w3.org/2000/svg"><sodipodi:namedview
     id="namedview1"
     pagecolor="#ffffff"
     bordercolor="#111111"
     borderopacity="1"
     inkscape:showpageshadow="0"
     inkscape:pageopacity="0"
     inkscape:pagecheckerboard="1"
     inkscape:deskcolor="#d1d1d1"
     inkscape:document-units="mm"><inkscape:page
       x="0"
       y="1.0288852e-22"
       width="13.330097"
       height="14.127974"
       id="page2"
       margin="0"
       bleed="0" /></sodipodi:namedview><defs
     id="defs1" /><g
     inkscape:label="Layer 1"
     inkscape:groupmode="layer"
     id="layer1"
     transform="translate(-193.36647,-85.300495)"><path
       style="fill:#000000;stroke:#000000;stroke-width:0.233;stroke-linecap:round;stroke-linejoin:round;stroke-dasharray:none;stroke-opacity:1"
       d="m 199.98127,99.266787 c -0.70338,-0.177577 -1.24008,-0.514182 -1.7245,-1.081362 -0.49543,-0.579524 -0.76148,-1.236909 -0.83284,-2.055764 -0.14374,-1.63122 0.76658,-3.138611 2.20769,-3.658625 0.10296,-0.03667 0.19572,-0.07442 0.21203,-0.08461 0.0204,-0.01002 -0.0917,-0.08155 -0.24057,-0.157903 -0.93682,-0.485844 -1.52766,-1.335791 -1.74326,-2.504217 -0.38329,-2.080964 0.81143,-4.070826 2.57559,-4.288108 0.78086,-0.09582 1.55264,0.167485 2.16967,0.740893 0.42509,0.394912 0.80736,1.069443 0.99289,1.751436 0.0815,0.310812 0.0917,0.377684 0.0917,1.033815 0,0.658527 -0.006,0.721933 -0.0917,1.033815 -0.32213,1.171994 -1.04824,2.039139 -1.97751,2.361805 -0.0816,0.02853 -0.11418,0.05403 -0.0816,0.06626 0.0306,0.01119 0.16616,0.06422 0.30786,0.119064 0.54027,0.208772 1.1722,0.746091 1.49657,1.273322 0.19266,0.313868 0.38736,0.777285 0.47401,1.127313 0.0612,0.241596 0.0714,0.396237 0.0714,0.849153 1e-4,0.478095 -0.0102,0.602155 -0.0815,0.906951 -0.29155,1.203205 -1.14457,2.148133 -2.2656,2.510239 -0.32111,0.103671 -1.2358,0.136905 -1.55447,0.05607 z m 1.11562,-0.118355 c 0.0816,-0.01834 0.10398,-0.04181 0.10398,-0.110806 v -0.08767 h -0.55149 -0.55149 v 0.08971 c 0,0.05403 0.0204,0.09582 0.0612,0.106424 0.0917,0.02653 0.82366,0.02853 0.94089,0.0022 z m -1.13407,-0.174315 c -0.0102,-0.177477 -0.0306,-0.171867 0.68707,-0.171867 h 0.68503 v 0.127014 c 0,0.07034 0.0102,0.13558 0.0306,0.145977 0.0102,0.01019 0.17227,-0.03567 0.34965,-0.103262 0.97657,-0.370857 1.72562,-1.292865 1.98567,-2.44548 0.0815,-0.387674 0.0815,-1.123899 -0.0204,-1.524722 -0.19063,-0.790335 -0.59125,-1.431634 -1.18249,-1.898209 -0.23345,-0.183998 -0.72173,-0.453016 -0.88891,-0.490021 -0.0917,-0.02038 -0.10296,-0.01224 -0.11112,0.08359 l -0.0102,0.10561 h -0.80226 -0.80226 l -0.0102,-0.120088 c -0.01,-0.109582 -0.0204,-0.118145 -0.10296,-0.09786 -0.14578,0.03667 -0.59838,0.257298 -0.79921,0.390021 -0.44751,0.294908 -0.98677,0.98891 -1.1938,1.536443 -0.30582,0.805832 -0.30684,1.786667 -0.003,2.56738 0.16617,0.427122 0.30684,0.666479 0.58309,0.992987 0.2732,0.32325 0.5413,0.548124 0.87158,0.732331 0.24364,0.135581 0.67076,0.296542 0.71256,0.2682 0.0102,-0.01019 0.0204,-0.05403 0.0204,-0.09786 z m 0.0917,-0.431608 c -1.17097,-0.317949 -1.96497,-1.422418 -1.96579,-2.734203 -2e-4,-0.452402 0.0816,-0.828969 0.28849,-1.288131 0.27218,-0.611533 0.81347,-1.122431 1.42725,-1.348359 0.96842,-0.356579 2.01258,-0.08359 2.70027,0.707356 0.48523,0.558016 0.70439,1.149453 0.70745,1.914029 0.002,0.505413 -0.0612,0.80746 -0.26402,1.271291 -0.1315,0.297866 -0.1998,0.400113 -0.47503,0.706438 -0.28849,0.321416 -0.35883,0.377276 -0.67382,0.544152 -0.19267,0.102243 -0.45873,0.212235 -0.59227,0.244244 -0.32417,0.0785 -0.82876,0.07136 -1.15313,-0.01734 z m 1.32685,-0.19919 c 0.74008,-0.274524 1.33469,-0.914699 1.57006,-1.692037 0.21611,-0.717039 0.14476,-1.540471 -0.19164,-2.165829 -0.23038,-0.427632 -0.71664,-0.902465 -1.13112,-1.101603 -0.64221,-0.309077 -1.47995,-0.275539 -2.09984,0.08461 -0.61062,0.354235 -1.05772,0.965155 -1.23,1.679005 -0.0815,0.328246 -0.0815,1.003998 0.003,1.329195 0.23548,0.951805 0.96639,1.719195 1.84337,1.935005 0.35679,0.08767 0.89604,0.05811 1.23703,-0.06829 z m -1.06088,-0.280639 c -0.74212,-0.138024 -1.38953,-0.729069 -1.63174,-1.48999 -0.2365,-0.741509 -0.0918,-1.610244 0.36086,-2.219451 0.14067,-0.18767 0.41591,-0.423655 0.64732,-0.553731 0.68808,-0.387878 1.48178,-0.337418 2.12124,0.134867 0.30481,0.225484 0.51276,0.482677 0.67994,0.843442 0.17839,0.385021 0.22121,0.58462 0.22121,1.033803 2e-4,0.453221 -0.0408,0.646805 -0.22937,1.050381 -0.39858,0.858839 -1.30563,1.361182 -2.16875,1.200649 z m 0.85323,-0.207748 c 0.24057,-0.07748 0.57901,-0.27942 0.76352,-0.45455 0.21203,-0.199904 0.44854,-0.595017 0.54843,-0.912661 0.23752,-0.754554 0.0612,-1.583287 -0.45159,-2.153299 -0.63508,-0.70236 -1.59738,-0.836307 -2.37661,-0.330894 -0.26606,0.172682 -0.57799,0.531304 -0.72172,0.830703 -0.45873,0.955372 -0.17024,2.156242 0.66158,2.749182 0.48421,0.345372 1.04946,0.442824 1.5773,0.271466 z m 0.158,-5.338532 c 2e-4,-0.08665 0.0102,-0.175234 0.0204,-0.197661 0.0102,-0.02243 0.10703,-0.07034 0.20795,-0.10673 0.71969,-0.258412 1.31481,-0.847418 1.6719,-1.65603 0.26097,-0.591553 0.31194,-0.848133 0.31296,-1.593369 8.7e-4,-0.534874 -0.0101,-0.671371 -0.0714,-0.923058 -0.29664,-1.190231 -1.09941,-2.102943 -2.11238,-2.402165 -0.29665,-0.08767 -0.90522,-0.08767 -1.22021,6.97e-4 -1.03142,0.288896 -1.82899,1.196541 -2.12727,2.419872 -0.11111,0.456687 -0.11213,1.320539 -10e-4,1.771436 0.2732,1.112563 0.90114,1.945721 1.74011,2.309309 l 0.23853,0.103057 v 0.191136 c 0,0.105101 0.01,0.202148 0.0204,0.215707 0.0102,0.01324 0.31397,0.02448 0.66872,0.02448 h 0.64629 z m -0.85425,-0.692879 c -1.22429,-0.182573 -2.0978,-1.383294 -2.09454,-2.879301 0.001,-0.549553 0.0714,-0.880244 0.27931,-1.362691 0.14781,-0.337113 0.2049,-0.425698 0.473,-0.722544 0.48421,-0.534569 0.95823,-0.763932 1.58179,-0.763932 0.66668,0 1.13407,0.209383 1.61054,0.720506 0.35576,0.381354 0.58003,0.807969 0.71255,1.35528 0.10398,0.42896 0.10296,1.136529 -0.001,1.567181 -0.33232,1.366422 -1.42429,2.255117 -2.56193,2.08548 z m 0.90216,-0.243024 c 0.315,-0.111826 0.59431,-0.311219 0.87158,-0.6204 0.80532,-0.89839 0.96537,-2.366731 0.37616,-3.474279 -0.26708,-0.50205 -0.77881,-0.971785 -1.24621,-1.14395 -0.5678,-0.208873 -1.241,-0.104589 -1.76313,0.272891 -0.45669,0.330283 -0.77678,0.797062 -0.96537,1.408452 -0.0917,0.301128 -0.10907,0.411732 -0.12131,0.810313 -0.0306,0.896657 0.19573,1.553889 0.72683,2.142169 0.26096,0.289303 0.62591,0.534467 0.93682,0.629066 0.35577,0.108463 0.841,0.09888 1.18494,-0.02447 z m -1.63846,-2.160262 c -0.0102,-0.02345 0.11927,-0.201432 0.30887,-0.415402 0.18247,-0.206019 0.48829,-0.553121 0.67993,-0.771373 0.31602,-0.36066 0.46892,-0.475342 0.46791,-0.350772 -2.4e-4,0.06116 -1.34183,1.581503 -1.39341,1.57976 -0.0204,-6.97e-4 -0.051,-0.01936 -0.0612,-0.0418 z m -0.68198,-0.300618 c 8.8e-4,-0.02549 0.44242,-0.543132 0.98168,-1.150536 0.74313,-0.837327 0.99391,-1.098577 1.03692,-1.08034 0.0408,0.01529 0.051,0.0418 0.0306,0.07442 -0.0102,0.02752 -0.45465,0.534773 -0.97862,1.126488 -0.86546,0.97831 -1.07413,1.179487 -1.06985,1.029626 z m -3.72882,9.996493 c -0.17024,-0.06626 -0.37004,-0.301333 -0.41286,-0.484925 -0.0204,-0.07849 -0.0408,-0.317031 -0.051,-0.530289 -0.0102,-0.213254 -0.0713,-1.318101 -0.1366,-2.455293 -0.15392,-2.758085 -0.20897,-3.852105 -0.2365,-4.670613 l -0.0204,-0.683094 -0.16718,-0.47993 c -0.38839,-1.119148 -0.75434,-2.229071 -0.7941,-2.413468 -0.15699,-0.73019 0.32518,-1.356861 1.25711,-1.634737 0.36494,-0.108768 1.17709,-0.118453 1.56721,-0.01834 0.89401,0.228853 1.4298,0.802159 1.37883,1.476832 -0.0204,0.211116 -0.27931,1.048699 -0.85527,2.719225 l -0.13354,0.387675 -0.0204,0.719996 c -0.0306,1.078615 -0.0714,1.969342 -0.21917,4.430624 -0.0714,1.228572 -0.14067,2.391615 -0.15087,2.584537 -0.0306,0.542009 -0.0714,0.688496 -0.23445,0.870965 -0.20796,0.229566 -0.48014,0.293689 -0.76761,0.181145 z m 0.46178,-0.145673 c 0.31193,-0.122836 0.35475,-0.240272 0.40979,-1.124935 0.051,-0.847319 0.2681,-4.616863 0.30174,-5.273669 l 0.0204,-0.452301 h -0.92765 -0.92765 l 0.0204,0.359945 c 0.0204,0.4047 0.14985,2.693893 0.25485,4.642927 0.0408,0.710719 0.0815,1.35522 0.10296,1.432161 0.0408,0.183898 0.18043,0.34904 0.34659,0.413873 0.16718,0.06524 0.23446,0.06524 0.39552,0.0017 z m 0.73804,-7.081656 c 0.008,-0.04587 0.0204,-0.402863 0.0306,-0.793799 l 0.0204,-0.710719 h -0.96842 -0.96843 v 0.622542 c 0,0.342413 0.01,0.699608 0.0204,0.793797 l 0.0204,0.171262 h 0.91439 0.91337 z m 0.1366,-1.846096 c 0.14067,-0.384004 0.85017,-2.536153 0.88585,-2.683434 0.14883,-0.612654 -0.32927,-1.194594 -1.18637,-1.447688 -0.39043,-0.115089 -1.15956,-0.116109 -1.53795,-0.0018 -0.74314,0.224062 -1.22011,0.696855 -1.22011,1.206795 0,0.173806 0.0713,0.406024 0.50867,1.69853 0.22019,0.649862 0.41591,1.227194 0.43426,1.283036 l 0.0306,0.101939 h 1.01327 1.01328 z m -0.16616,-0.691249 c -0.0102,-0.02141 0.10805,-0.471366 0.26708,-0.998799 0.27115,-0.899918 0.33334,-1.043184 0.39756,-0.927034 0.0306,0.04689 -0.55863,1.93668 -0.6045,1.952358 -0.0204,0.0073 -0.051,-0.0046 -0.0612,-0.0265 z M 194.2579,88.23506 c -0.16412,-0.532223 -0.2997,-0.984731 -0.2997,-1.005629 0,-0.06728 0.10806,-0.0632 0.13354,0.0054 0.051,0.142918 0.58615,1.90468 0.58615,1.935334 0,0.01835 -0.0306,0.03262 -0.0612,0.03262 -0.051,0 -0.11519,-0.176966 -0.35883,-0.967708 z m 0.43732,-0.210912 c -0.12334,-0.466269 -0.13864,-0.672798 -0.0408,-0.554039 0.0408,0.04791 0.28645,0.899511 0.28645,0.99197 0,0.02141 -0.0306,0.03874 -0.0612,0.03874 -0.051,0 -0.0815,-0.08971 -0.18859,-0.477075 z m 9.57738,11.042743 c -0.0612,-0.07034 -0.10295,-0.158822 -0.11519,-0.26769 -0.0102,-0.08971 -0.0204,-0.960468 -0.0102,-1.93517 l 0.01,-1.772254 0.0714,-0.01224 c 0.0714,-0.01124 0.0714,-0.02957 0.0714,-0.286144 0,-0.263409 0.003,-0.27432 0.0815,-0.27432 0.0714,0 0.0816,-0.01734 0.10297,-0.282473 0.0102,-0.15535 0.0204,-0.803379 0.0204,-1.439949 v -1.157465 h 0.0816 0.0815 l 0.0102,-0.953946 0.0102,-0.954048 0.10297,-0.157496 c 0.17635,-0.281046 0.77881,-0.741098 0.96842,-0.739976 0.26096,0.0014 0.2681,0.04078 0.28033,1.520218 l 0.0102,1.280783 0.0917,0.01121 0.0917,0.01121 0.009,1.430727 0.009,1.430711 h 0.0816 c 0.0713,0 0.0816,0.01529 0.0816,0.138434 8.7e-4,0.269833 0.0408,0.415405 0.10397,0.415405 0.0612,0 0.0612,0.06932 0.0612,1.903893 0,1.329522 -0.0102,1.928241 -0.0408,1.98455 -0.0918,0.207958 -0.0918,0.208158 -1.17709,0.209077 l -0.99696,8.71e-4 z m 2.09536,-0.123241 0.0714,-0.08054 v -1.821202 -1.821194 h -1.06975 -1.06965 v 1.844 1.844004 l 0.0714,0.05709 c 0.0612,0.04893 0.21509,0.05709 0.99187,0.05709 0.89604,0 0.91949,-0.0017 0.99492,-0.08053 z m -0.0917,-4.073425 v -0.203066 h -0.91847 -0.92052 v 0.203066 0.203062 h 0.92052 0.91847 z m -0.18349,-1.716868 v -1.347646 l -0.72683,-0.0099 -0.72683,-0.01 v 1.367555 1.367542 l 0.72683,-0.0099 0.72683,-0.0099 z m -0.18349,-2.566072 c 0,-0.578709 -0.006,-1.052276 -0.0102,-1.052276 -0.007,0 -0.10908,0.106016 -0.22733,0.235682 -0.16718,0.18502 -0.25383,0.249649 -0.40062,0.300823 -0.1947,0.0683 -0.2946,0.05709 -0.2946,-0.03262 0,-0.0316 0.051,-0.0632 0.12334,-0.07849 0.19063,-0.03976 0.34965,-0.144244 0.50766,-0.332933 0.23548,-0.281658 0.33946,-0.646498 0.18451,-0.646498 -0.16208,0 -0.736,0.440071 -0.87362,0.670148 l -0.0917,0.155049 -0.0102,0.916534 -0.0102,0.916535 h 0.55455 0.55455 z"
       id="path1-3" /></g></svg>
