<?xml version="1.0" encoding="UTF-8" standalone="no"?>
<!-- Created with Inkscape (http://www.inkscape.org/) -->

<svg
   width="12.901925mm"
   height="13.128713mm"
   viewBox="0 0 12.901925 13.128713"
   version="1.1"
   id="svg1"
   xml:space="preserve"
   inkscape:export-filename="ビットマップ.svg"
   inkscape:export-xdpi="96"
   inkscape:export-ydpi="96"
   xmlns:inkscape="http://www.inkscape.org/namespaces/inkscape"
   xmlns:sodipodi="http://sodipodi.sourceforge.net/DTD/sodipodi-0.dtd"
   xmlns="http://www.w3.org/2000/svg"
   xmlns:svg="http://www.w3.org/2000/svg"><sodipodi:namedview
     id="namedview1"
     pagecolor="#ffffff"
     bordercolor="#111111"
     borderopacity="1"
     inkscape:showpageshadow="0"
     inkscape:pageopacity="0"
     inkscape:pagecheckerboard="1"
     inkscape:deskcolor="#d1d1d1"
     inkscape:document-units="mm"><inkscape:page
       x="0"
       y="0"
       width="12.901925"
       height="13.128713"
       id="page2"
       margin="0"
       bleed="0" /></sodipodi:namedview><defs
     id="defs1" /><g
     inkscape:label="Layer 1"
     inkscape:groupmode="layer"
     id="layer1"
     transform="translate(-152.06164,-92.418446)"><path
       style="fill:#000000;stroke:#000000;stroke-width:0.259;stroke-linecap:round;stroke-linejoin:round;stroke-dasharray:none;stroke-opacity:1"
       d="m 152.41146,105.37154 c -0.23148,-0.10386 -0.22021,0.17516 -0.22021,-5.01803 0,-4.710467 5.8e-4,-4.772037 0.0751,-4.861523 0.0501,-0.05005 0.13638,-0.09008 0.20394,-0.09008 h 0.12637 l 0.0119,-1.310614 0.012,-1.310628 0.10009,-0.116359 c 0.0501,-0.06381 0.13764,-0.116362 0.18393,-0.116362 0.0501,0 0.45418,0.121368 0.9071,0.269381 0.45168,0.148136 0.8971,0.290777 0.98969,0.317049 0.29278,0.08383 0.29403,0.08508 0.32656,1.237673 l 0.025,1.030971 h 0.11262 c 0.0625,0 0.15389,0.04129 0.20018,0.09008 0.0751,0.09008 0.0751,0.151019 0.0751,4.875102 v 4.78445 l -0.11261,0.1325 -0.1126,0.13251 -1.40846,-0.003 c -0.77448,-0.001 -1.44825,-0.02 -1.49642,-0.0425 z m 2.89861,-0.22697 c 0.0501,-0.0563 0.0751,-0.15102 0.0751,-0.24923 v -0.15866 h -1.5182 -1.51818 v 0.15866 c 0,0.0976 0.025,0.19318 0.0751,0.24923 0.0751,0.0876 0.13638,0.09 1.43598,0.09 1.29962,0 1.35754,-0.004 1.43624,-0.09 z m 0.0751,-5.0642 -0.0105,-4.475085 -1.45175,-0.01192 c -1.03848,-0.0085 -1.46776,0.0026 -1.50793,0.04003 -0.0501,0.04254 -0.0501,0.789746 -0.0501,4.486995 v 4.43555 h 1.51845 1.51856 z m -2.67066,-0.540014 c -0.0125,-0.01627 -0.025,-0.140507 -0.025,-0.27526 0,-0.208824 0.0105,-0.242855 0.0751,-0.22997 0.0501,0.01005 0.0751,0.06632 0.0876,0.168162 0.025,0.262126 -0.0375,0.432783 -0.12886,0.337068 z m 0,-0.906358 c -0.0375,-0.03879 -0.0375,-2.211151 -2.9e-4,-2.250366 0.0125,-0.01629 0.0501,-0.0071 0.0751,0.02127 0.0375,0.04003 0.0501,0.269004 0.0501,1.053247 -5.9e-4,1.127689 -0.025,1.303706 -0.13638,1.176484 z m 2.22936,-4.251006 v -1.01834 l -0.23523,-0.07257 c -0.12887,-0.04003 -0.58054,-0.186175 -1.00219,-0.324557 -0.42165,-0.138254 -0.79199,-0.240349 -0.82453,-0.226838 -0.0751,0.03127 -0.11261,0.667754 -0.11261,1.829904 v 0.83129 h 1.08729 1.08727 z m 4.83882,9.311578 c -0.70191,-0.0901 -1.21489,-0.28664 -1.72399,-0.66162 -0.16642,-0.12262 -0.59932,-0.53888 -0.96092,-0.92587 -0.36159,-0.387 -0.72819,-0.75072 -0.81201,-0.80814 -0.20145,-0.13751 -0.19519,-0.23723 0.025,-0.35422 0.26024,-0.14038 0.60682,-0.44529 1.19988,-1.057622 0.86082,-0.887841 1.22867,-1.141329 1.6582,-1.141329 0.28027,0 0.46168,0.07882 0.83704,0.361964 0.24023,0.181297 0.31279,0.213581 0.47921,0.213581 0.16765,0 0.23897,-0.03252 0.47919,-0.213581 0.38036,-0.287021 0.53802,-0.352832 0.8433,-0.352832 0.4667,6.3e-5 0.76072,0.205195 1.77531,1.239549 0.31655,0.32256 0.72819,0.69691 0.91336,0.83191 0.18643,0.135 0.33782,0.26213 0.33782,0.28252 0,0.02 -0.0625,0.0951 -0.15389,0.16603 -0.0876,0.0713 -0.4229,0.42603 -0.7507,0.78913 -1.12983,1.24992 -1.81986,1.60391 -3.21957,1.65007 -0.3378,0.0112 -0.75571,0.002 -0.92712,-0.02 z m 1.7892,-0.25061 c 0.8558,-0.19381 1.57912,-0.70642 2.40153,-1.70132 l 0.33406,-0.40438 -0.30278,0.0287 c -0.33783,0.0313 -0.86457,-0.0338 -1.38883,-0.17216 -0.5405,-0.14263 -0.8045,-0.12737 -1.335,0.0776 -0.38787,0.14952 -0.49797,0.17316 -0.79951,0.17179 -0.29402,-0.002 -0.41664,-0.0275 -0.77698,-0.16679 -0.50673,-0.19556 -0.82328,-0.2137 -1.3384,-0.0776 -0.51798,0.13701 -1.03222,0.19831 -1.40219,0.16691 l -0.33657,-0.0288 0.55052,0.5933 c 0.30278,0.32631 0.65687,0.68552 0.78824,0.79813 0.50172,0.43016 1.1636,0.71093 1.8535,0.78512 0.49296,0.0526 1.36054,0.0187 1.75079,-0.0701 z m -1.94784,-0.3417 c -0.65187,-0.0951 -1.36342,-0.47295 -1.2099,-0.64198 0.0125,-0.0138 0.17517,0.0601 0.3591,0.16428 0.35533,0.2007 0.61057,0.27864 1.06476,0.32769 0.2252,0.0237 0.27651,0.0438 0.26649,0.1026 -0.0125,0.0876 -0.12762,0.0988 -0.4817,0.0476 z m 1.6388,-2.0269 c 0.54177,-0.20782 0.80951,-0.21445 1.49767,-0.0375 0.34157,0.0876 0.61808,0.12888 0.9021,0.13388 0.41414,0.007 0.80201,-0.0401 0.7995,-0.0976 -5.8e-4,-0.0175 -0.0876,-0.0976 -0.19893,-0.1793 -0.1126,-0.0813 -0.47045,-0.4249 -0.80452,-0.76322 -1.00844,-1.022219 -1.24867,-1.194631 -1.65318,-1.195507 -0.26149,-2.87e-4 -0.40038,0.0588 -0.75948,0.330939 -0.44542,0.337317 -0.67438,0.337823 -1.1273,0.0023 -0.4079,-0.302664 -0.48923,-0.341073 -0.73445,-0.343453 -0.4154,-0.0042 -0.6356,0.159901 -1.80045,1.339931 -0.26651,0.27051 -0.58556,0.56554 -0.70942,0.65549 l -0.22271,0.16366 0.11259,0.0388 c 0.0625,0.0213 0.33908,0.0413 0.61058,0.045 0.40038,0.005 0.59682,-0.0175 1.04725,-0.12387 0.69941,-0.1639 0.98843,-0.16352 1.39495,0.002 0.70065,0.2854 0.9584,0.28965 1.64142,0.0275 z m -3.14385,-1.01509 c -0.0375,-0.07132 0.3666,-0.479449 0.64186,-0.644732 0.3128,-0.187676 0.75446,-0.166157 0.6844,0.03376 -0.0125,0.0488 -0.0751,0.06005 -0.20771,0.04254 -0.23522,-0.02877 -0.45668,0.08383 -0.77322,0.395126 -0.24023,0.236466 -0.29529,0.263876 -0.34533,0.173286 z"
       id="path1-0"
       inkscape:export-filename="icon_lips_24.svg"
       inkscape:export-xdpi="96"
       inkscape:export-ydpi="96" /></g></svg>
