<?xml version="1.0" encoding="UTF-8" standalone="no"?>
<!-- Created with Inkscape (http://www.inkscape.org/) -->

<svg
   width="11.377148mm"
   height="14.530553mm"
   viewBox="0 0 11.377148 14.530553"
   version="1.1"
   id="svg1"
   xml:space="preserve"
   inkscape:export-filename="ビットマップ.svg"
   inkscape:export-xdpi="96"
   inkscape:export-ydpi="96"
   xmlns:inkscape="http://www.inkscape.org/namespaces/inkscape"
   xmlns:sodipodi="http://sodipodi.sourceforge.net/DTD/sodipodi-0.dtd"
   xmlns="http://www.w3.org/2000/svg"
   xmlns:svg="http://www.w3.org/2000/svg"><sodipodi:namedview
     id="namedview1"
     pagecolor="#ffffff"
     bordercolor="#111111"
     borderopacity="1"
     inkscape:showpageshadow="0"
     inkscape:pageopacity="0"
     inkscape:pagecheckerboard="1"
     inkscape:deskcolor="#d1d1d1"
     inkscape:document-units="mm"><inkscape:page
       x="0"
       y="0"
       width="11.377148"
       height="14.530553"
       id="page2"
       margin="0"
       bleed="0" /></sodipodi:namedview><defs
     id="defs1" /><g
     inkscape:label="Layer 1"
     inkscape:groupmode="layer"
     id="layer1"
     transform="translate(-149.22136,-40.712242)"><path
       style="fill:#000000;stroke:#000000;stroke-width:0.214932;stroke-linecap:round;stroke-linejoin:round;stroke-dasharray:none;stroke-opacity:1"
       d="m 153.76047,55.089673 c -0.0185,-0.03793 0.0184,-0.313134 0.0741,-0.611281 0.0556,-0.298055 0.098,-0.562159 0.098,-0.586951 -1.1e-4,-0.02498 -0.0741,-0.07216 -0.17578,-0.10472 -0.29047,-0.0987 -0.94402,-0.253559 -1.07103,-0.253559 -0.13506,-5.5e-5 -0.0999,-0.08788 -0.3432,0.87659 -0.13876,0.549024 -0.18963,0.6703 -0.25531,0.599902 -0.037,-0.03608 0.29047,-1.433541 0.35892,-1.553401 0.0185,-0.03146 0.0833,-0.06661 0.13875,-0.07679 0.14616,-0.02683 0.1212,-0.09066 -0.0463,-0.121368 -0.58647,-0.105918 -1.20007,-0.546527 -1.45493,-1.045607 -0.0463,-0.09741 -0.10911,-0.17715 -0.13228,-0.17715 -0.16374,0 -0.90194,0.363457 -1.07206,0.527933 -0.35615,0.343198 -0.42091,0.609246 -0.42091,1.710283 0,0.778995 -0.004,0.838662 -0.0648,0.826544 -0.0556,-0.01203 -0.0648,-0.08788 -0.0648,-0.953295 0.002,-0.887782 0.007,-0.95264 0.0832,-1.162378 0.11563,-0.304902 0.41627,-0.634687 0.71877,-0.788986 0.13043,-0.06661 0.47456,-0.206289 0.76596,-0.311099 0.6679,-0.240147 0.84087,-0.332838 0.98324,-0.528025 0.14616,-0.198334 0.19427,-0.455965 0.20814,-1.111787 l 0.009,-0.504251 -0.19242,-0.158464 c -0.21183,-0.174003 -0.52081,-0.601936 -0.62627,-0.869743 -0.0463,-0.112488 -0.0935,-0.171229 -0.13413,-0.171323 -0.19241,-3.81e-4 -0.52821,-0.291949 -0.6309,-0.548838 -0.21646,-0.537923 0.037,-1.016949 0.43664,-0.827653 0.0556,0.02405 0.0942,0.07679 0.0942,0.115169 0,0.08326 -0.009,0.0851 -0.17114,0.02498 -0.10359,-0.03884 -0.13228,-0.03607 -0.19425,0.02313 -0.28863,0.270765 0.0832,1.059316 0.506,1.059316 0.10453,0 0.12395,0.02313 0.26087,0.316834 0.0832,0.174282 0.22664,0.407767 0.32099,0.51896 0.30435,0.357073 0.80296,0.67733 1.24541,0.798422 0.18409,0.05088 0.18687,0.04996 0.36726,-0.07862 0.099,-0.07124 0.31823,-0.18307 0.48565,-0.248566 0.16744,-0.06567 0.34043,-0.134872 0.38576,-0.154207 0.11748,-0.05088 0.3765,-0.40453 0.49398,-0.672705 0.11378,-0.25948 0.16836,-0.514612 0.20536,-0.952389 0.0185,-0.248564 0.037,-0.297316 0.0832,-0.286584 0.0463,0.01017 0.0556,0.05273 0.0463,0.193892 -0.005,0.09954 0.007,0.180943 0.0278,0.180943 0.0648,0 0.22293,-0.258925 0.26457,-0.448008 0.0555,-0.242827 0.0185,-0.454576 -0.099,-0.575481 -0.0741,-0.07679 -0.10265,-0.08603 -0.16467,-0.0518 -0.10359,0.05735 -0.14801,0.01757 -0.14801,-0.134503 0,-0.233486 -0.0556,-0.303606 -0.37556,-0.497777 -0.44034,-0.264752 -0.67623,-0.463179 -1.08095,-0.909243 -0.19612,-0.215447 -0.36169,-0.384549 -0.36911,-0.37576 -0.008,0.0088 -0.037,0.102401 -0.0556,0.207953 -0.10912,0.467435 -0.50416,1.111342 -0.86308,1.40531 -0.23959,0.196852 -0.55782,0.364566 -0.83162,0.438478 -0.28492,0.07679 -0.38946,0.07494 -0.37466,-0.0072 0.009,-0.04532 0.0934,-0.0851 0.28307,-0.133394 0.33209,-0.0851 0.65864,-0.261793 0.90008,-0.487046 0.3802,-0.354668 0.69195,-0.934765 0.78538,-1.460107 0.0278,-0.174746 0.0648,-0.258741 0.10265,-0.266604 0.037,-0.0069 0.1332,0.08603 0.24235,0.230341 0.43571,0.570947 0.85198,0.946736 1.36447,1.232802 0.28677,0.160036 0.358,0.241811 0.40056,0.455686 0.0185,0.07493 0.0462,0.109254 0.13042,0.127751 0.43386,0.09889 0.43202,1.043267 -0.002,1.358093 -0.12212,0.08788 -0.14709,0.134227 -0.19519,0.353374 -0.0741,0.325529 -0.20166,0.624324 -0.36725,0.848282 -0.11562,0.157168 -0.12951,0.197686 -0.11102,0.337556 0.0185,0.131914 0.005,0.175577 -0.0648,0.257073 -0.0462,0.05367 -0.13414,0.122851 -0.18965,0.153099 -0.0934,0.05088 -0.10179,0.07309 -0.10179,0.2827 0,0.245697 0.0833,0.427286 0.27567,0.582141 0.0556,0.04256 0.0943,0.108233 0.0943,0.146345 0,0.03793 0.0278,0.09158 0.0556,0.118871 0.0832,0.07031 0.13781,0.188712 0.16279,0.343568 l 0.0185,0.134041 0.57724,0.216558 c 0.69011,0.258647 0.98501,0.415538 1.19862,0.63746 0.34411,0.357628 0.432,0.764564 0.41441,1.911688 -0.009,0.54995 -0.0185,0.652817 -0.0648,0.652817 -0.0462,0 -0.0556,-0.13654 -0.0741,-0.902492 -0.0185,-0.801474 -0.0278,-0.927236 -0.10453,-1.123737 -0.10264,-0.280294 -0.35983,-0.557998 -0.65955,-0.715721 -0.21556,-0.112951 -0.69011,-0.311099 -0.74469,-0.311099 -0.0185,0 -0.0648,0.09066 -0.11285,0.201664 -0.13692,0.317481 -0.48288,0.644677 -0.90564,0.855127 -0.19334,0.09649 -0.35153,0.178999 -0.35245,0.183347 -2.1e-4,0.0044 -0.0278,0.08974 -0.0556,0.190379 l -0.0556,0.182422 0.10912,0.05827 c 0.1369,0.07309 0.1369,0.105368 0.003,0.816552 -0.10264,0.548655 -0.16189,0.703973 -0.21277,0.56623 z m -6.3e-4,-1.604501 c 0.009,-0.06846 0.0934,-0.266141 0.17668,-0.438758 0.14061,-0.285844 0.1582,-0.356241 0.19982,-0.785932 0.037,-0.40712 0.0556,-0.481403 0.12858,-0.540515 0.0935,-0.07862 0.13321,-0.0851 0.16744,-0.02683 0.009,0.02313 -0.009,0.07494 -0.0556,0.116744 -0.0833,0.08417 -0.10453,0.225993 -0.0278,0.225993 0.11471,0 0.284,-0.275761 0.284,-0.460867 0,-0.279739 -0.111,-0.324974 -0.46439,-0.18788 -0.14153,0.05458 -0.22109,0.06846 -0.24606,0.04162 -0.0648,-0.06475 -0.003,-0.112581 0.24793,-0.19963 0.22755,-0.07862 0.30249,-0.158925 0.1887,-0.203883 -0.0278,-0.0111 -0.21276,0.03238 -0.40888,0.09575 -0.19796,0.06383 -0.36818,0.10629 -0.37927,0.09455 -0.0556,-0.0592 0.0463,-0.132653 0.30157,-0.216095 0.30897,-0.100546 0.34504,-0.128861 0.27752,-0.213502 -0.0648,-0.08603 -0.17392,-0.06937 -0.52637,0.08326 -0.32284,0.140055 -0.41627,0.146161 -0.33025,0.02221 0.0278,-0.03607 0.0833,-0.151803 0.13229,-0.257352 0.13228,-0.292783 0.24514,-0.405455 0.61518,-0.612578 0.18593,-0.104624 0.35706,-0.223771 0.37834,-0.264844 0.037,-0.06938 0.0278,-0.07309 -0.10453,-0.05088 -0.17761,0.02961 -0.56244,0.184827 -0.76688,0.308693 -0.11563,0.07031 -0.20999,0.187787 -0.38668,0.482697 -0.4209,0.7024 -0.43939,0.799808 -0.29878,1.681838 0.074,0.471503 0.074,0.726636 0.009,1.114515 -0.0185,0.111377 -0.009,0.125161 0.0648,0.128028 0.0462,0.0018 0.22942,0.04348 0.40147,0.09158 0.4098,0.115356 0.39409,0.116466 0.41999,-0.02775 z m -0.99824,-0.422384 c 0.0556,-0.208971 0.0185,-0.575297 -0.18594,-1.833742 -0.0278,-0.200646 -0.099,-0.477056 -0.14893,-0.614333 -0.11286,-0.316279 -0.0832,-0.42257 0.1221,-0.42257 0.10637,0 0.16096,0.02869 0.25903,0.137188 0.0648,0.07585 0.12488,0.154207 0.12488,0.175114 0,0.07031 0.074,-0.009 0.14617,-0.155596 l 0.074,-0.145327 -0.19147,-0.04532 c -0.1055,-0.02498 -0.30528,-0.101847 -0.44311,-0.171506 -0.13783,-0.06938 -0.2581,-0.118131 -0.26734,-0.107861 -0.009,0.01017 -0.0185,0.201479 -0.0185,0.425067 -6.4e-4,0.988003 -0.17205,1.306919 -0.84087,1.562291 l -0.26735,0.102308 0.099,0.189638 c 0.24421,0.465214 0.91487,0.908319 1.49508,0.987597 0.009,0.0018 0.037,-0.03607 0.0462,-0.08326 z m 1.6196,-0.166419 c 0.10359,-0.05458 0.27105,-0.179833 0.37372,-0.278444 0.17208,-0.167251 0.39593,-0.509062 0.39686,-0.605824 9e-5,-0.02312 -0.0833,-0.07679 -0.19798,-0.11813 l -0.19702,-0.07585 -0.12303,0.151339 c -0.0648,0.08326 -0.17761,0.175577 -0.24607,0.205086 -0.11192,0.04904 -0.12396,0.06846 -0.12489,0.216374 -6.3e-4,0.155687 -0.0278,0.332004 -0.0833,0.517942 -0.037,0.108694 -0.0185,0.108046 0.20721,-0.01295 z m -1.5762,-2.317004 c -0.0648,-0.135707 -0.24331,-0.285844 -0.28493,-0.243106 -0.0185,0.01665 0.009,0.151526 0.0648,0.298703 0.0463,0.147177 0.0935,0.302218 0.0935,0.344493 0.002,0.05088 0.037,0.01573 0.0943,-0.10583 0.0832,-0.170212 0.0832,-0.190285 0.037,-0.294261 z m 1.06121,0.03885 0.17485,-0.06105 6.3e-4,-0.183718 c 6.4e-4,-0.178168 -0.002,-0.182422 -0.0833,-0.139314 -0.12209,0.06475 -0.28585,0.23108 -0.34504,0.349951 -0.0648,0.135707 -0.0648,0.160406 0.009,0.124605 0.037,-0.01665 0.14339,-0.05735 0.2396,-0.09066 z m -3.76851,0.884821 c -0.30157,-0.226732 -0.53468,-0.630892 -0.62812,-1.089954 -0.0741,-0.373818 -0.0278,-0.73968 0.19149,-1.414411 0.23682,-0.729783 0.27659,-1.01126 0.27659,-1.969931 9e-5,-0.893888 0.0463,-1.340156 0.20722,-1.825508 0.38205,-1.187345 1.34958,-1.974943 2.23938,-1.822123 0.19889,0.03423 0.25533,0.02961 0.4172,-0.03515 0.25256,-0.100462 0.79557,-0.07679 1.09251,0.04718 0.48936,0.204439 1.01082,0.687229 1.31997,1.223035 0.45698,0.792593 0.6383,1.574772 0.64107,2.772837 0.002,0.630246 0.0463,0.860864 0.32285,1.689729 0.21091,0.630708 0.21183,0.635701 0.21091,1.075292 -9.6e-4,0.363087 -0.0185,0.479183 -0.0832,0.652817 -0.14801,0.384456 -0.47178,0.761049 -0.568,0.660958 -0.0278,-0.0296 0.009,-0.103892 0.14986,-0.263182 0.27567,-0.320441 0.35245,-0.551521 0.35245,-1.05064 1e-4,-0.391208 -0.007,-0.422196 -0.21184,-1.036883 -0.27843,-0.834869 -0.32006,-1.058955 -0.32099,-1.700848 -9.5e-4,-1.16616 -0.16466,-1.903538 -0.58741,-2.653772 -0.56799,-1.007595 -1.55679,-1.547963 -2.29748,-1.255753 -0.16189,0.06383 -0.21646,0.06753 -0.42276,0.03146 -0.70768,-0.125808 -1.46067,0.361698 -1.91785,1.241609 -0.29693,0.571411 -0.39592,1.125043 -0.39592,2.220927 -2.1e-4,0.971121 -0.0556,1.350988 -0.2766,2.034546 -0.21368,0.651152 -0.2627,0.962203 -0.20628,1.302192 0.0648,0.370118 0.20444,0.64264 0.49029,0.944138 0.13783,0.144772 0.24976,0.278719 0.24976,0.297591 0,0.06475 -0.0999,0.03422 -0.24606,-0.07585 z m 6.0462,-6.131332 c -0.20536,-0.115726 -0.21553,-0.47095 -0.0185,-0.614888 0.12026,-0.08788 0.33579,-0.07031 0.45606,0.037 0.0833,0.07679 0.10359,0.123126 0.10359,0.272154 0,0.149028 -0.0185,0.195189 -0.10359,0.272154 -0.11842,0.105828 -0.28863,0.118963 -0.43942,0.03422 z m 0.34506,-0.158463 c 0.037,-0.03515 0.0648,-0.09843 0.0648,-0.14098 0,-0.201292 -0.27567,-0.29602 -0.38667,-0.132562 -0.0741,0.112767 -0.0741,0.167807 0.0184,0.260313 0.0935,0.09333 0.21184,0.0987 0.3025,0.01295 z m 0.27659,-0.422846 c -0.009,-0.01387 -0.0278,-0.142274 -0.0278,-0.284918 0,-0.252173 -0.003,-0.261424 -0.12305,-0.33802 -0.22015,-0.141441 -0.54024,-0.526915 -0.66234,-0.799068 -0.15818,-0.351432 -0.185,-0.800642 -0.0648,-1.144598 0.22108,-0.651615 0.84736,-1.163646 1.64448,-1.345244 0.44032,-0.100274 1.12033,-0.06475 1.53568,0.07957 1.45532,0.506841 1.8902,2.036182 0.85848,3.018043 -0.27383,0.260868 -0.69472,0.489451 -1.07882,0.586397 -0.28306,0.07123 -0.92507,0.0814 -1.22291,0.01943 -0.19705,-0.0407 -0.21,-0.03793 -0.45329,0.09603 -0.24421,0.134411 -0.3543,0.165122 -0.40519,0.112579 z m 0.40888,-0.288897 c 0.22942,-0.122016 0.23126,-0.122293 0.47178,-0.07215 0.83811,0.172894 1.68564,-0.06661 2.2219,-0.626731 0.51342,-0.536906 0.62071,-1.100352 0.3247,-1.714084 -0.23866,-0.494539 -0.74097,-0.871965 -1.38667,-1.04164 -0.4283,-0.112395 -1.1072,-0.08603 -1.50369,0.05827 -0.5689,0.207215 -1.00682,0.57169 -1.21358,1.009911 -0.0934,0.198981 -0.1055,0.265862 -0.1055,0.589265 -9e-5,0.315908 0.009,0.394353 0.099,0.5851 0.13876,0.307677 0.27197,0.477149 0.53006,0.673446 0.23589,0.179647 0.26734,0.23876 0.27289,0.498425 0.002,0.08973 0.0185,0.163273 0.0278,0.163273 0.0185,8e-6 0.13136,-0.0555 0.25717,-0.122478 z m 0.70489,-0.985257 c -0.64661,-0.533482 -0.89453,-1.04359 -0.70674,-1.45441 0.0832,-0.181312 0.24606,-0.279369 0.46716,-0.279553 0.18131,-1.39e-4 0.45051,0.111284 0.47825,0.19824 0.009,0.03053 0.0648,0.009 0.15541,-0.06383 0.18409,-0.14616 0.49954,-0.176317 0.67252,-0.06383 0.16929,0.110823 0.25069,0.318129 0.22757,0.582697 -0.0185,0.258463 -0.0741,0.374095 -0.29787,0.641717 -0.17021,0.205271 -0.54949,0.566877 -0.66049,0.629134 -0.0462,0.02683 -0.12582,-0.01665 -0.33395,-0.189545 z m 0.73636,-0.377239 c 0.41535,-0.430617 0.53653,-0.856145 0.30989,-1.090982 -0.0833,-0.0851 -0.14246,-0.112211 -0.24978,-0.112118 -0.15817,1.39e-4 -0.35614,0.108321 -0.41719,0.228213 -0.0556,0.106566 -0.13505,0.09926 -0.21,-0.01943 -0.12765,-0.201017 -0.46714,-0.277335 -0.62903,-0.141165 -0.33672,0.283347 -0.14617,0.78806 0.51342,1.358417 l 0.21737,0.187788 0.11842,-0.08696 c 0.0648,-0.0481 0.22108,-0.193615 0.34596,-0.324327 z"
       id="path1-52"
       inkscape:export-filename="icon_thanks_24.svg"
       inkscape:export-xdpi="96"
       inkscape:export-ydpi="96" /></g></svg>
