<?xml version="1.0" encoding="UTF-8" standalone="no"?>
<!-- Created with Inkscape (http://www.inkscape.org/) -->

<svg
   width="15.468791mm"
   height="10.292235mm"
   viewBox="0 0 15.468791 10.292235"
   version="1.1"
   id="svg1"
   xml:space="preserve"
   inkscape:export-filename="ビットマップ.svg"
   inkscape:export-xdpi="96"
   inkscape:export-ydpi="96"
   xmlns:inkscape="http://www.inkscape.org/namespaces/inkscape"
   xmlns:sodipodi="http://sodipodi.sourceforge.net/DTD/sodipodi-0.dtd"
   xmlns="http://www.w3.org/2000/svg"
   xmlns:svg="http://www.w3.org/2000/svg"><sodipodi:namedview
     id="namedview1"
     pagecolor="#ffffff"
     bordercolor="#111111"
     borderopacity="1"
     inkscape:showpageshadow="0"
     inkscape:pageopacity="0"
     inkscape:pagecheckerboard="1"
     inkscape:deskcolor="#d1d1d1"
     inkscape:document-units="mm"><inkscape:page
       x="0"
       y="7.4714766e-22"
       width="15.468791"
       height="10.292234"
       id="page2"
       margin="0"
       bleed="0" /></sodipodi:namedview><defs
     id="defs1" /><g
     inkscape:label="Layer 1"
     inkscape:groupmode="layer"
     id="layer1"
     transform="translate(-164.09951,104.39524)"><path
       style="fill:#000000;stroke:#000000;stroke-width:0.121;stroke-linecap:round;stroke-linejoin:round;stroke-dasharray:none;stroke-opacity:1"
       d="m 173.45704,-94.186165 c -0.11263,-0.0169 -0.34772,-0.06698 -0.52024,-0.111478 -0.1734,-0.04382 -0.46303,-0.117614 -0.6427,-0.163402 -0.61677,-0.156876 -1.18521,-0.153386 -2.5601,0.01612 -2.41082,0.296593 -3.72429,0.334674 -4.41877,0.128132 -0.56403,-0.167771 -0.97003,-0.627408 -1.11126,-1.258534 -0.0627,-0.265401 -0.0536,-0.960113 0.0179,-1.278858 0.20023,-0.956982 0.67846,-1.865537 1.50298,-2.857425 0.71959,-0.86565 1.85491,-1.67354 2.83864,-2.02093 0.47287,-0.16697 0.78304,-0.22543 1.2947,-0.24387 0.5417,-0.0196 0.81793,0.005 1.45749,0.1391 0.37455,0.0778 1.01503,0.10886 1.09134,0.0536 0.0179,-0.0134 0.0536,-0.11126 0.0805,-0.21805 0.12071,-0.46205 0.41209,-0.89673 0.71868,-1.06824 0.15732,-0.0884 0.45858,-0.177 0.6034,-0.17779 l 0.0902,-4.2e-4 -0.009,-0.19542 c -0.0448,-0.68587 0.62659,-1.1129 1.21326,-0.77151 0.43979,0.25584 0.57655,0.92758 0.26101,1.29064 l -0.0715,0.0815 0.17521,0.19201 c 0.33519,0.36791 0.48537,0.85723 0.45588,1.49156 -0.0268,0.55529 -0.14214,0.93607 -0.37456,1.227555 -0.0627,0.08309 -0.16804,0.178166 -0.22705,0.211154 -0.0536,0.03304 -0.17518,0.111371 -0.25921,0.17422 -0.1636,0.122179 -0.43801,0.247771 -0.54348,0.250096 -0.1493,0.0023 -0.29321,0.09471 -0.45053,0.286936 -0.0957,0.117088 -0.18504,0.19728 -0.2208,0.19728 -0.0356,0 -0.0965,-0.04462 -0.14301,-0.0991 -0.0804,-0.0955 -0.0939,-0.09937 -0.36469,-0.108279 l -0.28157,-0.0099 0.0803,0.09935 c 0.47735,0.579686 0.84741,0.949726 1.05962,1.059383 0.68919,0.355772 0.97192,0.531056 1.61767,1.002214 1.27747,0.932355 1.44909,1.025606 1.79117,0.97326 0.23779,-0.03663 0.35757,-0.127466 0.63466,-0.484399 0.32092,-0.412355 0.4264,-0.65129 0.52293,-1.189791 0.0627,-0.337352 0.13767,-0.478499 0.26727,-0.492523 0.0536,-0.0054 0.12158,0.0065 0.15554,0.02678 0.0902,0.05367 0.20024,0.341109 0.26726,0.704206 0.0902,0.46321 0.0627,0.847312 -0.0805,1.334681 -0.0625,0.204785 -0.1153,0.453644 -0.1252,0.553046 -0.0179,0.16456 -0.009,0.18843 0.0625,0.267546 0.0715,0.07872 0.0715,0.101888 0.0536,0.240188 -0.009,0.08405 -0.0356,0.181104 -0.0447,0.21516 -0.0536,0.114817 -0.20292,0.273075 -0.38438,0.408772 -0.17787,0.133366 -0.18235,0.134712 -0.38527,0.117479 -0.11354,-0.0093 -0.31734,-0.05541 -0.45498,-0.102289 -0.46304,-0.157594 -0.93312,-0.148469 -2.69694,0.05274 -0.65344,0.07418 -1.64682,0.104023 -1.94931,0.05807 z m 2.16519,-0.242598 c 0.63108,-0.06353 1.15679,-0.125869 1.16839,-0.138281 0.009,-0.01197 0.0268,-0.127601 0.0448,-0.25592 l 0.0179,-0.233316 -0.202,-0.101238 c -0.37634,-0.188243 -1.37374,-0.602473 -1.50648,-0.625449 -0.46392,-0.08045 -0.96101,-0.15553 -1.40277,-0.212751 -0.64361,-0.0831 -0.81255,-0.126534 -1.26771,-0.324473 -0.32717,-0.142302 -0.41477,-0.166172 -0.77233,-0.209887 -0.22169,-0.02677 -0.59086,-0.09921 -0.8197,-0.160191 -1.27584,-0.339669 -2.63099,-0.506296 -3.71151,-0.456414 -0.28247,0.01347 -0.55868,0.02599 -0.61589,0.02864 -0.0715,0.0026 -0.1027,-0.0093 -0.1027,-0.04117 0,-0.06166 0.12333,-0.0955 0.42548,-0.11721 0.13765,-0.0093 0.29586,-0.02599 0.35219,-0.03571 0.10031,-0.0169 0.0957,-0.02051 -0.1466,-0.129331 -0.31911,-0.143291 -0.83668,-0.31832 -1.24036,-0.4196 -0.32716,-0.08218 -1.01187,-0.179132 -1.05736,-0.149988 -0.0179,0.0093 -0.0715,0.134712 -0.13767,0.27916 -0.47823,1.128282 -0.45946,2.236798 0.0447,2.837289 0.15108,0.178413 0.44605,0.359782 0.7035,0.433345 0.64538,0.1837 1.99469,0.137843 4.32042,-0.146684 0.81165,-0.09922 1.19057,-0.13133 1.56842,-0.132662 0.539,-0.0014 0.63289,0.01197 1.36318,0.202908 1.02635,0.268263 1.29758,0.278188 2.97138,0.109346 z m 3.03796,0.05087 c -0.0359,-0.0152 -0.14928,-0.05087 -0.24135,-0.07951 -0.10715,-0.03302 -0.16806,-0.06886 -0.16806,-0.09949 0,-0.05993 0.0446,-0.05993 0.25388,8.65e-4 0.21006,0.05993 0.42102,0.0626 0.49253,0.0054 0.0446,-0.03849 0.0356,-0.04554 -0.13409,-0.06165 -0.2181,-0.02051 -0.51756,-0.123071 -0.4952,-0.170102 0.0179,-0.04289 0.10988,-0.0357 0.40046,0.02942 0.2628,0.05994 0.42817,0.03849 0.44426,-0.05633 0.008,-0.04475 -0.0179,-0.05447 -0.11974,-0.05447 -0.14481,0 -0.57478,-0.112806 -0.62036,-0.162323 -0.0715,-0.07777 0.0356,-0.08989 0.261,-0.03037 0.27532,0.07327 0.52474,0.08405 0.50596,0.02238 -0.005,-0.02238 -0.17164,-0.09989 -0.3674,-0.172525 -0.3647,-0.135604 -0.60606,-0.27916 -0.5846,-0.347355 0.008,-0.02598 0.0715,-0.03584 0.18504,-0.02864 0.20292,0.01197 0.38169,-0.01879 0.34595,-0.05715 -0.0266,-0.03302 -0.47824,-0.125735 -0.64093,-0.133061 -0.0625,-0.0026 -0.29588,0.0054 -0.51309,0.01878 l -0.396,0.02409 -0.3218,-0.179678 c -0.17699,-0.09883 -0.6856,-0.443988 -1.12862,-0.767128 -0.62929,-0.459011 -0.92855,-0.6537 -1.36569,-0.890038 l -0.55957,-0.302497 -0.36648,-0.398942 c -0.48002,-0.523293 -0.92652,-1.070304 -1.33047,-1.629229 -0.17969,-0.249304 -0.46482,-0.599874 -0.63197,-0.779094 -0.16718,-0.17924 -0.32718,-0.3641 -0.35668,-0.41076 -0.0715,-0.1153 -0.37544,-0.27309 -0.61498,-0.31759 -0.5444,-0.10108 -1.16733,0.24099 -1.38983,0.76283 -0.24225,0.56826 0.14659,1.20195 0.83488,1.361032 0.18773,0.04288 0.51846,0.03294 0.54706,-0.01693 0.005,-0.01214 -0.0624,-0.07243 -0.16268,-0.132911 -0.3495,-0.219366 -0.35936,-0.227242 -0.33073,-0.258074 0.0919,-0.102267 0.70082,0.293996 1.2307,0.801637 0.98479,0.943718 1.31662,1.256418 1.57853,1.488015 0.97709,0.863667 1.0377,0.89831 3.19537,1.826271 0.64181,0.276109 1.02269,0.481001 1.23124,0.662637 0.33073,0.288271 0.95566,0.563329 1.27515,0.561449 0.10976,-6.25e-4 0.1207,-0.0054 0.0536,-0.02863 z m -1.15758,-0.210232 c -0.0268,-0.01785 -0.14303,-0.108544 -0.25833,-0.20167 -0.11531,-0.0931 -0.22705,-0.169569 -0.24672,-0.170007 -0.0266,-3.74e-4 -0.0356,0.04822 -0.0356,0.136936 -9e-5,0.07605 -0.008,0.166704 -0.0179,0.202373 -0.0179,0.06165 -0.001,0.06433 0.29584,0.06433 0.2208,0 0.29767,-0.0093 0.26283,-0.03223 z m 1.60507,-0.866452 c 0.009,-0.09363 0.0625,-0.345038 0.1252,-0.558508 0.12693,-0.452565 0.15731,-0.799573 0.10183,-1.175035 -0.0804,-0.547771 -0.20558,-0.819511 -0.32446,-0.700797 -0.0268,0.02677 -0.0715,0.168678 -0.0992,0.315004 -0.126,0.663437 -0.25208,0.937895 -0.64897,1.410412 -0.19219,0.229812 -0.19308,0.231692 -0.10725,0.231692 0.14034,0 0.69007,0.131194 0.76158,0.181729 0.0356,0.02597 0.0627,0.07418 0.0627,0.10802 0,0.08045 -0.13499,0.195846 -0.22886,0.195846 -0.0448,0 -0.0625,0.0093 -0.0536,0.02051 0.0179,0.02318 0.31288,0.135871 0.36115,0.139267 0.0179,0.0012 0.0356,-0.07327 0.0448,-0.168051 z m -4.55159,-0.613287 c -0.53097,-0.250831 -0.92427,-0.501926 -1.3337,-0.85036 -0.46661,-0.39725 -1.20942,-1.082972 -1.78572,-1.649018 -0.19128,-0.188696 -0.35933,-0.343068 -0.37005,-0.343068 -0.009,0 -0.0974,0.142037 -0.19129,0.315628 -0.21723,0.402967 -0.4407,0.654156 -0.66328,0.746047 -0.35486,0.146593 -0.66862,0.123738 -1.08553,-0.07873 -0.14482,-0.07059 -0.28337,-0.115214 -0.35221,-0.114273 -0.21899,0.0026 -0.6704,0.192185 -0.86527,0.36202 -0.0804,0.07245 -0.25565,0.31904 -0.23776,0.339232 0.005,0.0067 0.2458,0.02769 0.53274,0.04743 0.91446,0.05994 1.72013,0.190666 2.61169,0.423169 0.27351,0.07153 0.61588,0.144182 0.76249,0.162336 0.47912,0.05995 0.61676,0.09389 0.9417,0.236432 0.42817,0.187538 0.62393,0.236791 1.36471,0.343786 0.73028,0.105355 0.77589,0.109346 0.67131,0.05995 z m -6.97618,-1.419229 c 0.0715,-0.165108 0.25117,-0.354164 0.41923,-0.452673 l 0.13054,-0.07592 -0.17699,-0.227495 c -0.37455,-0.479845 -0.73746,-1.216262 -0.95512,-1.938819 -0.0627,-0.20989 -0.12693,-0.38196 -0.14036,-0.3825 -0.0902,-0.003 -0.75086,0.634929 -1.08328,1.040089 -0.34416,0.420042 -0.9487,1.30611 -0.91535,1.342938 0.004,0.0065 0.14839,0.02769 0.31733,0.04822 0.39777,0.04743 0.81343,0.142039 1.21857,0.27747 0.3915,0.130929 0.90352,0.34701 1.02394,0.432812 0.0447,0.03491 0.0912,0.06354 0.0947,0.06527 0.003,0.0014 0.0356,-0.05633 0.0627,-0.128401 z m 2.44417,-0.468577 c 0.30302,-0.08671 0.46749,-0.2595 0.78572,-0.823457 l 0.13854,-0.244386 -0.0715,-0.07953 c -0.0715,-0.07686 -0.0803,-0.07783 -0.24225,-0.04019 -0.50414,0.114851 -1.01857,-0.03935 -1.34787,-0.402601 -0.21455,-0.2365 -0.28248,-0.413334 -0.28428,-0.740046 -0.001,-0.22274 0.009,-0.28622 0.0805,-0.45329 0.21811,-0.49234 0.74641,-0.82622 1.30517,-0.82523 0.35576,6e-4 0.62483,0.10086 0.85456,0.31734 l 0.12693,0.11937 -0.0536,-0.10897 c -0.0804,-0.15302 -0.32179,-0.37999 -0.50863,-0.47779 -0.42102,-0.22051 -1.56287,-0.12466 -2.36298,0.19819 -0.47108,0.18994 -1.15224,0.57263 -1.3724,0.77061 l -0.0804,0.0715 0.13321,0.43712 c 0.23152,0.759957 0.59801,1.491431 0.97058,1.938685 l 0.17252,0.206582 0.24673,-0.06885 c 0.13586,-0.03756 0.27261,-0.06887 0.30392,-0.06887 0.0266,0 0.15821,0.05101 0.28244,0.112417 0.41748,0.208556 0.6311,0.246009 0.92207,0.162243 z m 4.01327,-1.22662 c 0.17699,-0.202012 0.18772,-0.208623 0.42372,-0.263783 0.24762,-0.05809 0.58102,-0.221232 0.63109,-0.309904 0.0536,-0.0884 -0.0536,-0.207914 -0.33522,-0.370603 -0.20471,-0.12011 -0.30748,-0.2065 -0.44963,-0.37803 -0.15106,-0.18244 -0.2199,-0.2384 -0.38348,-0.31188 -0.26905,-0.12036 -0.28246,-0.15231 -0.13407,-0.31671 0.14927,-0.16472 0.16178,-0.29373 0.0356,-0.40036 -0.21097,-0.18378 -0.62305,0.0894 -0.62305,0.41271 0,0.0884 -0.009,0.10851 -0.0536,0.0997 -0.0356,-0.009 -0.0536,-0.0445 -0.0536,-0.16431 0,-0.0976 -0.009,-0.15312 -0.0356,-0.15312 -0.12159,1.3e-4 -0.3522,-0.0857 -0.47108,-0.17477 -0.13855,-0.10378 -0.14124,-0.10465 -0.43354,-0.091 -0.2619,0.0122 -0.834,-0.05 -1.02458,-0.11217 -0.0356,-0.0122 0.009,0.0607 0.12072,0.18817 0.17967,0.20756 0.26548,0.35987 0.33164,0.58565 0.0267,0.0778 0.12334,0.21839 0.27978,0.39306 l 0.24404,0.27227 0.17789,0.002 0.17788,0.002 0.0902,-0.20623 c 0.0803,-0.19271 0.15645,-0.27646 0.18862,-0.2173 0.008,0.0143 -0.0179,0.11888 -0.0627,0.23332 -0.0536,0.15552 -0.0805,0.28201 -0.0902,0.501979 -0.0179,0.336918 0.009,0.409945 0.19309,0.606866 0.13856,0.148314 0.25028,0.181913 0.60875,0.182903 0.25653,6.09e-4 0.26905,0.0037 0.35041,0.09787 0.0445,0.05364 0.0902,0.0971 0.0947,0.0971 0.004,0 0.092,-0.09323 0.19308,-0.207278 z m -1.59182,-0.776607 c 0,-0.137463 -0.002,-0.142743 -0.10552,-0.163943 -0.0536,-0.0122 -0.10976,-0.017 -0.11435,-0.0122 -0.009,0.0122 0.18591,0.317309 0.20649,0.317309 0.008,0 0.0179,-0.06424 0.0179,-0.142101 z m 2.94875,-0.0087 c 0.13946,-0.153863 0.29052,-0.513103 0.34773,-0.827213 0.12598,-0.68991 -0.0266,-1.37387 -0.38526,-1.76457 -0.33075,-0.3572 -0.66327,-0.49576 -1.2452,-0.51927 -0.34861,-0.0142 -0.42638,-0.008 -0.60158,0.051 -0.43621,0.14624 -0.72494,0.50039 -0.88316,1.07986 l -0.0536,0.21642 0.0627,0.0636 c 0.0805,0.0831 0.21005,0.1525 0.36738,0.19907 0.12333,0.0366 0.13227,0.035 0.2199,-0.0581 0.28336,-0.29669 0.65879,-0.29579 0.79018,0.002 0.0627,0.15169 0.0448,0.28113 -0.0715,0.42863 l -0.0902,0.1079 0.15463,0.0562 c 0.12254,0.0449 0.20203,0.10863 0.37814,0.30444 0.15999,0.1787 0.28961,0.28642 0.45945,0.38403 0.21364,0.1228 0.38794,0.286228 0.38794,0.364337 0,0.05904 0.0536,0.02773 0.1636,-0.08851 z m -0.10552,-0.341023 c -9e-5,-0.0233 0.0179,-0.18076 0.0357,-0.34998 0.0266,-0.2618 0.0266,-0.35521 -0.0179,-0.62811 -0.0267,-0.17638 -0.0448,-0.32708 -0.0356,-0.33513 0.0356,-0.0356 0.0803,0.0419 0.12599,0.21212 0.0715,0.25145 0.0715,0.71262 -0.001,0.93688 -0.0536,0.16502 -0.1065,0.24976 -0.1065,0.1642 z m -0.4094,-0.25879 c -0.0902,-0.10216 -0.2798,-0.55019 -0.33791,-0.78724 -0.0627,-0.24358 -0.0948,-0.93658 -0.0448,-0.96807 0.0357,-0.026 0.0448,0.0162 0.0902,0.43576 0.0356,0.35398 0.10649,0.63011 0.27262,1.06173 0.0625,0.16653 0.10977,0.30956 0.10183,0.31777 -0.008,0.008 -0.0445,-0.0187 -0.0806,-0.06 z m -1.89827,-1.38567 c 0.0356,-0.27383 0.24402,-0.61196 0.48716,-0.78261 0.12786,-0.0896 0.26727,-0.12219 0.26727,-0.0625 0,0.0161 -0.0536,0.067 -0.12866,0.1124 -0.1752,0.11333 -0.36829,0.35799 -0.49878,0.63297 -0.0627,0.12599 -0.11637,0.22893 -0.12601,0.22893 -0.009,0 -0.009,-0.0581 -0.001,-0.12907 z m 2.3595,-1.21466 c 0.0625,-0.1409 0.0625,-0.42487 -0.0179,-0.58587 -0.17699,-0.38079 -0.61946,-0.53642 -0.96809,-0.34012 -0.22704,0.12813 -0.34146,0.36238 -0.32268,0.66693 l 0.009,0.16189 0.2199,0.0241 c 0.24942,0.0268 0.56673,0.12521 0.7616,0.23555 l 0.13228,0.0752 0.0715,-0.0698 c 0.0356,-0.0382 0.0902,-0.11378 0.11531,-0.16715 z m -0.98722,-0.2057 c -0.18054,-0.0375 -0.13496,-0.0912 0.0948,-0.11057 0.24133,-0.0205 0.47643,-0.11648 0.57925,-0.23689 0.13225,-0.15516 0.16357,-0.05 0.0356,0.1184 -0.13676,0.17887 -0.45588,0.28194 -0.70974,0.22893 z"
       id="path1-5"
       inkscape:export-filename="icon_stretch_24.svg"
       inkscape:export-xdpi="101.53703"
       inkscape:export-ydpi="101.53703" /></g></svg>
