<?xml version="1.0" encoding="UTF-8" standalone="no"?>
<!-- Created with Inkscape (http://www.inkscape.org/) -->

<svg
   width="14.552536mm"
   height="9.7694702mm"
   viewBox="0 0 14.552536 9.7694702"
   version="1.1"
   id="svg1"
   xml:space="preserve"
   inkscape:export-filename="ビットマップ.svg"
   inkscape:export-xdpi="96"
   inkscape:export-ydpi="96"
   xmlns:inkscape="http://www.inkscape.org/namespaces/inkscape"
   xmlns:sodipodi="http://sodipodi.sourceforge.net/DTD/sodipodi-0.dtd"
   xmlns="http://www.w3.org/2000/svg"
   xmlns:svg="http://www.w3.org/2000/svg"><sodipodi:namedview
     id="namedview1"
     pagecolor="#ffffff"
     bordercolor="#111111"
     borderopacity="1"
     inkscape:showpageshadow="0"
     inkscape:pageopacity="0"
     inkscape:pagecheckerboard="1"
     inkscape:deskcolor="#d1d1d1"
     inkscape:document-units="mm"><inkscape:page
       x="-8.3882458e-23"
       y="0"
       width="14.552535"
       height="9.7694702"
       id="page2"
       margin="0"
       bleed="0" /></sodipodi:namedview><defs
     id="defs1" /><g
     inkscape:label="Layer 1"
     inkscape:groupmode="layer"
     id="layer1"
     transform="translate(-164.5548,104.54416)"><path
       style="fill:#000000;stroke:#000000;stroke-width:0.381208;stroke-dasharray:none;stroke-opacity:1"
       d="m 173.33188,-94.986801 c -0.10397,-0.0156 -0.32097,-0.06183 -0.48022,-0.102902 -0.16006,-0.04045 -0.42741,-0.108566 -0.59326,-0.150832 -0.56932,-0.144807 -1.09403,-0.141586 -2.36315,0.01488 -2.22536,0.273777 -3.43779,0.308928 -4.07884,0.118275 -0.52064,-0.154864 -0.89541,-0.579142 -1.02577,-1.161716 -0.0579,-0.244984 -0.0495,-0.886253 0.0165,-1.180477 0.18483,-0.883363 0.62627,-1.722024 1.38736,-2.637607 0.66423,-0.79906 1.71221,-1.5448 2.62027,-1.86546 0.43649,-0.15413 0.7228,-0.20809 1.1951,-0.22511 0.50002,-0.0181 0.755,0.005 1.34536,0.1284 0.34574,0.0718 0.93695,0.10048 1.00739,0.0495 0.0165,-0.0124 0.0495,-0.1027 0.0743,-0.20127 0.11142,-0.42651 0.38038,-0.82775 0.66339,-0.98607 0.14522,-0.0816 0.4233,-0.16338 0.55698,-0.16411 l 0.0833,-3.9e-4 -0.008,-0.18038 c -0.0414,-0.63311 0.57839,-1.02729 1.11993,-0.71216 0.40596,0.23616 0.5322,0.85622 0.24093,1.19135 l -0.066,0.0752 0.16173,0.17724 c 0.30941,0.33961 0.44803,0.79129 0.42081,1.37682 -0.0247,0.51257 -0.1312,0.86406 -0.34574,1.13312 -0.0579,0.0767 -0.15512,0.16446 -0.20959,0.19491 -0.0495,0.0305 -0.1617,0.102803 -0.23927,0.160817 -0.15101,0.11278 -0.40431,0.228711 -0.50167,0.230857 -0.13781,0.0021 -0.27065,0.08742 -0.41587,0.264862 -0.0883,0.108081 -0.1708,0.182104 -0.20381,0.182104 -0.0329,0 -0.0891,-0.04119 -0.13201,-0.09148 -0.0742,-0.08815 -0.0867,-0.09173 -0.33664,-0.09995 l -0.25991,-0.0091 0.0741,0.09171 c 0.44063,0.535091 0.78222,0.876664 0.9781,0.977886 0.63618,0.328403 0.89716,0.490202 1.49323,0.925115 1.17919,0.86063 1.33761,0.946707 1.65338,0.898388 0.21949,-0.03381 0.33006,-0.11766 0.58583,-0.447135 0.29623,-0.380633 0.3936,-0.601187 0.4827,-1.098262 0.0579,-0.3114 0.12708,-0.441688 0.24671,-0.454634 0.0495,-0.005 0.11223,0.006 0.14358,0.02472 0.0833,0.04954 0.18483,0.314868 0.2467,0.650033 0.0833,0.427575 0.0579,0.782129 -0.0743,1.232005 -0.0577,0.189031 -0.10643,0.418746 -0.11557,0.510501 -0.0165,0.151901 -0.008,0.173934 0.0577,0.246964 0.066,0.07266 0.066,0.09405 0.0495,0.221711 -0.008,0.07758 -0.0329,0.167172 -0.0413,0.198608 -0.0495,0.105984 -0.18731,0.252067 -0.35481,0.377325 -0.16419,0.123107 -0.16832,0.124349 -0.35563,0.108442 -0.10481,-0.0086 -0.29293,-0.05115 -0.41998,-0.09442 -0.42742,-0.145471 -0.86134,-0.137048 -2.48947,0.04868 -0.60317,0.06847 -1.52013,0.09602 -1.79935,0.0536 z m 1.99862,-0.223935 c 0.58254,-0.05864 1.0678,-0.116186 1.07851,-0.127643 0.008,-0.01105 0.0247,-0.117785 0.0414,-0.236233 l 0.0165,-0.215367 -0.18646,-0.09345 c -0.34739,-0.173761 -1.26806,-0.556125 -1.39059,-0.577334 -0.42823,-0.07426 -0.88708,-0.143565 -1.29486,-0.196384 -0.5941,-0.07671 -0.75004,-0.1168 -1.17019,-0.299512 -0.302,-0.131355 -0.38286,-0.153388 -0.71291,-0.19374 -0.20464,-0.02471 -0.54541,-0.09158 -0.75664,-0.147868 -1.17769,-0.313539 -2.42859,-0.467347 -3.42599,-0.421303 -0.26074,0.01243 -0.5157,0.02399 -0.56851,0.02644 -0.066,0.0024 -0.0948,-0.0086 -0.0948,-0.038 0,-0.05692 0.11384,-0.08815 0.39275,-0.108193 0.12706,-0.0086 0.2731,-0.02399 0.32509,-0.03296 0.0926,-0.0156 0.0883,-0.01893 -0.13532,-0.119381 -0.29456,-0.132268 -0.77231,-0.293832 -1.14494,-0.387321 -0.30199,-0.07586 -0.93403,-0.165352 -0.97602,-0.13845 -0.0165,0.0086 -0.066,0.124349 -0.12708,0.257685 -0.44144,1.041485 -0.42411,2.064724 0.0413,2.61902 0.13946,0.164688 0.41174,0.332104 0.64938,0.400008 0.59573,0.169568 1.84124,0.127239 3.98806,-0.1354 0.74921,-0.09159 1.09898,-0.121227 1.44776,-0.122456 0.49754,-0.0013 0.5842,0.01105 1.25831,0.187298 0.9474,0.247626 1.19776,0.256788 2.7428,0.100934 z m 2.80426,0.04696 c -0.0331,-0.01403 -0.1378,-0.04696 -0.22279,-0.07339 -0.0989,-0.03048 -0.15513,-0.06356 -0.15513,-0.09184 0,-0.05532 0.0412,-0.05532 0.23435,7.98e-4 0.1939,0.05532 0.38863,0.05778 0.45464,0.005 0.0412,-0.03553 0.0329,-0.04204 -0.12377,-0.05691 -0.20132,-0.01893 -0.47775,-0.113603 -0.45711,-0.157016 0.0165,-0.03959 0.10143,-0.03295 0.36966,0.02716 0.24258,0.05533 0.39523,0.03553 0.41008,-0.052 0.007,-0.04131 -0.0165,-0.05028 -0.11053,-0.05028 -0.13367,0 -0.53056,-0.104128 -0.57264,-0.149836 -0.066,-0.07179 0.0329,-0.08298 0.24093,-0.02803 0.25414,0.06763 0.48437,0.07758 0.46703,0.02066 -0.005,-0.02066 -0.15843,-0.09221 -0.33913,-0.159253 -0.33665,-0.125172 -0.55944,-0.257684 -0.53963,-0.320633 0.007,-0.02398 0.066,-0.03308 0.1708,-0.02644 0.18731,0.01105 0.35233,-0.01734 0.31934,-0.05275 -0.0246,-0.03048 -0.44145,-0.116062 -0.59162,-0.122824 -0.0577,-0.0024 -0.27312,0.005 -0.47362,0.01734 l -0.36554,0.02224 -0.29704,-0.165856 c -0.16338,-0.09123 -0.63286,-0.409832 -1.0418,-0.708113 -0.58088,-0.4237 -0.85712,-0.603412 -1.26063,-0.821569 l -0.51652,-0.279226 -0.33829,-0.368252 c -0.44309,-0.483037 -0.85524,-0.987967 -1.22812,-1.503894 -0.16586,-0.23013 -0.42906,-0.55373 -0.58335,-0.71916 -0.15432,-0.16545 -0.30201,-0.33609 -0.32924,-0.37916 -0.066,-0.10643 -0.34656,-0.25208 -0.56767,-0.29316 -0.50252,-0.0933 -1.07753,0.22245 -1.28291,0.70415 -0.22362,0.52454 0.13531,1.109483 0.77065,1.256327 0.17329,0.03958 0.47858,0.03041 0.50498,-0.01563 0.005,-0.01121 -0.0576,-0.06686 -0.15017,-0.122686 -0.32261,-0.202491 -0.33171,-0.209761 -0.30529,-0.238221 0.0848,-0.0944 0.64691,0.271379 1.13603,0.739968 0.90903,0.871119 1.21533,1.159763 1.45709,1.373544 0.90193,0.797226 0.95787,0.829204 2.94956,1.685778 0.59243,0.254868 0.94401,0.443998 1.13652,0.611661 0.30529,0.266095 0.88214,0.519993 1.17705,0.518258 0.10132,-5.77e-4 0.11142,-0.005 0.0495,-0.02643 z m -1.06853,-0.194059 c -0.0247,-0.01648 -0.13203,-0.100194 -0.23846,-0.186156 -0.10644,-0.08594 -0.20958,-0.156524 -0.22774,-0.156928 -0.0246,-3.45e-4 -0.0329,0.04451 -0.0329,0.126402 -8e-5,0.0702 -0.007,0.153879 -0.0165,0.186804 -0.0165,0.05691 -0.001,0.05938 0.27308,0.05938 0.20381,0 0.27477,-0.0086 0.24261,-0.02975 z m 1.48159,-0.799797 c 0.008,-0.08643 0.0577,-0.318494 0.11557,-0.515542 0.11717,-0.41775 0.14521,-0.738063 0.094,-1.084641 -0.0742,-0.505632 -0.18977,-0.756467 -0.2995,-0.646886 -0.0247,0.02471 -0.066,0.155702 -0.0916,0.290771 -0.11631,0.6124 -0.23269,0.865744 -0.59904,1.301911 -0.17741,0.212133 -0.17823,0.213868 -0.099,0.213868 0.12954,0 0.63698,0.121102 0.70299,0.167749 0.0329,0.02397 0.0579,0.06847 0.0579,0.09971 0,0.07426 -0.1246,0.18078 -0.21125,0.18078 -0.0414,0 -0.0577,0.0086 -0.0495,0.01893 0.0165,0.0214 0.28881,0.125419 0.33337,0.128554 0.0165,0.0011 0.0329,-0.06763 0.0414,-0.155123 z m -4.20144,-0.566107 c -0.49012,-0.231535 -0.85317,-0.463314 -1.2311,-0.784943 -0.43071,-0.36669 -1.11638,-0.99966 -1.64835,-1.522161 -0.17656,-0.17418 -0.33168,-0.316676 -0.34158,-0.316676 -0.008,0 -0.0899,0.13111 -0.17657,0.291347 -0.20052,0.371967 -0.4068,0.603832 -0.61226,0.688654 -0.32756,0.135316 -0.61718,0.114219 -1.00202,-0.07267 -0.13368,-0.06516 -0.26157,-0.106351 -0.32511,-0.105482 -0.20215,0.0024 -0.61883,0.1774 -0.79871,0.33417 -0.0742,0.06688 -0.23598,0.294496 -0.21947,0.313135 0.005,0.0062 0.22689,0.02556 0.49176,0.04378 0.84411,0.05533 1.5878,0.175999 2.41077,0.390616 0.25247,0.06603 0.5685,0.13309 0.70384,0.149847 0.44226,0.05534 0.56931,0.08667 0.86925,0.218244 0.39523,0.173111 0.57593,0.218575 1.25973,0.317339 0.6741,0.09725 0.7162,0.100934 0.61966,0.05534 z m -6.43951,-1.31005 c 0.066,-0.152406 0.23185,-0.326918 0.38698,-0.417849 l 0.1205,-0.07008 -0.16338,-0.209994 c -0.34573,-0.442931 -0.68073,-1.122696 -0.88164,-1.789668 -0.0579,-0.19375 -0.11717,-0.35258 -0.12956,-0.35308 -0.0833,-0.003 -0.6931,0.58609 -0.99995,0.960082 -0.31768,0.387728 -0.87572,1.205632 -0.84493,1.239627 0.004,0.006 0.13697,0.02556 0.29292,0.04451 0.36717,0.04378 0.75085,0.131112 1.12482,0.256124 0.36139,0.120857 0.83402,0.320315 0.94517,0.399517 0.0413,0.03222 0.0842,0.05865 0.0874,0.06025 0.003,0.0013 0.0329,-0.052 0.0579,-0.118523 z m 2.25614,-0.43253 c 0.27971,-0.08004 0.43153,-0.239537 0.72528,-0.760109 l 0.12788,-0.225586 -0.066,-0.07341 c -0.066,-0.07095 -0.0741,-0.07184 -0.22361,-0.0371 -0.46536,0.106016 -0.94022,-0.03632 -1.24418,-0.371629 -0.19805,-0.218307 -0.26075,-0.381537 -0.26241,-0.683117 -10e-4,-0.20561 0.008,-0.2642 0.0743,-0.41842 0.20133,-0.45447 0.68899,-0.76266 1.20477,-0.76175 0.32839,5.6e-4 0.57676,0.0931 0.78882,0.29293 l 0.11716,0.11019 -0.0495,-0.10059 c -0.0742,-0.14125 -0.29704,-0.35076 -0.4695,-0.44103 -0.38863,-0.20355 -1.44264,-0.11507 -2.1812,0.18294 -0.43484,0.17533 -1.0636,0.52858 -1.26682,0.71133 l -0.0742,0.066 0.12296,0.40349 c 0.21371,0.701498 0.55201,1.376701 0.89592,1.789548 l 0.15924,0.19069 0.22775,-0.06355 c 0.12541,-0.03467 0.25164,-0.06357 0.28054,-0.06357 0.0246,0 0.14604,0.04709 0.26072,0.103769 0.38536,0.192512 0.58255,0.227084 0.85113,0.149762 z m 3.70454,-1.132257 c 0.16337,-0.186472 0.17328,-0.192574 0.39112,-0.243491 0.22857,-0.05362 0.53632,-0.204213 0.58254,-0.286063 0.0495,-0.0816 -0.0495,-0.19192 -0.30943,-0.3421 -0.18896,-0.11087 -0.28383,-0.19061 -0.41504,-0.34895 -0.13944,-0.1684 -0.20298,-0.22006 -0.35398,-0.28788 -0.24835,-0.1111 -0.26073,-0.1406 -0.12376,-0.29235 0.13779,-0.15205 0.14934,-0.27113 0.0329,-0.36956 -0.19474,-0.16964 -0.57512,0.0825 -0.57512,0.38096 0,0.0816 -0.008,0.10016 -0.0495,0.092 -0.0329,-0.008 -0.0495,-0.0411 -0.0495,-0.15167 0,-0.0901 -0.008,-0.14134 -0.0329,-0.14134 -0.11223,1.2e-4 -0.3251,-0.0791 -0.43484,-0.16132 -0.12789,-0.0958 -0.13037,-0.0966 -0.40018,-0.084 -0.24176,0.0113 -0.76985,-0.0462 -0.94576,-0.10354 -0.0329,-0.0113 0.008,0.056 0.11143,0.17369 0.16585,0.19159 0.24506,0.33219 0.30613,0.5406 0.0246,0.0718 0.11385,0.20159 0.25825,0.36282 l 0.22527,0.25133 0.1642,0.002 0.1642,0.002 0.0833,-0.19036 c 0.0741,-0.17789 0.14441,-0.2552 0.17411,-0.20059 0.007,0.0132 -0.0165,0.10974 -0.0579,0.21537 -0.0495,0.14356 -0.0743,0.26032 -0.0833,0.46337 -0.0165,0.311 0.008,0.378409 0.17823,0.560181 0.1279,0.136904 0.23103,0.167919 0.56192,0.168832 0.2368,5.63e-4 0.24835,0.0034 0.32345,0.09034 0.0411,0.04951 0.0833,0.08963 0.0874,0.08963 0.004,0 0.0849,-0.08606 0.17823,-0.191333 z m -1.46937,-0.716864 c 0,-0.12689 -0.002,-0.13177 -0.0974,-0.15133 -0.0495,-0.0113 -0.10132,-0.0157 -0.10555,-0.0113 -0.008,0.0113 0.17161,0.2929 0.1906,0.2929 0.007,0 0.0165,-0.0593 0.0165,-0.13117 z m 2.72191,-0.008 c 0.12873,-0.14202 0.26817,-0.47363 0.32098,-0.76357 0.11629,-0.63684 -0.0246,-1.26818 -0.35562,-1.62883 -0.30531,-0.32972 -0.61225,-0.45762 -1.14941,-0.47932 -0.32179,-0.0131 -0.39358,-0.007 -0.5553,0.0471 -0.40266,0.13499 -0.66917,0.4619 -0.81522,0.99679 l -0.0495,0.19977 0.0579,0.0587 c 0.0743,0.0767 0.19389,0.14077 0.33912,0.18376 0.11384,0.0338 0.12209,0.0323 0.20298,-0.0536 0.26156,-0.27386 0.60811,-0.27303 0.72939,0.002 0.0579,0.14002 0.0414,0.2595 -0.066,0.39565 l -0.0833,0.0996 0.14274,0.0519 c 0.11311,0.0414 0.18649,0.10027 0.34905,0.28102 0.14768,0.16495 0.26733,0.26438 0.4241,0.35448 0.19721,0.11336 0.3581,0.26421 0.3581,0.33631 0,0.0545 0.0495,0.0256 0.15101,-0.0817 z m -0.0974,-0.31479 c -9e-5,-0.0215 0.0165,-0.16685 0.0329,-0.32305 0.0246,-0.24166 0.0246,-0.32789 -0.0165,-0.57979 -0.0246,-0.16281 -0.0414,-0.30192 -0.0329,-0.30935 0.0329,-0.0329 0.0741,0.0387 0.1163,0.1958 0.066,0.23211 0.066,0.6578 -0.001,0.86481 -0.0495,0.15232 -0.0983,0.23054 -0.0983,0.15157 z m -0.37791,-0.23888 c -0.0833,-0.0943 -0.25827,-0.50786 -0.31191,-0.72668 -0.0579,-0.22484 -0.0875,-0.86453 -0.0414,-0.89359 0.0329,-0.024 0.0414,0.0149 0.0833,0.40223 0.0329,0.32675 0.0983,0.58164 0.25165,0.98006 0.0577,0.15372 0.10133,0.28574 0.094,0.29332 -0.007,0.007 -0.0411,-0.0173 -0.0744,-0.0554 z m -1.75224,-1.27907 c 0.0329,-0.25276 0.22525,-0.56488 0.44969,-0.7224 0.11802,-0.0827 0.24671,-0.11279 0.24671,-0.0577 0,0.0149 -0.0495,0.0618 -0.11877,0.10376 -0.16172,0.10461 -0.33995,0.33045 -0.46041,0.58427 -0.0579,0.1163 -0.10741,0.21132 -0.11631,0.21132 -0.008,0 -0.008,-0.0536 -0.001,-0.11914 z m 2.17799,-1.12122 c 0.0577,-0.13006 0.0577,-0.39218 -0.0165,-0.5408 -0.16337,-0.35149 -0.5718,-0.49515 -0.89361,-0.31395 -0.20958,0.11827 -0.31519,0.3345 -0.29786,0.61562 l 0.008,0.14944 0.20298,0.0222 c 0.23023,0.0247 0.52313,0.11558 0.70301,0.21743 l 0.1221,0.0694 0.066,-0.0644 c 0.0329,-0.0353 0.0833,-0.10503 0.10644,-0.15429 z m -0.91127,-0.18987 c -0.16666,-0.0346 -0.12458,-0.0842 0.0875,-0.10207 0.22277,-0.0189 0.43978,-0.10752 0.53469,-0.21866 0.12208,-0.14323 0.15099,-0.0462 0.0329,0.10929 -0.12624,0.16511 -0.42081,0.26025 -0.65514,0.21132 z"
       id="path1-5"
       inkscape:export-filename="icon_stretch_24.svg"
       inkscape:export-xdpi="96"
       inkscape:export-ydpi="96" /></g></svg>
