<?xml version="1.0" encoding="UTF-8" standalone="no"?>
<!-- Created with Inkscape (http://www.inkscape.org/) -->

<svg
   width="15.345866mm"
   height="20.674198mm"
   viewBox="0 0 15.345866 20.674198"
   version="1.1"
   id="svg1"
   xml:space="preserve"
   inkscape:export-filename="ビットマップ.svg"
   inkscape:export-xdpi="96"
   inkscape:export-ydpi="96"
   xmlns:inkscape="http://www.inkscape.org/namespaces/inkscape"
   xmlns:sodipodi="http://sodipodi.sourceforge.net/DTD/sodipodi-0.dtd"
   xmlns="http://www.w3.org/2000/svg"
   xmlns:svg="http://www.w3.org/2000/svg"><sodipodi:namedview
     id="namedview1"
     pagecolor="#ffffff"
     bordercolor="#111111"
     borderopacity="1"
     inkscape:showpageshadow="0"
     inkscape:pageopacity="0"
     inkscape:pagecheckerboard="1"
     inkscape:deskcolor="#d1d1d1"
     inkscape:document-units="mm"><inkscape:page
       x="-3.8934397e-23"
       y="0"
       width="15.345865"
       height="20.674198"
       id="page2"
       margin="0"
       bleed="0" /></sodipodi:namedview><defs
     id="defs1" /><g
     inkscape:label="Layer 1"
     inkscape:groupmode="layer"
     id="layer1"
     transform="translate(-53.889162,131.14747)"><path
       style="fill:#000000;stroke:#000000;stroke-width:0.234841;stroke-dasharray:none;stroke-opacity:1"
       d="m 56.778962,-111.37733 c -0.762861,-0.43057 -1.693501,-0.95724 -2.06963,-1.17042 l -0.683981,-0.3875 -0.0093,-2.94288 -0.0092,-2.94292 0.934132,-0.28981 c 0.512697,-0.15945 1.095264,-0.33895 1.293584,-0.39888 0.198317,-0.0598 0.360578,-0.12259 0.360578,-0.13917 0,-0.0315 -0.493541,-1.00367 -1.53844,-3.03022 -0.332413,-0.64532 -0.605105,-1.18912 -0.605105,-1.20849 0,-0.0192 0.101415,-0.0934 0.220857,-0.16553 l 0.220859,-0.13027 -0.09016,-0.20025 -0.09016,-0.20022 0.157753,-0.10029 c 0.09016,-0.0553 0.202825,-0.12334 0.259164,-0.151 0.121705,-0.0609 0.122803,-0.0755 0.02258,-0.28858 -0.04508,-0.0913 -0.06764,-0.18074 -0.04508,-0.19809 0.01116,-0.0169 0.40453,-0.22864 0.862017,-0.46933 0.457489,-0.24067 0.836099,-0.44215 0.841735,-0.44756 0.0056,-0.005 -0.0056,-0.0563 -0.02258,-0.11368 -0.04508,-0.1306 -0.0033,-0.1742 0.359453,-0.37388 0.148735,-0.0823 0.278326,-0.17444 0.289593,-0.20576 0.01082,-0.0315 -0.0069,-0.11994 -0.04508,-0.19675 -0.04507,-0.10472 -0.09015,-0.15189 -0.206214,-0.18818 -0.07891,-0.027 -0.173532,-0.0934 -0.205083,-0.14761 -0.05633,-0.0912 -0.05633,-0.11042 0.0093,-0.25274 0.14646,-0.32768 0.649041,-0.51124 0.836098,-0.30471 0.06764,0.0812 0.07892,0.1025 0.03378,0.27236 -0.05633,0.25524 -0.05633,0.30922 0.04508,0.44386 l 0.07891,0.1174 0.296353,-0.16845 c 0.282827,-0.16046 0.41805,-0.20507 0.421435,-0.13794 7.32e-4,0.017 0.02258,0.0632 0.04507,0.1025 0.04508,0.0664 0.11382,0.0406 0.854129,-0.358 0.442842,-0.23629 0.807926,-0.42459 0.813562,-0.41851 0.0051,0.005 0.06764,0.13388 0.132968,0.28398 l 0.1239,0.27279 0.241146,-0.17668 c 0.131866,-0.0969 0.320013,-0.20644 0.418047,-0.24294 0.101436,-0.036 0.633269,-0.12999 1.187212,-0.20791 1.494054,-0.20992 1.814182,-0.2959 2.519456,-0.67652 0.454114,-0.24453 1.438499,-0.94181 2.40756,-1.70388 0.509326,-0.40046 0.62313,-0.47044 0.590453,-0.36644 -0.02258,0.0576 -0.791026,0.66584 -1.672759,1.31512 -1.488642,1.09616 -1.924047,1.26954 -3.854176,1.53458 -0.482276,0.0664 -0.956666,0.14116 -1.055821,0.16689 -0.191565,0.0496 -0.726807,0.41839 -0.724549,0.49862 7.33e-4,0.0258 0.09015,0.27764 0.197197,0.55822 l 0.194936,0.51022 0.223111,0.012 c 0.171285,0.008 0.289595,0.0484 0.504814,0.16869 0.279451,0.15492 0.282831,0.15562 0.282831,0.062 0,-0.13253 -0.06764,-0.30863 -0.153239,-0.41195 -0.06764,-0.0856 -0.04509,-0.17308 0.04507,-0.11619 0.09015,0.0598 0.198324,0.37524 0.198324,0.57096 0.0019,0.34965 -0.114944,0.54605 -0.726802,1.2244 -0.562283,0.62266 -0.690731,0.79542 -0.839473,1.1223 l -0.07892,0.18367 0.101415,-0.11142 c 0.154367,-0.15991 0.30987,-0.18424 0.472135,-0.0733 0.06764,0.0497 0.130681,0.10145 0.131868,0.11696 1.09e-4,0.0144 0.01116,0.0529 0.03382,0.0834 0.02258,0.0428 0.101468,-0.0135 0.341428,-0.24035 0.751586,-0.71983 1.043432,-0.90326 1.974186,-1.24286 0.82145,-0.2994 1.046814,-0.43832 1.535966,-0.94765 0.612987,-0.63823 0.917226,-0.83869 1.983652,-1.31466 0.669329,-0.29816 1.853954,-0.77919 1.919646,-0.77932 0.101415,-2e-5 0.03382,0.0733 -0.113818,0.13488 -0.09018,0.0349 -0.514957,0.21104 -0.953291,0.39034 -1.577773,0.64657 -2.090134,0.94325 -2.656589,1.53869 -0.605101,0.63609 -0.762853,0.73582 -1.705779,1.08061 -0.6051,0.22119 -0.919483,0.36543 -0.981457,0.45073 -0.02258,0.0315 -0.07891,0.19449 -0.1239,0.36194 -0.04507,0.16734 -0.121702,0.40474 -0.171285,0.52757 l -0.09015,0.22334 0.290719,0.59473 c 0.227616,0.46504 0.776378,1.5166 0.997236,1.9133 0.01116,0.0292 0.569042,0.279 1.228233,0.55484 0.659186,0.27586 1.339786,0.56408 1.512413,0.64048 l 0.314386,0.13894 0.0093,2.96568 0.0092,2.96567 -0.397761,0.14381 c -0.21861,0.0789 -1.137867,0.4097 -2.04191,0.73456 -0.903713,0.32498 -2.619517,0.94134 -3.811245,1.36972 -1.191835,0.42843 -2.181295,0.77764 -2.198648,0.77605 -0.02258,-0.002 -0.655811,-0.35528 -1.417764,-0.78583 z m 4.877769,-0.55913 c 1.51422,-0.54223 3.226872,-1.1566 3.806166,-1.36532 l 1.053578,-0.37939 0.0094,-2.8847 c 0.0089,-2.73499 0.0061,-2.88358 -0.05633,-2.86392 -2.147384,0.68624 -3.136051,1.00524 -4.49939,1.45179 -0.629892,0.20645 -1.709833,0.55879 -2.399785,0.78316 -0.689616,0.22433 -1.267671,0.4169 -1.284124,0.42819 -0.01116,0.0116 -0.03385,1.37701 -0.03385,3.03516 v 3.01486 l 0.323397,-0.11694 c 0.178044,-0.0642 1.562222,-0.5606 3.076447,-1.10282 z m -3.511619,-1.82527 -7.32e-4,-3.00993 -1.985222,-0.94937 c -1.091895,-0.52205 -1.99763,-0.94911 -2.012955,-0.94887 -0.01116,1.3e-4 -0.02255,1.27537 -0.02255,2.83368 v 2.83332 l 1.801448,1.01965 c 2.30637,1.30552 2.166416,1.22727 2.198642,1.22948 0.01116,0.001 0.02255,-1.35259 0.02255,-3.00805 z m 1.276463,-3.49578 c 2.355841,-0.765 2.845215,-0.92841 2.863358,-0.95568 0.0098,-0.0156 0.01116,-0.28485 0.0075,-0.59912 l -0.01104,-0.57141 -0.96794,0.53106 c -2.189416,1.20101 -2.813449,1.52333 -2.87677,1.4859 -0.04509,-0.0258 -0.120593,0.003 -0.276076,0.10584 -0.117178,0.0777 -0.225363,0.14222 -0.240008,0.14222 -0.01116,0 -0.07892,-0.0969 -0.135179,-0.21433 -0.05634,-0.11781 -0.317762,-0.62753 -0.573549,-1.13255 -0.255789,-0.50504 -0.486783,-0.95037 -0.512703,-0.98945 -0.05635,-0.08 0.07892,-0.11265 -1.669496,0.42592 -0.77187,0.2381 -0.80342,0.25218 -0.709895,0.30673 0.05636,0.0315 0.575803,0.2844 1.159725,0.56228 0.583693,0.27787 1.426772,0.68037 1.873896,0.89447 0.447349,0.21409 0.830464,0.38987 0.850744,0.39055 0.02258,5e-4 0.569048,-0.1715 1.219554,-0.38256 z m -1.390724,-0.0384 c 0.03382,-0.0428 -2.28e-4,-0.14334 -0.140833,-0.43877 -0.334663,-0.70201 -2.921497,-6.25987 -2.934123,-6.30131 -0.01116,-0.036 -0.394389,0.13198 -0.394389,0.17295 0,0.008 0.304245,0.60725 0.676091,1.32967 0.371852,0.72241 0.836103,1.62568 1.029917,2.00726 0.193808,0.38153 0.569045,1.11623 0.833845,1.63251 0.264805,0.51632 0.561152,1.09943 0.659188,1.29581 0.101458,0.19641 0.190431,0.35709 0.203956,0.35709 0.01116,0 0.04508,-0.0248 0.06764,-0.0553 z m 0.294101,-0.21183 c 0.0061,-0.005 -0.196063,-0.47653 -0.449602,-1.04536 -0.507067,-1.13792 -0.944274,-2.18472 -1.858912,-4.45539 -0.543127,-1.34791 -0.702006,-1.73395 -0.735812,-1.77496 -0.0056,-0.006 -0.113818,0.044 -0.236633,0.11368 l -0.226491,0.12654 0.273818,0.58021 c 0.151005,0.31911 0.469885,1.00264 0.708769,1.5189 0.240009,0.51629 0.821449,1.76514 1.292802,2.77525 0.472136,1.01009 0.902578,1.93337 0.956665,2.05168 0.09018,0.19957 0.101437,0.21175 0.180291,0.1679 0.04508,-0.0258 0.09015,-0.0519 0.09015,-0.0585 z m 3.237014,-1.61123 c 1.197584,-0.65074 2.185017,-1.19141 2.194253,-1.20158 0.009,-0.008 -0.114933,-0.25342 -0.277197,-0.54053 -0.481152,-0.85401 -1.151721,-2.17991 -1.385426,-2.7382 -0.09012,-0.20948 -0.157758,-0.32815 -0.182543,-0.31113 -0.02258,0.0156 -0.208463,0.19248 -0.414665,0.39394 -0.539749,0.52679 -0.705392,0.60667 -0.893572,0.42797 -0.06764,-0.0689 -0.101404,-0.14457 -0.118291,-0.28712 -0.01116,-0.16654 -1.09e-4,-0.23743 0.117164,-0.5012 0.101426,-0.23777 0.224239,-0.40577 0.521717,-0.74336 0.210718,-0.2399 0.384246,-0.44927 0.385369,-0.46538 2.31e-4,-0.0156 -0.02258,-0.089 -0.05636,-0.16327 -0.03385,-0.0733 -0.22762,-0.60239 -0.439463,-1.17474 -0.210713,-0.57243 -0.437207,-1.17214 -0.502561,-1.33275 l -0.118292,-0.29195 -0.542001,0.2844 c -0.865396,0.45411 -1.002872,0.5331 -1.002872,0.57152 0,0.0664 0.265932,0.62483 0.339174,0.71418 0.04508,0.0484 0.06764,0.12192 0.05633,0.16327 -0.01116,0.0732 -0.379734,0.30503 -0.45636,0.28791 -0.02258,-0.004 -0.09016,0.0305 -0.147599,0.0777 -0.223112,0.17444 -0.725671,0.42718 -0.796669,0.40184 -0.04507,-0.0169 -0.06764,-0.005 -0.06764,0.0384 0,0.036 -0.09018,0.11629 -0.224234,0.18862 -0.240015,0.13352 -0.329032,0.11948 -0.329032,-0.0519 0,-0.0766 -0.320017,-0.76659 -0.35608,-0.76659 -0.01116,0 -0.753845,0.38075 -1.461033,0.75306 l -0.208456,0.1093 0.295223,0.72162 c 0.16338,0.39684 0.383115,0.94201 0.490165,1.21133 0.291844,0.7348 0.795533,1.97307 1.045689,2.5712 0.121701,0.29185 0.317762,0.76016 0.433822,1.04074 0.367344,0.8832 0.910469,2.06486 1.025406,2.23228 0.02258,0.036 0.146478,-0.0156 0.465378,-0.19461 0.237759,-0.13388 1.411113,-0.77571 2.608815,-1.42645 z m 1.942974,0.53006 c 1.731582,-0.55371 2.790114,-0.90517 2.820651,-0.93672 0.03382,-0.0327 -0.07891,-0.0834 -1.398045,-0.63338 -0.447347,-0.18639 -0.900325,-0.37737 -1.009629,-0.42436 -0.101458,-0.0472 -0.203956,-0.0856 -0.215223,-0.0856 -0.01116,0 0.03382,0.0766 0.09015,0.16936 0.05635,0.0934 0.101426,0.18569 0.09021,0.20553 -0.01116,0.0203 -0.351569,0.21928 -0.756093,0.44296 l -0.736943,0.40689 v 0.60983 0.60983 l 0.101426,-0.0371 c 0.05636,-0.0203 0.508197,-0.16778 1.006252,-0.32699 z m -2.416127,-4.70641 0.178048,-0.1777 -0.06764,-0.10931 c -0.140832,-0.23887 -0.384246,-0.20215 -0.544256,0.0823 -0.09016,0.15562 -0.09016,0.21197 -0.0098,0.3083 0.101468,0.12601 0.246775,0.0925 0.442844,-0.1025 z m 1.327058,-0.73152 c 0.05633,-0.17455 0.09015,-0.32825 0.07891,-0.34155 -0.02258,-0.0249 -0.352692,0.22638 -0.42481,0.32317 -0.03382,0.0394 -0.01116,0.11553 0.05635,0.28948 0.09015,0.22773 0.101469,0.23303 0.140834,0.14148 0.02258,-0.0519 0.0902,-0.23797 0.146477,-0.41252 z m -0.645667,-1.28309 c 0.160014,-0.20058 0.330157,-0.50156 0.330157,-0.58077 -7.3e-4,-0.18412 -0.816946,-0.52848 -0.899207,-0.37973 -0.02258,0.0371 0.206211,0.66324 0.241142,0.66324 0.01116,0 0.05636,-0.0642 0.101469,-0.14291 0.04508,-0.0789 0.101425,-0.14291 0.134067,-0.14291 0.05633,0 0.05633,0.0135 -0.101468,0.27324 -0.101447,0.16926 -0.101447,0.17287 -0.04507,0.3163 0.03382,0.0801 0.07891,0.14512 0.09017,0.14512 0.01116,0 0.07892,-0.0689 0.147574,-0.15167 z m -4.222871,-0.1183 c 0.117175,-0.0755 0.151006,-0.11628 0.116048,-0.13972 -0.05633,-0.0394 -0.32903,0.12083 -0.330153,0.1954 -1.13e-4,0.072 0.02255,0.0653 0.212969,-0.0552 z m 0.04507,-0.39077 c 0,-0.12912 -0.101437,-0.93921 -0.125115,-0.96107 -0.01082,-0.012 -0.572423,0.29951 -0.607359,0.33759 -0.01116,0.0145 0.349315,0.77637 0.411288,0.86575 0.02258,0.0394 0.06764,0.0315 0.179173,-0.0384 0.113817,-0.071 0.144241,-0.11287 0.144241,-0.20419 z m 0.685108,-0.0192 c 0.341424,-0.18536 0.486785,-0.31822 0.210715,-0.19089 -0.211843,0.0981 -0.637779,0.33861 -0.637779,0.36104 0,0.0473 0.101468,0.007 0.427064,-0.17014 z m -0.09016,-0.13144 c 0.254663,-0.14266 0.466504,-0.26389 0.472137,-0.26952 0.0055,-0.005 -0.153241,-0.18796 -0.351567,-0.4052 l -0.361707,-0.39495 -0.178045,0.0913 c -0.101468,0.0508 -0.184796,0.1025 -0.192685,0.11707 -0.0078,0.0135 0.0095,0.18941 0.03382,0.38965 0.03385,0.20035 0.05635,0.45298 0.05635,0.56138 1.13e-4,0.10819 0.01116,0.19088 0.02258,0.18322 0.01116,-0.007 0.236633,-0.13075 0.490168,-0.27336 z m 0.830467,-0.25815 c 0.190438,-0.1025 0.220854,-0.17714 0.05635,-0.14083 -0.138621,0.0304 -0.301984,0.14603 -0.274946,0.19427 0.02258,0.0484 0.02258,0.0484 0.217477,-0.0529 z m -0.113807,-0.18311 c 0.06764,-0.0384 0.130755,-0.0833 0.130755,-0.10145 0,-0.0868 -0.392137,-0.89086 -0.433827,-0.89086 -0.06764,0 -0.478899,0.23358 -0.510453,0.2906 -0.01116,0.0292 0.101426,0.18875 0.30537,0.40903 0.183668,0.19889 0.343676,0.3615 0.356074,0.3615 0.01116,0 0.07891,-0.0304 0.153241,-0.0689 z m -1.198246,-0.62582 c 0.0789,-0.0451 0.145359,-0.0991 0.145359,-0.12012 0,-0.0203 -0.03382,-0.10472 -0.07892,-0.18695 -0.07891,-0.14335 -0.07891,-0.1573 -0.02258,-0.34987 0.05636,-0.17736 0.05636,-0.20757 0.0037,-0.2612 -0.120589,-0.13333 -0.477772,-0.0156 -0.640032,0.21138 -0.113819,0.15833 -0.09016,0.26052 0.09018,0.32611 0.193809,0.0743 0.235505,0.11887 0.286211,0.30468 0.02258,0.0868 0.04508,0.15844 0.05637,0.15844 0.0078,0 0.07891,-0.0371 0.161131,-0.0823 z"
       id="path1-89"
       inkscape:export-filename="icon_clean_24.svg"
       inkscape:export-xdpi="96"
       inkscape:export-ydpi="96" /></g></svg>
