<?xml version="1.0" encoding="UTF-8" standalone="no"?>
<!-- Created with Inkscape (http://www.inkscape.org/) -->

<svg
   width="103.67907mm"
   height="99.568977mm"
   viewBox="0 0 103.67907 99.568977"
   version="1.1"
   id="svg1"
   xml:space="preserve"
   xmlns:inkscape="http://www.inkscape.org/namespaces/inkscape"
   xmlns:sodipodi="http://sodipodi.sourceforge.net/DTD/sodipodi-0.dtd"
   xmlns="http://www.w3.org/2000/svg"
   xmlns:svg="http://www.w3.org/2000/svg"><sodipodi:namedview
     id="namedview1"
     pagecolor="#ffffff"
     bordercolor="#111111"
     borderopacity="1"
     inkscape:showpageshadow="0"
     inkscape:pageopacity="0"
     inkscape:pagecheckerboard="1"
     inkscape:deskcolor="#d1d1d1"
     inkscape:document-units="mm"><inkscape:page
       x="0"
       y="0"
       width="103.67907"
       height="99.568977"
       id="page2"
       margin="0"
       bleed="0" /></sodipodi:namedview><defs
     id="defs1" /><g
     inkscape:label="Layer 1"
     inkscape:groupmode="layer"
     id="layer1"
     transform="translate(-49.779356,-95.110358)"><path
       style="fill:none;stroke:#000000;stroke-width:5.5;stroke-linejoin:round"
       d="m 101.20312,194.3579 c -5.565413,-1.27241 -9.814419,-3.68483 -13.648344,-7.74899 -3.917978,-4.15326 -6.02745,-8.86374 -6.597232,-14.7317 -1.135045,-11.68937 6.063915,-22.49142 17.472712,-26.21782 0.797474,-0.26048 1.552337,-0.53239 1.677474,-0.60425 0.12514,-0.0719 -0.730973,-0.58119 -1.902469,-1.13184 -7.407257,-3.48173 -12.089457,-9.57225 -13.795773,-17.94529 -3.038913,-14.9122 6.420192,-29.171629 20.384122,-30.7287 6.17851,-0.688945 12.28829,1.20009 17.17182,5.30922 3.36309,2.8298 6.3903,7.66366 7.85998,12.55085 0.66972,2.22705 0.71609,2.70678 0.71609,7.40833 0,4.71881 -0.0443,5.17311 -0.72293,7.40833 -2.54974,8.39858 -8.29599,14.61257 -15.65086,16.92483 -0.65575,0.20616 -0.90737,0.38602 -0.66146,0.47283 0.21828,0.0771 1.31541,0.46114 2.43806,0.85352 4.28001,1.4959 9.27785,5.34637 11.84364,9.12465 1.52739,2.24919 3.06898,5.56978 3.75037,8.07834 0.47026,1.73127 0.57513,2.83928 0.57594,6.08542 8.5e-4,3.42593 -0.0917,4.31483 -0.6768,6.49911 -2.30958,8.62229 -9.05935,15.39362 -17.93121,17.98848 -2.54106,0.74322 -9.78083,0.98135 -12.30313,0.40468 z m 8.83047,-0.84826 c 0.64754,-0.12951 0.82683,-0.30163 0.82683,-0.79375 v -0.62839 h -4.36563 -4.36562 v 0.64206 c 0,0.389 0.18249,0.68975 0.46302,0.76306 0.72132,0.1885 6.5177,0.20176 7.4414,0.017 z m -8.97642,-1.24897 c -0.10021,-1.27198 -0.27895,-1.2315 5.43762,-1.2315 h 5.42396 v 0.91042 c 0,0.50074 0.0988,0.97148 0.2195,1.04609 0.12072,0.0746 1.36621,-0.2585 2.76775,-0.74024 7.73292,-2.65798 13.65757,-9.26476 15.71509,-17.52444 0.6921,-2.77836 0.62259,-8.05389 -0.14396,-10.92623 -1.51143,-5.66345 -4.67332,-10.2591 -9.35884,-13.60262 -1.84829,-1.31891 -5.71164,-3.24613 -7.03975,-3.51175 -0.72418,-0.14484 -0.80395,-0.0908 -0.88265,0.59737 l -0.0865,0.75661 h -6.35 -6.35 l -0.083,-0.86072 c -0.0757,-0.78518 -0.14534,-0.8465 -0.793746,-0.69881 -1.152425,0.26249 -4.731208,1.84404 -6.324633,2.79499 -3.541604,2.11363 -7.809398,7.08689 -9.448446,11.01027 -2.412523,5.77485 -2.421093,12.80325 -0.02243,18.39792 1.312255,3.06073 2.424442,4.77627 4.612904,7.11538 2.166861,2.31602 4.286415,3.9282 6.899953,5.24825 1.923195,0.97138 5.308208,2.12518 5.637588,1.92161 0.11797,-0.0729 0.19428,-0.38908 0.16958,-0.7026 z m 0.75645,-3.09322 c -9.266423,-2.27862 -15.550733,-10.19313 -15.5576,-19.59335 -0.0024,-3.24168 0.66603,-5.94068 2.285983,-9.23085 2.157535,-4.38201 6.437977,-8.04338 11.296113,-9.66238 7.666764,-2.55498 15.927994,-0.59557 21.370584,5.06871 3.84243,3.99894 5.572,8.23706 5.5975,13.71605 0.0169,3.6219 -0.48049,5.78625 -2.09341,9.11008 -1.03575,2.1344 -1.58001,2.86693 -3.76136,5.06251 -2.28835,2.30326 -2.83583,2.70393 -5.32851,3.89966 -1.52797,0.73296 -3.63507,1.52069 -4.68244,1.75052 -2.56383,0.56257 -6.56271,0.50957 -9.12686,-0.12095 z m 10.502,-1.42732 c 5.86189,-1.96704 10.56319,-6.55479 12.42526,-12.12516 1.71767,-5.13838 1.14088,-11.03914 -1.5171,-15.52042 -1.81744,-3.06416 -5.67632,-6.46691 -8.95231,-7.89413 -5.08492,-2.21529 -11.7123,-1.97474 -16.618089,0.60317 -4.830119,2.53816 -8.372488,6.91616 -9.735306,12.03183 -0.6266,2.35209 -0.617084,7.19505 0.01872,9.525 1.861258,6.82076 7.647006,12.31982 14.589255,13.86636 2.82822,0.63004 7.09364,0.41801 9.78958,-0.48665 z m -8.39697,-2.01131 c -5.875005,-0.98925 -10.997405,-5.22449 -12.913919,-10.67731 -1.867525,-5.31345 -0.749943,-11.53903 2.855115,-15.90463 1.110577,-1.34488 3.290999,-3.03566 5.117229,-3.96811 5.444185,-2.77971 11.728785,-2.41785 16.789105,0.9667 2.41591,1.61586 4.05624,3.45893 5.37925,6.04411 1.41186,2.7588 1.75025,4.18968 1.75201,7.40834 0.002,3.24774 -0.33239,4.63482 -1.81337,7.52704 -3.15142,6.15444 -10.33337,9.75427 -17.16542,8.60386 z m 6.7522,-1.48891 c 1.90188,-0.55874 4.57958,-2.00219 6.0427,-3.2574 1.66988,-1.4326 3.54882,-4.2637 4.34043,-6.53999 1.88049,-5.40735 0.50359,-11.34591 -3.57772,-15.43064 -5.02889,-5.03312 -12.6413,-5.9928 -18.809418,-2.37126 -2.107998,1.23769 -4.572366,3.80704 -5.709671,5.95291 -3.628659,6.84658 -1.344381,15.45171 5.22966,19.70072 3.829589,2.47518 8.306519,3.17292 12.484019,1.94566 z m 1.25195,-38.25605 c 0.002,-0.61847 0.0915,-1.25576 0.19844,-1.4162 0.10691,-0.16044 0.84923,-0.50452 1.64959,-0.76461 5.69938,-1.85213 10.4055,-6.07283 13.23207,-11.86721 2.06787,-4.23907 2.4662,-6.07742 2.47403,-11.41813 0.006,-3.83306 -0.0796,-4.81079 -0.5764,-6.61458 -2.34921,-8.52928 -8.70094,-15.069779 -16.7172,-17.214014 -2.3523,-0.629209 -7.1661,-0.626497 -9.65729,0.0054 -8.161343,2.070281 -14.476192,8.574394 -16.836246,17.340864 -0.880949,3.2723 -0.885373,9.46302 -0.0091,12.69416 2.162229,7.97269 7.130802,13.94312 13.771669,16.54858 l 1.883027,0.73878 v 1.36931 c 0,0.75312 0.0794,1.44868 0.17639,1.5457 0.097,0.097 2.47826,0.17638 5.29166,0.17638 h 5.11528 z m -6.75892,-4.96529 c -9.690037,-1.30838 -16.603255,-9.9127 -16.577898,-20.63315 0.0093,-3.93809 0.546206,-6.30812 2.212124,-9.76509 1.164235,-2.41593 1.624057,-3.05095 3.749331,-5.17786 3.827533,-3.83049 7.585983,-5.474066 12.517803,-5.474066 5.27234,0 8.97641,1.500296 12.74708,5.163066 2.81353,2.73303 4.58843,5.78984 5.63916,9.71202 0.82351,3.07402 0.81845,8.14441 -0.0112,11.23047 -2.63244,9.7918 -11.27299,16.16027 -20.27639,14.94461 z m 7.13764,-1.7414 c 2.48674,-0.80124 4.7039,-2.22999 6.89937,-4.446 6.37821,-6.43787 7.63642,-16.96009 2.97709,-24.89679 -2.11194,-3.59747 -6.16211,-6.96396 -9.86236,-8.19756 -4.48926,-1.49663 -9.82183,-0.74942 -13.954924,1.9554 -3.616283,2.36661 -6.148809,5.71143 -7.641876,10.09296 -0.735456,2.15825 -0.866659,2.95038 -0.961751,5.80649 -0.213931,6.4255 1.552493,11.13519 5.757514,15.35085 2.067621,2.07286 4.955577,3.83003 7.408337,4.5076 2.81332,0.77718 6.64928,0.70644 9.3786,-0.17295 z M 99.333509,123.79663 c -0.10345,-0.16738 0.943691,-1.4432 2.443051,-2.97656 1.44325,-1.47599 3.86283,-3.96353 5.37683,-5.52788 2.50102,-2.58418 3.71212,-3.40603 3.70403,-2.51354 -0.004,0.43567 -10.6195,11.33314 -11.027743,11.32061 -0.173313,-0.005 -0.396589,-0.1415 -0.496168,-0.30263 z m -5.396238,-2.15444 c 0.0056,-0.1819 3.501023,-3.89207 7.767599,-8.24482 5.88188,-6.00069 7.866,-7.87243 8.20654,-7.74175 0.29304,0.11245 0.37508,0.29865 0.23605,0.53575 -0.1172,0.19986 -3.60108,3.83248 -7.74196,8.07247 -6.846861,7.01074 -8.501311,8.45225 -8.468229,7.37835 z M 64.42604,193.2774 c -1.351007,-0.47791 -2.931287,-2.15904 -3.266747,-3.47523 -0.143259,-0.56208 -0.333796,-2.27212 -0.423417,-3.80009 -0.08962,-1.52796 -0.573936,-9.44562 -1.076257,-17.59479 -1.218298,-19.76452 -1.655576,-27.60428 -1.866843,-33.46979 l -0.176304,-4.89479 -1.321008,-3.43958 c -3.080106,-8.01985 -5.970036,-15.97358 -6.284026,-17.29504 -1.243268,-5.23242 2.570761,-9.723307 9.948924,-11.714521 2.888151,-0.779452 9.315853,-0.84862 12.403179,-0.133469 7.079342,1.639864 11.315981,5.74855 10.912599,10.58301 -0.126218,1.51272 -2.21112,7.51505 -6.768455,19.48606 l -1.057625,2.77812 -0.162483,5.15938 c -0.24342,7.72937 -0.593018,14.11231 -1.738971,31.75 -0.572013,8.80401 -1.108517,17.13838 -1.192232,18.52083 -0.235201,3.88407 -0.547219,4.93394 -1.855034,6.24175 -1.644889,1.64489 -3.795822,2.10449 -6.0753,1.29815 z m 3.655536,-1.04406 c 2.46738,-0.87998 2.806145,-1.72201 3.243236,-8.06132 0.41867,-6.07215 2.125673,-33.08462 2.388151,-37.79129 l 0.180749,-3.24115 h -7.334728 -7.334728 l 0.167219,2.57969 c 0.188009,2.90039 1.181239,19.30451 2.014502,33.27136 0.303863,5.09323 0.667045,9.71156 0.807071,10.26296 0.334589,1.31756 1.429304,2.5015 2.742159,2.96567 1.318564,0.46619 1.851957,0.46859 3.126369,0.0141 z m 5.84759,-50.7474 c 0.06628,-0.32742 0.184907,-2.88727 0.263627,-5.68854 l 0.143127,-5.09323 h -7.666919 -7.666919 v 4.46099 c 0,2.45354 0.07571,5.01338 0.168255,5.68854 l 0.168255,1.22755 h 7.235037 7.235038 z m 1.077671,-13.22917 c 1.105676,-2.75193 6.728428,-18.17417 7.010878,-19.22962 1.174881,-4.39029 -2.599501,-8.56045 -9.389591,-10.374189 -3.088705,-0.825041 -9.17727,-0.831683 -12.170834,-0.01328 -5.873713,1.605809 -9.657292,4.993949 -9.657292,8.647969 0,1.24535 0.550023,2.9095 4.022911,12.17173 1.746025,4.65666 3.293207,8.79409 3.438182,9.19427 l 0.26359,0.7276 h 8.015181 8.01518 z m -1.315907,-4.9537 c -0.09697,-0.1569 0.854525,-3.37787 2.114437,-7.15771 2.149598,-6.44898 2.63652,-7.47551 3.151033,-6.64301 0.207862,0.33633 -4.421436,13.87834 -4.782675,13.99068 -0.168566,0.0524 -0.385823,-0.0331 -0.482795,-0.18996 z m -17.75037,-7.99996 c -1.29934,-3.81391 -2.362437,-7.05674 -2.362437,-7.20627 0,-0.48359 0.853415,-0.45229 1.052692,0.0386 0.415849,1.0244 4.63585,13.64899 4.63585,13.86865 0,0.12837 -0.216825,0.2334 -0.481834,0.2334 -0.393709,0 -0.91392,-1.26828 -2.844271,-6.93439 z m 3.464493,-1.51153 c -0.981921,-3.34142 -1.091589,-4.82134 -0.294216,-3.97032 0.321707,0.34335 2.272495,6.44571 2.272495,7.10871 0,0.15425 -0.219061,0.28045 -0.486803,0.28045 -0.395732,0 -0.674758,-0.6396 -1.491476,-3.41884 z m 75.799337,79.13269 c -0.50152,-0.50152 -0.80591,-1.1383 -0.91695,-1.91823 -0.0914,-0.64212 -0.13139,-6.8825 -0.0888,-13.8675 l 0.0774,-12.7 0.59531,-0.0845 c 0.55637,-0.079 0.59532,-0.21318 0.59532,-2.05053 0,-1.88795 0.0247,-1.96597 0.62263,-1.96597 0.58463,0 0.63308,-0.12357 0.79375,-2.02429 0.0941,-1.11337 0.17112,-5.7568 0.17112,-10.31875 V 139.7 h 0.6452 0.64519 l 0.0824,-6.83636 0.0824,-6.83637 0.78256,-1.12852 c 1.39634,-2.01363 6.16226,-5.31053 7.66592,-5.30303 2.06542,0.0103 2.12215,0.28914 2.21653,10.89394 l 0.0817,9.17819 0.71206,0.0822 0.71207,0.0822 0.0693,10.25261 0.0693,10.2526 h 0.65836 c 0.58385,0 0.65868,0.11227 0.66126,0.99219 0.006,1.93357 0.29492,2.97656 0.82546,2.97656 0.47661,0 0.49454,0.49474 0.49454,13.64344 0,9.52733 -0.0892,13.81779 -0.29555,14.22135 -0.76226,1.49052 -0.76962,1.49171 -9.31594,1.49808 l -7.89171,0.006 z m 16.58325,-0.88289 0.61236,-0.57529 v -13.05075 -13.05076 h -8.46667 -8.46666 v 13.21417 13.21416 l 0.58804,0.41188 c 0.49756,0.34851 1.70598,0.41188 7.8543,0.41188 7.09629,0 7.28058,-0.0135 7.87863,-0.57529 z m -0.71056,-29.19034 v -1.45521 h -7.27604 -7.27604 v 1.45521 1.45521 h 7.27604 7.27604 z m -1.4552,-12.30312 v -9.65729 l -5.75469,-0.0713 -5.75469,-0.0713 v 9.79991 9.7999 l 5.75469,-0.0713 5.75469,-0.0713 z m -1.45521,-18.38854 c 0,-4.14735 -0.0485,-7.54063 -0.1078,-7.54063 -0.0593,0 -0.86774,0.75995 -1.79656,1.68877 -1.3259,1.3259 -2.00723,1.78916 -3.17087,2.15596 -1.54238,0.4862 -2.33311,0.40651 -2.33311,-0.2351 0,-0.22387 0.39607,-0.45004 0.97988,-0.55956 1.50544,-0.28243 2.76995,-1.03359 4.01653,-2.38598 1.86051,-2.01841 2.684,-4.63284 1.45926,-4.63284 -1.28118,0 -5.81889,3.15334 -6.91066,4.80235 l -0.73563,1.11109 -0.0898,6.56828 -0.0898,6.56828 h 4.38932 4.38932 z"
       id="path1" /></g></svg>