<?xml version="1.0" encoding="UTF-8" standalone="no"?>
<!-- Created with Inkscape (http://www.inkscape.org/) -->

<svg
   width="9.260457mm"
   height="11.319521mm"
   viewBox="0 0 9.260457 11.319521"
   version="1.1"
   id="svg1"
   xml:space="preserve"
   inkscape:export-filename="ビットマップ.svg"
   inkscape:export-xdpi="96"
   inkscape:export-ydpi="96"
   xmlns:inkscape="http://www.inkscape.org/namespaces/inkscape"
   xmlns:sodipodi="http://sodipodi.sourceforge.net/DTD/sodipodi-0.dtd"
   xmlns="http://www.w3.org/2000/svg"
   xmlns:svg="http://www.w3.org/2000/svg"><sodipodi:namedview
     id="namedview1"
     pagecolor="#ffffff"
     bordercolor="#111111"
     borderopacity="1"
     inkscape:showpageshadow="0"
     inkscape:pageopacity="0"
     inkscape:pagecheckerboard="1"
     inkscape:deskcolor="#d1d1d1"
     inkscape:document-units="mm"><inkscape:page
       x="0"
       y="0"
       width="9.260457"
       height="11.319521"
       id="page2"
       margin="0"
       bleed="0" /></sodipodi:namedview><defs
     id="defs1" /><g
     inkscape:label="Layer 1"
     inkscape:groupmode="layer"
     id="layer1"
     transform="translate(-73.771088,118.2059)"><path
       style="fill:#000000;stroke:#000000;stroke-width:0.208156;stroke-linecap:round;stroke-linejoin:round;stroke-dasharray:none;stroke-opacity:1"
       d="m 79.753612,-107.00957 c -0.37194,-0.0448 -0.99611,-0.17825 -1.254563,-0.26775 -0.388555,-0.13458 -0.569535,-0.28602 -0.569535,-0.4768 0,-0.0316 -0.01656,-0.0714 -0.03323,-0.0886 -0.0498,-0.0482 -0.366967,-0.14705 -0.733937,-0.23173 -0.616855,-0.14238 -0.817782,-0.25189 -1.047505,-0.56729 -0.09464,-0.13035 -0.142793,-0.16298 -0.471573,-0.31807 l -0.366126,-0.17286 -0.702385,-1.10864 c -0.62351,-0.98442 -0.740573,-1.18663 -0.688269,-1.18663 0.0082,0 0.345383,0.17576 0.75053,0.39071 0.405157,0.21487 0.769635,0.39934 0.809489,0.40989 l 0.07469,0.0191 -0.09465,-0.11225 c -0.20175,-0.23787 -0.579509,-0.47123 -0.925708,-0.57187 -0.251572,-0.073 -0.249907,-0.0722 -0.232469,-0.10303 0.01656,-0.0332 0.339572,0.0614 0.572022,0.16904 0.24327,0.11225 0.446675,0.26509 0.617706,0.46344 l 0.152752,0.17808 0.132843,-0.1291 c 0.409312,-0.39701 0.864273,-0.6074 1.385338,-0.63962 0.257366,-0.0157 0.178491,0.0208 -0.163554,0.0755 -0.404331,0.0656 -0.743061,0.22209 -1.085709,0.50204 -0.212542,0.1741 -0.190125,0.16829 0.62102,-0.15535 0.346209,-0.13814 0.730604,-0.28957 0.855476,-0.33648 l 0.226657,-0.0853 0.06645,0.0902 c 0.121219,0.1668 1.291434,2.05527 1.291434,2.08406 0,0.0157 -0.07469,0.054 -0.176834,0.0844 -0.09714,0.0308 -0.176844,0.0648 -0.176844,0.0747 0,0.01 0.199259,0.0307 0.442511,0.0457 1.064117,0.0639 1.312934,0.003 1.45018,-0.36024 0.04979,-0.13216 0.09298,-0.63488 0.09547,-1.10156 9.98e-4,-0.24567 0.0082,-0.30304 0.03323,-0.25846 0.04156,0.0781 0.0046,1.04939 -0.0498,1.27578 -0.04156,0.19742 -0.102115,0.2939 -0.228313,0.38855 -0.195105,0.14646 -0.469918,0.16896 -1.416962,0.11557 -0.565395,-0.0316 -0.661709,-0.0116 -0.723971,0.15102 -0.04979,0.14405 -0.200915,0.81712 -0.205903,0.94512 -0.0019,0.059 0.01656,0.14379 0.04146,0.18987 0.17352,0.2934 1.272759,0.56681 2.300675,0.57254 0.479043,0.003 0.552938,-0.004 0.747218,-0.0665 0.299711,-0.096 0.454128,-0.19643 0.642597,-0.41902 0.395197,-0.46617 0.554592,-1.15148 0.553769,-2.38332 -1.42e-4,-1.25299 -0.182647,-2.12583 -0.549614,-2.63509 -0.16024,-0.22216 -0.471573,-0.44069 -0.783741,-0.55127 -0.141977,-0.0506 -0.281457,-0.0913 -0.308854,-0.0913 -0.0249,0 -0.08385,0.0523 -0.12454,0.12321 -0.200908,0.33442 -0.643429,0.71831 -0.969712,0.83976 -0.430896,0.16057 -0.852233,-0.0465 -0.981169,-0.4818 -0.01658,-0.0581 -0.04155,-0.11689 -0.04979,-0.13117 -0.03323,-0.0382 -0.289752,0.10262 -0.454136,0.24708 -0.159398,0.14014 -0.373605,0.4588 -0.513918,0.76365 -0.04979,0.11167 -0.106269,0.20299 -0.120384,0.20299 -0.06645,0 0.204239,-0.53733 0.407655,-0.80707 0.15774,-0.21005 0.354502,-0.35932 0.660032,-0.50221 0.298887,-0.13981 0.332103,-0.18498 0.313834,-0.43006 -0.0073,-0.10486 -0.0249,-0.20431 -0.04156,-0.22084 -0.01656,-0.02 -0.07469,-0.0182 -0.176843,0.006 -0.191791,0.0473 -0.35452,0.02 -0.562907,-0.0951 -0.544634,-0.30063 -1.082204,-1.36542 -1.098891,-2.17642 -0.0055,-0.24824 0.0249,-0.4661 0.05812,-0.4661 0.0082,0 0.08879,0.073 0.171846,0.16257 0.484862,0.51856 1.330543,0.77901 1.99424,0.61395 0.09713,-0.0241 0.161061,-0.0648 0.234124,-0.14936 0.07469,-0.0907 0.120385,-0.11598 0.193448,-0.11598 0.249063,0 0.376095,0.35542 0.234948,0.66094 -0.05812,0.13168 -0.195095,0.26925 -0.226646,0.23347 -0.0082,-0.01 0.03323,-0.0706 0.09215,-0.13359 0.167707,-0.17617 0.189291,-0.47049 0.04147,-0.6289 -0.09629,-0.10685 -0.194272,-0.0931 -0.311334,0.044 -0.07469,0.0848 -0.13948,0.1272 -0.248241,0.15767 -0.195937,0.0556 -0.69574,0.0498 -0.941159,-0.0108 -0.399337,-0.098 -0.831723,-0.34124 -1.109025,-0.62327 l -0.118721,-0.12104 -0.01656,0.14305 c -0.04979,0.49772 0.18597,1.29802 0.538826,1.81712 0.368624,0.54166 0.802008,0.75602 1.184831,0.58566 0.16272,-0.0722 0.380241,-0.25596 0.464103,-0.39113 0.06646,-0.11034 0.108762,-0.13815 0.108762,-0.0747 0,0.0648 -0.191791,0.29266 -0.329613,0.39096 -0.111243,0.0797 -0.134491,0.10976 -0.119544,0.15965 0.03323,0.12188 0.04156,0.39394 0.01656,0.47614 -0.01656,0.0465 -0.06645,0.10711 -0.113731,0.13533 -0.179334,0.11017 -0.176844,0.1003 -0.10129,0.27987 0.260688,0.62916 0.830238,0.63439 1.502225,0.0141 0.13201,-0.12188 0.399345,-0.46801 0.399345,-0.51782 0,-0.0141 -0.05813,-0.0498 -0.135325,-0.0789 -0.299717,-0.11773 -0.544644,-0.43421 -0.66752,-0.86633 -0.07469,-0.25487 -0.08384,-0.32776 -0.04155,-0.32776 0.01656,0 0.03323,0.0722 0.05812,0.1613 0.04156,0.22351 0.196769,0.56025 0.317989,0.70944 0.146125,0.17875 0.282282,0.25596 0.637614,0.36132 0.591969,0.17569 0.930123,0.40616 1.164918,0.79388 0.210874,0.34837 0.338729,0.78515 0.432541,1.4842 0.07469,0.53227 0.06645,1.70147 -0.01658,2.17378 -0.171031,1.03846 -0.499802,1.53768 -1.149289,1.74395 -0.164397,0.0523 -0.293916,0.0673 -0.666679,0.0755 -0.254894,0.005 -0.567062,-0.002 -0.694924,-0.0175 z m -1.813562,-0.9527 c 0.01658,-0.0473 0.152762,-0.72828 0.152762,-0.74356 0,-0.004 -0.0498,-0.0224 -0.108762,-0.0424 -0.08714,-0.029 -0.136989,-0.0781 -0.254876,-0.25331 -0.175186,-0.26261 -0.709853,-0.8108 -0.775447,-0.79685 -0.07469,0.0166 -0.06645,0.13856 0.03323,0.33799 0.15525,0.30685 0.123697,0.40789 -0.129522,0.40789 -0.277302,0 -0.60524,-0.17403 -0.956346,-0.50769 -0.263196,-0.24949 -0.293914,-0.20233 -0.12703,0.19229 0.217521,0.51258 0.483198,0.87941 0.741396,1.02414 0.123709,0.0689 0.268168,0.112 0.949299,0.28236 0.141968,0.0357 0.295563,0.0831 0.340395,0.10569 0.108762,0.0548 0.117063,0.0548 0.133666,-0.006 z m 0.218355,-0.86788 c 0.0082,-0.0357 0.0055,-0.0432 -0.0249,-0.0299 -0.0249,0.01 -0.05813,0.0183 -0.08385,0.0183 -0.0249,0 -0.04147,0.0133 -0.04147,0.0299 0,0.0498 0.129521,0.034 0.146948,-0.0183 z m -2.307643,-0.24102 c -0.107103,-0.20167 -0.234958,-0.52828 -0.234958,-0.59719 0,-0.0257 0.01656,-0.0722 0.03323,-0.10362 0.0249,-0.049 0.0055,-0.1012 -0.164386,-0.37949 -0.180157,-0.29449 -0.217521,-0.38216 -0.143626,-0.33184 0.01658,0.01 0.136982,0.19759 0.272304,0.41643 0.193449,0.3135 0.283947,0.43223 0.430905,0.55959 0.182648,0.15824 0.568709,0.3883 0.596938,0.35591 0.0249,-0.0232 -0.01665,-0.0894 -0.374438,-0.71499 -0.177667,-0.30703 -0.322958,-0.57718 -0.322958,-0.60034 0,-0.0349 0.0064,-0.0349 0.03323,0.002 0.0249,0.0341 0.531346,0.90184 0.743886,1.28446 0.0249,0.0514 0.05812,0.0673 0.142803,0.0673 0.176843,0 0.191791,-0.0581 0.07469,-0.30984 -0.136989,-0.29523 -0.128688,-0.44194 0.0249,-0.44194 0.07469,0 0.645917,0.57394 0.803667,0.81363 0.06645,0.0983 0.13699,0.17868 0.159406,0.17868 0.0498,0 0.877975,-0.30055 0.907934,-0.3307 0.01656,-0.0182 -1.140402,-1.91495 -1.245675,-2.03845 -0.03323,-0.0416 -0.268999,0.0424 -1.399526,0.50145 -0.289759,0.11757 -0.560416,0.21379 -0.601936,0.21379 -0.114572,0 -0.232459,-0.054 -0.858871,-0.39054 -0.717322,-0.38531 -0.760499,-0.40615 -0.733102,-0.35526 0.0082,0.0216 0.311342,0.49923 0.666678,1.06155 l 0.645935,1.02239 0.308845,0.15227 c 0.169365,0.0837 0.312165,0.14969 0.317146,0.14662 0.0046,-0.003 -0.03323,-0.0851 -0.08549,-0.18232 z m -0.07469,-1.80382 c -0.0082,-0.0116 -0.01658,-0.0506 -0.01658,-0.0859 0,-0.0465 -0.03323,-0.0822 -0.123709,-0.1305 -0.08467,-0.0457 -0.146949,-0.10876 -0.197584,-0.2005 -0.08385,-0.1531 -0.114573,-0.16896 -0.114573,-0.0598 0,0.12304 0.0988,0.30304 0.208376,0.37742 0.120386,0.0822 0.07469,0.11723 -0.0498,0.0373 -0.229969,-0.14903 -0.267322,-0.39486 -0.116219,-0.78441 0.01656,-0.054 0.0498,-0.0977 0.05812,-0.0977 0.01658,0 0.03323,-0.0565 0.04146,-0.12469 0.01658,-0.15808 0.07469,-0.22342 0.249906,-0.27091 0.07469,-0.0208 0.139479,-0.0398 0.143626,-0.0424 0.0037,-0.002 0.03323,-0.17186 0.05812,-0.37659 0.06645,-0.4568 0.133667,-0.58806 0.237447,-0.47266 0.0498,0.054 0.0249,0.52712 -0.03323,0.85586 -0.0082,0.0548 0.01658,0.0839 0.185136,0.18531 0.107927,0.0665 0.242427,0.17228 0.298052,0.2357 0.13699,0.15708 0.237457,0.43115 0.15775,0.43115 -0.01658,0 -0.0249,-0.0208 -0.0249,-0.0465 0,-0.0773 -0.08385,-0.23222 -0.18598,-0.35186 -0.12952,-0.14919 -0.211707,-0.1477 -0.427563,0.008 -0.191791,0.13798 -0.259864,0.2416 -0.204248,0.31441 0.04979,0.0631 0.0988,0.0581 0.269009,-0.029 0.133657,-0.0681 0.195095,-0.0747 0.195095,-0.0208 0,0.0116 -0.09135,0.054 -0.204231,0.0943 -0.112915,0.0406 -0.204239,0.0906 -0.204239,0.11166 0,0.0556 -0.102948,0.35069 -0.143635,0.41221 -0.01656,0.029 -0.04147,0.0424 -0.0498,0.0308 z m 0.108762,-0.3169 c 0.05812,-0.17285 0.05812,-0.18737 0.01658,-0.22233 -0.04147,-0.0308 -0.0498,-0.0282 -0.08384,0.0116 -0.03323,0.0531 -0.0498,0.39527 -0.01656,0.39527 0.0082,-1e-5 0.04979,-0.0832 0.08384,-0.18488 z m -0.156085,-0.0282 c 0,-0.0622 -0.0249,-0.12122 -0.07469,-0.17925 -0.04156,-0.0473 -0.10129,-0.14812 -0.12952,-0.22308 -0.05812,-0.1531 -0.07469,-0.16465 -0.121209,-0.073 -0.05812,0.12944 0.04979,0.4055 0.203408,0.51052 0.11374,0.0763 0.125364,0.073 0.125364,-0.0357 z m 0.05813,-0.26875 c 0.01658,-0.0416 0.0249,-0.11051 0.0037,-0.21794 -0.01658,-0.10503 -0.01658,-0.16365 0.0019,-0.17634 0.04979,-0.0324 0.07469,-0.26916 0.03323,-0.28692 -0.05812,-0.0266 -0.229146,0.0523 -0.276469,0.13126 -0.04147,0.0639 -0.04147,0.0999 -0.01658,0.23105 0.03323,0.17958 0.132834,0.37958 0.186801,0.37958 0.01658,0 0.04979,-0.0274 0.06645,-0.0606 z m 0.151927,-0.21811 c 0.04156,-0.0457 0.07469,-0.15542 0.103781,-0.34827 0.07469,-0.45498 0.117063,-0.89282 0.09135,-0.96857 -0.0498,-0.14712 -0.100467,0.0108 -0.18598,0.57336 -0.134499,0.88744 -0.134499,0.88951 -0.0082,0.74356 z m 0.278136,-0.21303 0.117886,-0.0681 -0.09547,-0.0573 c -0.0498,-0.0316 -0.103781,-0.049 -0.113741,-0.0382 -0.0249,0.0282 -0.06645,0.23428 -0.04156,0.2327 0.0082,-7.5e-4 0.06646,-0.0316 0.135334,-0.0697 z m 6.323159,0.7566 c 0.140313,-0.1962 0.232468,-0.39562 0.284771,-0.61655 0.05813,-0.24184 0.04979,-0.67224 -0.0082,-0.9441 -0.13201,-0.56848 -0.342894,-0.91233 -1.038047,-1.6963 -0.293908,-0.33077 -0.597765,-0.70288 -0.676638,-0.82691 -0.07469,-0.12404 -0.265676,-0.49233 -0.41429,-0.81838 -0.148617,-0.32602 -0.333752,-0.69673 -0.41096,-0.82375 -0.547967,-0.90405 -1.319168,-1.29828 -2.167094,-1.10715 -0.314654,0.0714 -0.573688,0.22084 -0.811135,0.47049 -0.210875,0.22093 -0.304699,0.26086 -0.144468,0.0606 0.230811,-0.2871 0.530531,-0.48229 0.894826,-0.58275 0.191791,-0.0531 0.283948,-0.0614 0.544645,-0.049 0.543803,0.0257 0.952282,0.2274 1.351452,0.66676 0.278968,0.30719 0.492333,0.66585 0.800353,1.34817 0.134501,0.29655 0.301375,0.63612 0.372781,0.75461 0.07469,0.12502 0.363637,0.48011 0.688261,0.84678 0.573689,0.64774 0.739741,0.88244 0.911348,1.28117 0.317979,0.7429 0.266509,1.58804 -0.127021,2.0594 -0.151937,0.18256 -0.184321,0.16695 -0.04979,-0.0233 z m -7.985871,-0.88114 c -0.159406,-0.16606 -0.178502,-0.19569 -0.127855,-0.19569 0.03323,0 0.32544,0.29897 0.32544,0.33517 0,0.0514 -0.04156,0.0208 -0.197585,-0.13948 z m 0.358656,-0.0937 c -0.107104,-0.30479 -0.128688,-0.4026 -0.08467,-0.4026 0.03323,0 0.155259,0.44501 0.132843,0.47009 -0.0082,0.0108 -0.03323,-0.0199 -0.0498,-0.0673 z m 2.67278,-0.30994 c -0.0498,-0.0482 -0.117896,-0.16646 -0.15775,-0.26261 -0.06645,-0.15574 -0.07469,-0.22748 -0.09381,-0.65597 -0.01658,-0.46883 -0.0249,-0.48651 -0.117063,-0.69216 -0.05813,-0.13574 -0.184312,-0.31832 -0.342885,-0.51175 -0.449167,-0.54681 -0.571199,-0.81231 -0.591125,-1.29767 -0.0082,-0.25231 -0.0027,-0.34114 0.04146,-0.51184 0.06645,-0.23239 0.213373,-0.48611 0.365312,-0.62118 0.141968,-0.12628 0.167707,-0.0697 0.03323,0.0648 -0.260697,0.25371 -0.391042,0.58639 -0.391042,0.99737 0,0.42625 0.147781,0.78988 0.491501,1.21013 0.502292,0.61312 0.539646,0.70304 0.567875,1.37596 0.0249,0.53775 0.05812,0.668 0.248249,0.86923 0.131179,0.14081 0.08385,0.1741 -0.04979,0.0357 z"
       id="path1-31"
       inkscape:export-filename="icon_lifestyle_24.svg"
       inkscape:export-xdpi="96"
       inkscape:export-ydpi="96" /></g></svg>
