<?xml version="1.0" encoding="UTF-8" standalone="no"?>
<!-- Created with Inkscape (http://www.inkscape.org/) -->

<svg
   width="73.417923mm"
   height="65.790848mm"
   viewBox="0 0 73.417923 65.790848"
   version="1.1"
   id="svg1"
   xml:space="preserve"
   xmlns:inkscape="http://www.inkscape.org/namespaces/inkscape"
   xmlns:sodipodi="http://sodipodi.sourceforge.net/DTD/sodipodi-0.dtd"
   xmlns="http://www.w3.org/2000/svg"
   xmlns:svg="http://www.w3.org/2000/svg"><sodipodi:namedview
     id="namedview1"
     pagecolor="#ffffff"
     bordercolor="#111111"
     borderopacity="1"
     inkscape:showpageshadow="0"
     inkscape:pageopacity="0"
     inkscape:pagecheckerboard="1"
     inkscape:deskcolor="#d1d1d1"
     inkscape:document-units="mm"><inkscape:page
       x="0"
       y="0"
       width="73.417923"
       height="65.790848"
       id="page2"
       margin="0"
       bleed="0" /></sodipodi:namedview><defs
     id="defs1" /><g
     inkscape:label="Layer 1"
     inkscape:groupmode="layer"
     id="layer1"
     transform="translate(-50.15651,-128.37018)"><path
       style="fill:#000000"
       d="m 67.610656,194.00271 c -3.157341,-0.35866 -4.902521,-0.77779 -5.428447,-1.30372 -0.259906,-0.2599 -1.092573,-2.33284 -1.85037,-4.60653 -0.757798,-2.27369 -1.455833,-4.13398 -1.551189,-4.13398 -0.09536,0 -1.988216,1.81201 -4.206356,4.02668 -2.989035,2.98437 -4.110082,3.94959 -4.330841,3.72883 -0.220759,-0.22076 0.8212,-1.39195 4.025308,-4.52453 l 4.323169,-4.22667 -1.256617,-3.66934 c -0.691139,-2.01814 -1.254629,-4.03299 -1.252201,-4.47744 0.0042,-0.77028 1.217243,-3.03016 1.829659,-3.40865 0.20423,-0.12622 0.182274,-0.38877 -0.07456,-0.8915 -1.570817,-3.0748 0.196609,-6.41178 3.862369,-7.29232 0.529763,-0.12726 0.679405,-0.29334 0.570192,-0.63286 -0.08144,-0.25318 -2.904972,-3.15849 -6.274515,-6.45625 -4.80425,-4.70191 -6.058165,-6.06639 -5.810081,-6.32241 0.248378,-0.25631 1.576867,0.90954 6.182174,5.42532 l 5.865812,5.75179 0.635637,-1.06591 c 0.685088,-1.14885 2.353676,-2.12903 4.645281,-2.72879 l 1.241098,-0.32482 -0.02097,-1.47909 c -0.02257,-1.59165 0.404452,-2.68538 1.41624,-3.62743 0.720813,-0.67114 1.846343,-1.14211 2.729404,-1.14211 0.500459,0 0.768288,-0.31732 1.395744,-1.65364 0.427047,-0.90951 1.097883,-2.03369 1.490748,-2.49819 0.695683,-0.82253 3.577266,-2.46275 4.326632,-2.46275 0.758485,0 0.17057,0.85579 -0.821677,1.19606 -0.563529,0.19325 -1.456498,0.69757 -1.984374,1.1207 -0.944356,0.75696 -2.679567,3.30508 -2.679567,3.93487 0,0.17705 0.426931,0.46281 0.948735,0.63502 2.038323,0.67271 3.279198,2.43695 3.283123,4.66785 0.0013,0.73162 0.111413,0.86253 0.861371,1.02392 0.472943,0.10178 1.604304,0.52062 2.514137,0.93075 l 1.654241,0.74568 4.508761,-4.39078 c 3.576404,-3.48282 4.574785,-4.32198 4.82805,-4.05808 0.252754,0.26337 -0.627949,1.25066 -4.226317,4.73783 l -4.545606,4.40514 0.530088,0.68436 c 0.291548,0.3764 0.596266,1.17777 0.677152,1.78081 0.127281,0.94895 0.300027,1.18609 1.284188,1.76284 2.581189,1.51268 3.79053,4.77456 2.613815,7.05008 -0.382534,0.73974 -0.377493,0.85217 0.06615,1.47522 1.868259,2.62377 1.86009,3.02596 -0.181217,8.92109 -0.873125,2.52151 -1.5875,4.76788 -1.5875,4.99194 0,0.22405 1.279787,1.60254 2.843971,3.06331 2.293114,2.14151 2.779144,2.72077 2.509283,2.99063 -0.269861,0.26986 -0.864864,-0.19368 -3.071892,-2.3932 l -2.737205,-2.72789 -1.028849,3.00144 c -1.175373,3.4289 -1.414149,3.64679 -4.600724,4.19831 -2.257469,0.39071 -11.464899,0.55245 -14.141454,0.24841 z m 5.564249,-7.53069 c 0.02401,-7.59351 -0.01839,-7.81901 -1.593982,-8.47734 -0.650512,-0.2718 -1.112593,-0.29625 -1.834006,-0.0971 -1.79221,0.49485 -1.814035,0.66715 -0.952117,7.51607 0.421209,3.34698 0.833948,6.4646 0.917199,6.92806 0.166516,0.92698 0.577114,1.10715 2.382819,1.04554 l 1.058334,-0.0361 z m 3.975243,6.80897 c 0.162603,-0.10794 0.664351,-3.30315 1.128236,-7.18479 l 0.835405,-6.99041 -0.551455,-0.587 c -0.303301,-0.32284 -0.907707,-0.65824 -1.343126,-0.74533 -0.971087,-0.19421 -2.465003,0.39105 -2.854135,1.11814 -0.184205,0.34419 -0.28588,3.03402 -0.28588,7.56303 v 7.02885 l 1.389063,-0.004 c 0.763984,-0.002 1.520836,-0.0915 1.681892,-0.19844 z m -8.362621,-0.70576 c 0,-1.33909 -1.627935,-13.22501 -1.874422,-13.68557 -0.141862,-0.26508 -0.592839,-0.65514 -1.00217,-0.86681 -0.727622,-0.37627 -0.772461,-0.35621 -2.008382,0.89858 l -1.264144,1.28344 1.553205,6.30858 1.553205,6.30857 0.926041,0.16361 c 1.867273,0.3299 2.116667,0.28154 2.116667,-0.4104 z m 12.61843,0.28426 c 0.04281,-0.0428 0.599397,-2.21188 1.23686,-4.82015 l 1.159024,-4.74232 -1.883098,-1.92322 c -1.035703,-1.05777 -1.910573,-1.83168 -1.944154,-1.71979 -0.08699,0.28985 -1.662063,12.89431 -1.662063,13.30063 0,0.25439 0.370006,0.29363 1.507798,0.1599 0.829289,-0.0975 1.542824,-0.21224 1.585633,-0.25505 z m -16.690105,-0.63278 c -0.07622,-0.25466 -0.626167,-2.42755 -1.222099,-4.82865 -0.595933,-2.40109 -1.20312,-4.81988 -1.349304,-5.37509 l -0.265789,-1.00946 -1.021087,0.87717 c -0.561598,0.48245 -1.027814,1.1153 -1.036035,1.40634 -0.0082,0.29104 0.616382,2.36975 1.388007,4.61936 1.265417,3.6892 1.478678,4.1225 2.175364,4.41983 1.097581,0.46843 1.494155,0.4358 1.330943,-0.1095 z m 19.333543,0.075 c 0.458859,-0.13146 0.771391,-0.74736 1.521354,-2.99805 0.519123,-1.55792 0.933782,-3.01096 0.921464,-3.22897 -0.01232,-0.21801 -0.466843,-0.77752 -1.010056,-1.24336 l -0.987661,-0.84698 -0.975811,4.15427 c -0.536697,2.28485 -0.97514,4.25159 -0.974319,4.37054 8.22e-4,0.11895 0.209853,0.15816 0.464514,0.0871 0.254662,-0.071 0.722893,-0.20358 1.040515,-0.29459 z m 4.226952,-10.98842 c 0.640084,-1.80607 1.104595,-3.43802 1.032246,-3.62656 -0.317695,-0.8279 -2.762484,-0.0675 -3.35749,1.04429 -0.173036,0.32332 -0.518625,1.38099 -0.767977,2.35039 l -0.453368,1.76254 0.955264,0.95526 c 0.525396,0.5254 1.061525,0.91984 1.1914,0.87655 0.129874,-0.0433 0.759841,-1.5564 1.399925,-3.36247 z m -26.785292,-1.97418 c -0.273692,-0.96434 -1.624234,-1.99517 -2.613962,-1.99517 -0.498439,0 -0.972154,0.10663 -1.0527,0.23695 -0.08055,0.13033 0.154998,1.05307 0.523432,2.05053 0.368434,0.99746 0.729161,1.98306 0.801615,2.19023 0.09417,0.26925 0.468687,0.046 1.3133,-0.78296 0.878442,-0.86212 1.142249,-1.29814 1.028315,-1.69958 z m 23.056783,1.14105 0.381022,-1.41643 -0.832155,-0.75741 c -0.709332,-0.64562 -0.988197,-0.73648 -1.889361,-0.61561 -0.581463,0.078 -1.244328,0.32893 -1.473034,0.55763 -0.378049,0.37805 -0.248541,0.56955 1.425465,2.1078 1.012711,0.93058 1.878586,1.65787 1.924167,1.61621 0.04558,-0.0417 0.254334,-0.71315 0.463896,-1.49219 z m -21.423714,-2.11639 c 0.501326,-0.56462 0.500837,-0.56599 -0.09128,-0.25527 -0.327422,0.17181 -0.595313,0.42726 -0.595313,0.56766 0,0.37588 0.126651,0.31826 0.686597,-0.31239 z m 7.833826,-1.46272 c 0.538889,0.0685 1.330834,0.37459 1.759879,0.68009 l 0.780081,0.55547 1.150537,-0.65773 c 0.632796,-0.36176 1.505436,-0.65917 1.9392,-0.66092 l 0.788662,-0.003 -0.809841,-0.80984 c -0.805541,-0.80554 -0.828628,-0.81055 -4.349547,-0.94451 -1.946838,-0.0741 -3.632191,-0.19184 -3.745227,-0.2617 -0.113037,-0.0699 -0.713294,0.35721 -1.333906,0.94904 l -1.128386,1.07605 0.743115,0.6131 0.743116,0.6131 1.241259,-0.63679 c 0.88644,-0.45476 1.52134,-0.60117 2.221058,-0.51217 z m -6.76098,-0.20814 c 0.458371,-0.0952 1.288159,-0.56624 1.843974,-1.0467 l 1.010572,-0.87357 -1.739535,-0.30293 c -2.232708,-0.38881 -4.525581,-1.17998 -5.565353,-1.92036 -1.015207,-0.72289 -1.429876,-0.5169 -2.328077,1.1565 -0.533701,0.99432 -0.605509,1.35328 -0.392105,1.96009 0.238864,0.6792 0.378925,0.74529 1.634748,0.77132 1.031478,0.0214 1.587442,0.19345 2.232644,0.69102 0.841951,0.64929 0.875258,0.65329 1.664437,0.20016 0.442912,-0.25432 1.180324,-0.5403 1.638695,-0.63553 z m 16.360364,0.61842 c 1.128687,-0.66594 3.267908,-0.59283 4.076943,0.13933 0.468648,0.42412 0.551109,0.41075 1.518673,-0.24632 0.846348,-0.57475 1.262681,-0.67985 2.40968,-0.60833 1.516294,0.0946 1.656146,-0.0288 1.656146,-1.46065 0,-0.9317 -0.75018,-2.51761 -1.378321,-2.91383 -0.289959,-0.1829 -0.635239,-0.0903 -1.222446,0.32782 -0.450093,0.32049 -1.485608,0.81228 -2.301145,1.09287 -1.433438,0.49318 -6.216005,1.32047 -7.633606,1.32047 -0.381507,0 -0.693648,0.0852 -0.693648,0.18935 0,0.16667 2.398136,2.72106 2.554617,2.72106 0.03353,0 0.489431,-0.2528 1.013107,-0.56177 z m -7.473478,-4.52831 -1.385913,-1.38591 -1.385912,1.38591 -1.385913,1.38592 h 2.771825 2.771826 z m 9.462004,0.70036 c 2.8856,-0.57449 5.275287,-1.82632 6.014918,-3.1509 0.718097,-1.28602 0.749553,-2.55482 0.09886,-3.98747 -0.70362,-1.54917 -3.20336,-3.49139 -3.20336,-2.48891 0,0.63412 -2.216751,2.61234 -3.638688,3.24716 -2.02776,0.90528 -5.827845,1.67323 -6.427289,1.29887 -0.362594,-0.22644 -0.682896,-0.0364 -1.729165,1.02582 l -1.284136,1.30373 1.710994,1.7432 1.710993,1.74319 2.38125,-0.16981 c 1.309687,-0.0934 3.274218,-0.3476 4.365625,-0.56488 z m -13.094899,-1.16852 1.572911,-1.5895 -3.036402,-3.06825 c -1.670021,-1.68754 -3.393589,-3.22174 -3.830151,-3.40932 -1.022681,-0.43944 -2.904073,-0.1608 -4.161486,0.61633 -1.790286,1.10645 -2.372172,3.86584 -1.186735,5.62767 0.767955,1.14135 3.394342,2.47657 5.877387,2.98797 2.97307,0.61233 3.01623,0.60178 4.764476,-1.1649 z m 8.172344,-7.92147 5.576996,-5.54221 -1.4517,-0.65733 c -0.798435,-0.36153 -1.868418,-0.72937 -2.377741,-0.81742 -0.843508,-0.14582 -0.978953,-0.0772 -1.519713,0.76937 -0.781132,1.22295 -2.338913,2.00022 -4.008772,2.00022 -1.711232,0 -2.587933,-0.34893 -3.775628,-1.50273 -0.965218,-0.93768 -0.9757,-0.94063 -2.248958,-0.63355 -1.844293,0.4448 -3.825334,1.60838 -4.387638,2.57711 l -0.486252,0.83771 0.812683,0.9256 c 0.702799,0.80044 1.066533,0.96841 2.690115,1.24226 1.609507,0.27148 5.254036,0.24157 7.555517,-0.062 1.008354,-0.13301 0.780508,0.43554 -0.323417,0.80703 -0.749022,0.25206 -2.044114,0.32171 -4.467371,0.24024 l -3.412559,-0.11474 2.751101,2.71846 c 1.513105,1.49514 2.91878,2.72649 3.123721,2.73633 0.204941,0.01 2.882269,-2.47612 5.949616,-5.52434 z m 2.857117,2.29282 c 2.936831,-1.06602 4.446687,-2.65756 4.446687,-4.68727 0,-0.77402 -0.714241,-2.39109 -1.049233,-2.37551 -0.07776,0.004 -1.98686,1.79706 -4.242433,3.98543 l -4.101041,3.97886 1.621047,-0.14151 c 0.891576,-0.0778 2.387814,-0.41983 3.324973,-0.76 z m -4.612873,-7.86168 c 1.82262,-1.11126 2.528989,-3.2381 1.698778,-5.11493 -0.644908,-1.45792 -1.791481,-2.15906 -3.122401,-1.90938 -0.552328,0.10362 -0.893899,0.062 -0.893899,-0.10888 0,-0.43372 -1.109663,-0.32442 -2.100352,0.2069 -1.740078,0.93321 -2.387663,3.44373 -1.377834,5.34149 1.016137,1.90962 3.948049,2.71134 5.795708,1.5848 z m 31.854411,33.93139 c -0.36736,-0.70139 -3.18205,-8.22004 -5.88633,-15.72366 -1.32802,-3.68488 -2.539066,-6.93791 -2.69122,-7.22895 -0.152154,-0.29104 -0.911287,-1.34285 -1.686962,-2.33735 -2.287878,-2.9333 -2.482912,-3.86604 -2.747722,-13.14077 -0.12257,-4.29287 -0.29014,-9.17443 -0.372378,-10.84792 -0.09272,-1.88672 -0.03822,-3.44479 0.143446,-4.10104 0.161134,-0.58208 0.381081,-2.14607 0.488773,-3.47553 0.136465,-1.68467 0.35798,-2.68693 0.730963,-3.30729 0.294339,-0.48955 0.604663,-1.34917 0.68961,-1.91027 0.324942,-2.14632 1.792152,-3.0364 2.706046,-1.64163 0.232618,0.35503 0.570297,0.58895 0.750397,0.51984 0.672597,-0.2581 1.255897,0.99634 3.093827,6.65358 1.03764,3.19393 2.11211,6.17837 2.3877,6.63211 0.2756,0.45374 0.50108,1.09727 0.50108,1.43006 0,0.33279 0.43037,1.92608 0.95639,3.54064 l 0.95638,2.93557 -0.22878,4.10104 c -0.12583,2.25558 -0.21582,5.36905 -0.19997,6.91882 0.0416,4.07127 -0.48978,3.11018 13.43703,24.30202 1.702,2.58985 2.94256,4.73081 2.81522,4.85851 -0.12522,0.12556 -0.34525,0.15562 -0.48898,0.0668 -0.30643,-0.18938 -12.57139,-18.83012 -14.55632,-22.12322 -1.96309,-3.25688 -2.27272,-4.73053 -2.04551,-9.7356 0.1694,-3.73173 0.14216,-4.13373 -0.34963,-5.15937 -0.41772,-0.87116 -0.5983,-2.08752 -0.83289,-5.61024 -0.16474,-2.47385 -0.39617,-4.59824 -0.51429,-4.72086 -0.3957,-0.4108 -1.26187,0.32892 -1.72363,1.472 -0.27219,0.6738 -0.53292,2.31056 -0.64398,4.04261 -0.17733,2.76545 -0.24221,3.01114 -1.30255,4.9325 -1.11272,2.01626 -1.933521,4.91602 -1.818465,6.42433 0.08272,1.08446 -0.537684,1.17077 -0.73806,0.10267 -0.259597,-1.38377 0.51729,-4.43544 1.745665,-6.8571 1.05654,-2.0829 1.1383,-2.40322 1.31362,-5.14646 0.19942,-3.12026 0.74092,-4.71704 1.86716,-5.50589 0.68976,-0.48313 0.72475,-0.31257 -1.39137,-6.78234 -1.92314,-5.87977 -1.98886,-6.02324 -2.517112,-5.49498 -0.589957,0.58995 -0.481468,3.25567 0.304393,7.47936 0.937469,5.0385 1.128939,7.12226 0.639479,6.9594 -0.22913,-0.0763 -0.45183,-0.72607 -0.57901,-1.68957 -0.113668,-0.86112 -0.500234,-3.23254 -0.859035,-5.26983 -0.750829,-4.26326 -0.831634,-5.30815 -0.553884,-7.16233 0.154404,-1.03075 0.112918,-1.41455 -0.179104,-1.6569 -0.668861,-0.55511 -1.10289,0.37675 -1.203082,2.583 -0.07583,1.66989 0.393311,7.06937 1.179786,13.57841 0.121033,1.0017 0.07236,1.25678 -0.239808,1.25678 -0.452224,0 -0.45924,-0.0422 -1.287048,-7.74637 -0.408726,-3.80388 -0.666889,-5.36126 -0.838029,-5.05544 -0.157447,0.28134 -0.07615,2.91733 0.223705,7.2532 0.259071,3.74619 0.389662,7.02331 0.290201,7.2825 -0.372684,0.9712 -0.663794,-0.0902 -0.838366,-3.05681 -0.09848,-1.67349 -0.2823,-3.45943 -0.408492,-3.96875 -0.150028,-0.60553 -0.179047,0.0355 -0.08384,1.85208 0.08008,1.52797 0.248086,6.23094 0.373354,10.45104 0.284453,9.58281 0.442888,10.30553 2.929092,13.36146 1.374012,1.68887 1.76563,2.56225 4.21173,9.39271 1.7574,4.90733 5.02394,13.71525 5.96106,16.07344 0.12821,0.32262 0.0579,0.46302 -0.23187,0.46302 -0.22873,0 -0.525,-0.20836 -0.65839,-0.46302 z m -0.91915,-41.2157 c -0.0887,-0.94965 -0.2834,-1.93192 -0.43272,-2.18282 -0.19676,-0.33061 -0.23113,-0.0192 -0.12488,1.13133 0.1834,1.986 0.34117,2.77813 0.55332,2.77813 0.091,0 0.093,-0.77699 0.004,-1.72664 z"
       id="path1" /></g></svg>
