<?xml version="1.0" encoding="UTF-8" standalone="no"?>
<!-- Created with Inkscape (http://www.inkscape.org/) -->

<svg
   width="8.9957762mm"
   height="12.118632mm"
   viewBox="0 0 8.9957762 12.118632"
   version="1.1"
   id="svg1"
   xml:space="preserve"
   inkscape:export-filename="ビットマップ.svg"
   inkscape:export-xdpi="96"
   inkscape:export-ydpi="96"
   xmlns:inkscape="http://www.inkscape.org/namespaces/inkscape"
   xmlns:sodipodi="http://sodipodi.sourceforge.net/DTD/sodipodi-0.dtd"
   xmlns="http://www.w3.org/2000/svg"
   xmlns:svg="http://www.w3.org/2000/svg"><sodipodi:namedview
     id="namedview1"
     pagecolor="#ffffff"
     bordercolor="#111111"
     borderopacity="1"
     inkscape:showpageshadow="0"
     inkscape:pageopacity="0"
     inkscape:pagecheckerboard="1"
     inkscape:deskcolor="#d1d1d1"
     inkscape:document-units="mm"><inkscape:page
       x="0"
       y="0"
       width="8.9957762"
       height="12.118632"
       id="page2"
       margin="0"
       bleed="0" /></sodipodi:namedview><defs
     id="defs1" /><g
     inkscape:label="Layer 1"
     inkscape:groupmode="layer"
     id="layer1"
     transform="translate(-82.202083,-73.701446)"><path
       style="fill:#000000;stroke:#000000;stroke-width:0.137658;stroke-dasharray:none;stroke-opacity:1"
       d="M 83.896149,85.289899 C 83.448987,85.03752 82.90348,84.728801 82.683003,84.603848 l -0.400925,-0.227146 -0.0055,-1.725021 -0.0055,-1.725028 0.547557,-0.169881 c 0.300528,-0.09346 0.642008,-0.19868 0.758255,-0.233818 0.116248,-0.03501 0.21136,-0.07186 0.21136,-0.08157 0,-0.0185 -0.289297,-0.58831 -0.901782,-1.77621 -0.194848,-0.378269 -0.354691,-0.69702 -0.354691,-0.708375 0,-0.01123 0.05944,-0.05482 0.12946,-0.09703 l 0.129458,-0.07636 -0.05284,-0.117371 -0.05283,-0.117371 0.09247,-0.05879 c 0.05284,-0.03236 0.11889,-0.07232 0.151916,-0.08851 0.07133,-0.03567 0.07199,-0.04425 0.01322,-0.169155 -0.02642,-0.05351 -0.03963,-0.105947 -0.02642,-0.116116 0.0066,-0.0099 0.237122,-0.134016 0.505285,-0.275099 0.268164,-0.141084 0.490093,-0.259182 0.493395,-0.262353 0.0033,-0.0032 -0.0033,-0.03302 -0.01322,-0.06658 -0.02642,-0.07655 -0.002,-0.102111 0.210701,-0.219155 0.08718,-0.04821 0.163142,-0.102249 0.169748,-0.120608 0.0064,-0.0185 -0.0042,-0.07028 -0.02642,-0.115323 -0.02642,-0.06143 -0.05285,-0.08903 -0.120874,-0.110305 -0.04624,-0.01585 -0.101718,-0.05482 -0.120212,-0.08652 -0.03302,-0.0535 -0.03302,-0.06473 0.0055,-0.14815 0.08587,-0.192074 0.380448,-0.29967 0.490092,-0.1786 0.03963,0.04756 0.04624,0.0601 0.01981,0.159644 -0.03302,0.149604 -0.03302,0.181241 0.02642,0.260172 l 0.04624,0.06883 0.173712,-0.09874 c 0.165785,-0.09406 0.245046,-0.120212 0.247029,-0.08084 4.55e-4,0.0099 0.01322,0.03698 0.02642,0.0601 0.02642,0.03897 0.06671,0.02378 0.500661,-0.209842 0.259578,-0.138508 0.473579,-0.248877 0.476882,-0.245311 0.0029,0.0036 0.03963,0.07847 0.07794,0.166447 l 0.07265,0.159907 0.14135,-0.103566 c 0.07728,-0.05681 0.187582,-0.121003 0.245046,-0.142404 0.05944,-0.02113 0.371202,-0.07622 0.695904,-0.121862 0.875762,-0.123052 1.06341,-0.173449 1.476818,-0.396566 0.266183,-0.143329 0.843197,-0.552048 1.411228,-0.998746 0.298549,-0.234742 0.365259,-0.27576 0.346103,-0.214795 -0.01322,0.03369 -0.463671,0.390291 -0.980513,0.770878 -0.872591,0.642537 -1.127809,0.744163 -2.259185,0.899519 -0.282694,0.03897 -0.560766,0.08276 -0.618889,0.09782 -0.112286,0.02906 -0.426026,0.245245 -0.424703,0.292273 4.55e-4,0.01519 0.05284,0.162748 0.115588,0.327212 l 0.114267,0.299076 0.130779,0.0072 c 0.1004,0.0054 0.169749,0.0284 0.295905,0.09888 0.163804,0.09082 0.165786,0.09121 0.165786,0.03633 0,-0.07767 -0.03963,-0.180912 -0.08983,-0.241479 -0.03963,-0.0502 -0.02642,-0.101452 0.02642,-0.0681 0.05285,0.03501 0.116251,0.219947 0.116251,0.334677 0.0011,0.204954 -0.06737,0.320079 -0.426027,0.717696 -0.329588,0.364994 -0.404884,0.466248 -0.492072,0.657859 l -0.04624,0.107664 0.05944,-0.06539 c 0.09049,-0.09373 0.181638,-0.107992 0.27675,-0.04293 0.03963,0.02907 0.07661,0.05944 0.07728,0.06856 6.7e-5,0.0086 0.0066,0.03105 0.01981,0.04887 0.01322,0.02511 0.05944,-0.008 0.200132,-0.140885 0.440555,-0.421929 0.611625,-0.529459 1.1572,-0.728521 0.481505,-0.175496 0.613607,-0.256935 0.900332,-0.555482 0.359311,-0.374109 0.537648,-0.491612 1.162748,-0.770608 0.392338,-0.174769 1.086724,-0.456738 1.125231,-0.456804 0.05944,-2e-5 0.01981,0.04293 -0.06671,0.07907 -0.05284,0.02047 -0.301848,0.123711 -0.558783,0.228798 -0.924837,0.378996 -1.225168,0.552906 -1.557201,0.901929 -0.35469,0.372854 -0.44716,0.431308 -0.999869,0.633422 -0.35469,0.129655 -0.53897,0.2142 -0.575298,0.2642 -0.01322,0.0185 -0.04624,0.114003 -0.07265,0.212153 -0.02642,0.09809 -0.07133,0.237252 -0.100401,0.309248 l -0.05284,0.130912 0.170409,0.348612 c 0.133422,0.272591 0.455087,0.888978 0.584546,1.121509 0.0066,0.01717 0.333554,0.163539 0.719948,0.32523 0.386393,0.161691 0.785337,0.330646 0.886527,0.375429 l 0.18428,0.08144 0.0055,1.73837 0.0055,1.738377 -0.233156,0.08428 c -0.128139,0.04624 -0.666977,0.240159 -1.196897,0.430581 -0.529723,0.190489 -1.53547,0.551783 -2.234019,0.802888 -0.698612,0.251122 -1.2786,0.455814 -1.288771,0.454888 -0.01322,-0.0011 -0.384413,-0.208257 -0.831044,-0.460635 z m 2.859182,-0.327741 c 0.887582,-0.317833 1.89148,-0.677967 2.231044,-0.800299 l 0.617571,-0.22239 0.0056,-1.690906 c 0.0052,-1.603158 0.0037,-1.690266 -0.03302,-1.678739 -1.25872,0.402246 -1.838244,0.589233 -2.637387,0.850998 -0.36922,0.121004 -1.002245,0.327543 -1.40667,0.459049 -0.404229,0.131505 -0.743066,0.244385 -0.752708,0.250991 -0.0066,0.0066 -0.01982,0.80716 -0.01982,1.779114 v 1.767203 l 0.189564,-0.06856 c 0.104364,-0.03765 0.915722,-0.328601 1.803306,-0.646435 z m -2.05839,-1.069908 -4.55e-4,-1.764328 -1.163672,-0.556473 c -0.640028,-0.30601 -1.17094,-0.556342 -1.179924,-0.556209 -0.0066,8.6e-5 -0.01319,0.747582 -0.01319,1.661018 v 1.660787 l 1.055945,0.597689 c 1.351917,0.76525 1.26988,0.719378 1.288771,0.720675 0.0066,6.06e-4 0.01321,-0.792835 0.01321,-1.763213 z m 0.748217,-2.049117 c 1.380913,-0.448414 1.667768,-0.544187 1.678403,-0.560172 0.0059,-0.0092 0.0066,-0.166975 0.0044,-0.351189 l -0.0065,-0.334941 -0.567372,0.311294 c -1.283356,0.703984 -1.649144,0.892921 -1.686262,0.870973 -0.02642,-0.01519 -0.07067,0.002 -0.161824,0.06209 -0.0687,0.04558 -0.132101,0.08336 -0.140686,0.08336 -0.0066,0 -0.04624,-0.05681 -0.07926,-0.125627 -0.03302,-0.06909 -0.186261,-0.367835 -0.336195,-0.663864 -0.149935,-0.296038 -0.285337,-0.55707 -0.300528,-0.579988 -0.03303,-0.0469 0.04624,-0.06605 -0.978601,0.249669 -0.452445,0.139564 -0.470937,0.147821 -0.416118,0.179788 0.03303,0.0185 0.337518,0.166711 0.67979,0.329592 0.342142,0.162879 0.836327,0.398811 1.098417,0.524306 0.262218,0.125497 0.486788,0.228535 0.498677,0.22893 0.01322,3.04e-4 0.333555,-0.100528 0.714861,-0.224239 z m -0.815192,-0.02246 c 0.01981,-0.02509 -1.33e-4,-0.08402 -0.08256,-0.257199 -0.196168,-0.411493 -1.712483,-3.669317 -1.719883,-3.693611 -0.0066,-0.02113 -0.231176,0.07735 -0.231176,0.101389 0,0.0052 0.178336,0.355944 0.396301,0.7794 0.217967,0.423447 0.490094,0.952907 0.6037,1.176586 0.113607,0.223645 0.333556,0.654294 0.488773,0.956922 0.155219,0.302642 0.328928,0.644452 0.386393,0.759557 0.05944,0.115127 0.111624,0.209314 0.119552,0.209314 0.0066,0 0.02642,-0.01453 0.03963,-0.03236 z m 0.172392,-0.124174 c 0.0037,-0.0036 -0.114928,-0.279328 -0.263542,-0.612747 -0.297226,-0.66701 -0.553501,-1.280611 -1.089631,-2.611596 -0.318361,-0.790099 -0.411492,-1.016386 -0.431307,-1.040429 -0.0033,-0.0041 -0.06671,0.02576 -0.138705,0.06658 l -0.132762,0.07418 0.160502,0.340093 c 0.08851,0.187055 0.275429,0.587715 0.415455,0.890325 0.140687,0.302642 0.481506,1.034671 0.757796,1.626764 0.276751,0.592076 0.529061,1.133277 0.560766,1.20263 0.05285,0.116974 0.05944,0.124109 0.105681,0.09841 0.02642,-0.01519 0.05284,-0.03039 0.05284,-0.03435 z m 1.897424,-0.944446 c 0.701982,-0.381439 1.280781,-0.69837 1.286196,-0.704327 0.0053,-0.0059 -0.06737,-0.148547 -0.162482,-0.316842 -0.282035,-0.500596 -0.675101,-1.277789 -0.81209,-1.605041 -0.05283,-0.122787 -0.09247,-0.192339 -0.107,-0.182366 -0.01322,0.0092 -0.122194,0.112814 -0.243065,0.230913 -0.316381,0.308784 -0.413474,0.355614 -0.523778,0.250858 -0.03963,-0.04029 -0.05944,-0.08474 -0.06936,-0.168295 -0.0066,-0.09763 -6.7e-5,-0.139169 0.06869,-0.293793 0.05944,-0.139365 0.131441,-0.237847 0.305813,-0.435733 0.123514,-0.140621 0.225233,-0.263342 0.225893,-0.272787 1.32e-4,-0.0092 -0.01322,-0.05218 -0.03303,-0.0957 -0.01982,-0.04293 -0.133422,-0.353104 -0.257596,-0.6886 -0.123514,-0.335536 -0.256276,-0.687061 -0.294584,-0.781203 l -0.06936,-0.171136 -0.317703,0.166711 c -0.507265,0.266182 -0.587846,0.312483 -0.587846,0.335007 0,0.03897 0.155879,0.366248 0.198811,0.418626 0.02642,0.0284 0.03963,0.07147 0.03302,0.0957 -0.0066,0.04293 -0.222589,0.178798 -0.267503,0.168758 -0.01322,-0.0027 -0.05284,0.01784 -0.08652,0.04558 -0.130781,0.102249 -0.425364,0.250397 -0.466978,0.235536 -0.02642,-0.0099 -0.03963,-0.0033 -0.03963,0.02246 0,0.02113 -0.05285,0.06817 -0.13144,0.110568 -0.140687,0.07827 -0.192865,0.07001 -0.192865,-0.03039 0,-0.04492 -0.187584,-0.44934 -0.208722,-0.44934 -0.0066,0 -0.441876,0.223183 -0.856407,0.441413 l -0.122192,0.06406 0.173051,0.422985 c 0.09577,0.232629 0.22457,0.55218 0.28732,0.710047 0.171068,0.430714 0.466313,1.156546 0.612945,1.507155 0.07133,0.17107 0.186263,0.445574 0.254293,0.610039 0.215324,0.517703 0.533687,1.210351 0.601056,1.308482 0.01322,0.02113 0.08587,-0.0092 0.27279,-0.114069 0.139366,-0.07847 0.827146,-0.454689 1.529194,-0.836137 z m 1.138905,0.310699 c 1.014993,-0.32457 1.63547,-0.530581 1.653369,-0.549074 0.01981,-0.01916 -0.04624,-0.04888 -0.819486,-0.371269 -0.262219,-0.109247 -0.52774,-0.221202 -0.591809,-0.248745 -0.05944,-0.02774 -0.119552,-0.0502 -0.126156,-0.0502 -0.0066,0 0.01981,0.04492 0.05284,0.09927 0.03303,0.05482 0.05944,0.108851 0.05285,0.120475 -0.0066,0.01189 -0.206077,0.128535 -0.443198,0.259645 l -0.431969,0.238507 v 0.357463 0.357465 l 0.05944,-0.0218 c 0.03302,-0.01189 0.297887,-0.09835 0.58983,-0.191678 z m -1.41625,-2.758732 0.104364,-0.104161 -0.03963,-0.06406 c -0.08256,-0.140025 -0.225232,-0.118494 -0.319024,0.04821 -0.05284,0.09121 -0.05284,0.124242 -0.0059,0.180713 0.05944,0.07385 0.14465,0.05416 0.259578,-0.0601 z m 0.777874,-0.428799 c 0.03302,-0.102312 0.05284,-0.192404 0.04624,-0.200198 -0.01322,-0.01453 -0.206737,0.132694 -0.24901,0.189432 -0.01981,0.02312 -0.0066,0.0677 0.03303,0.169684 0.05284,0.133486 0.05944,0.136591 0.08256,0.08295 0.01322,-0.03039 0.05285,-0.139497 0.08587,-0.24181 z M 86.821845,77.12312 c 0.09379,-0.117569 0.193525,-0.293989 0.193525,-0.340423 -4.55e-4,-0.107925 -0.478864,-0.309775 -0.527081,-0.222589 -0.01322,0.0218 0.120873,0.388772 0.141348,0.388772 0.0066,0 0.03302,-0.03765 0.05944,-0.08375 0.02642,-0.04624 0.05944,-0.08375 0.0786,-0.08375 0.03302,0 0.03302,0.008 -0.05944,0.160171 -0.05944,0.09921 -0.05944,0.101324 -0.02642,0.185404 0.01981,0.0469 0.04624,0.08507 0.05284,0.08507 0.0066,0 0.04624,-0.04029 0.08652,-0.0889 z m -2.475302,-0.06936 c 0.0687,-0.04425 0.08851,-0.06817 0.06803,-0.0819 -0.03302,-0.02312 -0.192866,0.07081 -0.193526,0.114531 -6.6e-5,0.04227 0.01321,0.03831 0.124834,-0.03236 z m 0.02642,-0.229063 c 0,-0.0757 -0.05944,-0.550529 -0.07332,-0.563342 -0.0064,-0.0072 -0.335536,0.175562 -0.356011,0.197887 -0.0066,0.0086 0.204756,0.455085 0.241083,0.507464 0.01322,0.02312 0.03963,0.0185 0.105022,-0.02246 0.06671,-0.04162 0.08455,-0.06618 0.08455,-0.119683 z m 0.401586,-0.01123 c 0.200132,-0.108652 0.285337,-0.186526 0.123513,-0.11189 -0.124173,0.05747 -0.373843,0.198482 -0.373843,0.211626 0,0.02774 0.05944,0.0047 0.25033,-0.09973 z m -0.05284,-0.07702 c 0.149273,-0.08361 0.273448,-0.154689 0.276749,-0.157992 0.0032,-0.0033 -0.08983,-0.110172 -0.206076,-0.237517 l -0.21202,-0.231506 -0.104363,0.05351 c -0.05944,0.02973 -0.108322,0.0601 -0.112946,0.06862 -0.0046,0.008 0.0057,0.11103 0.01981,0.228402 0.01982,0.117438 0.03303,0.265521 0.03303,0.329063 6.4e-5,0.06341 0.0066,0.111888 0.01322,0.107397 0.0066,-0.0046 0.138705,-0.07662 0.287319,-0.160238 z m 0.486789,-0.151321 c 0.111628,-0.0601 0.129459,-0.103832 0.03303,-0.08256 -0.08125,0.01783 -0.177014,0.0856 -0.161163,0.11387 0.01322,0.0284 0.01322,0.0284 0.127477,-0.03105 z m -0.06671,-0.107332 c 0.03963,-0.02246 0.07662,-0.04887 0.07662,-0.05944 0,-0.05086 -0.229855,-0.522194 -0.254294,-0.522194 -0.03963,0 -0.280715,0.136922 -0.299207,0.170344 -0.0066,0.01717 0.05944,0.110634 0.178996,0.239763 0.107661,0.116578 0.201452,0.211888 0.208717,0.211888 0.0066,0 0.04624,-0.01783 0.08983,-0.04029 z M 84.439417,76.11096 c 0.04624,-0.02642 0.08521,-0.05813 0.08521,-0.07041 0,-0.01189 -0.01981,-0.06143 -0.04624,-0.109577 -0.04624,-0.08402 -0.04624,-0.09221 -0.01322,-0.205087 0.03303,-0.103959 0.03303,-0.121664 0.0021,-0.153104 -0.07067,-0.07814 -0.280054,-0.0092 -0.375166,0.123911 -0.06671,0.0928 -0.05285,0.152707 0.05285,0.191149 0.113606,0.04359 0.138044,0.06969 0.167767,0.178599 0.01322,0.05086 0.02642,0.09287 0.03303,0.09287 0.0046,0 0.04624,-0.0218 0.09445,-0.04821 z"
       id="path1-89"
       inkscape:export-filename="icon_clean_24.svg"
       inkscape:export-xdpi="96"
       inkscape:export-ydpi="96" /></g></svg>
