<?xml version="1.0" encoding="UTF-8" standalone="no"?>
<!-- Created with Inkscape (http://www.inkscape.org/) -->

<svg
   width="16.403843mm"
   height="11.71187mm"
   viewBox="0 0 16.403843 11.71187"
   version="1.1"
   id="svg1"
   xml:space="preserve"
   inkscape:export-filename="ビットマップ.svg"
   inkscape:export-xdpi="96"
   inkscape:export-ydpi="96"
   xmlns:inkscape="http://www.inkscape.org/namespaces/inkscape"
   xmlns:sodipodi="http://sodipodi.sourceforge.net/DTD/sodipodi-0.dtd"
   xmlns="http://www.w3.org/2000/svg"
   xmlns:svg="http://www.w3.org/2000/svg"><sodipodi:namedview
     id="namedview1"
     pagecolor="#ffffff"
     bordercolor="#111111"
     borderopacity="1"
     inkscape:showpageshadow="0"
     inkscape:pageopacity="0"
     inkscape:pagecheckerboard="1"
     inkscape:deskcolor="#d1d1d1"
     inkscape:document-units="mm"><inkscape:page
       x="0"
       y="0"
       width="16.403843"
       height="11.71187"
       id="page2"
       margin="0"
       bleed="0" /></sodipodi:namedview><defs
     id="defs1" /><g
     inkscape:label="Layer 1"
     inkscape:groupmode="layer"
     id="layer1"
     transform="translate(-168.46661,-44.578487)"><path
       style="fill:#000000;stroke:#000000;stroke-width:0.196122;stroke-dasharray:none;stroke-opacity:1"
       d="m 170.58021,55.735638 c 5.7e-4,-0.786343 0.0796,-1.578479 0.24638,-2.502951 0.0797,-0.449165 0.30027,-1.372864 0.37621,-1.589784 0.0178,-0.04852 -0.008,-0.0459 -0.24195,0.02295 -0.36652,0.108504 -0.57494,0.20798 -0.85136,0.407477 -0.4601,0.332313 -0.82927,0.794108 -0.79305,0.993873 0.0267,0.142766 0.22874,0.600872 0.36299,0.818741 0.0619,0.108659 0.11744,0.208241 0.11218,0.221307 -0.0178,0.0442 -0.71976,0.741065 -0.74714,0.741065 -0.0353,0 -0.17484,-0.225727 -0.27465,-0.442898 -0.19432,-0.423629 -0.25964,-1.103851 -0.15176,-1.583647 0.0945,-0.425923 0.32677,-0.908925 0.59611,-1.24311 0.46278,-0.574396 1.34194,-1.007208 2.29518,-1.130066 l 0.16425,-0.02125 -0.0178,-0.232888 c -0.0178,-0.29629 0.0531,-0.635935 0.17663,-0.840117 0.10509,-0.171954 0.1952,-0.250545 0.35326,-0.310334 0.10674,-0.04062 0.1184,-0.05658 0.17754,-0.267935 0.14043,-0.493514 0.16778,-0.722756 0.16778,-1.396747 0,-0.818571 -0.0531,-1.153858 -0.34797,-2.200574 -0.0706,-0.255659 -0.13066,-0.47336 -0.13066,-0.483604 0,-0.01096 0.0178,-0.0186 0.0439,-0.0186 0.0267,0 0.0531,0.04682 0.0706,0.104015 0.35855,1.275374 0.4345,1.678058 0.45921,2.422984 0.0264,0.742176 -0.0441,1.226261 -0.28788,1.947995 l -0.122,0.364651 0.12714,0.124163 c 0.23046,0.226164 0.76478,0.550274 1.29007,0.782544 0.15455,0.06882 0.24637,0.0803 0.83985,0.110835 0.87167,0.04419 2.13332,0.04325 2.60665,-0.0014 0.98522,-0.09408 1.90993,-0.344511 2.5194,-0.681862 0.40007,-0.221496 0.88376,-0.612359 0.88376,-0.714188 0,-0.02389 -0.0353,-0.149429 -0.0705,-0.27916 -0.20313,-0.68673 -0.27465,-1.640293 -0.17926,-2.391205 0.0705,-0.552318 0.37264,-1.754606 0.4495,-1.782662 0.0531,-0.02031 0.0354,0.07688 -0.11049,0.608124 -0.0619,0.241201 -0.15454,0.601072 -0.19429,0.799691 -0.17662,0.879688 -0.0893,2.532172 0.14215,2.595588 0.13159,0.03629 0.30647,0.242687 0.41773,0.49244 0.10425,0.232612 0.1105,0.260965 0.11483,0.586565 l 0.005,0.342125 0.16072,0.354062 c 0.20842,0.458507 0.33824,0.805315 0.5228,1.394779 l 0.15007,0.478392 0.28082,0.08912 c 0.37886,0.120285 0.92535,0.351655 1.28468,0.543917 0.30822,0.164885 0.9848,0.641158 1.17713,0.828554 l 0.11127,0.108504 -0.25171,0.399789 c -0.34177,0.541362 -0.3091,0.512485 -0.44068,0.390258 -0.219,-0.203918 -0.63585,-0.497108 -0.97596,-0.684949 -0.36825,-0.203916 -0.85486,-0.421616 -0.88047,-0.393794 -0.007,0.0094 0.005,0.214602 0.0353,0.456493 0.0705,0.65767 0.10435,1.159055 0.10508,1.631375 5.7e-4,0.355643 -0.005,0.423816 -0.0439,0.423816 -0.0353,0 -0.0441,-0.06804 -0.0441,-0.42205 0,-0.706247 -0.12184,-2.060286 -0.19253,-2.138166 -0.0178,-0.01552 -0.18545,-0.07859 -0.38328,-0.141527 l -0.35853,-0.113774 -0.24994,0.108504 c -0.68971,0.299203 -1.5981,0.529784 -2.56222,0.650149 -0.62171,0.07767 -2.23882,0.07688 -2.94446,-4.51e-4 -1.80159,-0.198971 -3.47088,-0.634973 -4.38385,-1.145114 -0.0934,-0.05208 -0.17663,-0.08742 -0.18634,-0.07766 -0.0266,0.0327 -0.17753,0.929727 -0.23846,1.441061 -0.0353,0.300801 -0.0706,0.798619 -0.0796,1.207493 -0.0178,0.553095 -0.0266,0.695722 -0.0531,0.695722 -0.0267,0 -0.0353,-0.09456 -0.0353,-0.45578 z M 169.42119,54.3696 c 0.19519,-0.203036 0.26583,-0.296552 0.24374,-0.320747 -0.0178,-0.02389 -0.122,0.05999 -0.34088,0.289481 -0.16957,0.178048 -0.30202,0.336746 -0.2932,0.352729 0.0265,0.04418 0.0893,-0.0077 0.38857,-0.321556 z m 14.97294,-0.06448 c 0.11936,-0.192088 0.22083,-0.36271 0.22611,-0.379313 0.004,-0.01673 -0.0441,-0.07596 -0.11484,-0.131605 l -0.12445,-0.101524 -0.0796,0.105713 c -0.11747,0.149427 -0.36652,0.56979 -0.36652,0.618541 0,0.03612 0.19606,0.236239 0.23138,0.237029 0.007,1.08e-4 0.11217,-0.156841 0.23137,-0.348838 z m -0.19603,-0.0282 c -0.0531,-0.04062 -0.0531,-0.198261 10e-4,-0.240111 0.11217,-0.08122 0.22961,0.137497 0.12092,0.225461 -0.0619,0.04853 -0.0706,0.04945 -0.12185,0.0155 z m 0.0706,-0.156124 c -0.0266,-0.0327 -0.0531,0.01673 -0.0266,0.05922 0.0178,0.0327 0.0266,0.0327 0.0353,1.1e-4 0.005,-0.02203 0.004,-0.04943 -0.005,-0.05997 z m -15.00159,0.147722 c 0.1572,-0.160277 0.29676,-0.30238 0.31,-0.315711 0.008,-0.01394 -0.0178,-0.0961 -0.0619,-0.183781 -0.24025,-0.431941 -0.38418,-0.966046 -0.38948,-1.448099 -0.001,-0.167087 0.005,-0.347072 0.0178,-0.399791 l 0.0178,-0.09596 -0.0705,0.09596 c -0.0705,0.09486 -0.3082,0.600341 -0.34793,0.748456 -0.0178,0.07147 -0.0178,0.07502 0.0705,0.05659 0.12184,-0.02654 0.12448,0.06093 0.003,0.09052 -0.097,0.02389 -0.12806,0.07147 -0.15721,0.252141 -0.0178,0.111915 -0.0178,0.121838 0.0353,0.09982 0.19608,-0.09068 0.25172,-0.02389 0.0706,0.07952 -0.10596,0.06 -0.11578,0.07596 -0.11578,0.196323 0,0.137185 0.007,0.141214 0.15191,0.07596 0.0353,-0.01581 0.0531,-0.0077 0.0531,0.02648 0,0.02741 -0.0265,0.05828 -0.0531,0.06882 -0.0901,0.0318 -0.12541,0.101545 -0.10424,0.207531 0.008,0.05394 0.0353,0.0972 0.0531,0.0972 0.0178,0 0.10596,-0.05038 0.19341,-0.111146 0.17399,-0.122613 0.20139,-0.132227 0.20139,-0.07147 0,0.02295 -0.0796,0.09813 -0.18813,0.167969 -0.19518,0.131293 -0.2146,0.171937 -0.15544,0.315803 l 0.0352,0.0803 0.12449,-0.09456 c 0.0893,-0.06527 0.13065,-0.08308 0.14491,-0.05736 0.008,0.02125 -0.008,0.06093 -0.0439,0.09394 -0.18723,0.153152 -0.1775,0.137496 -0.13951,0.230672 0.0178,0.04774 0.0441,0.0865 0.0531,0.0865 0.008,0 0.14929,-0.13114 0.30645,-0.291438 z m 14.60755,0.05564 c 0,-0.04852 0.26403,-0.479621 0.36736,-0.600701 l 0.0705,-0.08479 -0.0795,-0.05471 c -0.0439,-0.03005 -0.0797,-0.04945 -0.0893,-0.04326 -0.004,0.0062 -0.0353,0.07333 -0.0795,0.148342 -0.0353,0.07502 -0.0796,0.135948 -0.0893,0.135948 -0.0531,0 -0.0439,-0.05394 0.0178,-0.174962 0.0353,-0.0741 0.0705,-0.148193 0.0705,-0.164796 0,-0.0327 -0.15006,-0.140131 -0.19606,-0.140131 -0.0177,0 -0.0705,0.08572 -0.12012,0.190855 -0.0531,0.10494 -0.10509,0.199932 -0.12186,0.211153 -0.0705,0.04774 -0.0531,-0.0282 0.0441,-0.225553 0.0531,-0.115795 0.10435,-0.221838 0.10435,-0.235525 0,-0.01394 -0.0531,-0.05658 -0.11218,-0.09502 l -0.11218,-0.06976 -0.0531,0.144008 c -0.0266,0.07952 -0.0705,0.144157 -0.09,0.144157 -0.0531,1.22e-4 -0.044,-0.0468 0.0177,-0.19226 l 0.0619,-0.125869 -0.11483,-0.06448 c -0.0619,-0.03536 -0.12617,-0.06448 -0.1395,-0.06448 -0.0178,0 -0.0441,0.07238 -0.0795,0.159925 -0.0267,0.08836 -0.0619,0.159941 -0.0705,0.159941 -0.0531,0 -0.0531,-0.05038 -10e-5,-0.196582 0.0266,-0.0865 0.0531,-0.162766 0.0531,-0.168951 0,-0.01551 -0.23669,-0.119355 -0.2455,-0.107574 -0.004,0.0045 -0.0267,0.07767 -0.0619,0.161261 -0.0267,0.08387 -0.0619,0.151909 -0.0797,0.151909 -0.0353,0 -0.0267,-0.07424 0.0178,-0.202939 0.0531,-0.149742 0.0619,-0.140598 -0.0619,-0.196416 -0.13688,-0.06356 -0.14835,-0.06184 -0.1722,0.02389 -0.0705,0.245512 -0.13781,0.40784 -0.17399,0.40784 -0.0531,0 -0.0531,0.02741 0.0439,-0.265646 l 0.0796,-0.249659 -0.0706,-0.03005 c -0.19163,-0.0803 -0.20225,-0.07766 -0.24196,0.0803 -0.0353,0.140754 -0.0706,0.202154 -0.10509,0.167711 -0.007,-0.0094 0.004,-0.08836 0.0266,-0.176808 l 0.0441,-0.160809 -0.0893,-0.03444 c -0.15809,-0.06093 -0.18192,-0.04681 -0.22254,0.125712 -0.0354,0.149739 -0.0531,0.184292 -0.0955,0.142459 -0.008,-0.0094 0.003,-0.08975 0.0267,-0.178204 0.0266,-0.08836 0.0353,-0.166915 0.0266,-0.174419 -0.005,-0.0079 -0.0705,-0.02203 -0.14138,-0.0335 l -0.12974,-0.01938 -0.0531,0.243109 c -0.0439,0.227338 -0.0893,0.306906 -0.12539,0.263887 -0.008,-0.0094 0.008,-0.133926 0.0439,-0.275452 0.0353,-0.141525 0.0441,-0.26386 0.0353,-0.271828 -0.008,-0.0079 -0.0706,-0.02389 -0.14045,-0.03535 l -0.12014,-0.02125 -0.0178,0.127418 c -0.008,0.06976 -0.0267,0.147104 -0.0441,0.170974 -0.0439,0.08216 -0.0619,-0.0014 -0.0353,-0.161446 l 0.0267,-0.160636 -0.10435,-0.03178 c -0.15897,-0.04852 -0.16515,-0.04512 -0.204,0.146794 -0.0266,0.125094 -0.0441,0.169135 -0.0619,0.145711 -0.0178,-0.02295 -0.0178,-0.08386 -0.001,-0.192334 l 0.0264,-0.158779 -0.0893,-0.01859 c -0.19604,-0.04326 -0.19161,-0.04945 -0.26757,0.38885 -0.008,0.06184 -0.0352,0.104005 -0.0619,0.104005 -0.0265,0 -0.0353,-0.02031 -0.0265,-0.05566 0.0439,-0.175919 0.0797,-0.462845 0.0619,-0.485803 -0.0178,-0.01395 -0.0706,-0.03536 -0.13238,-0.04682 l -0.10596,-0.02125 -0.0353,0.176899 c -0.0441,0.241599 -0.0997,0.233756 -0.0706,-0.01096 l 0.0178,-0.187668 -0.1209,-0.02125 c -0.0619,-0.01096 -0.12618,-0.01551 -0.1333,-0.0079 -0.005,0.0079 -0.0267,0.08308 -0.0441,0.168935 -0.0178,0.08573 -0.0439,0.151287 -0.0619,0.145864 -0.0353,-0.01074 -0.0353,-0.02555 -10e-4,-0.218041 l 0.0178,-0.132068 -0.13517,-0.02203 c -0.0706,-0.0124 -0.13953,-0.01765 -0.14495,-0.01096 -0.005,0.0062 -0.0266,0.129278 -0.0439,0.274274 -0.0265,0.171259 -0.0531,0.26372 -0.0705,0.26372 -0.0441,0 -0.0441,-0.02647 0.003,-0.314145 0.0441,-0.25538 0.0531,-0.242686 -0.13331,-0.276227 -0.10509,-0.01938 -0.10672,-0.01767 -0.12617,0.101524 -0.0266,0.186867 -0.0439,0.233044 -0.0797,0.233044 -0.0178,0 -0.0265,-0.05999 -0.008,-0.172819 0.008,-0.09503 0.008,-0.179986 -0.004,-0.18865 -0.008,-0.0092 -0.0706,-0.02125 -0.13874,-0.02742 l -0.11578,-0.01096 -0.0266,0.167875 c -0.0178,0.115484 -0.0353,0.167989 -0.0705,0.167989 -0.0267,0 -0.0353,-0.02125 -0.0267,-0.05564 0.007,-0.03085 0.0178,-0.109434 0.0354,-0.17504 0.0178,-0.12742 0.008,-0.135481 -0.18725,-0.159846 -0.0619,-0.0077 -0.0705,0.0045 -0.0982,0.158962 -0.0177,0.109291 -0.0353,0.16797 -0.0619,0.16797 -0.0353,0 -0.0353,-0.111455 0.008,-0.291685 0.008,-0.03702 -0.008,-0.05736 -0.0796,-0.07147 -0.18989,-0.04234 -0.19252,-0.03889 -0.23049,0.216012 -0.0178,0.129897 -0.0441,0.255392 -0.0619,0.278987 -0.0531,0.09394 -0.0619,-0.01393 -0.0178,-0.259381 0.0266,-0.142148 0.0353,-0.263442 0.0266,-0.26944 -0.008,-0.0062 -0.0705,-0.02124 -0.13781,-0.03271 -0.13239,-0.02389 -0.13161,-0.02561 -0.16781,0.214504 -0.0353,0.205063 -0.0797,0.143849 -0.0619,-0.0724 l 0.0178,-0.191903 -0.10246,-0.0045 c -0.0531,-0.0033 -0.11935,-0.0062 -0.13949,-0.0077 -0.0178,-0.0014 -0.0441,0.06356 -0.0619,0.164702 -0.0178,0.109279 -0.0353,0.16797 -0.0619,0.16797 -0.0354,0 -0.0354,-0.112225 0.008,-0.293204 0.0178,-0.06713 -0.005,-0.08216 -0.14742,-0.09533 l -0.11402,-0.01096 -0.0441,0.264589 c -0.0441,0.266695 -0.0705,0.322951 -0.10319,0.2842 -0.0178,-0.01938 0.0353,-0.430547 0.0706,-0.523972 0.007,-0.02203 -0.0178,-0.04682 -0.0706,-0.05828 -0.22256,-0.05208 -0.20757,-0.05828 -0.22783,0.0913 -0.008,0.07596 -0.0266,0.158698 -0.0439,0.183065 -0.0441,0.08479 -0.0706,-0.0047 -0.0353,-0.163908 0.0178,-0.08836 0.0178,-0.166561 0.008,-0.173967 -0.008,-0.0079 -0.0705,-0.02295 -0.13516,-0.0335 l -0.11483,-0.0203 -0.0353,0.180848 c -0.0178,0.09952 -0.0531,0.17611 -0.0619,0.170284 -0.0354,-0.01394 -0.0354,-0.0062 -0.008,-0.194384 0.008,-0.08478 0.0177,-0.159137 0.008,-0.166204 -0.005,-0.0077 -0.0619,-0.02653 -0.1316,-0.04234 l -0.11998,-0.03005 -0.0439,0.244001 c -0.0619,0.328251 -0.0705,0.341677 -0.10509,0.300787 -0.0178,-0.02389 -0.0178,-0.106645 0.0178,-0.27986 0.0264,-0.137806 0.0353,-0.257163 0.0264,-0.271471 -0.0178,-0.01394 -0.0706,-0.03536 -0.13238,-0.04682 -0.10596,-0.02123 -0.10684,-0.02031 -0.1395,0.116105 -0.0531,0.219633 -0.0531,0.231476 -0.0901,0.194291 -0.0178,-0.02295 -0.0178,-0.07068 5.7e-4,-0.157292 0.0439,-0.183237 0.0439,-0.197733 -0.0795,-0.234019 -0.15099,-0.04586 -0.14665,-0.04853 -0.18104,0.102302 -0.0531,0.2161 -0.0531,0.230052 -0.0893,0.194387 -0.0178,-0.02125 -0.0178,-0.08122 0.005,-0.181055 0.0439,-0.171504 0.0265,-0.198975 -0.12448,-0.229433 l -0.10424,-0.02125 -0.0705,0.274646 c -0.0439,0.160827 -0.0795,0.274649 -0.10508,0.274649 -0.0439,0 -0.0439,-0.0077 0.0353,-0.303436 0.0353,-0.140437 0.0619,-0.265115 0.0531,-0.276939 -0.008,-0.01096 -0.0705,-0.0363 -0.12806,-0.05302 l -0.10684,-0.0318 -0.0439,0.16487 c -0.0531,0.192878 -0.0531,0.19333 -0.0946,0.167459 -0.0178,-0.0124 -0.008,-0.08308 0.0267,-0.194213 l 0.0531,-0.174326 -0.10595,-0.0327 c -0.15806,-0.04852 -0.16159,-0.04682 -0.21722,0.126795 -0.0265,0.08836 -0.0619,0.159944 -0.0796,0.159944 -0.0353,0 -0.0353,-0.08122 0.0178,-0.21285 0.0266,-0.06356 0.0441,-0.125713 0.0441,-0.139044 0,-0.01393 -0.0531,-0.04492 -0.12803,-0.07068 l -0.12898,-0.04682 -0.0909,0.266714 c -0.0531,0.162407 -0.10672,0.266712 -0.13238,0.266712 -0.0531,0 -0.0531,0.01393 0.0439,-0.260621 0.0441,-0.129434 0.0893,-0.250978 0.0893,-0.270324 8e-5,-0.01937 -0.0531,-0.05828 -0.1184,-0.0865 l -0.11842,-0.05116 -0.0619,0.158342 c -0.0354,0.08742 -0.0796,0.158344 -0.0989,0.158344 -0.0531,0 -0.0531,-0.01074 0.0178,-0.15994 0.0795,-0.168233 0.0706,-0.187656 -0.0439,-0.241523 -0.1395,-0.06448 -0.14136,-0.06356 -0.21194,0.09766 -0.0353,0.07953 -0.0797,0.144005 -0.0929,0.144005 -0.0441,0 -0.0353,-0.05208 0.0265,-0.191902 0.0353,-0.06882 0.0531,-0.133004 0.0531,-0.141989 0,-0.0094 -0.0531,-0.04586 -0.11482,-0.08122 l -0.1158,-0.06542 -0.11743,0.256279 c -0.0619,0.140905 -0.12713,0.25628 -0.14046,0.25628 -0.0619,0 -0.0531,-0.05394 0.0531,-0.266603 0.0619,-0.126024 0.114,-0.244019 0.114,-0.262206 5.7e-4,-0.03363 -0.14757,-0.142759 -0.19428,-0.142759 -0.0178,0 -0.0531,0.06448 -0.0893,0.144002 -0.0353,0.07953 -0.0797,0.144006 -0.0929,0.144006 -0.0439,0 -0.0353,-0.05208 0.0266,-0.191906 0.0705,-0.161177 0.0705,-0.166912 -0.0266,-0.249132 l -0.0796,-0.06882 -0.0893,0.159229 c -0.0441,0.08742 -0.10151,0.159228 -0.1184,0.159228 -0.0441,0 -0.0354,-0.02557 0.0531,-0.206739 l 0.0893,-0.166481 -0.0796,-0.08866 -0.0795,-0.08883 -0.0797,0.139513 c -0.0997,0.17724 -0.0953,0.172729 -0.12896,0.1361 -0.0178,-0.0203 0.005,-0.08742 0.0706,-0.191114 0.0909,-0.149894 0.0945,-0.165677 0.0531,-0.246746 -0.0267,-0.04774 -0.0439,-0.0865 -0.0531,-0.0865 -0.005,0 -0.0439,0.06448 -0.0893,0.143541 -0.0989,0.187054 -0.15721,0.433629 -0.15721,0.670562 -2e-4,0.189875 8e-5,0.190855 0.16602,0.369161 0.2084,0.223602 0.63587,0.538091 0.97744,0.718243 1.19531,0.631081 2.41846,0.971027 4.89458,1.360352 1.89988,0.298767 2.62618,0.435832 3.3885,0.639825 1.13958,0.304862 1.8754,0.621378 2.47627,1.065266 0.18726,0.138117 0.23139,0.152532 0.23139,0.07502 z m -5.67652,-0.32402 c 0.71622,-0.06621 1.17898,-0.148813 1.80643,-0.321013 0.38947,-0.1068 1.11866,-0.365533 1.11866,-0.396781 0,-0.06279 -1.2037,-0.301159 -2.82372,-0.559113 -1.52135,-0.242249 -1.89635,-0.307775 -2.50517,-0.437954 -0.85044,-0.181751 -1.76494,-0.46161 -2.29066,-0.701117 l -0.20843,-0.09472 -0.69854,0.0033 c -0.38417,0.0014 -0.82838,0.01938 -0.9869,0.03968 l -0.28877,0.03702 -0.0706,0.23986 c -0.0795,0.273597 -0.19164,0.708621 -0.22079,0.841267 -0.0177,0.0865 -0.008,0.09394 0.22079,0.212919 1.10914,0.570428 3.17698,1.061878 4.88821,1.161691 0.54401,0.03178 1.57984,0.01937 2.05636,-0.02461 z m -8.64507,-1.545685 c 0.44067,-0.516638 0.98131,-0.816198 1.75212,-0.970172 0.25523,-0.05116 0.5025,-0.07068 1.05702,-0.08308 0.39829,-0.0094 0.70475,-0.02389 0.68089,-0.0327 -0.12898,-0.04682 -0.5864,-0.317835 -0.7489,-0.442977 -0.13066,-0.101062 -0.19253,-0.132692 -0.2084,-0.10587 -0.0267,0.05472 -0.0893,0.0079 -0.0893,-0.07596 -0.001,-0.07766 -0.1828,-0.261843 -0.22694,-0.231558 -0.0178,0.01096 -0.0178,0.126958 -0.008,0.290291 0.008,0.184046 0.007,0.271024 -0.0178,0.271024 -0.0266,0 -0.0439,-0.120752 -0.0705,-0.431845 -0.005,-0.08915 -0.0178,-0.09596 -0.122,-0.09596 h -0.1139 l 0.007,0.167971 c 0.004,0.09238 -0.004,0.167875 -0.0178,0.167875 -0.0353,0 -0.0619,-0.109279 -0.0619,-0.235878 -1.9e-4,-0.08572 -0.005,-0.09068 -0.0909,-0.07147 -0.0531,0.01074 -0.10862,0.02031 -0.1324,0.02031 -0.0353,0 -0.0353,0.03363 -0.0178,0.175923 0.008,0.11052 0.008,0.17592 -0.008,0.17592 -0.0354,0 -0.0619,-0.105404 -0.0619,-0.213993 -5.7e-4,-0.09518 -0.0266,-0.10897 -0.15542,-0.07147 -0.12105,0.03702 -0.12539,0.05922 -0.0619,0.317123 0.0531,0.205872 0.0531,0.255938 0.0178,0.255938 -0.0266,0 -0.0796,-0.181034 -0.13067,-0.425678 -0.0178,-0.0941 -0.0267,-0.09486 -0.21108,-0.01938 -0.0619,0.02555 -0.0619,0.03086 -0.0178,0.162236 0.0441,0.134703 0.0353,0.238625 -0.008,0.205066 -0.0178,-0.0092 -0.0439,-0.08216 -0.0619,-0.161086 -0.0266,-0.136721 -0.0354,-0.142149 -0.10695,-0.112535 -0.18985,0.07952 -0.18985,0.07952 -0.12447,0.242499 0.0441,0.10494 0.0531,0.157117 0.0265,0.181578 -0.0178,0.02481 -0.0441,-0.01394 -0.0929,-0.130205 -0.0619,-0.16329 -0.0619,-0.164266 -0.13857,-0.118895 -0.16782,0.100611 -0.16605,0.08742 -0.0441,0.349367 0.10151,0.223959 0.11841,0.308923 0.0531,0.262466 -0.0178,-0.0094 -0.0706,-0.112224 -0.11746,-0.227138 -0.0531,-0.114864 -0.10246,-0.208771 -0.1184,-0.208771 -0.0178,0 -0.0705,0.03798 -0.11744,0.08386 l -0.0901,0.08387 0.0619,0.110054 c 0.10425,0.195441 0.0531,0.248779 -0.0619,0.05658 l -0.0619,-0.113935 -0.0706,0.07068 c -0.10595,0.110365 -0.11218,0.17848 -0.0266,0.302476 0.10246,0.149427 0.0619,0.21946 -0.044,0.07502 l -0.0797,-0.108505 -0.0267,0.09564 c -0.0353,0.125097 -0.0267,0.596207 10e-4,0.799319 l 0.0267,0.159939 0.0619,-0.09533 c 0.0353,-0.05208 0.14045,-0.187053 0.23578,-0.299109 z m 12.20734,-0.19792 c 0,-0.07332 -0.21903,-0.77371 -0.34003,-1.084538 -0.11578,-0.297868 -0.40181,-0.95572 -0.43271,-0.992058 -0.005,-0.0079 -0.0706,0.05208 -0.1485,0.132846 -0.27556,0.295219 -0.84077,0.630634 -1.41125,0.836411 -0.39123,0.141374 -0.58024,0.194366 -1.08113,0.304676 l -0.39125,0.0865 0.66415,0.10619 c 0.79568,0.127108 1.5709,0.268199 1.96699,0.357483 0.47686,0.107419 1.06883,0.255585 1.08278,0.27104 0.0266,0.02741 0.0901,0.01393 0.0901,-0.01859 z m -3.69265,-0.847975 c 0.39299,-0.06262 1.05968,-0.239941 1.39764,-0.371533 0.58376,-0.227059 1.15098,-0.583832 1.39546,-0.87651 l 0.12448,-0.148966 -0.008,-0.292583 c -0.008,-0.304675 -0.0795,-0.543313 -0.21902,-0.723639 l -0.0619,-0.07952 -0.0441,0.111145 c -0.0267,0.06093 -0.0619,0.13517 -0.0796,0.164636 -0.0267,0.0442 -0.0178,0.08308 0.0705,0.230379 0.0619,0.108671 0.0946,0.185041 0.0795,0.197674 -0.0177,0.01096 -0.0353,0.016 -0.0353,0.0094 -0.004,-0.0062 -0.0531,-0.08122 -0.10246,-0.166561 l -0.0944,-0.155429 -0.0893,0.09845 c -0.0996,0.11053 -0.10236,0.0961 0.0893,0.460197 0.0705,0.143228 0.0795,0.215217 0.0178,0.170435 -0.0178,-0.01096 -0.0796,-0.120291 -0.13873,-0.243123 -0.0619,-0.122768 -0.12276,-0.22264 -0.13951,-0.222022 -0.0178,4.5e-4 -0.0705,0.0363 -0.11662,0.07859 l -0.0893,0.07766 0.0619,0.125714 c 0.0705,0.136099 0.0796,0.197019 0.0353,0.197019 -0.0178,0 -0.0531,-0.06093 -0.0901,-0.135943 -0.0354,-0.07502 -0.0619,-0.140908 -0.0705,-0.147106 -0.004,-0.0062 -0.0619,0.02295 -0.12356,0.06448 l -0.11399,0.07502 0.0706,0.157633 c 0.0795,0.185113 0.0795,0.177767 0.0267,0.177767 -0.0178,0 -0.0619,-0.05828 -0.0921,-0.129433 -0.0267,-0.07147 -0.0619,-0.135945 -0.0706,-0.143695 -0.0267,-0.0186 -0.22963,0.07502 -0.22963,0.106489 0,0.01393 0.0353,0.136409 0.0893,0.273503 0.0997,0.287376 0.0982,0.27713 0.0531,0.27713 -0.0352,0 -0.19518,-0.397407 -0.19518,-0.479187 0,-0.04234 -0.0531,-0.04154 -0.16955,0.0033 -0.10246,0.03968 -0.10773,0.06448 -0.0531,0.247895 0.0266,0.07333 0.0266,0.139043 0.0177,0.148963 -0.0267,0.0203 -0.0619,-0.04492 -0.11391,-0.213448 l -0.0353,-0.1175 -0.1288,0.04853 c -0.0706,0.02654 -0.12899,0.05302 -0.12899,0.05922 0,0.0062 0.008,0.0442 0.0267,0.08479 0.0531,0.171146 0.0619,0.250018 0.0178,0.250018 -0.0266,0 -0.0531,-0.06185 -0.0795,-0.162762 l -0.0353,-0.162764 -0.10508,0.02125 c -0.0531,0.01096 -0.11662,0.03443 -0.1316,0.04945 -0.0177,0.01765 -0.005,0.129587 0.0265,0.28551 0.0267,0.141373 0.0441,0.26724 0.0353,0.279874 -0.0353,0.03702 -0.0706,-0.05208 -0.10435,-0.263083 -0.0441,-0.27059 -0.0531,-0.283223 -0.20138,-0.256207 l -0.12199,0.02295 0.0177,0.132693 c 0.0266,0.191639 0.0266,0.195162 -0.001,0.212739 -0.0177,0.0094 -0.0439,-0.05394 -0.0619,-0.139667 -0.0178,-0.08572 -0.0441,-0.161708 -0.0441,-0.169042 -0.005,-0.0077 -0.0706,-0.0033 -0.13423,0.0079 l -0.12263,0.02126 0.0178,0.147417 c 0.008,0.08122 0.0178,0.159925 0.0266,0.175393 0.003,0.01552 -0.008,0.03443 -0.0266,0.04234 -0.0267,0.0094 -0.0441,-0.04234 -0.0531,-0.150669 -0.0177,-0.183613 -0.0531,-0.208521 -0.2031,-0.176901 -0.0982,0.0203 -0.10246,0.02742 -0.0893,0.123544 0.0531,0.33019 0.0531,0.469732 0.008,0.469732 -0.0353,0 -0.0439,-0.06279 -0.0619,-0.287904 -0.008,-0.181828 -0.0353,-0.287714 -0.0531,-0.287543 -0.0178,2.28e-4 -0.0796,0.0094 -0.13951,0.01937 l -0.10595,0.01938 0.0178,0.176447 c 0.008,0.142768 0.008,0.173629 -0.0265,0.161705 -0.0267,-0.0092 -0.0441,-0.07147 -0.0531,-0.165951 -0.008,-0.170077 -0.044,-0.197377 -0.19162,-0.166187 l -0.0989,0.02031 0.0178,0.174948 c 0.0178,0.148033 0.008,0.174943 -0.0266,0.174943 -0.0353,0 -0.044,-0.03444 -0.044,-0.175906 v -0.175923 h -0.14665 -0.14663 l 0.008,0.247893 c 0.008,0.329943 -0.0441,0.344423 -0.0619,0.01673 l -0.0177,-0.248255 -0.13779,-0.0094 -0.13781,-0.0094 v 0.177678 c 0,0.0978 -0.008,0.177676 -0.0267,0.177676 -0.0267,0 -0.0619,-0.153157 -0.0619,-0.275893 0,-0.06882 -0.008,-0.07596 -0.12882,-0.07596 h -0.12898 l -0.008,0.181412 c -0.008,0.260436 -0.0796,0.271552 -0.0796,0.01393 V 50.6589 h -0.13067 -0.13067 v 0.175301 c 0,0.165148 0.004,0.176449 0.0796,0.195253 0.044,0.01096 0.151,0.03889 0.23845,0.06262 0.21636,0.05736 0.99104,0.221483 1.34657,0.284543 0.68976,0.122302 0.56613,0.118583 1.10059,0.03363 z m -2.85284,-0.586657 v -0.15571 l -0.12356,-0.0186 c -0.14832,-0.02203 -0.17306,2.28e-4 -0.16159,0.140906 0.007,0.09424 0.0267,0.111766 0.12542,0.145555 0.0619,0.02125 0.12617,0.03968 0.13779,0.04062 0.008,0.0014 0.0177,-0.06806 0.0177,-0.153305 z m -0.36032,-0.05038 c 0.0267,-0.115019 -0.005,-0.145713 -0.1485,-0.145713 -0.11662,0 -0.12883,0.0077 -0.12883,0.07502 0,0.05658 0.0267,0.08386 0.0935,0.10867 0.14308,0.05038 0.16428,0.04682 0.18282,-0.03798 z m -0.36474,-0.07766 c 0,-0.04586 -0.0264,-0.06356 -0.12353,-0.07767 -0.14215,-0.02126 -0.21901,0.02819 -0.0909,0.05828 0.0439,0.01096 0.1095,0.03269 0.14231,0.04774 0.0353,0.01552 0.0619,0.0282 0.0619,0.03005 0.003,0.0014 0.007,-0.02481 0.007,-0.05736 z m -2.31698,-1.327747 c 0,-0.0062 0.0178,-0.06448 0.0441,-0.128041 0.0439,-0.108505 0.0439,-0.115949 -0.008,-0.115949 -0.0266,0 -0.0706,0.0186 -0.1032,0.04154 -0.0441,0.03536 -0.0441,0.05394 -0.0178,0.12804 0.0267,0.07162 0.0795,0.119981 0.0795,0.07424 z m 8.428,-0.482194 c 0,-0.04062 -0.0178,-0.08386 -0.0439,-0.09486 -0.0619,-0.02819 -0.0705,-0.01096 -0.0353,0.104015 0.0353,0.112075 0.0796,0.1068 0.0796,-0.0092 z m -4.17854,1.306374 c -0.008,-0.0124 -0.0178,-0.144165 -0.0178,-0.292319 0,-0.197908 0.008,-0.265739 0.0353,-0.256208 0.0441,0.01673 0.0706,0.130987 0.0796,0.314057 0.003,0.14323 -0.0531,0.279948 -0.0921,0.23447 z"
       id="path1-6"
       inkscape:export-filename="icon_shapeup_24.svg"
       inkscape:export-xdpi="96"
       inkscape:export-ydpi="96" /></g></svg>
