<?xml version="1.0" encoding="UTF-8" standalone="no"?>
<!-- Created with Inkscape (http://www.inkscape.org/) -->

<svg
   width="17.197594mm"
   height="12.278774mm"
   viewBox="0 0 17.197594 12.278774"
   version="1.1"
   id="svg1"
   xml:space="preserve"
   inkscape:export-filename="ビットマップ.svg"
   inkscape:export-xdpi="96"
   inkscape:export-ydpi="96"
   xmlns:inkscape="http://www.inkscape.org/namespaces/inkscape"
   xmlns:sodipodi="http://sodipodi.sourceforge.net/DTD/sodipodi-0.dtd"
   xmlns="http://www.w3.org/2000/svg"
   xmlns:svg="http://www.w3.org/2000/svg"><sodipodi:namedview
     id="namedview1"
     pagecolor="#ffffff"
     bordercolor="#111111"
     borderopacity="1"
     inkscape:showpageshadow="0"
     inkscape:pageopacity="0"
     inkscape:pagecheckerboard="1"
     inkscape:deskcolor="#d1d1d1"
     inkscape:document-units="mm"><inkscape:page
       x="0"
       y="-1.8941857e-22"
       width="17.197594"
       height="12.278773"
       id="page2"
       margin="0"
       bleed="0" /></sodipodi:namedview><defs
     id="defs1" /><g
     inkscape:label="Layer 1"
     inkscape:groupmode="layer"
     id="layer1"
     transform="translate(-168.06957,-44.578489)"><path
       style="fill:#000000;stroke:#000000;stroke-width:0.205616;stroke-dasharray:none;stroke-opacity:1"
       d="m 170.28549,56.275726 c 6e-4,-0.824407 0.0834,-1.654889 0.25831,-2.624112 0.0836,-0.470908 0.3148,-1.439321 0.39442,-1.666741 0.0187,-0.05087 -0.008,-0.04812 -0.25366,0.02406 -0.38427,0.113756 -0.60278,0.218048 -0.89258,0.427202 -0.48237,0.348399 -0.86941,0.832548 -0.83144,1.041983 0.028,0.149677 0.23982,0.629959 0.38057,0.858375 0.0649,0.113918 0.12312,0.218321 0.11761,0.232019 -0.0187,0.04634 -0.75461,0.776938 -0.78331,0.776938 -0.037,0 -0.1833,-0.236653 -0.28795,-0.464337 -0.20372,-0.444136 -0.2722,-1.157286 -0.1591,-1.660307 0.0991,-0.446541 0.34259,-0.952924 0.62496,-1.303286 0.48519,-0.602201 1.4069,-1.055964 2.40629,-1.184769 l 0.1722,-0.02228 -0.0187,-0.244162 c -0.0187,-0.310632 0.0557,-0.666719 0.18518,-0.880784 0.11017,-0.180278 0.20465,-0.262674 0.37036,-0.325357 0.1119,-0.04259 0.12413,-0.05932 0.18613,-0.280905 0.14723,-0.517404 0.1759,-0.757743 0.1759,-1.46436 0,-0.858196 -0.0557,-1.209713 -0.36481,-2.307098 -0.074,-0.268035 -0.13699,-0.496274 -0.13699,-0.507014 0,-0.01149 0.0187,-0.0195 0.046,-0.0195 0.028,0 0.0557,0.04909 0.074,0.10905 0.3759,1.337111 0.45553,1.759288 0.48144,2.540274 0.0277,0.778103 -0.0462,1.285621 -0.30182,2.042293 l -0.12791,0.382302 0.1333,0.130174 c 0.24161,0.237112 0.8018,0.576911 1.35252,0.820425 0.16203,0.07215 0.25829,0.08419 0.8805,0.1162 0.91387,0.04633 2.23659,0.04534 2.73283,-0.0015 1.03292,-0.09863 2.00239,-0.361188 2.64136,-0.714869 0.41944,-0.232218 0.92654,-0.642002 0.92654,-0.74876 0,-0.02505 -0.037,-0.156662 -0.0739,-0.292673 -0.21296,-0.719973 -0.28795,-1.719696 -0.18794,-2.506957 0.0739,-0.579055 0.39068,-1.839542 0.47126,-1.868956 0.0557,-0.02129 0.0371,0.0806 -0.11584,0.637561 -0.0649,0.252877 -0.16202,0.630169 -0.20369,0.838402 -0.18517,0.922272 -0.0936,2.654748 0.14903,2.721234 0.13796,0.03805 0.3213,0.254435 0.43795,0.516278 0.1093,0.243872 0.11585,0.273597 0.12039,0.614959 l 0.005,0.358686 0.1685,0.371201 c 0.21851,0.480702 0.35461,0.844298 0.54811,1.462297 l 0.15733,0.50155 0.29442,0.09343 c 0.3972,0.126107 0.97014,0.368677 1.34686,0.570246 0.32314,0.172867 1.03248,0.672195 1.23412,0.868662 l 0.11665,0.113757 -0.26389,0.419141 c -0.35832,0.567568 -0.32407,0.537293 -0.46202,0.40915 -0.2296,-0.213789 -0.66662,-0.521172 -1.0232,-0.718106 -0.38607,-0.213787 -0.89624,-0.442025 -0.92309,-0.412856 -0.007,0.0099 0.005,0.22499 0.037,0.47859 0.0739,0.689506 0.1094,1.215162 0.11017,1.710346 5.9e-4,0.372859 -0.005,0.444332 -0.046,0.444332 -0.037,0 -0.0462,-0.07133 -0.0462,-0.442481 0,-0.740434 -0.12774,-2.160019 -0.20185,-2.241669 -0.0187,-0.01627 -0.19443,-0.08239 -0.40184,-0.148378 l -0.37588,-0.119281 -0.26204,0.113756 c -0.7231,0.313687 -1.67546,0.55543 -2.68625,0.681621 -0.65181,0.08143 -2.3472,0.0806 -3.087,-4.73e-4 -1.8888,-0.208602 -3.63889,-0.66571 -4.59606,-1.200545 -0.0979,-0.0546 -0.18518,-0.09165 -0.19536,-0.08142 -0.0279,0.03428 -0.18612,0.974733 -0.25,1.510819 -0.037,0.315362 -0.074,0.837278 -0.0834,1.265945 -0.0187,0.579869 -0.0279,0.7294 -0.0557,0.7294 -0.028,0 -0.037,-0.09914 -0.037,-0.477843 z m -1.21513,-1.432164 c 0.20464,-0.212864 0.2787,-0.310907 0.25554,-0.336273 -0.0187,-0.02505 -0.1279,0.06289 -0.35738,0.303494 -0.17778,0.186666 -0.31664,0.353047 -0.30739,0.369803 0.0278,0.04632 0.0936,-0.0081 0.40738,-0.337121 z m 15.69775,-0.0676 c 0.12513,-0.201387 0.23152,-0.380268 0.23705,-0.397675 0.004,-0.01754 -0.0462,-0.07964 -0.1204,-0.137975 l -0.13047,-0.106439 -0.0835,0.11083 c -0.12315,0.156661 -0.38426,0.597372 -0.38426,0.648483 0,0.03787 0.20555,0.247675 0.24258,0.248503 0.007,1.13e-4 0.1176,-0.164433 0.24257,-0.365724 z m -0.20552,-0.02957 c -0.0557,-0.04259 -0.0557,-0.207859 0.001,-0.251734 0.1176,-0.08515 0.24073,0.144152 0.12678,0.236375 -0.0649,0.05088 -0.074,0.05184 -0.12775,0.01625 z m 0.074,-0.163682 c -0.0279,-0.03428 -0.0557,0.01754 -0.0279,0.06209 0.0187,0.03428 0.0279,0.03428 0.037,1.15e-4 0.005,-0.0231 0.004,-0.05182 -0.005,-0.06287 z m -15.72777,0.154873 c 0.16481,-0.168036 0.31112,-0.317017 0.325,-0.330994 0.008,-0.01461 -0.0187,-0.100752 -0.0649,-0.192677 -0.25188,-0.45285 -0.40278,-1.01281 -0.40834,-1.518198 -0.001,-0.175175 0.005,-0.363873 0.0187,-0.419144 l 0.0187,-0.100605 -0.0739,0.100605 c -0.0739,0.09945 -0.32312,0.629402 -0.36477,0.784687 -0.0187,0.07493 -0.0187,0.07865 0.0739,0.05933 0.12774,-0.02782 0.13051,0.06388 0.003,0.0949 -0.1017,0.02505 -0.13426,0.07493 -0.16482,0.264347 -0.0187,0.117332 -0.0187,0.127736 0.037,0.104652 0.20557,-0.09507 0.2639,-0.02505 0.074,0.08337 -0.11108,0.06291 -0.12138,0.07964 -0.12138,0.205827 0,0.143826 0.007,0.14805 0.15926,0.07964 0.037,-0.01658 0.0557,-0.0081 0.0557,0.02776 0,0.02874 -0.0278,0.0611 -0.0557,0.07215 -0.0945,0.03334 -0.13148,0.106461 -0.10928,0.217577 0.008,0.05655 0.037,0.101905 0.0557,0.101905 0.0187,0 0.11109,-0.05282 0.20277,-0.116526 0.18241,-0.128548 0.21114,-0.138628 0.21114,-0.07493 0,0.02406 -0.0834,0.10288 -0.19724,0.1761 -0.20463,0.137649 -0.22499,0.18026 -0.16296,0.33109 l 0.0369,0.08419 0.13052,-0.09914 c 0.0936,-0.06843 0.13697,-0.0871 0.15192,-0.06014 0.008,0.02228 -0.008,0.06388 -0.046,0.09849 -0.1963,0.160566 -0.18609,0.144152 -0.14627,0.241838 0.0187,0.05005 0.0462,0.09069 0.0557,0.09069 0.008,0 0.15652,-0.137488 0.32129,-0.305545 z m 15.31466,0.05833 c 0,-0.05087 0.27681,-0.502838 0.38514,-0.629779 l 0.0739,-0.08889 -0.0833,-0.05736 c -0.046,-0.0315 -0.0836,-0.05184 -0.0936,-0.04535 -0.004,0.0065 -0.037,0.07688 -0.0833,0.155523 -0.037,0.07865 -0.0835,0.142529 -0.0936,0.142529 -0.0557,0 -0.046,-0.05655 0.0187,-0.183432 0.037,-0.07769 0.0739,-0.155366 0.0739,-0.172773 0,-0.03428 -0.15733,-0.146914 -0.20555,-0.146914 -0.0186,0 -0.0739,0.08987 -0.12594,0.200093 -0.0557,0.11002 -0.11018,0.209611 -0.12776,0.221375 -0.0739,0.05005 -0.0557,-0.02957 0.0462,-0.236472 0.0557,-0.1214 0.1094,-0.232576 0.1094,-0.246926 0,-0.01461 -0.0557,-0.05932 -0.11761,-0.09962 l -0.11761,-0.07314 -0.0557,0.150979 c -0.0279,0.08337 -0.0739,0.151135 -0.0944,0.151135 -0.0557,1.28e-4 -0.0461,-0.04906 0.0186,-0.201567 l 0.0649,-0.131962 -0.12038,-0.0676 c -0.0649,-0.03707 -0.13228,-0.0676 -0.14626,-0.0676 -0.0187,0 -0.0462,0.07588 -0.0833,0.167666 -0.028,0.09264 -0.0649,0.167683 -0.0739,0.167683 -0.0557,0 -0.0557,-0.05282 -1e-4,-0.206098 0.0279,-0.09069 0.0557,-0.170645 0.0557,-0.177129 0,-0.01626 -0.24815,-0.125133 -0.25739,-0.112781 -0.004,0.0047 -0.028,0.08143 -0.0649,0.169067 -0.028,0.08793 -0.0649,0.159262 -0.0836,0.159262 -0.037,0 -0.028,-0.07783 0.0187,-0.212762 0.0557,-0.156991 0.0649,-0.147404 -0.0649,-0.205924 -0.1435,-0.06664 -0.15553,-0.06483 -0.18053,0.02505 -0.0739,0.257397 -0.14448,0.427583 -0.18241,0.427583 -0.0557,0 -0.0557,0.02874 0.046,-0.278506 l 0.0834,-0.261744 -0.074,-0.03151 c -0.20091,-0.08419 -0.21204,-0.08142 -0.25368,0.08419 -0.037,0.147568 -0.074,0.21194 -0.11017,0.17583 -0.007,-0.0099 0.004,-0.09264 0.0279,-0.185367 l 0.0462,-0.168593 -0.0936,-0.03611 c -0.16575,-0.06388 -0.19073,-0.04908 -0.23332,0.131797 -0.0371,0.156987 -0.0557,0.193213 -0.10012,0.149355 -0.008,-0.0099 0.003,-0.0941 0.028,-0.18683 0.0279,-0.09264 0.037,-0.174995 0.0279,-0.182863 -0.005,-0.0083 -0.0739,-0.0231 -0.14822,-0.03512 l -0.13602,-0.02032 -0.0557,0.254877 c -0.046,0.238343 -0.0936,0.321762 -0.13146,0.276661 -0.008,-0.0099 0.008,-0.140409 0.046,-0.288786 0.037,-0.148376 0.0462,-0.276633 0.037,-0.284986 -0.008,-0.0083 -0.074,-0.02505 -0.14725,-0.03706 l -0.12595,-0.02228 -0.0187,0.133586 c -0.008,0.07314 -0.028,0.154225 -0.0462,0.17925 -0.046,0.08614 -0.0649,-0.0015 -0.037,-0.169261 l 0.028,-0.168412 -0.1094,-0.03332 c -0.16666,-0.05087 -0.17314,-0.0473 -0.21387,0.1539 -0.0279,0.131149 -0.0462,0.177322 -0.0649,0.152764 -0.0187,-0.02406 -0.0187,-0.08792 -0.001,-0.201644 l 0.0277,-0.166465 -0.0936,-0.01949 c -0.20553,-0.04535 -0.20089,-0.05184 -0.28053,0.407673 -0.008,0.06483 -0.0369,0.109039 -0.0649,0.109039 -0.0278,0 -0.037,-0.02129 -0.0278,-0.05835 0.046,-0.184435 0.0835,-0.48525 0.0649,-0.509319 -0.0187,-0.01463 -0.074,-0.03707 -0.13879,-0.04909 l -0.11109,-0.02228 -0.037,0.185462 c -0.0462,0.253294 -0.10453,0.245071 -0.074,-0.01149 l 0.0187,-0.196752 -0.12675,-0.02228 c -0.0649,-0.01149 -0.13229,-0.01626 -0.13976,-0.0083 -0.005,0.0083 -0.028,0.0871 -0.0462,0.177112 -0.0187,0.08988 -0.046,0.158611 -0.0649,0.152925 -0.037,-0.01126 -0.037,-0.02679 -0.001,-0.228596 l 0.0187,-0.138461 -0.14172,-0.0231 c -0.074,-0.013 -0.14628,-0.0185 -0.15196,-0.01149 -0.005,0.0065 -0.0279,0.135536 -0.046,0.287551 -0.0278,0.17955 -0.0557,0.276486 -0.0739,0.276486 -0.0462,0 -0.0462,-0.02775 0.003,-0.329352 0.0462,-0.267742 0.0557,-0.254433 -0.13976,-0.289598 -0.11018,-0.02032 -0.11189,-0.01852 -0.13228,0.106438 -0.0279,0.195913 -0.046,0.244326 -0.0836,0.244326 -0.0187,0 -0.0278,-0.06289 -0.008,-0.181185 0.008,-0.09963 0.008,-0.188699 -0.004,-0.197782 -0.008,-0.0096 -0.074,-0.02228 -0.14545,-0.02875 l -0.12139,-0.01149 -0.0279,0.176001 c -0.0187,0.121075 -0.037,0.176121 -0.0739,0.176121 -0.028,0 -0.037,-0.02228 -0.028,-0.05833 0.007,-0.03234 0.0187,-0.114732 0.0371,-0.183513 0.0187,-0.133588 0.008,-0.14204 -0.19631,-0.167584 -0.0649,-0.0081 -0.0739,0.0047 -0.10295,0.166657 -0.0186,0.114581 -0.037,0.176101 -0.0649,0.176101 -0.037,0 -0.037,-0.11685 0.008,-0.305805 0.008,-0.03881 -0.008,-0.06014 -0.0835,-0.07493 -0.19908,-0.04439 -0.20183,-0.04077 -0.24164,0.226469 -0.0187,0.136185 -0.0462,0.267755 -0.0649,0.292492 -0.0557,0.09849 -0.0649,-0.0146 -0.0187,-0.271937 0.0279,-0.149029 0.037,-0.276194 0.0279,-0.282483 -0.008,-0.0065 -0.0739,-0.02227 -0.14448,-0.03429 -0.1388,-0.02505 -0.13799,-0.02685 -0.17594,0.224887 -0.037,0.21499 -0.0836,0.150813 -0.0649,-0.0759 l 0.0187,-0.201193 -0.10742,-0.0047 c -0.0557,-0.0035 -0.12513,-0.0065 -0.14624,-0.0081 -0.0187,-0.0015 -0.0462,0.06664 -0.0649,0.172674 -0.0187,0.114569 -0.037,0.176101 -0.0649,0.176101 -0.0371,0 -0.0371,-0.117657 0.008,-0.307397 0.0187,-0.07038 -0.005,-0.08614 -0.15456,-0.09994 l -0.11954,-0.01149 -0.0462,0.277397 c -0.0462,0.279605 -0.0739,0.338584 -0.10819,0.297957 -0.0187,-0.02032 0.037,-0.451388 0.074,-0.549336 0.007,-0.0231 -0.0187,-0.04909 -0.074,-0.0611 -0.23333,-0.0546 -0.21761,-0.0611 -0.23885,0.09572 -0.008,0.07964 -0.0279,0.16638 -0.046,0.191926 -0.0462,0.0889 -0.074,-0.0049 -0.037,-0.171842 0.0187,-0.09264 0.0187,-0.174624 0.008,-0.182388 -0.008,-0.0083 -0.0739,-0.02406 -0.1417,-0.03512 l -0.12039,-0.02128 -0.037,0.189603 c -0.0187,0.104337 -0.0557,0.184635 -0.0649,0.178527 -0.0371,-0.01461 -0.0371,-0.0065 -0.008,-0.203794 0.008,-0.08888 0.0186,-0.16684 0.008,-0.174249 -0.005,-0.0081 -0.0649,-0.02782 -0.13797,-0.04439 l -0.12579,-0.03151 -0.046,0.255813 c -0.0649,0.344141 -0.0739,0.358217 -0.11018,0.315347 -0.0187,-0.02505 -0.0187,-0.111807 0.0187,-0.293407 0.0277,-0.144477 0.037,-0.269612 0.0277,-0.284612 -0.0187,-0.01461 -0.074,-0.03707 -0.13879,-0.04909 -0.11109,-0.02226 -0.11201,-0.02129 -0.14625,0.121726 -0.0557,0.230264 -0.0557,0.242681 -0.0945,0.203696 -0.0187,-0.02406 -0.0187,-0.0741 6e-4,-0.164906 0.046,-0.192107 0.046,-0.207305 -0.0833,-0.245348 -0.1583,-0.04808 -0.15375,-0.05088 -0.18981,0.107255 -0.0557,0.22656 -0.0557,0.241188 -0.0936,0.203796 -0.0187,-0.02228 -0.0187,-0.08515 0.005,-0.189819 0.046,-0.179806 0.0278,-0.208607 -0.1305,-0.240539 l -0.10929,-0.02228 -0.0739,0.287941 c -0.046,0.168612 -0.0833,0.287944 -0.11017,0.287944 -0.046,0 -0.046,-0.0081 0.037,-0.318125 0.037,-0.147235 0.0649,-0.277948 0.0557,-0.290345 -0.008,-0.01149 -0.0739,-0.03806 -0.13426,-0.05559 l -0.11201,-0.03334 -0.046,0.17285 c -0.0557,0.202215 -0.0557,0.202689 -0.0992,0.175566 -0.0187,-0.013 -0.008,-0.0871 0.028,-0.203615 l 0.0557,-0.182764 -0.11108,-0.03428 c -0.16571,-0.05087 -0.16941,-0.04909 -0.22773,0.132933 -0.0278,0.09264 -0.0649,0.167686 -0.0835,0.167686 -0.037,0 -0.037,-0.08515 0.0187,-0.223153 0.0279,-0.06664 0.0462,-0.131799 0.0462,-0.145775 0,-0.0146 -0.0557,-0.04709 -0.13423,-0.0741 l -0.13522,-0.04909 -0.0953,0.279625 c -0.0557,0.170269 -0.11189,0.279623 -0.13879,0.279623 -0.0557,0 -0.0557,0.0146 0.046,-0.273237 0.0462,-0.1357 0.0936,-0.263127 0.0936,-0.28341 8e-5,-0.02031 -0.0557,-0.0611 -0.12413,-0.09069 l -0.12416,-0.05364 -0.0649,0.166007 c -0.0371,0.09165 -0.0835,0.166009 -0.10369,0.166009 -0.0557,0 -0.0557,-0.01126 0.0187,-0.167682 0.0833,-0.176377 0.074,-0.19674 -0.046,-0.253215 -0.14626,-0.0676 -0.14821,-0.06664 -0.2222,0.102388 -0.037,0.08338 -0.0836,0.150976 -0.0974,0.150976 -0.0462,0 -0.037,-0.0546 0.0278,-0.201192 0.037,-0.07215 0.0557,-0.139442 0.0557,-0.148862 0,-0.0099 -0.0557,-0.04808 -0.12038,-0.08515 l -0.1214,-0.06859 -0.12312,0.268684 c -0.0649,0.147726 -0.13328,0.268686 -0.14725,0.268686 -0.0649,0 -0.0557,-0.05655 0.0557,-0.279508 0.0649,-0.132125 0.11951,-0.255832 0.11951,-0.274899 6e-4,-0.03526 -0.15471,-0.14967 -0.20368,-0.14967 -0.0187,0 -0.0557,0.0676 -0.0936,0.150973 -0.037,0.08338 -0.0836,0.150977 -0.0974,0.150977 -0.046,0 -0.037,-0.0546 0.0279,-0.201196 0.0739,-0.168979 0.0739,-0.174991 -0.0279,-0.261191 l -0.0834,-0.07215 -0.0936,0.166937 c -0.0462,0.09165 -0.10642,0.166936 -0.12413,0.166936 -0.0462,0 -0.0371,-0.02681 0.0557,-0.216747 l 0.0936,-0.17454 -0.0835,-0.09295 -0.0833,-0.09313 -0.0836,0.146267 c -0.10453,0.18582 -0.0999,0.18109 -0.13521,0.142688 -0.0187,-0.02128 0.005,-0.09165 0.074,-0.200365 0.0953,-0.15715 0.0991,-0.173697 0.0557,-0.25869 -0.028,-0.05005 -0.046,-0.09069 -0.0557,-0.09069 -0.005,0 -0.046,0.0676 -0.0936,0.15049 -0.10369,0.196109 -0.16482,0.45462 -0.16482,0.703022 -2.1e-4,0.199066 8e-5,0.200094 0.17405,0.387031 0.21849,0.234426 0.66666,0.564139 1.02476,0.753011 1.25317,0.66163 2.53553,1.018032 5.13151,1.426203 1.99185,0.31323 2.75331,0.45693 3.55253,0.670798 1.19475,0.319619 1.96619,0.651457 2.59614,1.116832 0.19633,0.144803 0.24259,0.159916 0.24259,0.07865 z m -5.95131,-0.339705 c 0.75089,-0.06941 1.23606,-0.156016 1.89388,-0.336552 0.40832,-0.11197 1.17281,-0.383227 1.17281,-0.415988 0,-0.06583 -1.26197,-0.315737 -2.96041,-0.586178 -1.59499,-0.253976 -1.98815,-0.322674 -2.62644,-0.459154 -0.89161,-0.19055 -1.85037,-0.483956 -2.40154,-0.735057 l -0.21852,-0.0993 -0.73236,0.0035 c -0.40276,0.0015 -0.86848,0.02032 -1.03467,0.0416 l -0.30275,0.03881 -0.074,0.251471 c -0.0833,0.286841 -0.20091,0.742923 -0.23147,0.88199 -0.0186,0.09069 -0.008,0.09849 0.23147,0.223226 1.16283,0.598041 3.33077,1.113281 5.12484,1.217925 0.57034,0.03332 1.65632,0.02031 2.1559,-0.0258 z m -9.06355,-1.620507 c 0.462,-0.541647 1.02881,-0.855708 1.83693,-1.017136 0.26759,-0.05364 0.52683,-0.0741 1.10819,-0.0871 0.41757,-0.0099 0.73887,-0.02505 0.71385,-0.03428 -0.13522,-0.04909 -0.61478,-0.333221 -0.78515,-0.464421 -0.13699,-0.105954 -0.20185,-0.139115 -0.21849,-0.110994 -0.028,0.05737 -0.0936,0.0083 -0.0936,-0.07964 -0.001,-0.08142 -0.19165,-0.274519 -0.23793,-0.242768 -0.0187,0.01149 -0.0187,0.133104 -0.008,0.304344 0.008,0.192955 0.007,0.284143 -0.0187,0.284143 -0.0279,0 -0.046,-0.126597 -0.0739,-0.452749 -0.005,-0.09347 -0.0187,-0.100605 -0.1279,-0.100605 h -0.11942 l 0.007,0.176102 c 0.004,0.09685 -0.004,0.176001 -0.0187,0.176001 -0.037,0 -0.0649,-0.114569 -0.0649,-0.247296 -2e-4,-0.08987 -0.005,-0.09507 -0.0953,-0.07493 -0.0557,0.01126 -0.11388,0.02129 -0.13881,0.02129 -0.037,0 -0.037,0.03526 -0.0187,0.184439 0.008,0.11587 0.008,0.184436 -0.008,0.184436 -0.0371,0 -0.0649,-0.110506 -0.0649,-0.224352 -6e-4,-0.09979 -0.0279,-0.114245 -0.16295,-0.07493 -0.1269,0.03881 -0.13146,0.06209 -0.0649,0.332474 0.0557,0.215837 0.0557,0.268327 0.0187,0.268327 -0.0279,0 -0.0834,-0.189798 -0.137,-0.446284 -0.0187,-0.09866 -0.028,-0.09945 -0.22129,-0.02032 -0.0649,0.02679 -0.0649,0.03235 -0.0187,0.170089 0.0462,0.141224 0.037,0.250176 -0.008,0.214993 -0.0187,-0.0096 -0.046,-0.08614 -0.0649,-0.168884 -0.0279,-0.143339 -0.0371,-0.14903 -0.11213,-0.117982 -0.19904,0.08337 -0.19904,0.08337 -0.13049,0.254237 0.0462,0.11002 0.0557,0.164723 0.0278,0.190368 -0.0187,0.02601 -0.0462,-0.01462 -0.0974,-0.136508 -0.0649,-0.171194 -0.0649,-0.172217 -0.14527,-0.12465 -0.17595,0.105481 -0.17409,0.09165 -0.0462,0.366279 0.10643,0.2348 0.12414,0.323877 0.0557,0.275171 -0.0187,-0.0099 -0.074,-0.117656 -0.12314,-0.238133 -0.0557,-0.120424 -0.10742,-0.218877 -0.12413,-0.218877 -0.0187,0 -0.0739,0.03982 -0.12313,0.08792 l -0.0945,0.08793 0.0649,0.115382 c 0.10929,0.204901 0.0557,0.260821 -0.0649,0.05932 l -0.0649,-0.119451 -0.074,0.0741 c -0.11107,0.115707 -0.11761,0.187119 -0.0279,0.317118 0.10742,0.15666 0.0649,0.230083 -0.0461,0.07865 l -0.0836,-0.113757 -0.028,0.100269 c -0.037,0.131153 -0.028,0.625068 0.001,0.838012 l 0.028,0.167682 0.0649,-0.09994 c 0.037,-0.0546 0.14725,-0.196108 0.2472,-0.313588 z M 182.00688,52.6282 c 0,-0.07687 -0.22963,-0.811163 -0.35649,-1.137038 -0.12138,-0.312287 -0.42126,-1.001983 -0.45365,-1.04008 -0.005,-0.0083 -0.074,0.0546 -0.15569,0.139276 -0.2889,0.30951 -0.88147,0.661162 -1.47957,0.8769 -0.41016,0.148217 -0.60832,0.203774 -1.13346,0.319424 l -0.41019,0.09069 0.6963,0.11133 c 0.8342,0.133261 1.64694,0.281182 2.06221,0.374788 0.49994,0.112619 1.12057,0.267957 1.13519,0.28416 0.0279,0.02874 0.0945,0.0146 0.0945,-0.01949 z m -3.8714,-0.889023 c 0.41202,-0.06565 1.11098,-0.251556 1.4653,-0.389518 0.61202,-0.23805 1.20669,-0.612094 1.46301,-0.91894 l 0.1305,-0.156177 -0.008,-0.306746 c -0.008,-0.319423 -0.0834,-0.569613 -0.22962,-0.758668 l -0.0649,-0.08337 -0.0462,0.116526 c -0.028,0.06388 -0.0649,0.141713 -0.0834,0.172605 -0.028,0.04634 -0.0187,0.0871 0.0739,0.241531 0.0649,0.113932 0.0992,0.193999 0.0833,0.207243 -0.0186,0.01149 -0.037,0.01678 -0.037,0.0099 -0.004,-0.0065 -0.0557,-0.08515 -0.10742,-0.174624 l -0.099,-0.162953 -0.0936,0.103216 c -0.10442,0.115881 -0.10731,0.100752 0.0936,0.482474 0.0739,0.150161 0.0833,0.225635 0.0187,0.178685 -0.0187,-0.01149 -0.0835,-0.126114 -0.14545,-0.254892 -0.0649,-0.12871 -0.1287,-0.233417 -0.14626,-0.232769 -0.0187,4.72e-4 -0.0739,0.03806 -0.12227,0.08239 l -0.0936,0.08142 0.0649,0.131799 c 0.0739,0.142687 0.0835,0.206556 0.037,0.206556 -0.0187,0 -0.0557,-0.06388 -0.0945,-0.142523 -0.0371,-0.07865 -0.0649,-0.147729 -0.0739,-0.154227 -0.004,-0.0065 -0.0649,0.02406 -0.12954,0.0676 l -0.11951,0.07865 0.074,0.165264 c 0.0833,0.194074 0.0833,0.186372 0.028,0.186372 -0.0187,0 -0.0649,-0.0611 -0.0966,-0.135698 -0.028,-0.07493 -0.0649,-0.142526 -0.074,-0.150651 -0.028,-0.0195 -0.24074,0.07865 -0.24074,0.111644 0,0.0146 0.037,0.143012 0.0936,0.286742 0.10453,0.301287 0.10296,0.290545 0.0557,0.290545 -0.0369,0 -0.20463,-0.416644 -0.20463,-0.502383 0,-0.04439 -0.0557,-0.04355 -0.17775,0.0035 -0.10742,0.0416 -0.11295,0.0676 -0.0557,0.259895 0.0279,0.07688 0.0279,0.145774 0.0185,0.156174 -0.028,0.02128 -0.0649,-0.0471 -0.11942,-0.223781 l -0.037,-0.123188 -0.13504,0.05088 c -0.074,0.02782 -0.13523,0.05559 -0.13523,0.06209 0,0.0065 0.008,0.04634 0.028,0.0889 0.0557,0.179431 0.0649,0.262121 0.0187,0.262121 -0.0279,0 -0.0557,-0.06484 -0.0833,-0.170641 l -0.037,-0.170643 -0.11017,0.02228 c -0.0557,0.01149 -0.12226,0.0361 -0.13797,0.05184 -0.0186,0.0185 -0.005,0.13586 0.0278,0.299331 0.028,0.148216 0.0462,0.280176 0.037,0.293422 -0.037,0.03881 -0.074,-0.0546 -0.1094,-0.275818 -0.0462,-0.283689 -0.0557,-0.296933 -0.21113,-0.26861 l -0.12789,0.02406 0.0186,0.139117 c 0.0279,0.200915 0.0279,0.204609 -0.001,0.223037 -0.0186,0.0099 -0.046,-0.05655 -0.0649,-0.146428 -0.0187,-0.08987 -0.0462,-0.169536 -0.0462,-0.177225 -0.005,-0.0081 -0.074,-0.0035 -0.14072,0.0083 l -0.12857,0.02229 0.0187,0.154553 c 0.008,0.08515 0.0187,0.167666 0.0279,0.183883 0.003,0.01627 -0.008,0.0361 -0.0279,0.04439 -0.028,0.0099 -0.0462,-0.04439 -0.0557,-0.157962 -0.0186,-0.192501 -0.0557,-0.218615 -0.21293,-0.185464 -0.10295,0.02128 -0.10742,0.02875 -0.0936,0.129524 0.0557,0.346174 0.0557,0.492471 0.008,0.492471 -0.037,0 -0.046,-0.06583 -0.0649,-0.301841 -0.008,-0.19063 -0.037,-0.301642 -0.0557,-0.301462 -0.0187,2.39e-4 -0.0835,0.0099 -0.14627,0.02031 l -0.11107,0.02032 0.0187,0.184988 c 0.008,0.149679 0.008,0.182034 -0.0278,0.169533 -0.028,-0.0096 -0.0462,-0.07493 -0.0557,-0.173985 -0.008,-0.17831 -0.0461,-0.206931 -0.20089,-0.174231 l -0.10369,0.02129 0.0187,0.183417 c 0.0187,0.155198 0.008,0.183411 -0.0279,0.183411 -0.037,0 -0.0461,-0.03611 -0.0461,-0.184421 V 50.95129 h -0.15375 -0.15373 l 0.008,0.259893 c 0.008,0.345915 -0.0462,0.361095 -0.0649,0.01754 l -0.0186,-0.260273 -0.14446,-0.0099 -0.14448,-0.0099 v 0.186279 c 0,0.102534 -0.008,0.186277 -0.028,0.186277 -0.028,0 -0.0649,-0.160571 -0.0649,-0.289248 0,-0.07215 -0.008,-0.07964 -0.13505,-0.07964 h -0.13523 l -0.008,0.190193 c -0.008,0.273043 -0.0835,0.284698 -0.0835,0.01461 v -0.203972 h -0.13699 -0.137 v 0.183787 c 0,0.173142 0.004,0.18499 0.0834,0.204704 0.0461,0.01149 0.15831,0.04077 0.25,0.06565 0.22683,0.06014 1.03901,0.232204 1.41175,0.298317 0.72315,0.128222 0.59354,0.124323 1.15387,0.03526 z m -2.99094,-0.615056 v -0.163247 l -0.12954,-0.0195 c -0.1555,-0.0231 -0.18143,2.39e-4 -0.16941,0.147727 0.007,0.0988 0.028,0.117177 0.13149,0.152601 0.0649,0.02228 0.13228,0.0416 0.14446,0.04259 0.008,0.0015 0.0186,-0.07135 0.0186,-0.160727 z m -0.37776,-0.05282 c 0.028,-0.120587 -0.005,-0.152767 -0.15569,-0.152767 -0.12226,0 -0.13506,0.0081 -0.13506,0.07865 0,0.05932 0.028,0.08792 0.098,0.11393 0.15001,0.05282 0.17224,0.04909 0.19167,-0.03982 z m -0.38239,-0.08142 c 0,-0.04808 -0.0277,-0.06664 -0.12951,-0.08143 -0.14904,-0.02229 -0.22962,0.02956 -0.0953,0.0611 0.046,0.01149 0.1148,0.03427 0.14919,0.05005 0.037,0.01627 0.0649,0.02956 0.0649,0.0315 0.003,0.0015 0.007,-0.02601 0.007,-0.06014 z m -2.42914,-1.392019 c 0,-0.0065 0.0187,-0.0676 0.0462,-0.13424 0.046,-0.113757 0.046,-0.121561 -0.008,-0.121561 -0.0279,0 -0.074,0.0195 -0.10819,0.04355 -0.0462,0.03707 -0.0462,0.05655 -0.0187,0.134239 0.028,0.07509 0.0833,0.125788 0.0833,0.07783 z m 8.83597,-0.505536 c 0,-0.04259 -0.0187,-0.08792 -0.046,-0.09945 -0.0649,-0.02956 -0.0739,-0.01149 -0.037,0.10905 0.037,0.1175 0.0834,0.11197 0.0834,-0.0096 z m -4.38081,1.369612 c -0.008,-0.013 -0.0187,-0.151144 -0.0187,-0.306469 0,-0.207489 0.008,-0.278603 0.037,-0.268611 0.0462,0.01754 0.074,0.137328 0.0835,0.32926 0.003,0.150163 -0.0557,0.293499 -0.0966,0.24582 z"
       id="path1-6"
       inkscape:export-filename="icon_shapeup_24.svg"
       inkscape:export-xdpi="96"
       inkscape:export-ydpi="96" /></g></svg>
