<?xml version="1.0" encoding="UTF-8" standalone="no"?>
<!-- Created with Inkscape (http://www.inkscape.org/) -->

<svg
   width="10.054159mm"
   height="22.249802mm"
   viewBox="0 0 10.054159 22.249802"
   version="1.1"
   id="svg1"
   xml:space="preserve"
   inkscape:export-filename="ビットマップ.svg"
   inkscape:export-xdpi="96"
   inkscape:export-ydpi="96"
   xmlns:inkscape="http://www.inkscape.org/namespaces/inkscape"
   xmlns:sodipodi="http://sodipodi.sourceforge.net/DTD/sodipodi-0.dtd"
   xmlns="http://www.w3.org/2000/svg"
   xmlns:svg="http://www.w3.org/2000/svg"><sodipodi:namedview
     id="namedview1"
     pagecolor="#ffffff"
     bordercolor="#111111"
     borderopacity="1"
     inkscape:showpageshadow="0"
     inkscape:pageopacity="0"
     inkscape:pagecheckerboard="1"
     inkscape:deskcolor="#d1d1d1"
     inkscape:document-units="mm"><inkscape:page
       x="-3.6784334e-22"
       y="6.3005513e-23"
       width="10.054158"
       height="22.249804"
       id="page2"
       margin="0"
       bleed="0" /></sodipodi:namedview><defs
     id="defs1" /><g
     inkscape:label="Layer 1"
     inkscape:groupmode="layer"
     id="layer1"
     transform="translate(-110.30117,-26.300102)"><path
       style="fill:#000000;stroke:#000000;stroke-width:0.23731;stroke-dasharray:none;stroke-opacity:1"
       d="m 111.9527,48.330903 c -0.29907,-0.129333 -0.46343,-0.273482 -0.59545,-0.524734 -0.20613,-0.386917 -0.20748,-0.333434 0.18456,-4.99315 0.2654,-3.161697 0.3853,-6.044007 0.29099,-7.050895 -0.0674,-0.729104 -0.18995,-0.99922 -0.66686,-1.478824 -0.454,-0.4567 -0.64531,-0.859514 -0.72075,-1.521206 -0.0674,-0.549524 0.007,-2.322132 0.16436,-4.197222 0.14819,-1.764445 0.17648,-1.95708 0.29234,-2.061596 0.12124,-0.11586 0.20208,-0.107777 0.33007,0.03502 l 0.10778,0.119901 v 2.436564 c 0,2.30862 0.004,2.442491 0.0808,2.549405 0.0674,0.08487 0.12124,0.111818 0.25192,0.107776 0.29504,-0.0092 0.30985,-0.06332 0.34354,-1.218005 0.12124,-4.203501 0.10777,-4.025778 0.3597,-4.095186 0.13607,-0.03637 0.31929,0.08353 0.37048,0.238994 0.0135,0.05928 0.0539,1.139195 0.0943,2.400608 0.0269,1.261384 0.0673,2.337287 0.0808,2.39096 0.0404,0.1781 0.15357,0.268362 0.32332,0.268362 0.32334,0 0.30985,0.11586 0.30985,-2.628782 v -2.450332 l 0.10779,-0.119901 c 0.0539,-0.06601 0.14011,-0.119901 0.17918,-0.119901 0.0808,0 0.2883,0.213667 0.2883,0.302717 0,0.03503 0.0404,0.4695 0.0808,0.965944 0.16031,1.673939 0.22498,2.65392 0.25058,3.830419 0.0404,1.715662 -0.0269,1.962455 -0.76521,2.81467 -0.63453,0.734627 -0.61029,0.625236 -0.60894,2.845547 0.002,2.042748 0.0135,2.273282 0.51329,8.845543 0.0943,1.221506 0.0943,1.294793 0.0269,1.544337 -0.19535,0.683301 -1.00367,1.052437 -1.67081,0.763863 z m 1.01849,-0.278467 c 0.29773,-0.16328 0.4567,-0.417229 0.48095,-0.765481 0.01,-0.139301 -0.0943,-1.713425 -0.22767,-3.498104 -0.33411,-4.429602 -0.35432,-4.812475 -0.35566,-6.709322 -0.002,-1.598281 0.002,-1.67211 0.0943,-2.016427 0.0943,-0.331277 0.13607,-0.39446 0.54427,-0.865039 0.66283,-0.760765 0.7477,-1.024681 0.7477,-2.309711 -9.3e-4,-1.070217 -0.22229,-4.277811 -0.34489,-5.007025 -0.0943,-0.531606 -0.12124,-0.04446 -0.1401,2.305534 -0.0121,1.362009 -0.0404,2.515618 -0.0539,2.563578 -0.0943,0.204236 -0.50521,0.298406 -0.75848,0.171635 -0.26136,-0.132026 -0.26136,-0.141188 -0.3341,-3.113386 -0.0404,-1.619767 -0.0539,-2.039219 -0.10778,-2.096085 -0.1482,-0.169343 -0.16302,-0.0019 -0.22634,2.350343 -0.0269,1.269064 -0.0674,2.382151 -0.0808,2.473409 -0.0129,0.09161 -0.0808,0.228486 -0.14819,0.305007 -0.10778,0.118554 -0.16031,0.139031 -0.36239,0.139031 -0.2654,0 -0.39743,-0.07814 -0.49848,-0.293285 -0.0539,-0.119901 -0.0674,-0.509244 -0.0674,-2.558782 0,-2.008005 -0.0102,-2.417784 -0.0539,-2.417784 -0.0674,0 -0.0674,0.0054 -0.20342,1.463857 -0.13607,1.425717 -0.22229,2.960356 -0.22229,3.78161 3.1e-4,1.18527 0.13606,1.608561 0.69516,2.162529 0.68033,0.675083 0.73826,0.903702 0.73287,2.887756 -0.005,1.925784 -0.10778,3.616443 -0.48364,7.856006 -0.0674,0.738 -0.12125,1.639641 -0.12125,2.003573 -0.004,0.639788 -2.7e-4,0.668212 0.10777,0.860056 0.1711,0.285877 0.49577,0.45441 0.87569,0.45441 0.22633,0 0.34354,-0.02828 0.52406,-0.127984 z m 5.6243,0.302448 c -0.29503,-0.106431 -0.51463,-0.300158 -0.65339,-0.579027 -0.12125,-0.236571 -0.12125,-0.2879 -0.12125,-0.742041 0.004,-0.268361 0.0539,-1.0589 0.0943,-1.756616 0.2627,-3.617576 0.35835,-5.145639 0.36105,-5.7537 0.002,-0.574176 -0.0269,-0.628605 -0.45266,-0.949373 -0.48769,-0.364418 -0.53754,-0.502237 -0.61567,-1.762842 -0.0943,-1.476009 -0.002,-3.986384 0.20477,-5.61142 0.30582,-2.402749 0.89724,-4.222576 1.50132,-4.613549 0.3597,-0.232931 0.62915,-0.167187 0.81102,0.1975 0.0674,0.133374 0.0674,0.70095 0.0808,6.587443 0.002,6.718267 0,6.587753 0.21825,9.954182 0.27886,4.316585 0.27886,4.173296 0.0269,4.588557 -0.25597,0.410763 -0.94844,0.621465 -1.44919,0.441075 z m 0.96999,-0.309453 c 0.19535,-0.111817 0.25866,-0.181871 0.3624,-0.402545 0.12125,-0.265264 0.12125,-0.273345 0.0943,-0.901951 -0.0135,-0.348927 -0.0539,-1.040578 -0.0943,-1.537036 -0.31659,-4.443181 -0.33006,-4.95536 -0.33006,-11.915021 -3.1e-4,-4.191012 -0.0135,-6.274043 -0.0404,-6.363781 -0.20208,-0.584416 -0.77194,-0.130678 -1.17071,0.93213 -0.47153,1.252764 -0.7989,3.104224 -0.94978,5.375257 -0.0539,0.882415 -0.0269,3.854303 0.0404,4.324264 0.0674,0.426657 0.1657,0.594788 0.51328,0.853991 0.40282,0.300693 0.5079,0.513552 0.50655,1.033573 -9.3e-4,0.484722 -0.0943,1.93985 -0.31256,5.136465 -0.0943,1.44191 -0.16975,2.694969 -0.15492,2.784574 0.12124,0.688016 0.90667,1.038019 1.53473,0.680201 z"
       id="path1-4" /></g></svg>
