<?xml version="1.0" encoding="UTF-8" standalone="no"?>
<!-- Created with Inkscape (http://www.inkscape.org/) -->

<svg
   width="4.7812648mm"
   height="13.328596mm"
   viewBox="0 0 4.7812648 13.328596"
   version="1.1"
   id="svg1"
   xml:space="preserve"
   inkscape:export-filename="ビットマップ.svg"
   inkscape:export-xdpi="96"
   inkscape:export-ydpi="96"
   xmlns:inkscape="http://www.inkscape.org/namespaces/inkscape"
   xmlns:sodipodi="http://sodipodi.sourceforge.net/DTD/sodipodi-0.dtd"
   xmlns="http://www.w3.org/2000/svg"
   xmlns:svg="http://www.w3.org/2000/svg"><sodipodi:namedview
     id="namedview1"
     pagecolor="#ffffff"
     bordercolor="#111111"
     borderopacity="1"
     inkscape:showpageshadow="0"
     inkscape:pageopacity="0"
     inkscape:pagecheckerboard="1"
     inkscape:deskcolor="#d1d1d1"
     inkscape:document-units="mm"><inkscape:page
       x="0"
       y="0"
       width="4.7812648"
       height="13.328596"
       id="page2"
       margin="0"
       bleed="0" /></sodipodi:namedview><defs
     id="defs1" /><g
     inkscape:label="Layer 1"
     inkscape:groupmode="layer"
     id="layer1"
     transform="translate(-180.79108,118.62176)"><path
       style="fill:#000000;stroke:#000000;stroke-width:0.258;stroke-linecap:round;stroke-linejoin:round;stroke-dasharray:none;stroke-opacity:1"
       d="m 181.56964,-105.45842 c -0.0159,-0.0501 0.0477,-0.26576 0.25042,-0.84287 0.28064,-0.79588 0.34662,-1.11888 0.34582,-1.69727 -7e-4,-0.44241 -0.0397,-0.77432 -0.19079,-1.71091 -0.0803,-0.48765 -0.18285,-1.20988 -0.18285,-1.28194 0,-0.006 -0.0636,-0.0501 -0.14151,-0.0991 -0.27745,-0.17283 -0.40386,-0.36824 -0.47143,-0.72988 -0.0239,-0.1152 -0.089,-0.3649 -0.14946,-0.55491 -0.10971,-0.34169 -0.11051,-0.34979 -0.10971,-0.73425 0.001,-0.47708 0.0318,-0.62113 0.27348,-1.26695 0.24485,-0.6542 0.28222,-0.84103 0.32515,-1.59808 0.0557,-0.93171 0.29892,-1.60791 0.76399,-2.09188 0.37603,-0.39201 0.74252,-0.49385 1.38774,-0.38581 0.42691,0.0716 0.87887,0.25599 1.01211,0.41324 0.0397,0.0453 0.11448,0.10565 0.16854,0.13388 0.14389,0.0755 0.34502,0.33294 0.4118,0.52692 0.12323,0.35957 0.0557,0.7907 -0.17171,1.06812 -0.16536,0.20313 -0.15344,0.35227 0.0556,0.67082 0.0477,0.0771 0.0906,0.16361 0.0906,0.19247 0,0.0564 -0.0803,0.14954 -0.17649,0.20392 -0.0398,0.0215 -0.0557,0.0596 -0.0557,0.10581 0,0.0397 -0.0159,0.10741 -0.0397,0.15017 -0.0159,0.0429 -0.0636,0.19716 -0.0946,0.34312 -0.0397,0.18047 -0.0803,0.28517 -0.11845,0.3273 -0.0882,0.0922 -0.25122,0.10073 -0.51675,0.027 -0.12561,-0.035 -0.23134,-0.0588 -0.23611,-0.0533 -0.0811,0.10335 -0.16934,0.48662 -0.17013,0.73815 -7.1e-4,0.21354 0.0239,0.27587 0.24645,0.61048 0.089,0.13459 0.25758,0.40028 0.37285,0.59028 0.11607,0.19 0.35377,0.55936 0.52867,0.82064 0.1749,0.26132 0.35298,0.55721 0.3967,0.65754 0.0716,0.17053 0.0803,0.19867 0.0636,0.43192 -0.008,0.20296 -0.0397,0.33811 -0.1582,0.72464 -0.0803,0.26131 -0.15821,0.56484 -0.1741,0.67455 -0.0159,0.10971 -0.0318,0.46722 -0.0318,0.79452 1.5e-4,0.60372 0.0238,0.93981 0.14468,1.89983 0.0898,0.72384 0.10495,0.93795 0.0636,0.96356 -0.0159,0.0119 -0.0397,0.0135 -0.0477,0.005 -0.0159,-0.0167 -0.12083,-0.88969 -0.21623,-1.7891 -0.0556,-0.55085 -0.0716,-1.49939 -0.0239,-1.87678 0.0159,-0.12386 0.0922,-0.43789 0.17172,-0.69785 0.10812,-0.35353 0.14787,-0.52938 0.15821,-0.698 0.0159,-0.21044 0.008,-0.23731 -0.0636,-0.40569 -0.0477,-0.0991 -0.21227,-0.3746 -0.37126,-0.61214 -0.159,-0.23755 -0.40545,-0.62097 -0.54537,-0.85207 -0.19636,-0.32324 -0.27507,-0.42914 -0.34026,-0.45895 -0.0477,-0.0215 -0.24486,-0.15455 -0.43963,-0.29605 -0.35536,-0.25798 -0.68131,-0.45172 -0.76001,-0.45172 -0.0239,0 -0.17172,0.13928 -0.32913,0.30957 -0.33867,0.36482 -0.44758,0.57319 -0.52867,1.00897 -0.11846,0.63615 -0.0994,1.08839 0.0938,2.30957 0.17887,1.12783 0.18841,1.20006 0.21703,1.61496 0.0477,0.73187 -0.0159,1.12082 -0.36013,2.12107 -0.11369,0.32865 -0.21703,0.6356 -0.22976,0.68211 -0.0239,0.0952 -0.0803,0.12863 -0.10016,0.066 z m 0.21544,-6.05291 c 0.008,-0.66978 0.13118,-1.19116 0.35298,-1.5156 0.0636,-0.0892 0.22578,-0.28223 0.36649,-0.42906 0.28858,-0.30138 0.39194,-0.4514 0.45951,-0.66907 0.0716,-0.23866 0.0859,-0.43478 0.0477,-0.84972 l -0.0318,-0.38692 -0.12402,-0.13714 c -0.29494,-0.32555 -0.21862,-0.87891 0.12084,-0.87891 0.093,0 0.12959,0.0175 0.20352,0.0965 0.0803,0.0844 0.10096,0.0939 0.17808,0.0755 0.47382,-0.11336 0.9357,-0.55402 1.19782,-1.14302 0.0477,-0.10645 0.10096,-0.2001 0.12084,-0.20813 0.0477,-0.0199 0.19874,0.24796 0.2695,0.47692 0.0397,0.12712 0.0557,0.26092 0.0557,0.43327 0.004,0.27849 0.0318,0.29295 0.12561,0.0628 0.11209,-0.27905 0.1105,-0.56802 -0.004,-0.83036 -0.0557,-0.13436 -0.22498,-0.33017 -0.33151,-0.39003 -0.0397,-0.0223 -0.12402,-0.0891 -0.18603,-0.14827 -0.12004,-0.1136 -0.40306,-0.24763 -0.73298,-0.34685 -0.15264,-0.0461 -0.27984,-0.0596 -0.57399,-0.0612 -0.33549,-0.002 -0.39511,0.005 -0.52549,0.0628 -0.18841,0.0836 -0.44997,0.30424 -0.58353,0.49249 -0.37205,0.52542 -0.52866,1.04812 -0.5867,1.96089 -0.0477,0.72353 -0.0811,0.88665 -0.32515,1.52167 -0.2377,0.61835 -0.26235,0.73267 -0.26076,1.21379 0.001,0.41618 0.001,0.41849 0.10732,0.73426 0.0557,0.17418 0.12641,0.41697 0.15026,0.5394 0.0557,0.26974 0.15979,0.45529 0.33707,0.58885 0.0716,0.0525 0.13436,0.0955 0.14311,0.0954 0.008,-3e-5 0.0159,-0.16194 0.0238,-0.35973 z m 2.08384,-1.60507 c -0.10414,-0.15169 -0.14708,-0.29256 -0.14708,-0.49155 0,-0.19509 0.0716,-0.56285 0.14311,-0.70993 l 0.0397,-0.0886 -0.11846,-0.0556 c -0.0636,-0.0318 -0.11845,-0.0755 -0.11845,-0.10016 0,-0.062 0.0397,-0.0556 0.24804,0.0382 0.35774,0.16082 0.65666,0.2148 0.75126,0.13555 0.0318,-0.0238 0.0716,-0.14811 0.1113,-0.31872 0.0318,-0.15359 0.0716,-0.30297 0.0898,-0.33207 0.0159,-0.0294 0.0238,-0.0924 0.0238,-0.14071 0,-0.0708 0.0159,-0.10168 0.10256,-0.15908 0.0556,-0.0389 0.10971,-0.084 0.11845,-0.0998 0.008,-0.0159 -0.0239,-0.0869 -0.0716,-0.15805 -0.0477,-0.0716 -0.1105,-0.19771 -0.13515,-0.28103 -0.0397,-0.1369 -0.0397,-0.18158 -0.0159,-0.46173 0.0159,-0.1706 0.0239,-0.36546 0.0159,-0.43295 -0.0238,-0.17641 -0.11368,-0.45673 -0.16933,-0.5383 l -0.0477,-0.07 -0.0716,0.15638 c -0.26314,0.57852 -0.75445,1.02738 -1.23137,1.12472 -0.13912,0.0286 -0.1415,0.0278 -0.24326,-0.0739 -0.11687,-0.11614 -0.2075,-0.13077 -0.28461,-0.0453 -0.16059,0.17785 -0.0716,0.57598 0.16138,0.7209 0.093,0.058 0.128,0.12784 0.0716,0.14851 -0.0159,0.006 -0.0159,0.0747 0.002,0.19676 0.0397,0.25861 0.0397,0.76526 0.001,0.92142 -0.0397,0.17346 -0.10494,0.33874 -0.17728,0.45871 l -0.0556,0.0988 0.22816,0.11973 c 0.12561,0.066 0.36172,0.21894 0.52549,0.34025 0.16298,0.12132 0.30131,0.21497 0.30767,0.20813 0.006,-0.007 -0.0159,-0.0564 -0.0557,-0.10947 z m -0.67733,7.67333 c -0.0318,-0.058 -0.4452,-1.31431 -0.56127,-1.70988 -0.16774,-0.56611 -0.20352,-0.73894 -0.23611,-1.13355 -0.0239,-0.3312 -0.10574,-1.66396 -0.10574,-1.81493 -8e-5,-0.0692 -0.0159,-0.0936 -0.0716,-0.11813 -0.0636,-0.0278 -0.0715,-0.0469 -0.0906,-0.21211 -0.008,-0.0997 -0.0159,-0.42548 -0.0159,-0.72408 0,-0.4448 0.007,-0.5429 0.0398,-0.5429 0.0556,0 0.0636,0.0692 0.0636,0.55959 0,0.25766 0.007,0.54704 0.0159,0.643 l 0.0159,0.17442 0.17331,0.0382 c 0.22259,0.0501 0.9074,0.0445 1.085,-0.009 l 0.13038,-0.0389 0.007,-0.68608 c 0.005,-0.52788 0.0159,-0.68338 0.0397,-0.67431 0.0477,0.0183 0.0636,0.22196 0.0716,0.84856 l 0.002,0.58234 -0.0715,0.0413 -0.0716,0.0413 -0.0318,0.78704 c -0.0397,1.07305 -0.0477,1.03676 0.0715,1.51632 0.0557,0.23238 0.14628,0.66867 0.19717,0.96956 0.0477,0.30091 0.1264,0.74761 0.16774,0.99266 0.0477,0.2897 0.0636,0.45537 0.0477,0.47366 -0.0557,0.058 -0.0827,-0.0445 -0.17252,-0.57701 -0.19079,-1.14068 -0.24962,-1.44953 -0.35377,-1.86836 l -0.10812,-0.43192 0.0318,-0.82063 c 0.0159,-0.45132 0.0397,-0.87116 0.0477,-0.93292 l 0.0159,-0.11225 -0.10097,0.0191 c -0.20988,0.0405 -0.62964,0.0517 -0.81693,0.0231 -0.10733,-0.0167 -0.20034,-0.0246 -0.20591,-0.0175 -0.0159,0.0175 0.0397,1.15862 0.0898,1.72625 0.0239,0.27483 0.0636,0.56524 0.10175,0.71986 0.0803,0.31578 0.3188,1.10148 0.53265,1.7406 0.0875,0.26052 0.15821,0.49051 0.15821,0.5111 0,0.0397 -0.0636,0.0525 -0.0867,0.0159 z"
       id="path1-38" /></g></svg>
