<?xml version="1.0" encoding="UTF-8" standalone="no"?>
<!-- Created with Inkscape (http://www.inkscape.org/) -->

<svg
   width="14.552123mm"
   height="19.60491mm"
   viewBox="0 0 14.552123 19.60491"
   version="1.1"
   id="svg1"
   xml:space="preserve"
   inkscape:export-filename="ビットマップ.svg"
   inkscape:export-xdpi="96"
   inkscape:export-ydpi="96"
   xmlns:inkscape="http://www.inkscape.org/namespaces/inkscape"
   xmlns:sodipodi="http://sodipodi.sourceforge.net/DTD/sodipodi-0.dtd"
   xmlns="http://www.w3.org/2000/svg"
   xmlns:svg="http://www.w3.org/2000/svg"><sodipodi:namedview
     id="namedview1"
     pagecolor="#ffffff"
     bordercolor="#111111"
     borderopacity="1"
     inkscape:showpageshadow="0"
     inkscape:pageopacity="0"
     inkscape:pagecheckerboard="1"
     inkscape:deskcolor="#d1d1d1"
     inkscape:document-units="mm"><inkscape:page
       x="0"
       y="0"
       width="14.552123"
       height="19.60491"
       id="page2"
       margin="0"
       bleed="0" /></sodipodi:namedview><defs
     id="defs1" /><g
     inkscape:label="Layer 1"
     inkscape:groupmode="layer"
     id="layer1"
     transform="translate(-54.28606,131.14746)"><path
       style="fill:#000000;stroke:#000000;stroke-width:0.222695;stroke-dasharray:none;stroke-opacity:1"
       d="m 57.026354,-112.39987 c -0.723405,-0.4083 -1.605911,-0.90773 -1.962586,-1.10988 l -0.648605,-0.36746 -0.0088,-2.79067 -0.0087,-2.79071 0.885817,-0.27482 c 0.48618,-0.1512 1.038616,-0.32142 1.226678,-0.37825 0.18806,-0.0567 0.341929,-0.11625 0.341929,-0.13197 0,-0.0299 -0.468015,-0.95176 -1.45887,-2.87349 -0.31522,-0.61195 -0.573808,-1.12762 -0.573808,-1.14599 0,-0.0182 0.09617,-0.0886 0.209434,-0.15697 l 0.209436,-0.12353 -0.0855,-0.18989 -0.0855,-0.18987 0.149594,-0.0951 c 0.0855,-0.0524 0.192335,-0.11696 0.24576,-0.14319 0.11541,-0.0577 0.116451,-0.0716 0.02141,-0.27365 -0.04275,-0.0866 -0.06414,-0.1714 -0.04275,-0.18785 0.01058,-0.016 0.383607,-0.21681 0.817432,-0.44505 0.433827,-0.22823 0.792855,-0.41929 0.798199,-0.42442 0.0053,-0.005 -0.0053,-0.0534 -0.02141,-0.1078 -0.04275,-0.12384 -0.0031,-0.16519 0.340862,-0.35454 0.141042,-0.078 0.26393,-0.16542 0.274615,-0.19512 0.01026,-0.0299 -0.0065,-0.11373 -0.04275,-0.18657 -0.04274,-0.0993 -0.08549,-0.14403 -0.195548,-0.17845 -0.07483,-0.0256 -0.164557,-0.0886 -0.194476,-0.13997 -0.05342,-0.0865 -0.05342,-0.10471 0.0088,-0.23967 0.138885,-0.31073 0.615472,-0.4848 0.792854,-0.28895 0.06414,0.077 0.07484,0.0972 0.03203,0.25827 -0.05342,0.24204 -0.05342,0.29323 0.04275,0.42091 l 0.07483,0.11132 0.281025,-0.15973 c 0.268199,-0.15216 0.396428,-0.19447 0.399638,-0.13081 6.94e-4,0.0161 0.02141,0.0599 0.04274,0.0972 0.04275,0.063 0.107933,0.0385 0.809952,-0.33948 0.419938,-0.22407 0.766139,-0.40263 0.771483,-0.39687 0.0048,0.005 0.06414,0.12696 0.126091,0.26929 l 0.117492,0.25868 0.228673,-0.16754 c 0.125046,-0.0919 0.303462,-0.19576 0.396425,-0.23037 0.09619,-0.0341 0.600516,-0.12327 1.125808,-0.19716 1.41678,-0.19906 1.72035,-0.28059 2.389146,-0.64153 0.430627,-0.23188 1.364098,-0.8931 2.283038,-1.61575 0.482983,-0.37975 0.590901,-0.44611 0.559914,-0.34749 -0.02141,0.0546 -0.750113,0.6314 -1.586242,1.2471 -1.411647,1.03947 -1.824532,1.20388 -3.654832,1.45521 -0.457332,0.063 -0.907186,0.13386 -1.001213,0.15826 -0.181657,0.047 -0.689215,0.39675 -0.687074,0.47283 6.95e-4,0.0245 0.08549,0.26328 0.186998,0.52935 l 0.184853,0.48383 0.211572,0.0114 c 0.162426,0.008 0.274616,0.0459 0.478704,0.15996 0.264997,0.14691 0.268203,0.14757 0.268203,0.0588 0,-0.12568 -0.06414,-0.29267 -0.145314,-0.39065 -0.06414,-0.0812 -0.04276,-0.16413 0.04274,-0.11018 0.08549,0.0567 0.188067,0.35583 0.188067,0.54143 0.0018,0.33157 -0.108999,0.51781 -0.689211,1.16107 -0.533201,0.59046 -0.655006,0.75428 -0.796054,1.06426 l -0.07484,0.17417 0.09617,-0.10566 c 0.146383,-0.15164 0.293843,-0.17471 0.447716,-0.0695 0.06414,0.0471 0.123922,0.0962 0.125047,0.11091 1.04e-4,0.0137 0.01058,0.0502 0.03207,0.0791 0.02141,0.0406 0.09622,-0.0128 0.323769,-0.22792 0.712713,-0.6826 0.989464,-0.85654 1.872078,-1.17858 0.778964,-0.28391 0.992672,-0.41565 1.456524,-0.89864 0.581282,-0.60522 0.869786,-0.79531 1.881055,-1.24666 0.63471,-0.28274 1.758065,-0.73889 1.820359,-0.73901 0.09617,-2e-5 0.03207,0.0695 -0.107931,0.1279 -0.08552,0.0331 -0.488323,0.20013 -0.903986,0.37015 -1.496168,0.61313 -1.982029,0.89447 -2.519186,1.45911 -0.573805,0.60319 -0.723397,0.69776 -1.617554,1.02472 -0.573803,0.20975 -0.871926,0.34653 -0.930695,0.42742 -0.02141,0.0299 -0.07483,0.18443 -0.117491,0.34322 -0.04274,0.15868 -0.115408,0.3838 -0.162426,0.50028 l -0.08549,0.21179 0.275682,0.56397 c 0.215844,0.44099 0.736223,1.43816 0.945658,1.81434 0.01058,0.0277 0.53961,0.26457 1.164707,0.52614 0.625092,0.26159 1.27049,0.53491 1.434189,0.60736 l 0.298125,0.13175 0.0088,2.81229 0.0087,2.81228 -0.377188,0.13637 c -0.207304,0.0748 -1.079015,0.38851 -1.9363,0.69657 -0.856972,0.30817 -2.484032,0.89265 -3.614122,1.29888 -1.130192,0.40627 -2.068475,0.73742 -2.084931,0.73591 -0.02141,-0.002 -0.621891,-0.33691 -1.344435,-0.74519 z m 4.625484,-0.53021 c 1.435902,-0.51418 3.059973,-1.09678 3.609305,-1.2947 l 0.999086,-0.35977 0.0089,-2.7355 c 0.0084,-2.59353 0.0058,-2.73444 -0.05342,-2.71579 -2.036318,0.65074 -2.97385,0.95324 -4.266675,1.3767 -0.597313,0.19577 -1.621398,0.52989 -2.275665,0.74265 -0.653948,0.21273 -1.202105,0.39534 -1.217707,0.40604 -0.01058,0.011 -0.0321,1.30579 -0.0321,2.87818 v 2.85893 l 0.30667,-0.11089 c 0.168835,-0.0609 1.481422,-0.53161 2.917329,-1.04578 z m -3.329993,-1.73086 -6.95e-4,-2.85426 -1.882543,-0.90026 c -1.035421,-0.49505 -1.89431,-0.90002 -1.908842,-0.8998 -0.01058,1.3e-4 -0.02138,1.20941 -0.02138,2.68712 v 2.68678 l 1.708274,0.96691 c 2.187082,1.238 2.054366,1.16379 2.084926,1.16589 0.01058,9.7e-4 0.02138,-1.28263 0.02138,-2.85247 z m 1.210442,-3.31498 c 2.233994,-0.72543 2.698057,-0.88039 2.715261,-0.90625 0.0093,-0.0148 0.01058,-0.27012 0.0071,-0.56813 l -0.01047,-0.54186 -0.917877,0.5036 c -2.076176,1.13889 -2.667933,1.44454 -2.727979,1.40904 -0.04276,-0.0245 -0.114356,0.003 -0.261797,0.10037 -0.111118,0.0737 -0.213707,0.13486 -0.227595,0.13486 -0.01058,0 -0.07484,-0.0919 -0.128187,-0.20324 -0.05343,-0.11172 -0.301327,-0.59507 -0.543884,-1.07397 -0.242559,-0.47892 -0.461606,-0.90122 -0.486185,-0.93828 -0.05344,-0.0759 0.07484,-0.10682 -1.583148,0.40389 -0.731948,0.22579 -0.761866,0.23914 -0.673178,0.29087 0.05345,0.0299 0.546022,0.26969 1.099742,0.5332 0.553504,0.26349 1.352978,0.64518 1.776976,0.8482 0.424211,0.20302 0.787511,0.36971 0.806742,0.37035 0.02141,4.8e-4 0.539616,-0.16263 1.156477,-0.36277 z m -1.318794,-0.0364 c 0.03207,-0.0406 -2.16e-4,-0.13593 -0.133549,-0.41608 -0.317353,-0.6657 -2.770393,-5.9361 -2.782366,-5.9754 -0.01058,-0.0341 -0.37399,0.12516 -0.37399,0.16401 0,0.008 0.288509,0.57584 0.641122,1.2609 0.35262,0.68504 0.792859,1.54159 0.976649,1.90344 0.183784,0.3618 0.539613,1.0585 0.790717,1.54807 0.251109,0.48962 0.532128,1.04257 0.625094,1.22879 0.09621,0.18625 0.180581,0.33862 0.193407,0.33862 0.01058,0 0.04275,-0.0235 0.06414,-0.0524 z m 0.27889,-0.20088 c 0.0058,-0.005 -0.185922,-0.45188 -0.426348,-0.99129 -0.480841,-1.07906 -0.895435,-2.07172 -1.762766,-4.22495 -0.515036,-1.27819 -0.665698,-1.64427 -0.697755,-1.68316 -0.0053,-0.006 -0.107931,0.0417 -0.224394,0.1078 l -0.214777,0.12 0.259656,0.5502 c 0.143195,0.30261 0.445582,0.95078 0.67211,1.44034 0.227596,0.48959 0.778963,1.67385 1.225937,2.63171 0.447716,0.95785 0.855895,1.83337 0.907185,1.94557 0.08552,0.18924 0.09619,0.20079 0.170966,0.15921 0.04275,-0.0245 0.08549,-0.0492 0.08549,-0.0555 z m 3.069591,-1.52789 c 1.135643,-0.61708 2.072005,-1.12979 2.080763,-1.13943 0.0085,-0.008 -0.108988,-0.24032 -0.26286,-0.51258 -0.456266,-0.80984 -1.092152,-2.06716 -1.31377,-2.59657 -0.08546,-0.19865 -0.149598,-0.31118 -0.173101,-0.29504 -0.02141,0.0148 -0.197681,0.18252 -0.393218,0.37356 -0.511833,0.49955 -0.668908,0.5753 -0.847355,0.40584 -0.06414,-0.0653 -0.09616,-0.13709 -0.112173,-0.27227 -0.01058,-0.15793 -1.04e-4,-0.22515 0.111104,-0.47528 0.09618,-0.22547 0.212641,-0.38478 0.494733,-0.70491 0.199819,-0.22749 0.364372,-0.42603 0.365437,-0.44131 2.19e-4,-0.0148 -0.02141,-0.0844 -0.05344,-0.15483 -0.0321,-0.0695 -0.215847,-0.57123 -0.416733,-1.11398 -0.199815,-0.54282 -0.414594,-1.11151 -0.476568,-1.26381 l -0.112174,-0.27685 -0.513968,0.26969 c -0.820636,0.43062 -0.951002,0.50552 -0.951002,0.54196 0,0.063 0.252178,0.59251 0.321631,0.67724 0.04275,0.0459 0.06414,0.11561 0.05342,0.15482 -0.01058,0.0694 -0.360094,0.28926 -0.432757,0.27302 -0.02141,-0.004 -0.0855,0.0289 -0.139965,0.0737 -0.211572,0.16542 -0.688138,0.40509 -0.755464,0.38106 -0.04274,-0.016 -0.06414,-0.005 -0.06414,0.0364 0,0.0341 -0.08552,0.11028 -0.212637,0.17887 -0.227601,0.12661 -0.312014,0.1133 -0.312014,-0.0492 0,-0.0726 -0.303465,-0.72694 -0.337663,-0.72694 -0.01058,0 -0.714855,0.36106 -1.385466,0.71411 l -0.197674,0.10365 0.279953,0.68429 c 0.15493,0.37632 0.3633,0.89329 0.464813,1.14868 0.27675,0.6968 0.754387,1.87102 0.991605,2.43822 0.115406,0.27675 0.301327,0.72084 0.411384,0.98691 0.348344,0.83752 0.863378,1.95806 0.97237,2.11682 0.02141,0.0341 0.138902,-0.0148 0.441308,-0.18454 0.225462,-0.12696 1.338129,-0.73559 2.473884,-1.35268 z m 1.842481,0.50264 c 1.642022,-0.52507 2.645805,-0.85835 2.674763,-0.88827 0.03207,-0.031 -0.07483,-0.0791 -1.325736,-0.60062 -0.42421,-0.17675 -0.853759,-0.35785 -0.95741,-0.40241 -0.09621,-0.0448 -0.193407,-0.0812 -0.204091,-0.0812 -0.01058,0 0.03207,0.0726 0.08549,0.1606 0.05344,0.0886 0.09618,0.17609 0.08554,0.1949 -0.01058,0.0192 -0.333385,0.20794 -0.716987,0.42005 l -0.698827,0.38584 v 0.57829 0.57829 l 0.09618,-0.0352 c 0.05344,-0.0192 0.481913,-0.1591 0.954207,-0.31008 z m -2.291162,-4.46298 0.168839,-0.16851 -0.06414,-0.10366 c -0.133548,-0.22651 -0.364373,-0.19169 -0.516107,0.078 -0.0855,0.14757 -0.0855,0.201 -0.0093,0.29235 0.09622,0.11949 0.234011,0.0877 0.419939,-0.0972 z m 1.258421,-0.69369 c 0.05342,-0.16552 0.08549,-0.31127 0.07483,-0.32388 -0.02141,-0.0236 -0.33445,0.21467 -0.402838,0.30645 -0.03207,0.0374 -0.01058,0.10956 0.05344,0.27451 0.08549,0.21595 0.09622,0.22098 0.133549,0.13416 0.02141,-0.0492 0.08554,-0.22566 0.138901,-0.39118 z m -0.612272,-1.21673 c 0.151738,-0.1902 0.313081,-0.47561 0.313081,-0.55073 -6.93e-4,-0.17459 -0.774693,-0.50114 -0.852699,-0.36009 -0.02141,0.0352 0.195545,0.62894 0.22867,0.62894 0.01058,0 0.05344,-0.0609 0.09622,-0.13552 0.04275,-0.0748 0.09618,-0.13552 0.127133,-0.13552 0.05342,0 0.05342,0.0128 -0.09622,0.25911 -0.0962,0.16051 -0.0962,0.16393 -0.04274,0.29994 0.03207,0.076 0.07483,0.13761 0.08551,0.13761 0.01058,0 0.07484,-0.0653 0.139941,-0.14382 z m -4.004458,-0.11218 c 0.111114,-0.0716 0.143195,-0.11026 0.110045,-0.13249 -0.05342,-0.0374 -0.312012,0.11458 -0.313077,0.18529 -1.07e-4,0.0683 0.02138,0.0619 0.201954,-0.0523 z m 0.04274,-0.37056 c 0,-0.12244 -0.09619,-0.89063 -0.118644,-0.91136 -0.01026,-0.0114 -0.542816,0.28402 -0.575945,0.32013 -0.01058,0.0138 0.331248,0.73622 0.390016,0.82097 0.02141,0.0374 0.06414,0.0299 0.169905,-0.0364 0.107931,-0.0673 0.136781,-0.10703 0.136781,-0.19363 z m 0.649674,-0.0182 c 0.323765,-0.17578 0.461607,-0.30176 0.199816,-0.18102 -0.200886,0.093 -0.604792,0.3211 -0.604792,0.34237 0,0.0448 0.09622,0.007 0.404976,-0.16134 z m -0.0855,-0.12464 c 0.241491,-0.13529 0.442376,-0.25025 0.447717,-0.25558 0.0052,-0.005 -0.145315,-0.17824 -0.333383,-0.38425 l -0.342999,-0.37452 -0.168836,0.0866 c -0.09622,0.0482 -0.175238,0.0972 -0.182719,0.11101 -0.0074,0.0128 0.009,0.17962 0.03207,0.3695 0.0321,0.18999 0.05344,0.42955 0.05344,0.53234 1.07e-4,0.1026 0.01058,0.18101 0.02141,0.17375 0.01058,-0.007 0.224394,-0.12399 0.464816,-0.25922 z m 0.787514,-0.2448 c 0.180588,-0.0972 0.209431,-0.16798 0.05344,-0.13355 -0.131451,0.0288 -0.286365,0.13848 -0.260725,0.18422 0.02141,0.0459 0.02141,0.0459 0.206229,-0.0502 z m -0.107921,-0.17364 c 0.06414,-0.0364 0.123992,-0.079 0.123992,-0.0962 0,-0.0823 -0.371855,-0.84479 -0.411388,-0.84479 -0.06414,0 -0.45413,0.2215 -0.484052,0.27557 -0.01058,0.0277 0.09618,0.17899 0.289576,0.38788 0.174168,0.1886 0.3259,0.3428 0.337657,0.3428 0.01058,0 0.07483,-0.0288 0.145315,-0.0653 z m -1.136271,-0.59345 c 0.07482,-0.0428 0.137841,-0.094 0.137841,-0.11391 0,-0.0192 -0.03207,-0.0993 -0.07484,-0.17728 -0.07483,-0.13594 -0.07483,-0.14917 -0.02141,-0.33178 0.05344,-0.16818 0.05344,-0.19683 0.0035,-0.24769 -0.114352,-0.12643 -0.453061,-0.0148 -0.606929,0.20045 -0.107932,0.15014 -0.0855,0.24705 0.08552,0.30924 0.183785,0.0705 0.223324,0.11273 0.271408,0.28893 0.02141,0.0823 0.04275,0.15024 0.05345,0.15024 0.0074,0 0.07483,-0.0352 0.152797,-0.078 z"
       id="path1-89"
       inkscape:export-filename="icon_clean_24.svg"
       inkscape:export-xdpi="96"
       inkscape:export-ydpi="96" /></g></svg>
