<svg width="24" height="24" viewBox="0 0 24 24" fill="none" xmlns="http://www.w3.org/2000/svg">
  <path d="M12 8C9.79086 8 8 9.79086 8 12C8 14.2091 9.79086 16 12 16C14.2091 16 16 14.2091 16 12C16 9.79086 14.2091 8 12 8Z" stroke="#3F4342" stroke-width="1"/>
  <path d="M13.5 2H10.5L10 5.5C9.5 5.7 9 5.9 8.6 6.2L5.5 4.5L3.5 7.5L6.2 9.8C6.1 10.2 6 10.6 6 11V13C6 13.4 6.1 13.8 6.2 14.2L3.5 16.5L5.5 19.5L8.6 17.8C9 18.1 9.5 18.3 10 18.5L10.5 22H13.5L14 18.5C14.5 18.3 15 18.1 15.4 17.8L18.5 19.5L20.5 16.5L17.8 14.2C17.9 13.8 18 13.4 18 13V11C18 10.6 17.9 10.2 17.8 9.8L20.5 7.5L18.5 4.5L15.4 6.2C15 5.9 14.5 5.7 14 5.5L13.5 2Z" stroke="#3F4342" stroke-width="1" stroke-linejoin="round"/>
</svg>